<svg width="37" height="37" viewBox="0 0 37 37" fill="none" xmlns="http://www.w3.org/2000/svg">
<path d="M10.87 33.6201C10.7 33.8701 10.36 33.9401 10.11 33.7701C9.86001 33.6001 9.79001 33.2601 9.96001 33.0101C10 32.9501 10.07 32.8101 10.15 32.6301C10.45 31.8701 10.45 31.0901 9.96001 30.3501C9.24001 29.2701 9.24001 28.1201 9.66001 27.0601C9.77001 26.7901 9.88001 26.6001 9.96001 26.4701C10.13 26.2201 10.47 26.1501 10.72 26.3201C10.97 26.4901 11.04 26.8301 10.87 27.0801C10.83 27.1401 10.76 27.2801 10.68 27.4601C10.38 28.2201 10.38 29.0001 10.87 29.7401C11.59 30.8201 11.59 31.9701 11.17 33.0301C11.06 33.3001 10.95 33.4901 10.87 33.6201ZM26.13 33.6201C25.96 33.8701 25.62 33.9401 25.37 33.7701C25.12 33.6001 25.05 33.2601 25.22 33.0101C25.26 32.9501 25.33 32.8101 25.41 32.6301C25.71 31.8701 25.71 31.0901 25.22 30.3501C24.5 29.2701 24.5 28.1201 24.93 27.0601C25.04 26.7901 25.14 26.6001 25.22 26.4701C25.39 26.2201 25.73 26.1501 25.98 26.3201C26.23 26.4901 26.3 26.8301 26.13 27.0801C26.09 27.1401 26.02 27.2801 25.94 27.4601C25.64 28.2201 25.64 29.0001 26.13 29.7401C26.85 30.8201 26.85 31.9701 26.43 33.0301C26.32 33.3001 26.21 33.4901 26.13 33.6201ZM18.48 35.8201C18.3 36.0601 17.96 36.1101 17.72 35.9301C17.48 35.7501 17.43 35.4101 17.61 35.1701C17.68 35.0801 17.79 34.8901 17.91 34.6301C18.38 33.5801 18.38 32.5001 17.61 31.4601C16.57 30.0701 16.57 28.5701 17.19 27.1901C17.35 26.8501 17.5 26.5901 17.61 26.4401C17.79 26.2001 18.13 26.1501 18.37 26.3301C18.61 26.5101 18.66 26.8501 18.48 27.0901C18.41 27.1801 18.3 27.3701 18.18 27.6301C17.71 28.6801 17.71 29.7601 18.48 30.7901C19.52 32.1801 19.52 33.6801 18.9 35.0601C18.75 35.4001 18.59 35.6601 18.48 35.8101M1.15001 21.8701H34.95V16.4201H1.15001V21.8701ZM13.69 5.51007H22.41V1.15007H13.69V5.51007ZM13.36 6.60007L4.16001 15.3301H31.95L22.74 6.60007H13.36ZM33.53 15.3201H35.49C35.79 15.3201 36.04 15.5601 36.04 15.8701V22.4101C36.04 22.7101 35.8 22.9601 35.49 22.9601H0.610007C0.310007 22.9601 0.0700073 22.7201 0.0700073 22.4101V15.8701C0.0700073 15.5701 0.310007 15.3201 0.610007 15.3201H2.57001L12.6 5.83007V0.610068C12.6 0.310068 12.84 0.0700684 13.15 0.0700684H22.96C23.26 0.0700684 23.51 0.310068 23.51 0.610068V5.83007L33.54 15.3301L33.53 15.3201Z" fill="#BF7345"/>
<path d="M10.87 33.6201C10.7 33.8701 10.36 33.9401 10.11 33.7701C9.86001 33.6001 9.79001 33.2601 9.96001 33.0101C10 32.9501 10.07 32.8101 10.15 32.6301C10.45 31.8701 10.45 31.0901 9.96001 30.3501C9.24001 29.2701 9.24001 28.1201 9.66001 27.0601C9.77001 26.7901 9.88001 26.6001 9.96001 26.4701C10.13 26.2201 10.47 26.1501 10.72 26.3201C10.97 26.4901 11.04 26.8301 10.87 27.0801C10.83 27.1401 10.76 27.2801 10.68 27.4601C10.38 28.2201 10.38 29.0001 10.87 29.7401C11.59 30.8201 11.59 31.9701 11.17 33.0301C11.06 33.3001 10.95 33.4901 10.87 33.6201V33.6201ZM26.13 33.6201C25.96 33.8701 25.62 33.9401 25.37 33.7701C25.12 33.6001 25.05 33.2601 25.22 33.0101C25.26 32.9501 25.33 32.8101 25.41 32.6301C25.71 31.8701 25.71 31.0901 25.22 30.3501C24.5 29.2701 24.5 28.1201 24.93 27.0601C25.04 26.7901 25.14 26.6001 25.22 26.4701C25.39 26.2201 25.73 26.1501 25.98 26.3201C26.23 26.4901 26.3 26.8301 26.13 27.0801C26.09 27.1401 26.02 27.2801 25.94 27.4601C25.64 28.2201 25.64 29.0001 26.13 29.7401C26.85 30.8201 26.85 31.9701 26.43 33.0301C26.32 33.3001 26.21 33.4901 26.13 33.6201V33.6201ZM18.48 35.8201C18.3 36.0601 17.96 36.1101 17.72 35.9301C17.48 35.7501 17.43 35.4101 17.61 35.1701C17.68 35.0801 17.79 34.8901 17.91 34.6301C18.38 33.5801 18.38 32.5001 17.61 31.4601C16.57 30.0701 16.57 28.5701 17.19 27.1901C17.35 26.8501 17.5 26.5901 17.61 26.4401C17.79 26.2001 18.13 26.1501 18.37 26.3301C18.61 26.5101 18.66 26.8501 18.48 27.0901C18.41 27.1801 18.3 27.3701 18.18 27.6301C17.71 28.6801 17.71 29.7601 18.48 30.7901C19.52 32.1801 19.52 33.6801 18.9 35.0601C18.75 35.4001 18.59 35.6601 18.48 35.8101V35.8201ZM1.15001 21.8701H34.95V16.4201H1.15001V21.8701ZM13.69 5.51007H22.41V1.15007H13.69V5.51007ZM13.36 6.60007L4.16001 15.3301H31.95L22.74 6.60007H13.36ZM33.53 15.3201H35.49C35.79 15.3201 36.04 15.5601 36.04 15.8701V22.4101C36.04 22.7101 35.8 22.9601 35.49 22.9601H0.610007C0.310007 22.9601 0.0700073 22.7201 0.0700073 22.4101V15.8701C0.0700073 15.5701 0.310007 15.3201 0.610007 15.3201H2.57001L12.6 5.83007V0.610068C12.6 0.310068 12.84 0.0700684 13.15 0.0700684H22.96C23.26 0.0700684 23.51 0.310068 23.51 0.610068V5.83007L33.54 15.3301L33.53 15.3201Z" stroke="#BF7345" stroke-width="0.12" stroke-miterlimit="10"/>
</svg>
