<svg width="28" height="38" viewBox="0 0 28 38" fill="none" xmlns="http://www.w3.org/2000/svg">
<path d="M1.15 35.18H26.34V36.08H1.15V35.18ZM26.34 34.28H1.15V9.1H26.34V34.29V34.28ZM2.5 1.9H24.99C25.35 1.9 25.69 2.04 25.94 2.3C26.19 2.55 26.34 2.9 26.34 3.25V8.2H1.15V3.25C1.15 2.89 1.29 2.55 1.55 2.3C1.8 2.05 2.15 1.9 2.5 1.9ZM27.24 3.25C27.24 2.65 27 2.08 26.58 1.66C26.16 1.24 25.59 1 24.99 1H2.5C1.9 1 1.33 1.24 0.91 1.66C0.49 2.08 0.25 2.65 0.25 3.25V36.98H27.24V3.25Z" fill="#BF7345"/>
<path d="M1.15 35.18H26.34V36.08H1.15V35.18ZM26.34 34.28H1.15V9.1H26.34V34.29V34.28ZM2.5 1.9H24.99C25.35 1.9 25.69 2.04 25.94 2.3C26.19 2.55 26.34 2.9 26.34 3.25V8.2H1.15V3.25C1.15 2.89 1.29 2.55 1.55 2.3C1.8 2.05 2.15 1.9 2.5 1.9ZM27.24 3.25C27.24 2.65 27 2.08 26.58 1.66C26.16 1.24 25.59 1 24.99 1H2.5C1.9 1 1.33 1.24 0.91 1.66C0.49 2.08 0.25 2.65 0.25 3.25V36.98H27.24V3.25Z" stroke="#BF7345" stroke-width="0.5" stroke-miterlimit="10"/>
<path d="M13.74 12.69C16.24 12.69 18.65 13.69 20.42 15.46C22.19 17.23 23.19 19.63 23.19 22.14C23.19 24.65 22.19 27.05 20.42 28.82C18.65 30.59 16.25 31.59 13.74 31.59C11.23 31.59 8.83001 30.59 7.06001 28.82C5.29001 27.05 4.29001 24.65 4.29001 22.14C4.29001 19.63 5.28001 17.23 7.06001 15.46C8.83001 13.69 11.23 12.69 13.74 12.69ZM13.74 32.48C16.48 32.48 19.12 31.39 21.05 29.45C22.99 27.51 24.08 24.88 24.08 22.13C24.08 19.38 22.99 16.75 21.05 14.82C19.11 12.88 16.48 11.79 13.74 11.79C11 11.79 8.36001 12.88 6.42001 14.82C4.48001 16.76 3.39001 19.39 3.39001 22.13C3.39001 24.87 4.48001 27.51 6.42001 29.45C8.36001 31.39 10.99 32.48 13.74 32.48Z" fill="#BF7345"/>
<path d="M13.74 12.69C16.24 12.69 18.65 13.69 20.42 15.46C22.19 17.23 23.19 19.63 23.19 22.14C23.19 24.65 22.19 27.05 20.42 28.82C18.65 30.59 16.25 31.59 13.74 31.59C11.23 31.59 8.83001 30.59 7.06001 28.82C5.29001 27.05 4.29001 24.65 4.29001 22.14C4.29001 19.63 5.28001 17.23 7.06001 15.46C8.83001 13.69 11.23 12.69 13.74 12.69V12.69ZM13.74 32.48C16.48 32.48 19.12 31.39 21.05 29.45C22.99 27.51 24.08 24.88 24.08 22.13C24.08 19.38 22.99 16.75 21.05 14.82C19.11 12.88 16.48 11.79 13.74 11.79C11 11.79 8.36001 12.88 6.42001 14.82C4.48001 16.76 3.39001 19.39 3.39001 22.13C3.39001 24.87 4.48001 27.51 6.42001 29.45C8.36001 31.39 10.99 32.48 13.74 32.48V32.48Z" stroke="#BF7345" stroke-width="0.5" stroke-miterlimit="10"/>
<path d="M4.52001 4.14999H5.87001C6.24001 4.14999 6.54001 4.44999 6.54001 4.81999C6.54001 5.18999 6.24001 5.48999 5.87001 5.48999H4.52001C4.15001 5.48999 3.84001 5.18999 3.84001 4.81999C3.84001 4.44999 4.14001 4.14999 4.52001 4.14999ZM4.52001 6.39999H5.87001C6.43001 6.39999 6.95001 6.09999 7.23001 5.60999C7.51001 5.11999 7.51001 4.51999 7.23001 4.02999C6.95001 3.53999 6.43001 3.23999 5.87001 3.23999H4.52001C3.96001 3.23999 3.44001 3.53999 3.16001 4.02999C2.88001 4.51999 2.88001 5.11999 3.16001 5.60999C3.44001 6.09999 3.96001 6.39999 4.52001 6.39999Z" fill="#BF7345"/>
<path d="M4.52001 4.14999H5.87001C6.24001 4.14999 6.54001 4.44999 6.54001 4.81999C6.54001 5.18999 6.24001 5.48999 5.87001 5.48999H4.52001C4.15001 5.48999 3.84001 5.18999 3.84001 4.81999C3.84001 4.44999 4.14001 4.14999 4.52001 4.14999V4.14999ZM4.52001 6.39999H5.87001C6.43001 6.39999 6.95001 6.09999 7.23001 5.60999C7.51001 5.11999 7.51001 4.51999 7.23001 4.02999C6.95001 3.53999 6.43001 3.23999 5.87001 3.23999H4.52001C3.96001 3.23999 3.44001 3.53999 3.16001 4.02999C2.88001 4.51999 2.88001 5.11999 3.16001 5.60999C3.44001 6.09999 3.96001 6.39999 4.52001 6.39999Z" stroke="#BF7345" stroke-width="0.5" stroke-miterlimit="10"/>
<path d="M10.37 4.14999H11.72C12.09 4.14999 12.39 4.44999 12.39 4.81999C12.39 5.18999 12.09 5.48999 11.72 5.48999H10.37C9.99999 5.48999 9.68999 5.18999 9.68999 4.81999C9.68999 4.44999 9.98999 4.14999 10.37 4.14999ZM10.37 6.39999H11.72C12.28 6.39999 12.8 6.09999 13.08 5.60999C13.36 5.11999 13.36 4.51999 13.08 4.02999C12.8 3.53999 12.28 3.23999 11.72 3.23999H10.37C9.80999 3.23999 9.28999 3.53999 9.00999 4.02999C8.72999 4.51999 8.72999 5.11999 9.00999 5.60999C9.28999 6.09999 9.80999 6.39999 10.37 6.39999Z" fill="#BF7345"/>
<path d="M10.37 4.14999H11.72C12.09 4.14999 12.39 4.44999 12.39 4.81999C12.39 5.18999 12.09 5.48999 11.72 5.48999H10.37C9.99999 5.48999 9.68999 5.18999 9.68999 4.81999C9.68999 4.44999 9.98999 4.14999 10.37 4.14999V4.14999ZM10.37 6.39999H11.72C12.28 6.39999 12.8 6.09999 13.08 5.60999C13.36 5.11999 13.36 4.51999 13.08 4.02999C12.8 3.53999 12.28 3.23999 11.72 3.23999H10.37C9.80999 3.23999 9.28999 3.53999 9.00999 4.02999C8.72999 4.51999 8.72999 5.11999 9.00999 5.60999C9.28999 6.09999 9.80999 6.39999 10.37 6.39999Z" stroke="#BF7345" stroke-width="0.5" stroke-miterlimit="10"/>
<path d="M22.74 3.70005C23.07 3.70005 23.39 3.82005 23.64 4.04005C23.89 4.26005 24.05 4.56005 24.08 4.89005C24.12 5.22005 24.03 5.55005 23.84 5.82005C23.65 6.09005 23.36 6.28005 23.04 6.36005C22.72 6.43005 22.38 6.39005 22.09 6.23005C21.8 6.07005 21.58 5.81005 21.47 5.50005H22.74V4.60005H21.47C21.56 4.34005 21.73 4.11005 21.96 3.95005C22.19 3.79005 22.46 3.70005 22.74 3.70005ZM22.74 7.30005C23.34 7.30005 23.91 7.06005 24.33 6.64005C24.75 6.22005 24.99 5.65005 24.99 5.05005C24.99 4.45005 24.75 3.88005 24.33 3.46005C23.91 3.04005 23.34 2.80005 22.74 2.80005C22.14 2.80005 21.57 3.04005 21.15 3.46005C20.73 3.88005 20.49 4.45005 20.49 5.05005C20.49 5.65005 20.73 6.22005 21.15 6.64005C21.57 7.06005 22.14 7.30005 22.74 7.30005Z" fill="#BF7345"/>
<path d="M22.74 3.70005C23.07 3.70005 23.39 3.82005 23.64 4.04005C23.89 4.26005 24.05 4.56005 24.08 4.89005C24.12 5.22005 24.03 5.55005 23.84 5.82005C23.65 6.09005 23.36 6.28005 23.04 6.36005C22.72 6.43005 22.38 6.39005 22.09 6.23005C21.8 6.07005 21.58 5.81005 21.47 5.50005H22.74V4.60005H21.47C21.56 4.34005 21.73 4.11005 21.96 3.95005C22.19 3.79005 22.46 3.70005 22.74 3.70005ZM22.74 7.30005C23.34 7.30005 23.91 7.06005 24.33 6.64005C24.75 6.22005 24.99 5.65005 24.99 5.05005C24.99 4.45005 24.75 3.88005 24.33 3.46005C23.91 3.04005 23.34 2.80005 22.74 2.80005C22.14 2.80005 21.57 3.04005 21.15 3.46005C20.73 3.88005 20.49 4.45005 20.49 5.05005C20.49 5.65005 20.73 6.22005 21.15 6.64005C21.57 7.06005 22.14 7.30005 22.74 7.30005Z" stroke="#BF7345" stroke-width="0.5" stroke-miterlimit="10"/>
<path d="M13.74 14.9401C15.46 14.9401 17.12 15.5601 18.43 16.6901C19.73 17.8101 20.59 19.3701 20.85 21.0701C19.93 20.3601 18.82 19.9501 17.67 19.8901C16.18 19.8501 14.76 20.5001 13.43 21.8201C12.29 22.9601 11.11 23.5301 9.86 23.4901C8.61 23.3901 7.44 22.8501 6.55 21.9701C6.6 20.0901 7.38001 18.3101 8.72001 16.9901C10.07 15.6801 11.87 14.9401 13.75 14.9401H13.74ZM13.74 29.3301C12.02 29.3301 10.36 28.7101 9.05 27.5901C7.75001 26.4701 6.89 24.9101 6.63 23.2101C7.55 23.9101 8.66001 24.3301 9.81001 24.3901H9.95C11.39 24.3901 12.77 23.7401 14.05 22.4601C15.19 21.3201 16.37 20.7601 17.62 20.7901C18.87 20.8901 20.04 21.4301 20.93 22.3101C20.88 24.1901 20.11 25.9701 18.76 27.2901C17.42 28.6001 15.61 29.3401 13.73 29.3401L13.74 29.3301ZM5.64 22.1301C5.64 24.2801 6.49 26.3401 8 27.8601C9.51 29.3801 11.57 30.2401 13.72 30.2401C15.87 30.2401 17.93 29.3901 19.45 27.8801C20.97 26.3601 21.83 24.3101 21.83 22.1601C21.83 19.2701 20.3 16.5901 17.79 15.1401C15.29 13.6901 12.2 13.6801 9.69 15.1301C7.18 16.5701 5.63 19.2401 5.63 22.1401L5.64 22.1301Z" fill="#BF7345"/>
<path d="M13.74 14.9401C15.46 14.9401 17.12 15.5601 18.43 16.6901C19.73 17.8101 20.59 19.3701 20.85 21.0701C19.93 20.3601 18.82 19.9501 17.67 19.8901C16.18 19.8501 14.76 20.5001 13.43 21.8201C12.29 22.9601 11.11 23.5301 9.86 23.4901C8.61 23.3901 7.44 22.8501 6.55 21.9701C6.6 20.0901 7.38001 18.3101 8.72001 16.9901C10.07 15.6801 11.87 14.9401 13.75 14.9401H13.74ZM13.74 29.3301C12.02 29.3301 10.36 28.7101 9.05 27.5901C7.75001 26.4701 6.89 24.9101 6.63 23.2101C7.55 23.9101 8.66001 24.3301 9.81001 24.3901H9.95C11.39 24.3901 12.77 23.7401 14.05 22.4601C15.19 21.3201 16.37 20.7601 17.62 20.7901C18.87 20.8901 20.04 21.4301 20.93 22.3101C20.88 24.1901 20.11 25.9701 18.76 27.2901C17.42 28.6001 15.61 29.3401 13.73 29.3401L13.74 29.3301ZM5.64 22.1301C5.64 24.2801 6.49 26.3401 8 27.8601C9.51 29.3801 11.57 30.2401 13.72 30.2401C15.87 30.2401 17.93 29.3901 19.45 27.8801C20.97 26.3601 21.83 24.3101 21.83 22.1601C21.83 19.2701 20.3 16.5901 17.79 15.1401C15.29 13.6901 12.2 13.6801 9.69 15.1301C7.18 16.5701 5.63 19.2401 5.63 22.1401L5.64 22.1301Z" stroke="#BF7345" stroke-width="0.5" stroke-miterlimit="10"/>
</svg>
