<svg width="30" height="38" viewBox="0 0 30 38" fill="none" xmlns="http://www.w3.org/2000/svg">
<path d="M23 22.73C23 22.56 22.94 22.4 22.82 22.28C22.71 22.16 22.56 22.09 22.4 22.09C22.24 22.09 22.09 22.16 21.98 22.28L18.31 26.2C18.08 26.45 18.08 26.85 18.31 27.1C18.54 27.35 18.92 27.35 19.15 27.1L22.82 23.18C22.93 23.06 23 22.9 23 22.73ZM23.74 26.12C23.96 25.87 23.96 25.47 23.74 25.23C23.51 24.99 23.14 24.98 22.91 25.23L21.08 27.19C20.86 27.44 20.86 27.84 21.08 28.08C21.3 28.32 21.68 28.33 21.91 28.08L23.74 26.12ZM9.66 14.92C9.44 15.17 9.44 15.57 9.66 15.81C9.89 16.05 10.26 16.06 10.49 15.81L12.32 13.85C12.54 13.6 12.54 13.21 12.32 12.96C12.09 12.72 11.72 12.71 11.49 12.96L9.66 14.92ZM6.91 13.94C6.74 14.12 6.69 14.39 6.79 14.63C6.88 14.87 7.1 15.02 7.33 15.03C7.49 15.03 7.64 14.96 7.75 14.84L11.42 10.92C11.64 10.67 11.64 10.27 11.42 10.03C11.19 9.77999 10.82 9.77999 10.59 10.03L6.92 13.95L6.91 13.94ZM6.94 6.14999C6.62 6.14999 6.36 6.43999 6.36 6.78999C6.36 7.13999 6.62 7.41999 6.94 7.42999H14.76V18.42H4.48V6.78999C4.48 6.61999 4.42 6.45999 4.3 6.33999C4.19 6.21999 4.04 6.14999 3.88 6.14999H2.74C2.44 6.14999 2.19 5.88999 2.19 5.55999V3.10999C2.19 2.77999 2.44 2.51999 2.74 2.51999H27.97C28.27 2.51999 28.52 2.77999 28.52 3.10999V5.55999C28.52 5.88999 28.27 6.14999 27.97 6.14999H6.94ZM4.49 19.68H14.76V30.67H4.48V19.68H4.49ZM15.95 7.42999H26.23V18.42H15.95V7.42999ZM15.95 19.69H26.23V30.68H15.95V19.69ZM27.42 30.68V7.42999H27.97C28.43 7.42999 28.87 7.22999 29.2 6.87999C29.53 6.52999 29.71 6.05999 29.71 5.55999V3.10999C29.71 2.61999 29.53 2.13999 29.2 1.78999C28.87 1.43999 28.43 1.24999 27.97 1.23999H2.74C2.28 1.23999 1.84 1.43999 1.51 1.78999C1.18 2.13999 1 2.60999 1 3.10999V5.55999C1 6.04999 1.18 6.52999 1.51 6.87999C1.84 7.22999 2.28 7.42999 2.74 7.42999H3.29V30.68H2.74C2.28 30.68 1.84 30.88 1.51 31.23C1.18 31.58 1 32.05 1 32.55V35C1 35.49 1.18 35.97 1.51 36.32C1.84 36.67 2.28 36.87 2.74 36.87H24.22C24.55 36.87 24.8 36.58 24.8 36.23C24.8 35.88 24.54 35.6 24.22 35.6H2.74C2.44 35.6 2.19 35.33 2.19 35.01V32.56C2.19 32.24 2.44 31.97 2.74 31.97C3.92 31.97 26.79 31.97 27.96 31.97C28.27 31.97 28.51 32.23 28.51 32.56V35.01C28.51 35.34 28.26 35.6 27.96 35.6H26.81C26.49 35.6 26.23 35.89 26.23 36.23C26.23 36.57 26.49 36.86 26.81 36.87H27.96C28.42 36.87 28.87 36.67 29.19 36.32C29.52 35.97 29.7 35.5 29.7 35V32.55C29.7 32.06 29.52 31.58 29.19 31.23C28.86 30.88 28.42 30.69 27.96 30.68H27.41H27.42Z" fill="#BF7345"/>
<path d="M23 22.73C23 22.56 22.94 22.4 22.82 22.28C22.71 22.16 22.56 22.09 22.4 22.09C22.24 22.09 22.09 22.16 21.98 22.28L18.31 26.2C18.08 26.45 18.08 26.85 18.31 27.1C18.54 27.35 18.92 27.35 19.15 27.1L22.82 23.18C22.93 23.06 23 22.9 23 22.73V22.73ZM23.74 26.12C23.96 25.87 23.96 25.47 23.74 25.23C23.51 24.99 23.14 24.98 22.91 25.23L21.08 27.19C20.86 27.44 20.86 27.84 21.08 28.08C21.3 28.32 21.68 28.33 21.91 28.08L23.74 26.12V26.12ZM9.66 14.92C9.44 15.17 9.44 15.57 9.66 15.81C9.89 16.05 10.26 16.06 10.49 15.81L12.32 13.85C12.54 13.6 12.54 13.21 12.32 12.96C12.09 12.72 11.72 12.71 11.49 12.96L9.66 14.92V14.92ZM6.91 13.94C6.74 14.12 6.69 14.39 6.79 14.63C6.88 14.87 7.1 15.02 7.33 15.03C7.49 15.03 7.64 14.96 7.75 14.84L11.42 10.92C11.64 10.67 11.64 10.27 11.42 10.03C11.19 9.77999 10.82 9.77999 10.59 10.03L6.92 13.95L6.91 13.94ZM6.94 6.14999C6.62 6.14999 6.36 6.43999 6.36 6.78999C6.36 7.13999 6.62 7.41999 6.94 7.42999H14.76V18.42H4.48V6.78999C4.48 6.61999 4.42 6.45999 4.3 6.33999C4.19 6.21999 4.04 6.14999 3.88 6.14999H2.74C2.44 6.14999 2.19 5.88999 2.19 5.55999V3.10999C2.19 2.77999 2.44 2.51999 2.74 2.51999H27.97C28.27 2.51999 28.52 2.77999 28.52 3.10999V5.55999C28.52 5.88999 28.27 6.14999 27.97 6.14999H6.94V6.14999ZM4.49 19.68H14.76V30.67H4.48V19.68H4.49ZM15.95 7.42999H26.23V18.42H15.95V7.42999ZM15.95 19.69H26.23V30.68H15.95V19.69ZM27.42 30.68V7.42999H27.97C28.43 7.42999 28.87 7.22999 29.2 6.87999C29.53 6.52999 29.71 6.05999 29.71 5.55999V3.10999C29.71 2.61999 29.53 2.13999 29.2 1.78999C28.87 1.43999 28.43 1.24999 27.97 1.23999H2.74C2.28 1.23999 1.84 1.43999 1.51 1.78999C1.18 2.13999 1 2.60999 1 3.10999V5.55999C1 6.04999 1.18 6.52999 1.51 6.87999C1.84 7.22999 2.28 7.42999 2.74 7.42999H3.29V30.68H2.74C2.28 30.68 1.84 30.88 1.51 31.23C1.18 31.58 1 32.05 1 32.55V35C1 35.49 1.18 35.97 1.51 36.32C1.84 36.67 2.28 36.87 2.74 36.87H24.22C24.55 36.87 24.8 36.58 24.8 36.23C24.8 35.88 24.54 35.6 24.22 35.6H2.74C2.44 35.6 2.19 35.33 2.19 35.01V32.56C2.19 32.24 2.44 31.97 2.74 31.97C3.92 31.97 26.79 31.97 27.96 31.97C28.27 31.97 28.51 32.23 28.51 32.56V35.01C28.51 35.34 28.26 35.6 27.96 35.6H26.81C26.49 35.6 26.23 35.89 26.23 36.23C26.23 36.57 26.49 36.86 26.81 36.87H27.96C28.42 36.87 28.87 36.67 29.19 36.32C29.52 35.97 29.7 35.5 29.7 35V32.55C29.7 32.06 29.52 31.58 29.19 31.23C28.86 30.88 28.42 30.69 27.96 30.68H27.41H27.42Z" stroke="#BF7345" stroke-width="0.5" stroke-miterlimit="10"/>
</svg>
