<svg width="38" height="38" viewBox="0 0 38 38" fill="none" xmlns="http://www.w3.org/2000/svg">
<path d="M6.59 24.9L4.15 30.96V24.9H6.59ZM32.17 30.96L29.73 24.9H32.17V30.96ZM28.19 26.64L31.67 35.28H24.71L28.19 26.64ZM19.7 24.9H26.66L23.18 33.54L19.7 24.9ZM18.16 26.64L21.64 35.28H14.68L18.16 26.64ZM9.67 24.9H16.63L13.15 33.54L9.67 24.9ZM11.61 35.28H4.65L8.13 26.64L11.61 35.28ZM36.32 35.28H34.24V24.9H36.32C36.89 24.9 37.35 24.43 37.35 23.86C37.35 23.29 36.89 22.82 36.32 22.82H1.03C0.46 22.82 0 23.29 0 23.86C0 24.43 0.46 24.9 1.03 24.9H2.07V35.28H1.03C0.46 35.28 0 35.75 0 36.32C0 36.89 0.46 37.35 1.03 37.36H36.31C36.88 37.36 37.34 36.89 37.34 36.32C37.34 35.75 36.88 35.28 36.31 35.28H36.32Z" fill="#BF7345"/>
<path d="M24.9 2.08H30.09V7.26H24.9V2.08ZM17.64 2.08H22.83V7.26H17.64V2.08ZM5.19 20.75C5.76 20.75 6.23 20.29 6.23 19.71V2.08H15.56V19.72C15.56 20.29 16.03 20.75 16.6 20.75C17.17 20.75 17.63 20.29 17.64 19.72V9.34H22.83V19.72C22.83 20.29 23.3 20.75 23.87 20.75C24.44 20.75 24.91 20.29 24.91 19.72V9.34H30.1V19.72C30.1 20.29 30.57 20.76 31.14 20.76C31.71 20.76 32.18 20.3 32.18 19.72V1.04C32.17 0.46 31.7 0 31.13 0H5.19C4.61 0 4.15 0.46 4.15 1.04V19.72C4.15 20.29 4.62 20.76 5.19 20.76V20.75Z" fill="#BF7345"/>
</svg>
