<svg width="25" height="35" viewBox="0 0 25 35" fill="none" xmlns="http://www.w3.org/2000/svg">
<path d="M7.28001 13.33H17.47V1.48H7.28001V13.33ZM18.2 14.81H6.55001C6.15001 14.81 5.82001 14.48 5.82001 14.07V1.48C5.82001 1.09 5.97001 0.71 6.25001 0.43C6.53001 0.15 6.89001 0 7.28001 0H17.47C17.86 0 18.23 0.16 18.5 0.43C18.77 0.71 18.93 1.08 18.93 1.48V14.07C18.93 14.27 18.85 14.46 18.72 14.59C18.58 14.73 18.4 14.81 18.21 14.81H18.2Z" fill="#BF7345"/>
<path d="M1.46 18.1901V24.4501H23.29V18.1901L17.98 14.8201H6.76L1.46 18.1901ZM23.29 25.9301H1.46C1.07 25.9301 0.7 25.7701 0.43 25.5001C0.15 25.2101 0 24.8301 0 24.4401V17.7701C0 17.5201 0.13 17.2801 0.34 17.1401L6.16 13.4401C6.27 13.3701 6.41 13.3301 6.55 13.3301H18.19C18.33 13.3301 18.46 13.3701 18.58 13.4401L24.4 17.1401C24.61 17.2701 24.74 17.5101 24.74 17.7701V24.4401C24.74 24.8301 24.59 25.2101 24.31 25.4901C24.04 25.7701 23.67 25.9201 23.28 25.9201L23.29 25.9301Z" fill="#BF7345"/>
<path d="M1.46 24.4398H23.29V19.9998H1.46V24.4398ZM24.02 25.9198H0.73C0.33 25.9198 0 25.5898 0 25.1798V19.2498C0 18.8398 0.33 18.5098 0.73 18.5098H24.02C24.21 18.5098 24.4 18.5898 24.53 18.7298C24.67 18.8698 24.74 19.0598 24.74 19.2498V25.1798C24.74 25.3798 24.66 25.5598 24.53 25.6998C24.39 25.8398 24.21 25.9198 24.02 25.9198Z" fill="#BF7345"/>
<path d="M14.56 22.22C14.56 22.63 14.23 22.96 13.83 22.96C13.43 22.96 13.1 22.63 13.1 22.22C13.1 21.81 13.43 21.48 13.83 21.48C14.23 21.48 14.56 21.81 14.56 22.22Z" fill="#BF7345"/>
<path d="M11.64 22.22C11.64 22.63 11.31 22.96 10.91 22.96C10.51 22.96 10.18 22.63 10.18 22.22C10.18 21.81 10.51 21.48 10.91 21.48C11.31 21.48 11.64 21.81 11.64 22.22Z" fill="#BF7345"/>
<path d="M8.73 22.22C8.73 22.63 8.4 22.96 8 22.96C7.6 22.96 7.27 22.63 7.27 22.22C7.27 21.81 7.6 21.48 8 21.48C8.4 21.48 8.73 21.81 8.73 22.22Z" fill="#BF7345"/>
<path d="M17.47 22.22C17.47 22.63 17.14 22.96 16.74 22.96C16.34 22.96 16.01 22.63 16.01 22.22C16.01 21.81 16.34 21.48 16.74 21.48C17.14 21.48 17.47 21.81 17.47 22.22Z" fill="#BF7345"/>
<path d="M11.56 34.0702C11.37 34.0702 11.18 33.9902 11.04 33.8502C10.9 33.7102 10.83 33.5202 10.83 33.3302C10.81 32.2602 11.14 31.2102 11.76 30.3402C12.23 29.7102 12.48 28.9402 12.46 28.1502C12.46 27.7402 12.79 27.4102 13.19 27.4102C13.59 27.4102 13.92 27.7402 13.92 28.1502C13.94 29.2202 13.61 30.2802 12.99 31.1402C12.52 31.7702 12.27 32.5402 12.29 33.3302C12.29 33.5302 12.21 33.7102 12.08 33.8502C11.94 33.9902 11.76 34.0702 11.57 34.0702" fill="#BF7345"/>
<path d="M16.65 34.0702C16.46 34.0702 16.27 33.9902 16.13 33.8502C15.99 33.7102 15.92 33.5202 15.92 33.3302C15.9 32.2602 16.23 31.2102 16.85 30.3402C17.32 29.7102 17.57 28.9402 17.55 28.1502C17.55 27.7402 17.88 27.4102 18.28 27.4102C18.68 27.4102 19.01 27.7402 19.01 28.1502C19.03 29.2202 18.7 30.2802 18.08 31.1402C17.61 31.7702 17.36 32.5402 17.38 33.3302C17.38 33.5302 17.3 33.7102 17.17 33.8502C17.03 33.9902 16.85 34.0702 16.66 34.0702" fill="#BF7345"/>
<path d="M6.46 34.0702C6.27 34.0702 6.08 33.9902 5.94 33.8502C5.8 33.7102 5.73 33.5202 5.73 33.3302C5.71 32.2602 6.04 31.2102 6.66 30.3402C7.13 29.7102 7.38 28.9402 7.36 28.1502C7.36 27.7402 7.68 27.4102 8.09 27.4102C8.5 27.4102 8.82 27.7402 8.82 28.1502C8.84 29.2202 8.51 30.2802 7.89 31.1402C7.42 31.7702 7.17 32.5402 7.19 33.3302C7.19 33.7402 6.86 34.0702 6.46 34.0702Z" fill="#BF7345"/>
</svg>
