<svg width="32" height="40" viewBox="0 0 32 40" fill="none" xmlns="http://www.w3.org/2000/svg">
<path d="M30.99 38.94V39.44H31.49V38.94H30.99ZM0.75 38.94H0.25V39.44H0.75V38.94ZM0.75 36.24V35.74H0.25V36.24H0.75ZM30.99 36.24H31.49V35.74H30.99V36.24ZM4.62 0.75V0.25H4.12V0.75H4.62ZM27.12 0.75H27.62V0.25H27.12V0.75ZM27.12 35.99V36.49H27.62V35.99H27.12ZM4.62 35.99H4.12V36.49H4.62V35.99ZM4.38 35.99V36.49H4.88V35.99H4.38ZM27.36 35.99H26.86V36.49H27.36V35.99ZM24.15 5.41V5.91H24.65V5.41H24.15ZM7.58 5.41H7.08V5.91H7.58V5.41ZM7.58 3.71V3.21H7.08V3.71H7.58ZM24.15 3.71H24.65V3.21H24.15V3.71ZM24.15 7.32V7.82H24.65V7.32H24.15ZM7.58 7.32H7.08V7.82H7.58V7.32ZM7.58 5.65V5.15H7.08V5.65H7.58ZM24.15 5.65H24.65V5.15H24.15V5.65ZM24.15 9.11V9.61H24.65V9.11H24.15ZM7.58 9.11H7.08V9.61H7.58V9.11ZM7.58 7.57V7.07H7.08V7.57H7.58ZM24.15 7.57H24.65V7.07H24.15V7.57ZM24.15 11.02V11.52H24.65V11.02H24.15ZM7.58 11.02H7.08V11.52H7.58V11.02ZM7.58 9.35V8.85H7.08V9.35H7.58ZM24.15 9.35H24.65V8.85H24.15V9.35ZM24.15 33.03V33.53H24.65V33.03H24.15ZM17.34 33.03H16.84V33.53H17.34V33.03ZM17.34 11.27V10.77H16.84V11.27H17.34ZM24.15 11.27H24.65V10.77H24.15V11.27ZM17.1 33.03V33.53H17.6V33.03H17.1ZM14.63 33.03H14.13V33.53H14.63V33.03ZM14.63 11.27V10.77H14.13V11.27H14.63ZM17.1 11.27H17.6V10.77H17.1V11.27ZM14.39 33.03V33.53H14.89V33.03H14.39ZM7.58 33.03H7.08V33.53H7.58V33.03ZM7.58 11.27V10.77H7.08V11.27H7.58ZM14.39 11.27H14.89V10.77H14.39V11.27ZM30.99 38.44H0.75V39.44H30.99V38.44ZM1.25 38.94V36.24H0.25V38.94H1.25ZM0.75 36.74H30.99V35.74H0.75V36.74ZM30.49 36.24V38.94H31.49V36.24H30.49ZM4.62 1.25H27.12V0.25H4.62V1.25ZM26.62 0.75V35.99H27.62V0.75H26.62ZM27.12 35.49H4.62V36.49H27.12V35.49ZM5.12 35.99V0.75H4.12V35.99H5.12ZM27.24 0H4.5V1H27.24V0ZM4.5 0C4.12732 0 3.88 0.311169 3.88 0.62H4.88C4.88 0.808831 4.73268 1 4.5 1V0ZM3.88 0.62V35.99H4.88V0.62H3.88ZM4.38 35.49H0.62V36.49H4.38V35.49ZM0.62 35.49C0.247321 35.49 0 35.8012 0 36.11H1C1 36.2988 0.852679 36.49 0.62 36.49V35.49ZM0 36.11V39.06H1V36.11H0ZM0 39.06C0 39.4327 0.311175 39.68 0.62 39.68V38.68C0.808825 38.68 1 38.8273 1 39.06H0ZM0.62 39.68H31.11V38.68H0.62V39.68ZM31.11 39.68C31.4827 39.68 31.73 39.3688 31.73 39.06H30.73C30.73 38.8712 30.8773 38.68 31.11 38.68V39.68ZM31.73 39.06V36.11H30.73V39.06H31.73ZM31.73 36.11C31.73 35.7639 31.4561 35.49 31.11 35.49V36.49C31.0227 36.49 30.9223 36.4569 30.8427 36.3773C30.7631 36.2977 30.73 36.1973 30.73 36.11H31.73ZM31.11 35.49H27.36V36.49H31.11V35.49ZM27.86 35.99V0.62H26.86V35.99H27.86ZM27.86 0.62C27.86 0.247312 27.5488 0 27.24 0V1C27.0512 1 26.86 0.852688 26.86 0.62H27.86ZM24.15 4.91H7.58V5.91H24.15V4.91ZM8.08 5.41V3.71H7.08V5.41H8.08ZM7.58 4.21H24.15V3.21H7.58V4.21ZM23.65 3.71V5.41H24.65V3.71H23.65ZM24.15 6.82H7.58V7.82H24.15V6.82ZM8.08 7.32V5.65H7.08V7.32H8.08ZM7.58 6.15H24.15V5.15H7.58V6.15ZM23.65 5.65V7.32H24.65V5.65H23.65ZM24.15 8.61H7.58V9.61H24.15V8.61ZM8.08 9.11V7.57H7.08V9.11H8.08ZM7.58 8.07H24.15V7.07H7.58V8.07ZM23.65 7.57V9.11H24.65V7.57H23.65ZM24.15 10.52H7.58V11.52H24.15V10.52ZM8.08 11.02V9.35H7.08V11.02H8.08ZM7.58 9.85H24.15V8.85H7.58V9.85ZM23.65 9.35V11.02H24.65V9.35H23.65ZM24.15 32.53H17.34V33.53H24.15V32.53ZM17.84 33.03V11.27H16.84V33.03H17.84ZM17.34 11.77H24.15V10.77H17.34V11.77ZM23.65 11.27V33.03H24.65V11.27H23.65ZM17.1 32.53H14.63V33.53H17.1V32.53ZM15.13 33.03V11.27H14.13V33.03H15.13ZM14.63 11.77H17.1V10.77H14.63V11.77ZM16.6 11.27V33.03H17.6V11.27H16.6ZM14.39 32.53H7.58V33.53H14.39V32.53ZM8.08 33.03V11.27H7.08V33.03H8.08ZM7.58 11.77H14.39V10.77H7.58V11.77ZM13.89 11.27V33.03H14.89V11.27H13.89ZM24.28 2.96H7.46V3.96H24.28V2.96ZM7.46 2.96C7.08732 2.96 6.84 3.27117 6.84 3.58H7.84C7.84 3.76883 7.69268 3.96 7.46 3.96V2.96ZM6.84 3.58V33.15H7.84V3.58H6.84ZM6.84 33.15C6.84 33.5227 7.15117 33.77 7.46 33.77V32.77C7.64883 32.77 7.84 32.9173 7.84 33.15H6.84ZM7.46 33.77H24.28V32.77H7.46V33.77ZM24.28 33.77C24.6527 33.77 24.9 33.4588 24.9 33.15H23.9C23.9 32.9612 24.0473 32.77 24.28 32.77V33.77ZM24.9 33.15V3.58H23.9V33.15H24.9ZM24.9 3.58C24.9 3.20732 24.5888 2.96 24.28 2.96V3.96C24.0912 3.96 23.9 3.81268 23.9 3.58H24.9Z" fill="#BF7345"/>
</svg>
