<svg width="37" height="35" viewBox="0 0 37 35" fill="none" xmlns="http://www.w3.org/2000/svg">
<path d="M15.91 5.6C13.78 5.6 11.74 6.44 10.24 7.95C8.74 9.46 7.89 11.5 7.89 13.62C7.89 15.74 8.74 17.79 10.24 19.29L11.05 20.1L22.4 8.75L21.59 7.94C20.09 6.44 18.04 5.59 15.92 5.6H15.91ZM11.05 22.87C10.75 22.87 10.45 22.75 10.24 22.53L8.62 20.91C6.01 18.3 5 14.51 5.95 10.95C6.9 7.39 9.68 4.61 13.24 3.66C16.8 2.71 20.6 3.72 23.2 6.33L24.82 7.95C25.04 8.17 25.16 8.46 25.16 8.76C25.16 9.06 25.04 9.36 24.82 9.57L11.85 22.54C11.63 22.76 11.34 22.88 11.04 22.88L11.05 22.87Z" fill="#BF7345"/>
<path d="M25.63 9.23C25.33 9.23 25.03 9.35 24.82 9.56L11.86 22.53C11.57 22.82 11.46 23.24 11.56 23.64C11.66 24.04 11.97 24.34 12.37 24.45C12.77 24.56 13.19 24.45 13.48 24.15L26.45 11.18C26.66 10.96 26.78 10.67 26.78 10.37C26.78 10.07 26.66 9.78 26.44 9.56C26.22 9.34 25.93 9.23 25.63 9.23ZM12.66 26.78C11.75 26.78 10.87 26.42 10.23 25.77C9.59 25.12 9.22 24.25 9.22 23.34C9.22 22.43 9.58 21.55 10.23 20.91L23.2 7.94C24.07 7.08 25.33 6.76 26.51 7.08C27.69 7.4 28.61 8.32 28.93 9.5C29.25 10.68 28.93 11.94 28.07 12.81L15.1 25.78C14.46 26.43 13.58 26.79 12.67 26.79L12.66 26.78Z" fill="#BF7345"/>
<path d="M24.53 23.39C24.23 23.39 23.93 23.27 23.72 23.05L22.91 22.24C22.63 21.95 22.52 21.53 22.63 21.14C22.74 20.75 23.04 20.44 23.43 20.33C23.82 20.22 24.24 20.33 24.53 20.62L25.34 21.43C25.56 21.64 25.68 21.94 25.68 22.24C25.68 22.54 25.56 22.84 25.34 23.05C25.12 23.26 24.83 23.39 24.53 23.39Z" fill="#BF7345"/>
<path d="M27.7 26.55C27.4 26.55 27.1 26.43 26.89 26.21L26.08 25.4C25.8 25.11 25.69 24.69 25.8 24.3C25.91 23.91 26.21 23.6 26.6 23.5C26.99 23.39 27.41 23.5 27.7 23.79L28.51 24.6C28.73 24.82 28.85 25.11 28.85 25.41C28.85 25.71 28.73 26.01 28.51 26.22C28.29 26.44 28 26.56 27.7 26.56V26.55Z" fill="#BF7345"/>
<path d="M30.86 29.72C30.56 29.72 30.26 29.6 30.05 29.38L29.24 28.57C28.96 28.28 28.85 27.86 28.96 27.47C29.07 27.08 29.37 26.77 29.76 26.67C30.15 26.57 30.57 26.67 30.86 26.95L31.67 27.76C31.89 27.98 32.01 28.27 32.01 28.57C32.01 28.87 31.89 29.17 31.67 29.38C31.45 29.6 31.16 29.72 30.86 29.72Z" fill="#BF7345"/>
<path d="M20.5 26.62C20.11 26.62 19.74 26.42 19.53 26.09L18.92 25.12C18.75 24.86 18.69 24.55 18.76 24.25C18.83 23.95 19.01 23.69 19.27 23.52C19.53 23.36 19.84 23.3 20.14 23.37C20.44 23.44 20.7 23.63 20.86 23.89L21.47 24.86C21.62 25.09 21.68 25.37 21.64 25.64C21.6 25.91 21.46 26.16 21.25 26.34C21.04 26.52 20.78 26.62 20.5 26.62Z" fill="#BF7345"/>
<path d="M22.89 30.4C22.5 30.4 22.13 30.2 21.92 29.87L21.31 28.9C21.09 28.55 21.07 28.12 21.26 27.75C21.45 27.39 21.82 27.15 22.23 27.14C22.64 27.12 23.03 27.33 23.24 27.67L23.85 28.64C24 28.87 24.05 29.15 24.01 29.42C23.97 29.69 23.83 29.94 23.62 30.12C23.41 30.3 23.15 30.4 22.87 30.4H22.89Z" fill="#BF7345"/>
<path d="M25.28 34.19C24.89 34.19 24.52 33.99 24.31 33.66L23.7 32.69C23.53 32.43 23.47 32.12 23.53 31.81C23.59 31.51 23.78 31.25 24.04 31.08C24.3 30.92 24.62 30.86 24.92 30.93C25.22 31 25.48 31.19 25.64 31.46L26.25 32.43C26.4 32.66 26.45 32.94 26.42 33.21C26.38 33.48 26.24 33.73 26.03 33.91C25.82 34.09 25.56 34.19 25.28 34.19Z" fill="#BF7345"/>
<path d="M27.89 19.14C27.68 19.14 27.47 19.08 27.29 18.97L26.32 18.37C25.97 18.16 25.76 17.77 25.78 17.36C25.79 16.95 26.02 16.58 26.38 16.38C26.74 16.19 27.18 16.2 27.53 16.41L28.51 17.01C28.79 17.19 28.99 17.48 29.04 17.81C29.09 18.14 29 18.48 28.78 18.73C28.56 18.98 28.24 19.13 27.91 19.13L27.89 19.14Z" fill="#BF7345"/>
<path d="M31.7 21.49C31.49 21.49 31.28 21.43 31.1 21.32L30.13 20.72C29.78 20.5 29.57 20.12 29.59 19.71C29.6 19.3 29.83 18.93 30.19 18.73C30.55 18.54 30.99 18.55 31.34 18.76L32.31 19.36C32.6 19.54 32.79 19.83 32.84 20.16C32.89 20.49 32.8 20.83 32.58 21.08C32.36 21.33 32.04 21.48 31.71 21.48L31.7 21.49Z" fill="#BF7345"/>
<path d="M35.51 23.84C35.3 23.84 35.09 23.78 34.91 23.67L33.94 23.07C33.68 22.91 33.5 22.66 33.43 22.36C33.36 22.06 33.41 21.75 33.57 21.49C33.73 21.23 33.99 21.05 34.28 20.98C34.58 20.91 34.89 20.96 35.15 21.12L36.12 21.72C36.4 21.9 36.6 22.19 36.65 22.52C36.7 22.85 36.6 23.19 36.39 23.44C36.17 23.69 35.85 23.84 35.52 23.84H35.51Z" fill="#BF7345"/>
<path d="M2.29 2.29V4.58H3.83C4.74 4.58 5.62 4.94 6.26 5.59L7.8 7.13L9.42 5.51L7.21 3.3C6.57 2.65 5.69 2.29 4.78 2.29H2.29ZM7.8 9.89C7.5 9.89 7.2 9.77 6.99 9.55L4.64 7.2C4.43 6.98 4.13 6.86 3.83 6.86H2.29C1.68 6.86 1.1 6.62 0.67 6.19C0.24 5.77 0 5.19 0 4.58V2.29C0 1.68 0.24 1.1 0.67 0.67C1.1 0.24 1.68 0 2.29 0H4.78C6.3 0 7.76 0.6 8.83 1.68L11.85 4.7C12.07 4.92 12.19 5.21 12.19 5.51C12.19 5.81 12.07 6.1 11.85 6.32L8.61 9.56C8.4 9.78 8.1 9.9 7.8 9.9" fill="#BF7345"/>
</svg>
