<svg width="43" height="38" viewBox="0 0 43 38" fill="none" xmlns="http://www.w3.org/2000/svg">
<path d="M0.15 24.61C-0.18 25.23 0.06 25.99 0.67 26.32L20.62 36.96C20.99 37.16 21.44 37.16 21.81 36.96L41.77 26.32C42.39 25.99 42.62 25.22 42.29 24.61C41.96 23.99 41.19 23.76 40.58 24.09L21.22 34.42L1.86 24.09C1.24 23.76 0.48 24 0.15 24.61ZM0.15 17.97C-0.18 18.59 0.06 19.35 0.67 19.68L20.62 30.32C20.99 30.52 21.44 30.52 21.81 30.32L41.77 19.67C42.39 19.34 42.62 18.57 42.29 17.96C41.96 17.34 41.19 17.11 40.58 17.44L21.22 27.77L1.86 17.44C1.24 17.11 0.48 17.35 0.15 17.96M38.49 11.9L21.22 21.08L3.95 11.91L21.22 2.7L38.49 11.91V11.9ZM42.44 11.9C42.44 11.43 42.18 11 41.77 10.78L21.82 0.15C21.45 -0.05 21 -0.05 20.63 0.15L0.67 10.79C0.26 11.01 0 11.44 0 11.91C0 12.38 0.26 12.81 0.67 13.03L20.62 23.67C20.99 23.87 21.44 23.87 21.81 23.67L41.77 13.03C42.18 12.81 42.44 12.38 42.44 11.91" fill="#BF7345"/>
</svg>
