<svg width="43" height="24" viewBox="0 0 43 24" fill="none" xmlns="http://www.w3.org/2000/svg">
<path d="M6.15 9.12H25.16C25.16 9.12 25.19 9.12 25.21 9.12C25.52 9.12 25.83 9.08 26.12 9.01C27.07 8.77 27.92 8.12 28.51 7.19C29.01 6.41 29.3 5.47 29.3 4.64C29.3 2.08 27.22 0 24.67 0C22.12 0 20.03 2.08 20.03 4.64C20.03 5.06 20.09 5.47 20.19 5.87C20.32 6.34 20.8 6.61 21.27 6.48C21.74 6.35 22.01 5.87 21.89 5.4C21.82 5.15 21.79 4.9 21.79 4.64C21.79 3.05 23.08 1.76 24.67 1.76C26.26 1.76 27.55 3.05 27.55 4.64C27.55 5.54 26.89 7 25.69 7.31C25.53 7.35 25.36 7.37 25.18 7.37H6.15C5.66 7.37 5.27 7.76 5.27 8.25C5.27 8.74 5.66 9.13 6.15 9.13V9.12Z" fill="#BF7345"/>
<path d="M41.49 16.47C40.9 15.54 40.05 14.9 39.1 14.65C38.79 14.57 38.46 14.53 38.13 14.54H19.12C18.63 14.54 18.24 14.93 18.24 15.42C18.24 15.91 18.63 16.3 19.12 16.3H38.14C38.32 16.3 38.49 16.32 38.65 16.36C39.85 16.67 40.51 18.13 40.51 19.03C40.51 20.62 39.22 21.91 37.63 21.91C36.04 21.91 34.75 20.62 34.75 19.03C34.75 18.77 34.78 18.51 34.85 18.27C34.98 17.8 34.7 17.32 34.23 17.19C33.76 17.06 33.28 17.34 33.15 17.81C33.04 18.21 32.98 18.62 32.98 19.04C32.98 21.6 35.06 23.68 37.62 23.68C40.18 23.68 42.26 21.6 42.26 19.04C42.26 18.2 41.97 17.27 41.47 16.49L41.49 16.47Z" fill="#BF7345"/>
<path d="M36.45 12.71C36.81 12.71 37.17 12.67 37.51 12.58C38.63 12.29 39.6 11.56 40.3 10.46C40.89 9.54 41.23 8.45 41.23 7.47C41.23 4.47 38.79 2.03 35.79 2.03C32.79 2.03 30.35 4.47 30.35 7.47C30.35 7.96 30.41 8.44 30.54 8.91C30.67 9.38 31.15 9.65 31.62 9.52C32.09 9.39 32.36 8.91 32.24 8.44C32.15 8.12 32.11 7.8 32.11 7.46C32.11 5.43 33.76 3.78 35.79 3.78C37.82 3.78 39.47 5.43 39.47 7.46C39.47 8.6 38.62 10.48 37.07 10.88C36.86 10.94 36.63 10.96 36.4 10.96H0.88C0.39 10.96 0 11.35 0 11.84C0 12.33 0.39 12.72 0.88 12.72H36.39C36.39 12.72 36.43 12.72 36.45 12.72V12.71Z" fill="#BF7345"/>
<path d="M0.88 9.12H3.52C4 9.12 4.4 8.73 4.4 8.24C4.4 7.75 4.01 7.36 3.52 7.36H0.88C0.39 7.36 0 7.75 0 8.24C0 8.73 0.39 9.12 0.88 9.12Z" fill="#BF7345"/>
<path d="M16.34 14.54H13C12.51 14.54 12.12 14.93 12.12 15.42C12.12 15.91 12.51 16.3 13 16.3H16.34C16.83 16.3 17.22 15.91 17.22 15.42C17.22 14.93 16.83 14.54 16.34 14.54Z" fill="#BF7345"/>
</svg>
