<svg width="19" height="37" viewBox="0 0 19 37" fill="none" xmlns="http://www.w3.org/2000/svg">
<path d="M17.33 17.6601C17.33 19.8601 15.54 21.6501 13.34 21.6501H5.5C3.3 21.6501 1.51 19.8601 1.51 17.6601V8.70006H17.34V17.6601H17.33ZM11.57 25.9701H7.26V23.0901H11.58V25.9701H11.57ZM18.05 7.26006H14.45V0.780059C14.45 0.380059 14.13 0.0600586 13.73 0.0600586C13.33 0.0600586 13.01 0.380059 13.01 0.780059V7.26006H5.82V0.780059C5.82 0.380059 5.5 0.0600586 5.1 0.0600586C4.7 0.0600586 4.38 0.380059 4.38 0.780059V7.26006H0.779998C0.379998 7.26006 0.0599976 7.58006 0.0599976 7.98006V17.6601C0.0599976 20.6501 2.5 23.0901 5.49 23.0901H5.81V26.6901C5.81 27.0901 6.13 27.4101 6.53 27.4101H8.69V35.3301C8.69 35.7301 9.01 36.0501 9.41 36.0501C9.81 36.0501 10.13 35.7301 10.13 35.3301V27.4101H12.29C12.69 27.4101 13.01 27.0901 13.01 26.6901V23.0901H13.33C16.32 23.0901 18.76 20.6501 18.76 17.6601V7.98006C18.76 7.58006 18.44 7.26006 18.04 7.26006" fill="#BF7345"/>
<path d="M17.33 17.6601C17.33 19.8601 15.54 21.6501 13.34 21.6501H5.5C3.3 21.6501 1.51 19.8601 1.51 17.6601V8.70006H17.34V17.6601H17.33ZM11.57 25.9701H7.26V23.0901H11.58V25.9701H11.57ZM18.05 7.26006H14.45V0.780059C14.45 0.380059 14.13 0.0600586 13.73 0.0600586C13.33 0.0600586 13.01 0.380059 13.01 0.780059V7.26006H5.82V0.780059C5.82 0.380059 5.5 0.0600586 5.1 0.0600586C4.7 0.0600586 4.38 0.380059 4.38 0.780059V7.26006H0.779998C0.379998 7.26006 0.0599976 7.58006 0.0599976 7.98006V17.6601C0.0599976 20.6501 2.5 23.0901 5.49 23.0901H5.81V26.6901C5.81 27.0901 6.13 27.4101 6.53 27.4101H8.69V35.3301C8.69 35.7301 9.01 36.0501 9.41 36.0501C9.81 36.0501 10.13 35.7301 10.13 35.3301V27.4101H12.29C12.69 27.4101 13.01 27.0901 13.01 26.6901V23.0901H13.33C16.32 23.0901 18.76 20.6501 18.76 17.6601V7.98006C18.76 7.58006 18.44 7.26006 18.04 7.26006H18.05Z" stroke="#BF7345" stroke-width="0.12" stroke-miterlimit="10"/>
</svg>
