<svg width="29" height="36" viewBox="0 0 29 36" fill="none" xmlns="http://www.w3.org/2000/svg">
<path d="M13.28 34.1001L14.11 29.6001C14.12 29.5301 14.11 29.4601 14.06 29.4101C14.01 29.3601 13.95 29.3301 13.88 29.3301H10.04L15.21 21.7701L14.38 26.2701C14.37 26.3401 14.38 26.4101 14.43 26.4601C14.47 26.5101 14.54 26.5401 14.61 26.5401H18.45L13.28 34.1001ZM19.1 26.2001C19.06 26.1201 18.98 26.0801 18.89 26.0801H14.89L15.87 20.7801C15.89 20.6701 15.83 20.5601 15.73 20.5201C15.63 20.4801 15.51 20.5201 15.45 20.6001L9.40999 29.4201C9.35999 29.4901 9.35999 29.5801 9.39999 29.6601C9.43999 29.7401 9.51999 29.7801 9.59999 29.7801H13.6L12.62 35.0801C12.6 35.1901 12.66 35.2901 12.76 35.3401C12.79 35.3501 12.82 35.3601 12.85 35.3601C12.92 35.3601 13 35.3201 13.04 35.2601L19.08 26.4401C19.13 26.3701 19.13 26.2801 19.09 26.2001H19.1Z" fill="#BF7345"/>
<path d="M13.28 34.1001L14.11 29.6001C14.12 29.5301 14.11 29.4601 14.06 29.4101C14.01 29.3601 13.95 29.3301 13.88 29.3301H10.04L15.21 21.7701L14.38 26.2701C14.37 26.3401 14.38 26.4101 14.43 26.4601C14.47 26.5101 14.54 26.5401 14.61 26.5401H18.45L13.28 34.1001ZM19.1 26.2001C19.06 26.1201 18.98 26.0801 18.89 26.0801H14.89L15.87 20.7801C15.89 20.6701 15.83 20.5601 15.73 20.5201C15.63 20.4801 15.51 20.5201 15.45 20.6001L9.40999 29.4201C9.35999 29.4901 9.35999 29.5801 9.39999 29.6601C9.43999 29.7401 9.51999 29.7801 9.59999 29.7801H13.6L12.62 35.0801C12.6 35.1901 12.66 35.2901 12.76 35.3401C12.79 35.3501 12.82 35.3601 12.85 35.3601C12.92 35.3601 13 35.3201 13.04 35.2601L19.08 26.4401C19.13 26.3701 19.13 26.2801 19.09 26.2001H19.1Z" stroke="#BF7345" stroke-width="0.47" stroke-miterlimit="10"/>
<path d="M13.28 34.1001L14.11 29.6001C14.12 29.5301 14.11 29.4601 14.06 29.4101C14.01 29.3601 13.95 29.3301 13.88 29.3301H10.04L15.21 21.7701L14.38 26.2701C14.37 26.3401 14.38 26.4101 14.43 26.4601C14.47 26.5101 14.54 26.5401 14.61 26.5401H18.45L13.28 34.1001ZM19.1 26.2001C19.06 26.1201 18.98 26.0801 18.89 26.0801H14.89L15.87 20.7801C15.89 20.6701 15.83 20.5601 15.73 20.5201C15.63 20.4801 15.51 20.5201 15.45 20.6001L9.40999 29.4201C9.35999 29.4901 9.35999 29.5801 9.39999 29.6601C9.43999 29.7401 9.51999 29.7801 9.59999 29.7801H13.6L12.62 35.0801C12.6 35.1901 12.66 35.2901 12.76 35.3401C12.79 35.3501 12.82 35.3601 12.85 35.3601C12.92 35.3601 13 35.3201 13.04 35.2601L19.08 26.4401C19.13 26.3701 19.13 26.2801 19.09 26.2001H19.1Z" fill="#BF7345"/>
<path d="M13.28 34.1001L14.11 29.6001C14.12 29.5301 14.11 29.4601 14.06 29.4101C14.01 29.3601 13.95 29.3301 13.88 29.3301H10.04L15.21 21.7701L14.38 26.2701C14.37 26.3401 14.38 26.4101 14.43 26.4601C14.47 26.5101 14.54 26.5401 14.61 26.5401H18.45L13.28 34.1001ZM19.1 26.2001C19.06 26.1201 18.98 26.0801 18.89 26.0801H14.89L15.87 20.7801C15.89 20.6701 15.83 20.5601 15.73 20.5201C15.63 20.4801 15.51 20.5201 15.45 20.6001L9.40999 29.4201C9.35999 29.4901 9.35999 29.5801 9.39999 29.6601C9.43999 29.7401 9.51999 29.7801 9.59999 29.7801H13.6L12.62 35.0801C12.6 35.1901 12.66 35.2901 12.76 35.3401C12.79 35.3501 12.82 35.3601 12.85 35.3601C12.92 35.3601 13 35.3201 13.04 35.2601L19.08 26.4401C19.13 26.3701 19.13 26.2801 19.09 26.2001H19.1Z" stroke="#BF7345" stroke-width="0.47" stroke-miterlimit="10"/>
<path d="M2.09998 2.16998H10.51V8.70998H2.09998V2.16998ZM1.62998 9.63998H10.98C11.24 9.63998 11.45 9.42998 11.45 9.16998V1.69998C11.45 1.43998 11.24 1.22998 10.98 1.22998H1.63998C1.37998 1.22998 1.16998 1.43998 1.16998 1.69998V9.16998C1.16998 9.42998 1.37998 9.63998 1.63998 9.63998" fill="#BF7345"/>
<path d="M2.09998 2.16998H10.51V8.70998H2.09998V2.16998ZM1.62998 9.63998H10.98C11.24 9.63998 11.45 9.42998 11.45 9.16998V1.69998C11.45 1.43998 11.24 1.22998 10.98 1.22998H1.63998C1.37998 1.22998 1.16998 1.43998 1.16998 1.69998V9.16998C1.16998 9.42998 1.37998 9.63998 1.63998 9.63998H1.62998Z" stroke="#BF7345" stroke-width="0.47" stroke-miterlimit="10"/>
<path d="M11.44 19.91C11.96 19.91 12.37 19.49 12.37 18.98V9.63996C12.37 9.11996 11.95 8.70996 11.44 8.70996H1.16999C0.64999 8.70996 0.23999 9.12996 0.23999 9.63996V18.98C0.23999 19.49 0.65999 19.91 1.16999 19.91H11.44ZM1.16999 9.63996H11.44V18.98H1.16999V9.63996Z" fill="#BF7345"/>
<path d="M11.44 19.91C11.96 19.91 12.37 19.49 12.37 18.98V9.63996C12.37 9.11996 11.95 8.70996 11.44 8.70996H1.16999C0.64999 8.70996 0.23999 9.12996 0.23999 9.63996V18.98C0.23999 19.49 0.65999 19.91 1.16999 19.91H11.44ZM1.16999 9.63996H11.44V18.98H1.16999V9.63996Z" stroke="#BF7345" stroke-width="0.47" stroke-miterlimit="10"/>
<path d="M7.70999 22.25C8.22999 22.25 8.63999 21.83 8.63999 21.32V19.45C8.63999 19.19 8.42999 18.98 8.16999 18.98H4.42999C4.16999 18.98 3.95999 19.19 3.95999 19.45V21.32C3.95999 21.84 4.37999 22.25 4.88999 22.25H7.68999H7.70999ZM4.90999 19.92H7.70999V21.32H4.90999V19.92Z" fill="#BF7345"/>
<path d="M7.70999 22.25C8.22999 22.25 8.63999 21.83 8.63999 21.32V19.45C8.63999 19.19 8.42999 18.98 8.16999 18.98H4.42999C4.16999 18.98 3.95999 19.19 3.95999 19.45V21.32C3.95999 21.84 4.37999 22.25 4.88999 22.25H7.68999H7.70999ZM4.90999 19.92H7.70999V21.32H4.90999V19.92Z" stroke="#BF7345" stroke-width="0.47" stroke-miterlimit="10"/>
<path d="M3.96998 4.96979H4.89998V5.89979H3.96998V4.96979ZM3.49998 6.83979H5.36998C5.62998 6.83979 5.83998 6.62979 5.83998 6.36979V4.49979C5.83998 4.23979 5.62998 4.02979 5.36998 4.02979H3.49998C3.23998 4.02979 3.02998 4.23979 3.02998 4.49979V6.36979C3.02998 6.62979 3.23998 6.83979 3.49998 6.83979Z" fill="#BF7345"/>
<path d="M3.96998 4.96979H4.89998V5.89979H3.96998V4.96979ZM3.49998 6.83979H5.36998C5.62998 6.83979 5.83998 6.62979 5.83998 6.36979V4.49979C5.83998 4.23979 5.62998 4.02979 5.36998 4.02979H3.49998C3.23998 4.02979 3.02998 4.23979 3.02998 4.49979V6.36979C3.02998 6.62979 3.23998 6.83979 3.49998 6.83979Z" stroke="#BF7345" stroke-width="0.47" stroke-miterlimit="10"/>
<path d="M7.70999 4.96979H8.63999V5.89979H7.70999V4.96979ZM7.23999 6.83979H9.10999C9.36999 6.83979 9.57999 6.62979 9.57999 6.36979V4.49979C9.57999 4.23979 9.36999 4.02979 9.10999 4.02979H7.23999C6.97999 4.02979 6.76999 4.23979 6.76999 4.49979V6.36979C6.76999 6.62979 6.97999 6.83979 7.23999 6.83979Z" fill="#BF7345"/>
<path d="M7.70999 4.96979H8.63999V5.89979H7.70999V4.96979V4.96979ZM7.23999 6.83979H9.10999C9.36999 6.83979 9.57999 6.62979 9.57999 6.36979V4.49979C9.57999 4.23979 9.36999 4.02979 9.10999 4.02979H7.23999C6.97999 4.02979 6.76999 4.23979 6.76999 4.49979V6.36979C6.76999 6.62979 6.97999 6.83979 7.23999 6.83979V6.83979Z" stroke="#BF7345" stroke-width="0.47" stroke-miterlimit="10"/>
<path d="M17.98 2.16998H26.39V8.70998H17.98V2.16998ZM17.51 9.63998H26.85C27.11 9.63998 27.32 9.42998 27.32 9.16998V1.69998C27.32 1.43998 27.11 1.22998 26.85 1.22998H17.51C17.25 1.22998 17.04 1.43998 17.04 1.69998V9.16998C17.04 9.42998 17.25 9.63998 17.51 9.63998Z" fill="#BF7345"/>
<path d="M17.98 2.16998H26.39V8.70998H17.98V2.16998ZM17.51 9.63998H26.85C27.11 9.63998 27.32 9.42998 27.32 9.16998V1.69998C27.32 1.43998 27.11 1.22998 26.85 1.22998H17.51C17.25 1.22998 17.04 1.43998 17.04 1.69998V9.16998C17.04 9.42998 17.25 9.63998 17.51 9.63998Z" stroke="#BF7345" stroke-width="0.47" stroke-miterlimit="10"/>
<path d="M27.32 19.91C27.84 19.91 28.25 19.49 28.25 18.98V9.63996C28.25 9.11996 27.83 8.70996 27.32 8.70996H17.05C16.53 8.70996 16.12 9.12996 16.12 9.63996V18.98C16.12 19.49 16.54 19.91 17.05 19.91H27.32ZM17.05 9.63996H27.32V18.98H17.05V9.63996Z" fill="#BF7345"/>
<path d="M27.32 19.91C27.84 19.91 28.25 19.49 28.25 18.98V9.63996C28.25 9.11996 27.83 8.70996 27.32 8.70996H17.05C16.53 8.70996 16.12 9.12996 16.12 9.63996V18.98C16.12 19.49 16.54 19.91 17.05 19.91H27.32ZM17.05 9.63996H27.32V18.98H17.05V9.63996Z" stroke="#BF7345" stroke-width="0.47" stroke-miterlimit="10"/>
<path d="M23.58 22.25C24.1 22.25 24.51 21.83 24.51 21.32V19.45C24.51 19.19 24.3 18.98 24.04 18.98H20.3C20.04 18.98 19.83 19.19 19.83 19.45V21.32C19.83 21.84 20.25 22.25 20.76 22.25H23.56H23.58ZM20.78 19.92H23.58V21.32H20.78V19.92Z" fill="#BF7345"/>
<path d="M23.58 22.25C24.1 22.25 24.51 21.83 24.51 21.32V19.45C24.51 19.19 24.3 18.98 24.04 18.98H20.3C20.04 18.98 19.83 19.19 19.83 19.45V21.32C19.83 21.84 20.25 22.25 20.76 22.25H23.56H23.58ZM20.78 19.92H23.58V21.32H20.78V19.92Z" stroke="#BF7345" stroke-width="0.47" stroke-miterlimit="10"/>
<path d="M7.70999 23.6601V21.7801C7.70999 21.5201 7.49999 21.3101 7.23999 21.3101H5.36999C5.10999 21.3101 4.89999 21.5201 4.89999 21.7801V23.6601C4.89999 26.1501 6.53999 28.2601 8.78999 28.9801L9.34999 28.1701C7.32999 27.6601 5.82999 25.8301 5.82999 23.6601V22.2501H6.75999V23.6601C6.75999 25.5201 8.12999 27.0601 9.91999 27.3401L10.53 26.4501H10.5C8.94999 26.4501 7.69999 25.2001 7.69999 23.6601M23.11 21.3101H21.24C20.98 21.3101 20.77 21.5201 20.77 21.7801V23.6501C20.77 24.5301 20.37 25.3101 19.73 25.8201C19.73 25.8201 19.73 25.8401 19.74 25.8401C19.91 26.1601 19.89 26.5501 19.68 26.8601L19.57 27.0201C20.82 26.4201 21.69 25.1301 21.69 23.6501V22.2501H22.62V23.6501C22.62 25.9601 20.93 27.8901 18.72 28.2601L18.04 29.2601C21.09 29.2201 23.56 26.7201 23.56 23.6601V21.7901C23.56 21.5301 23.35 21.3201 23.09 21.3201" fill="#BF7345"/>
<path d="M7.70999 23.6601V21.7801C7.70999 21.5201 7.49999 21.3101 7.23999 21.3101H5.36999C5.10999 21.3101 4.89999 21.5201 4.89999 21.7801V23.6601C4.89999 26.1501 6.53999 28.2601 8.78999 28.9801L9.34999 28.1701C7.32999 27.6601 5.82999 25.8301 5.82999 23.6601V22.2501H6.75999V23.6601C6.75999 25.5201 8.12999 27.0601 9.91999 27.3401L10.53 26.4501H10.5C8.94999 26.4501 7.69999 25.2001 7.69999 23.6601H7.70999ZM23.12 21.3101H21.25C20.99 21.3101 20.78 21.5201 20.78 21.7801V23.6501C20.78 24.5301 20.38 25.3101 19.74 25.8201C19.74 25.8201 19.74 25.8401 19.75 25.8401C19.92 26.1601 19.9 26.5501 19.69 26.8601L19.58 27.0201C20.83 26.4201 21.7 25.1301 21.7 23.6501V22.2501H22.63V23.6501C22.63 25.9601 20.94 27.8901 18.73 28.2601L18.05 29.2601C21.1 29.2201 23.57 26.7201 23.57 23.6601V21.7901C23.57 21.5301 23.36 21.3201 23.1 21.3201L23.12 21.3101Z" stroke="#BF7345" stroke-width="0.47" stroke-miterlimit="10"/>
<path d="M20.83 6.58016C20.94 6.81016 21.23 6.90016 21.46 6.79016C21.69 6.68016 21.78 6.39016 21.67 6.16016L20.74 4.29016C20.57 3.95016 20.08 3.95016 19.91 4.29016L18.98 6.16016C18.86 6.39016 18.96 6.67016 19.19 6.79016C19.42 6.90016 19.7 6.81016 19.82 6.58016L20.34 5.55016L20.86 6.58016H20.83Z" fill="#BF7345"/>
<path d="M20.83 6.58016C20.94 6.81016 21.23 6.90016 21.46 6.79016C21.69 6.68016 21.78 6.39016 21.67 6.16016L20.74 4.29016C20.57 3.95016 20.08 3.95016 19.91 4.29016L18.98 6.16016C18.86 6.39016 18.96 6.67016 19.19 6.79016C19.42 6.90016 19.7 6.81016 19.82 6.58016L20.34 5.55016L20.86 6.58016H20.83Z" stroke="#BF7345" stroke-width="0.47" stroke-miterlimit="10"/>
<path d="M24.57 6.58016C24.68 6.81016 24.97 6.90016 25.2 6.79016C25.43 6.68016 25.52 6.39016 25.41 6.16016L24.48 4.29016C24.31 3.95016 23.82 3.95016 23.65 4.29016L22.72 6.16016C22.6 6.39016 22.7 6.67016 22.93 6.79016C23.16 6.90016 23.44 6.81016 23.56 6.58016L24.08 5.55016L24.6 6.58016H24.57Z" fill="#BF7345"/>
<path d="M24.57 6.58016C24.68 6.81016 24.97 6.90016 25.2 6.79016C25.43 6.68016 25.52 6.39016 25.41 6.16016L24.48 4.29016C24.31 3.95016 23.82 3.95016 23.65 4.29016L22.72 6.16016C22.6 6.39016 22.7 6.67016 22.93 6.79016C23.16 6.90016 23.44 6.81016 23.56 6.58016L24.08 5.55016L24.6 6.58016H24.57Z" stroke="#BF7345" stroke-width="0.47" stroke-miterlimit="10"/>
</svg>
