<svg width="44" height="45" viewBox="0 0 44 45" fill="none" xmlns="http://www.w3.org/2000/svg">
<path d="M28.92 37.05C26.2 37.05 23.99 34.84 23.99 32.12C23.99 30.34 24.94 28.78 26.35 27.91C26.47 27.84 26.55 27.7 26.55 27.56V15.1C26.55 13.79 27.61 12.73 28.92 12.73C30.23 12.73 31.29 13.79 31.29 15.1V27.55C31.29 27.7 31.36 27.83 31.49 27.9C32.9 28.77 33.85 30.33 33.85 32.11C33.85 34.83 31.64 37.04 28.91 37.04M19.61 37.04C13.98 37.04 9.39999 32.47 9.39999 26.83C9.39999 25.12 10.35 22.55 11.65 19.8C14.29 14.25 18.4 7.98001 19.61 6.16001C20.56 7.58001 23.3 11.76 25.71 16.17V27.31C24.17 28.35 23.15 30.1 23.15 32.1C23.15 33.5 23.65 34.79 24.49 35.79C23.04 36.58 21.38 37.03 19.61 37.03M32.12 27.3V15.1C32.12 13.33 30.68 11.89 28.91 11.89C27.33 11.89 26.01 13.04 25.75 14.55C22.94 9.57001 19.95 5.19001 19.95 5.19001C19.87 5.07001 19.74 5.01001 19.61 5.01001C19.48 5.01001 19.34 5.08001 19.27 5.19001C19.27 5.19001 14.05 12.84 10.91 19.45C9.53999 22.34 8.56999 25.04 8.56999 26.84C8.56999 32.93 13.52 37.88 19.61 37.88C21.6 37.88 23.47 37.35 25.08 36.43C26.1 37.33 27.44 37.88 28.91 37.88C32.09 37.88 34.68 35.3 34.68 32.11C34.68 30.11 33.67 28.36 32.12 27.32" fill="#BF7345"/>
<path d="M28.92 37.05C26.2 37.05 23.99 34.84 23.99 32.12C23.99 30.34 24.94 28.78 26.35 27.91C26.47 27.84 26.55 27.7 26.55 27.56V15.1C26.55 13.79 27.61 12.73 28.92 12.73C30.23 12.73 31.29 13.79 31.29 15.1V27.55C31.29 27.7 31.36 27.83 31.49 27.9C32.9 28.77 33.85 30.33 33.85 32.11C33.85 34.83 31.64 37.04 28.91 37.04L28.92 37.05ZM19.62 37.05C13.99 37.05 9.41 32.48 9.41 26.84C9.41 25.13 10.36 22.56 11.66 19.81C14.3 14.26 18.41 7.99001 19.62 6.17001C20.57 7.59001 23.31 11.77 25.72 16.18V27.32C24.18 28.36 23.16 30.11 23.16 32.11C23.16 33.51 23.66 34.8 24.5 35.8C23.05 36.59 21.39 37.04 19.62 37.04V37.05ZM32.13 27.32V15.1C32.13 13.33 30.69 11.89 28.92 11.89C27.34 11.89 26.02 13.04 25.76 14.55C22.95 9.57001 19.96 5.19001 19.96 5.19001C19.88 5.07001 19.75 5.01001 19.62 5.01001C19.49 5.01001 19.35 5.08001 19.28 5.19001C19.28 5.19001 14.06 12.84 10.92 19.45C9.55 22.34 8.58 25.04 8.58 26.84C8.58 32.93 13.53 37.88 19.62 37.88C21.61 37.88 23.48 37.35 25.09 36.43C26.11 37.33 27.45 37.88 28.92 37.88C32.1 37.88 34.69 35.3 34.69 32.11C34.69 30.11 33.68 28.36 32.13 27.32V27.32Z" stroke="#BF7345" stroke-width="0.25" stroke-miterlimit="10"/>
<path d="M28.92 34.2202C27.74 34.2202 26.78 33.2602 26.78 32.0802C26.78 31.1302 27.39 30.3402 28.24 30.0502C28.41 30.0002 28.53 29.8402 28.53 29.6502V16.1402C28.53 15.9202 28.71 15.7402 28.93 15.7402C29.15 15.7402 29.33 15.9202 29.33 16.1402V29.6402C29.33 29.8202 29.45 29.9802 29.62 30.0402C30.47 30.3302 31.08 31.1302 31.08 32.0702C31.08 33.2502 30.12 34.2102 28.94 34.2102M30.17 29.3602V16.1402C30.17 15.4602 29.62 14.9102 28.94 14.9102C28.26 14.9102 27.71 15.4602 27.71 16.1402V29.3602C26.68 29.8302 25.96 30.8702 25.96 32.0702C25.96 33.7102 27.29 35.0502 28.94 35.0502C30.59 35.0502 31.92 33.7102 31.92 32.0702C31.92 30.8702 31.21 29.8302 30.18 29.3602" fill="#BF7345"/>
<path d="M28.92 34.2202C27.74 34.2202 26.78 33.2602 26.78 32.0802C26.78 31.1302 27.39 30.3402 28.24 30.0502C28.41 30.0002 28.53 29.8402 28.53 29.6502V16.1402C28.53 15.9202 28.71 15.7402 28.93 15.7402C29.15 15.7402 29.33 15.9202 29.33 16.1402V29.6402C29.33 29.8202 29.45 29.9802 29.62 30.0402C30.47 30.3302 31.08 31.1302 31.08 32.0702C31.08 33.2502 30.12 34.2102 28.94 34.2102L28.92 34.2202ZM30.15 29.3702V16.1402C30.15 15.4602 29.6 14.9102 28.92 14.9102C28.24 14.9102 27.69 15.4602 27.69 16.1402V29.3602C26.66 29.8302 25.94 30.8702 25.94 32.0702C25.94 33.7102 27.27 35.0502 28.92 35.0502C30.57 35.0502 31.9 33.7102 31.9 32.0702C31.9 30.8702 31.19 29.8302 30.16 29.3602L30.15 29.3702Z" stroke="#BF7345" stroke-width="0.25" stroke-miterlimit="10"/>
<path d="M21.62 44.0301C20.86 44.0301 20.09 43.9901 19.33 43.9101C15.53 43.5101 11.91 42.1101 8.86 39.8501L8.09 39.2801L8.82 41.8601C8.87 42.0501 8.77 42.2401 8.58 42.3001C8.55 42.3001 8.51 42.3101 8.48 42.3101C8.32 42.3101 8.18 42.2001 8.14 42.0501L7.07 38.3101C7.04 38.2001 7.06 38.0901 7.12 38.0101C7.18 37.9201 7.28 37.8701 7.39 37.8601L11.28 37.7201C11.48 37.7201 11.64 37.8701 11.64 38.0601C11.64 38.1501 11.61 38.2401 11.55 38.3101C11.49 38.3801 11.4 38.4201 11.3 38.4201L8.28 38.5301L9.01 39.0901C12.02 41.3901 15.61 42.8101 19.4 43.2101C20.13 43.2901 20.88 43.3301 21.61 43.3301C26.39 43.3301 30.89 41.7301 34.62 38.7101C38.93 35.2201 41.62 30.2701 42.2 24.7601C42.67 20.3501 41.73 15.9901 39.51 12.1701C39.41 12.0001 39.47 11.7801 39.64 11.6901C39.69 11.6601 39.75 11.6401 39.82 11.6401C39.94 11.6401 40.05 11.7001 40.12 11.8001V11.8201C42.43 15.7701 43.4 20.2801 42.92 24.8401C42.32 30.5401 39.54 35.6601 35.08 39.2701C31.22 42.4001 26.56 44.0501 21.62 44.0501" fill="#BF7345"/>
<path d="M21.62 44.0301C20.86 44.0301 20.09 43.9901 19.33 43.9101C15.53 43.5101 11.91 42.1101 8.86 39.8501L8.09 39.2801L8.82 41.8601C8.87 42.0501 8.77 42.2401 8.58 42.3001C8.55 42.3001 8.51 42.3101 8.48 42.3101C8.32 42.3101 8.18 42.2001 8.14 42.0501L7.07 38.3101C7.04 38.2001 7.06 38.0901 7.12 38.0101C7.18 37.9201 7.28 37.8701 7.39 37.8601L11.28 37.7201C11.48 37.7201 11.64 37.8701 11.64 38.0601C11.64 38.1501 11.61 38.2401 11.55 38.3101C11.49 38.3801 11.4 38.4201 11.3 38.4201L8.28 38.5301L9.01 39.0901C12.02 41.3901 15.61 42.8101 19.4 43.2101C20.13 43.2901 20.88 43.3301 21.61 43.3301C26.39 43.3301 30.89 41.7301 34.62 38.7101C38.93 35.2201 41.62 30.2701 42.2 24.7601C42.67 20.3501 41.73 15.9901 39.51 12.1701C39.41 12.0001 39.47 11.7801 39.64 11.6901C39.69 11.6601 39.75 11.6401 39.82 11.6401C39.94 11.6401 40.05 11.7001 40.12 11.8001V11.8201C42.43 15.7701 43.4 20.2801 42.92 24.8401C42.32 30.5401 39.54 35.6601 35.08 39.2701C31.22 42.4001 26.56 44.0501 21.62 44.0501V44.0301Z" stroke="#BF7345" stroke-width="0.25" stroke-miterlimit="10"/>
<path d="M3.34 33.5301C3.21 33.5301 3.1 33.4601 3.03 33.3501C0.729998 29.4001 -0.240002 24.9001 0.249998 20.3301C0.849998 14.6301 3.63 9.51012 8.09 5.90012C11.94 2.78012 16.6 1.12012 21.54 1.12012C22.3 1.12012 23.07 1.16012 23.83 1.24012C27.63 1.64012 31.25 3.04012 34.3 5.30012L35.07 5.87012L34.34 3.29012C34.29 3.10012 34.4 2.91012 34.58 2.85012C34.61 2.85012 34.64 2.84012 34.68 2.84012C34.84 2.84012 34.98 2.95012 35.02 3.10012L36.09 6.84012C36.12 6.94012 36.09 7.06012 36.04 7.15012C35.98 7.24012 35.88 7.29012 35.77 7.29012L31.87 7.43012C31.68 7.43012 31.52 7.28012 31.52 7.09012C31.52 7.00012 31.55 6.91012 31.61 6.84012C31.67 6.77012 31.76 6.73012 31.86 6.73012L34.88 6.62012L34.15 6.06012C31.14 3.76012 27.55 2.34012 23.76 1.94012C23.03 1.86012 22.28 1.82012 21.55 1.82012C16.77 1.82012 12.27 3.42012 8.54 6.44012C4.22 9.94012 1.53 14.9001 0.949998 20.4101L0.929998 20.5701C0.499998 24.9301 1.44 29.2301 3.64 33.0101C3.74 33.1801 3.68 33.3901 3.51 33.4901C3.46 33.5201 3.4 33.5401 3.33 33.5401" fill="#BF7345"/>
<path d="M3.34 33.5301C3.21 33.5301 3.1 33.4601 3.03 33.3501C0.729998 29.4001 -0.240002 24.9001 0.249998 20.3301C0.849998 14.6301 3.63 9.51012 8.09 5.90012C11.94 2.78012 16.6 1.12012 21.54 1.12012C22.3 1.12012 23.07 1.16012 23.83 1.24012C27.63 1.64012 31.25 3.04012 34.3 5.30012L35.07 5.87012L34.34 3.29012C34.29 3.10012 34.4 2.91012 34.58 2.85012C34.61 2.85012 34.64 2.84012 34.68 2.84012C34.84 2.84012 34.98 2.95012 35.02 3.10012L36.09 6.84012C36.12 6.94012 36.09 7.06012 36.04 7.15012C35.98 7.24012 35.88 7.29012 35.77 7.29012L31.87 7.43012C31.68 7.43012 31.52 7.28012 31.52 7.09012C31.52 7.00012 31.55 6.91012 31.61 6.84012C31.67 6.77012 31.76 6.73012 31.86 6.73012L34.88 6.62012L34.15 6.06012C31.14 3.76012 27.55 2.34012 23.76 1.94012C23.03 1.86012 22.28 1.82012 21.55 1.82012C16.77 1.82012 12.27 3.42012 8.54 6.44012C4.22 9.94012 1.53 14.9001 0.949998 20.4101L0.929998 20.5701C0.499998 24.9301 1.44 29.2301 3.64 33.0101C3.74 33.1801 3.68 33.3901 3.51 33.4901C3.46 33.5201 3.4 33.5401 3.33 33.5401L3.34 33.5301Z" stroke="#BF7345" stroke-width="0.25" stroke-miterlimit="10"/>
</svg>
