<svg width="47" height="32" viewBox="0 0 47 32" fill="none" xmlns="http://www.w3.org/2000/svg">
<path d="M37.49 22.55L23.33 29.37L9.18 22.53L3.87 19.99L8.64 17.63L22.79 24.45C22.95 24.53 23.13 24.57 23.3 24.57C23.47 24.57 23.65 24.53 23.81 24.45L37.96 17.63L42.73 19.99L37.48 22.55H37.49ZM45.96 18.96L40.65 16.32L45.92 13.78C46.12 13.68 46.29 13.53 46.4 13.35C46.51 13.17 46.58 12.95 46.58 12.73C46.58 12.28 46.32 11.87 45.92 11.67L38.63 8.02L37.68 8.18C36.94 8.3 36.3 8.69 35.85 9.24L42.79 12.7L23.34 22.07L3.87 12.69L23.33 2.97L28.34 5.47L29.81 5.23C30.44 5.12 31.01 4.83 31.44 4.4L23.86 0.6C23.53 0.43 23.14 0.43 22.8 0.6L0.7 11.66C0.3 11.86 0.04 12.27 0.04 12.72C0.04 13.17 0.3 13.58 0.7 13.78L5.97 16.32L0.66 18.96C0.46 19.06 0.29 19.21 0.18 19.39C0.06 19.58 0 19.79 0 20.02C0 20.47 0.26 20.88 0.66 21.08L5.93 23.62L8.64 24.95L22.79 31.77C23.12 31.93 23.49 31.93 23.82 31.77L37.99 24.92L40.64 23.63L45.91 21.09C46.12 21 46.29 20.85 46.41 20.66C46.53 20.48 46.6 20.26 46.61 20.03C46.61 19.58 46.36 19.17 45.96 18.97" fill="#BF7345"/>
<path d="M33.74 13.4L32.98 8.75C32.87 8.09 32.35 7.57 31.69 7.46L27.04 6.7L31.69 5.94C32.35 5.83 32.87 5.31 32.98 4.65L33.74 0L34.5 4.65C34.61 5.31 35.13 5.83 35.79 5.94L40.44 6.7L35.79 7.46C35.13 7.57 34.61 8.09 34.5 8.75L33.74 13.4Z" fill="#BF7345"/>
<path d="M33.36 17.23L33.74 19.58L34.19 16.83L33.36 17.23Z" fill="#BF7345"/>
</svg>
