<svg width="30" height="37" viewBox="0 0 30 37" fill="none" xmlns="http://www.w3.org/2000/svg">
<path d="M23.39 35.1899C20.41 35.1899 17.99 32.7699 17.99 29.7899C17.99 27.8399 19.02 26.1299 20.57 25.1799C20.71 25.0999 20.79 24.9499 20.79 24.7899V11.1699C20.79 9.73988 21.95 8.56988 23.39 8.56988C24.83 8.56988 25.99 9.73988 25.99 11.1699V24.7999C25.99 24.9599 26.07 25.1099 26.21 25.1899C27.76 26.1399 28.79 27.8499 28.79 29.7999C28.79 32.7799 26.37 35.1999 23.39 35.1999M13.21 35.1999C7.04 35.1999 2.04 30.1899 2.04 24.0299C2.04 22.1499 3.08 19.3499 4.51 16.3299C7.39 10.2599 11.89 3.37988 13.21 1.39988C14.25 2.94988 17.25 7.52988 19.88 12.3599V24.5499C18.19 25.6799 17.08 27.6099 17.08 29.7899C17.08 31.3299 17.63 32.7399 18.55 33.8299C16.96 34.6999 15.15 35.1899 13.21 35.1899M26.9 24.5499V11.1699C26.9 9.22988 25.33 7.65988 23.39 7.65988C21.66 7.65988 20.22 8.91988 19.93 10.5699C16.86 5.10988 13.59 0.329883 13.59 0.329883C13.5 0.209883 13.36 0.129883 13.21 0.129883C13.06 0.129883 12.92 0.209883 12.83 0.329883C12.83 0.329883 7.11 8.69988 3.68 15.9399C2.18 19.0899 1.12 22.0499 1.12 24.0199C1.12 30.6899 6.54 36.1099 13.21 36.1099C15.39 36.1099 17.44 35.5299 19.2 34.5199C20.31 35.5099 21.78 36.1099 23.39 36.1099C26.87 36.1099 29.7 33.2799 29.7 29.7999C29.7 27.6199 28.59 25.6899 26.9 24.5599" fill="#BF7345"/>
<path d="M23.39 35.1899C20.41 35.1899 17.99 32.7699 17.99 29.7899C17.99 27.8399 19.02 26.1299 20.57 25.1799C20.71 25.0999 20.79 24.9499 20.79 24.7899V11.1699C20.79 9.73988 21.95 8.56988 23.39 8.56988C24.83 8.56988 25.99 9.73988 25.99 11.1699V24.7999C25.99 24.9599 26.07 25.1099 26.21 25.1899C27.76 26.1399 28.79 27.8499 28.79 29.7999C28.79 32.7799 26.37 35.1999 23.39 35.1999V35.1899ZM13.21 35.1899C7.04 35.1899 2.04 30.1799 2.04 24.0199C2.04 22.1399 3.08 19.3399 4.51 16.3199C7.39 10.2599 11.89 3.37988 13.21 1.39988C14.25 2.94988 17.25 7.52988 19.88 12.3599V24.5499C18.19 25.6799 17.08 27.6099 17.08 29.7899C17.08 31.3299 17.63 32.7399 18.55 33.8299C16.96 34.6999 15.15 35.1899 13.21 35.1899ZM26.9 24.5499V11.1699C26.9 9.22988 25.33 7.65988 23.39 7.65988C21.66 7.65988 20.22 8.91988 19.93 10.5699C16.86 5.10988 13.59 0.329883 13.59 0.329883C13.5 0.209883 13.36 0.129883 13.21 0.129883C13.06 0.129883 12.92 0.209883 12.83 0.329883C12.83 0.329883 7.11 8.69988 3.68 15.9399C2.18 19.0899 1.12 22.0499 1.12 24.0199C1.12 30.6899 6.54 36.1099 13.21 36.1099C15.39 36.1099 17.44 35.5299 19.2 34.5199C20.31 35.5099 21.78 36.1099 23.39 36.1099C26.87 36.1099 29.7 33.2799 29.7 29.7999C29.7 27.6199 28.59 25.6899 26.9 24.5599V24.5499Z" stroke="#BF7345" stroke-width="0.25" stroke-miterlimit="10"/>
<path d="M23.39 32.1C22.1 32.1 21.05 31.05 21.05 29.76C21.05 28.73 21.72 27.85 22.65 27.54C22.84 27.48 22.96 27.3 22.96 27.11V12.31C22.96 12.07 23.15 11.88 23.39 11.88C23.63 11.88 23.83 12.07 23.83 12.31V27.09C23.83 27.29 23.95 27.46 24.14 27.52C25.07 27.83 25.74 28.71 25.74 29.74C25.74 31.03 24.69 32.08 23.4 32.08M24.75 26.77V12.31C24.75 11.57 24.15 10.96 23.4 10.96C22.65 10.96 22.05 11.56 22.05 12.31V26.78C20.92 27.29 20.14 28.43 20.14 29.75C20.14 31.55 21.6 33.01 23.4 33.01C25.2 33.01 26.66 31.55 26.66 29.75C26.66 28.43 25.88 27.3 24.75 26.78" fill="#BF7345"/>
<path d="M23.39 32.1C22.1 32.1 21.05 31.05 21.05 29.76C21.05 28.73 21.72 27.85 22.65 27.54C22.84 27.48 22.96 27.3 22.96 27.11V12.31C22.96 12.07 23.15 11.88 23.39 11.88C23.63 11.88 23.83 12.07 23.83 12.31V27.09C23.83 27.29 23.95 27.46 24.14 27.52C25.07 27.83 25.74 28.71 25.74 29.74C25.74 31.03 24.69 32.08 23.4 32.08L23.39 32.1ZM24.74 26.79V12.31C24.74 11.57 24.14 10.96 23.39 10.96C22.64 10.96 22.04 11.56 22.04 12.31V26.78C20.91 27.29 20.13 28.43 20.13 29.75C20.13 31.55 21.59 33.01 23.39 33.01C25.19 33.01 26.65 31.55 26.65 29.75C26.65 28.43 25.87 27.3 24.74 26.78V26.79Z" stroke="#BF7345" stroke-width="0.25" stroke-miterlimit="10"/>
</svg>
