<svg width="36" height="38" viewBox="0 0 36 38" fill="none" xmlns="http://www.w3.org/2000/svg">
<path d="M30.12 20.93H31.22V0.55C31.22 0.24 30.98 0 30.67 0H4.73C4.42 0 4.18 0.24 4.18 0.55V20.93H5.28V1.1H30.12V20.93ZM8.08 20.93V3.94H17.11V20.97H18.21V3.94H27.24V20.97H28.42V3.35C28.42 3.04 28.18 2.8 27.87 2.8H7.53C7.22 2.8 6.98 3.04 6.98 3.35V20.93H8.08ZM9.58 6.86C9.74 6.86 9.86 6.82 9.98 6.7L10.89 5.79C11.13 5.55 11.13 5.2 10.89 5C10.65 4.76 10.3 4.76 10.1 5L9.19 5.91C8.95 6.15 8.95 6.5 9.19 6.7C9.31 6.82 9.43 6.86 9.58 6.86ZM12.5 5.72L9.9 8.32C9.66 8.56 9.66 8.91 9.9 9.11C10.02 9.23 10.17 9.27 10.29 9.27C10.45 9.27 10.57 9.23 10.68 9.11L13.28 6.51C13.52 6.27 13.52 5.92 13.28 5.72C13.04 5.52 12.69 5.48 12.49 5.72M31.96 36.35H28.85V23.85H31.96V36.35ZM27.7 36.35H24.59V23.85H27.7V36.35ZM23.48 36.35H20.37V23.85H23.48V36.35ZM19.26 36.35H16.15V23.85H19.26V36.35ZM15 36.35H11.89V23.85H15V36.35ZM10.78 36.35H7.67V23.85H10.78V36.35ZM6.52 36.35H3.43V23.85H6.54V36.35H6.52ZM35.38 23.3C35.38 22.99 35.14 22.75 34.83 22.75H0.55C0.24 22.75 0 22.98 0 23.3C0 23.62 0.24 23.85 0.55 23.85H2.32V36.35H0.55C0.24 36.35 0 36.58 0 36.9C0 37.22 0.24 37.45 0.55 37.45H34.85C35.17 37.45 35.4 37.21 35.4 36.9C35.4 36.59 35.16 36.35 34.85 36.35H33.08V23.85H34.85C35.17 23.85 35.4 23.61 35.4 23.3" fill="#BF7345"/>
</svg>
