<svg width="33" height="36" viewBox="0 0 33 36" fill="none" xmlns="http://www.w3.org/2000/svg">
<path d="M1.74999 20.6802H31.58M10.93 4.04023V6.91023M8.62999 4.04023V6.91023M6.32999 4.04023V6.91023M4.03999 4.04023V6.91023M1.74999 9.20023H31.58M1.74999 28.7102H31.58M26.99 20.1102C26.99 21.7802 26.32 23.3902 25.14 24.5702C23.96 25.7502 22.35 26.4202 20.68 26.4202C20.04 26.4202 19.4 26.3202 18.79 26.1302C17.07 25.5902 15.67 24.3402 14.93 22.6902C14.19 21.0402 14.19 19.1602 14.93 17.5202C15.67 15.8702 17.08 14.6202 18.79 14.0802C19.4 13.8902 20.04 13.7902 20.68 13.7902C22.35 13.7902 23.96 14.4602 25.14 15.6402C26.32 16.8202 26.99 18.4302 26.99 20.1002V20.1102ZM20.68 26.4202C20.04 26.4202 19.4 26.3202 18.79 26.1302C17.07 25.5902 15.67 24.3402 14.93 22.6902C14.19 21.0402 14.19 19.1602 14.93 17.5202C15.67 15.8702 17.08 14.6202 18.79 14.0802C19.4 13.8902 20.04 13.7902 20.68 13.7902C22.93 13.7902 25.02 14.9902 26.15 16.9502C27.28 18.9002 27.28 21.3102 26.15 23.2602C25.02 25.2102 22.94 26.4102 20.68 26.4102V26.4202ZM20.68 11.5102C18.4 11.5102 16.21 12.4202 14.6 14.0302C12.99 15.6402 12.08 17.8302 12.08 20.1102C12.08 22.3902 12.99 24.5802 14.6 26.2002C16.21 27.8102 18.4 28.7202 20.68 28.7202C22.96 28.7202 25.15 27.8102 26.76 26.2002C28.37 24.5902 29.28 22.4002 29.28 20.1102C29.28 17.8302 28.38 15.6402 26.76 14.0202C25.15 12.4102 22.95 11.5002 20.67 11.5002L20.68 11.5102ZM12.08 20.1102C12.08 22.3602 12.96 24.5302 14.55 26.1302C13.94 26.3202 13.3 26.4202 12.66 26.4202C10.41 26.4202 8.31999 25.2202 7.18999 23.2702C6.05999 21.3202 6.05999 18.9102 7.18999 16.9602C8.31999 15.0102 10.4 13.8102 12.66 13.8102C13.3 13.8102 13.94 13.9102 14.55 14.1002C12.97 15.7102 12.08 17.8702 12.08 20.1202V20.1102ZM14.55 26.1302C15.17 26.7702 15.89 27.3002 16.67 27.7202C14 29.1302 10.79 29.0302 8.20999 27.4802C5.62999 25.9202 4.04999 23.1302 4.04999 20.1102C4.04999 17.0902 5.62999 14.3002 8.20999 12.7402C10.79 11.1802 14 11.0902 16.67 12.5002C14.26 13.7702 12.6 16.1002 12.18 18.7802C11.76 21.4702 12.64 24.1902 14.54 26.1302H14.55ZM28.71 5.48023C28.71 6.27023 28.07 6.91023 27.28 6.91023C26.49 6.91023 25.85 6.27023 25.85 5.48023C25.85 4.69023 26.49 4.05023 27.28 4.05023C28.07 4.05023 28.71 4.69023 28.71 5.48023ZM25.27 32.7302H29.86V34.4502C29.86 34.6002 29.8 34.7502 29.69 34.8602C29.58 34.9702 29.44 35.0302 29.28 35.0302H25.84C25.52 35.0302 25.27 34.7702 25.27 34.4602V32.7402V32.7302ZM3.46999 32.7302H8.05999V34.4502C8.05999 34.6002 7.99999 34.7502 7.88999 34.8602C7.77999 34.9702 7.63999 35.0302 7.47999 35.0302H4.03999C3.71999 35.0302 3.46999 34.7702 3.46999 34.4602V32.7402V32.7302ZM20.68 28.7102C18.4 28.7102 16.21 27.8002 14.6 26.1902C12.99 24.5802 12.08 22.3902 12.08 20.1002C12.08 17.8102 12.99 15.6302 14.6 14.0202C16.21 12.4102 18.4 11.5002 20.68 11.5002C22.96 11.5002 25.15 12.4102 26.76 14.0202C28.37 15.6302 29.28 17.8202 29.28 20.1002C29.28 22.3802 28.38 24.5702 26.76 26.1902C25.14 27.8102 22.96 28.7102 20.67 28.7102H20.68ZM30.43 1.75023H2.88999C2.58999 1.75023 2.29999 1.87023 2.07999 2.09023C1.85999 2.31023 1.73999 2.60023 1.73999 2.90023V31.5802C1.73999 31.8802 1.85999 32.1802 2.07999 32.3902C2.29999 32.6002 2.58999 32.7302 2.88999 32.7302H30.43C30.73 32.7302 31.02 32.6102 31.24 32.3902C31.46 32.1702 31.58 31.8802 31.58 31.5802V2.89023C31.58 2.59023 31.46 2.29023 31.24 2.08023C31.02 1.87023 30.73 1.74023 30.43 1.74023V1.75023Z" stroke="#BF7345" stroke-width="1.49" stroke-linecap="round" stroke-linejoin="round"/>
</svg>
