<svg width="35" height="35" viewBox="0 0 35 35" fill="none" xmlns="http://www.w3.org/2000/svg">
<path d="M15.65 20.94L26.96 32.25C28.42 33.71 30.79 33.71 32.25 32.25C33.71 30.79 33.71 28.42 32.25 26.96L20.94 15.65L18.56 15.39L15.38 18.57L15.64 20.95L15.65 20.94ZM29.6 34.42C28.31 34.42 27.1 33.92 26.19 33.01L14.75 21.57C14.66 21.48 14.61 21.37 14.6 21.25L14.29 18.43C14.27 18.27 14.33 18.11 14.44 17.99L17.98 14.45C18.09 14.34 18.26 14.28 18.42 14.3L21.24 14.61C21.36 14.62 21.47 14.68 21.56 14.76L33 26.2C33.91 27.11 34.41 28.32 34.41 29.61C34.41 30.9 33.91 32.11 33 33.02C32.09 33.93 30.88 34.43 29.59 34.43L29.6 34.42Z" fill="#BF7345"/>
<path d="M28.85 31.35C28.71 31.35 28.57 31.3 28.47 31.19L18.03 20.75C17.82 20.54 17.82 20.2 18.03 19.99C18.24 19.78 18.58 19.78 18.79 19.99L29.23 30.43C29.44 30.64 29.44 30.98 29.23 31.19C29.13 31.3 28.99 31.35 28.85 31.35Z" fill="#BF7345"/>
<path d="M30.81 29.39C30.67 29.39 30.53 29.34 30.43 29.23L19.99 18.79C19.78 18.58 19.78 18.24 19.99 18.03C20.2 17.82 20.54 17.82 20.75 18.03L31.19 28.47C31.4 28.68 31.4 29.02 31.19 29.23C31.09 29.34 30.95 29.39 30.81 29.39Z" fill="#BF7345"/>
<path d="M1.96001 3.81995L3.76001 4.57995C3.82001 4.60995 3.88001 4.64995 3.93001 4.68995L15.84 16.6L16.61 15.82L4.70001 3.91995C4.70001 3.91995 4.61001 3.80995 4.59001 3.74995L3.83001 1.94995L2.47001 1.19995L1.21001 2.44995L1.96001 3.80995V3.81995ZM15.83 17.9C15.69 17.9 15.55 17.85 15.45 17.74L3.23001 5.52995L1.36001 4.72995C1.25001 4.67995 1.16001 4.59995 1.10001 4.49995L0.0700142 2.62995C-0.0499858 2.41995 -0.00998583 2.15995 0.160014 1.98995L1.99001 0.159953C2.16001 -0.0100469 2.42001 -0.0500469 2.63001 0.0699531L4.51001 1.10995C4.61001 1.16995 4.70001 1.25995 4.74001 1.36995L5.54001 3.23995L17.75 15.45C17.96 15.66 17.96 16 17.75 16.21L16.22 17.75C16.11 17.85 15.98 17.91 15.84 17.91L15.83 17.9Z" fill="#BF7345"/>
<path d="M22.23 16.72C22.09 16.72 21.95 16.67 21.85 16.56C21.64 16.35 21.64 16.01 21.85 15.8L24.64 13.01C24.79 12.86 25.01 12.81 25.2 12.88C27.41 13.67 29.9 13.11 31.56 11.46C33.01 10.01 33.62 7.91995 33.22 5.94995L29.63 9.53995C29.42 9.74995 29.08 9.74995 28.87 9.53995L24.88 5.54995C24.78 5.44995 24.72 5.30995 24.72 5.16995C24.72 5.02995 24.78 4.88995 24.88 4.78995L28.47 1.19995C26.49 0.799953 24.41 1.40995 22.96 2.85995C21.3 4.51995 20.74 7.00995 21.54 9.21995C21.61 9.41995 21.56 9.62995 21.41 9.77995L16.36 14.83C16.15 15.04 15.81 15.04 15.6 14.83C15.39 14.62 15.39 14.28 15.6 14.07L20.41 9.25995C20.05 8.08995 20 6.85995 20.26 5.65995C20.55 4.30995 21.22 3.07995 22.2 2.09995C23.18 1.11995 24.41 0.449953 25.76 0.159953C27.07 -0.120047 28.43 -0.0300469 29.69 0.419953C29.86 0.479953 29.99 0.629953 30.03 0.809953C30.07 0.989953 30.02 1.17995 29.89 1.30995L26.03 5.16995L29.26 8.39995L33.12 4.53995C33.25 4.40995 33.44 4.35995 33.62 4.39995C33.8 4.43995 33.95 4.56995 34.01 4.73995C34.46 5.99995 34.55 7.35995 34.27 8.66995C33.98 10.02 33.31 11.25 32.33 12.23C31.35 13.21 30.12 13.88 28.77 14.17C27.57 14.43 26.33 14.37 25.17 14.02L22.62 16.57C22.52 16.67 22.38 16.73 22.24 16.73L22.23 16.72Z" fill="#BF7345"/>
<path d="M7.16001 34.42C6.34001 34.42 5.52001 34.28 4.74001 34C4.57001 33.94 4.44001 33.79 4.40001 33.61C4.36001 33.43 4.41001 33.24 4.54001 33.11L8.40001 29.25L5.17001 26.02L1.31001 29.88C1.18001 30.01 0.990014 30.06 0.810014 30.02C0.630014 29.98 0.480014 29.85 0.420014 29.68C-0.0299858 28.42 -0.119986 27.06 0.160014 25.75C0.450014 24.4 1.12001 23.17 2.10001 22.2C3.08001 21.22 4.31001 20.55 5.65001 20.26C6.85001 20 8.09001 20.06 9.25001 20.41L14.06 15.6C14.27 15.39 14.61 15.39 14.82 15.6C15.03 15.81 15.03 16.15 14.82 16.36L9.77001 21.41C9.62002 21.56 9.40001 21.61 9.21001 21.54C7.00001 20.75 4.51001 21.31 2.85001 22.96C1.40001 24.41 0.790014 26.5 1.19001 28.47L4.78001 24.88C4.88001 24.78 5.02001 24.72 5.16001 24.72C5.30001 24.72 5.44001 24.78 5.54001 24.88L9.53001 28.87C9.74001 29.08 9.74001 29.42 9.53001 29.63L5.94001 33.22C7.92001 33.62 10 33.01 11.45 31.56C13.11 29.9 13.67 27.41 12.87 25.2C12.8 25 12.85 24.79 13 24.64L15.79 21.85C16 21.64 16.34 21.64 16.55 21.85C16.76 22.06 16.76 22.4 16.55 22.61L14 25.16C14.36 26.33 14.41 27.56 14.15 28.76C13.86 30.11 13.19 31.34 12.21 32.31C11.23 33.29 10 33.96 8.65001 34.25C8.15001 34.36 7.65001 34.41 7.14001 34.41L7.16001 34.42Z" fill="#BF7345"/>
</svg>
