<svg width="42" height="36" viewBox="0 0 42 36" fill="none" xmlns="http://www.w3.org/2000/svg">
<path d="M11.02 13.7601H7.49V28.4501C7.49 29.4101 8.28 30.2001 9.24 30.2001H11.01V13.7601H11.02ZM9.26 9.30007C8.5 9.30007 7.71 9.66007 7.5 10.5201V12.2801H11.03V11.0601C11.03 10.0901 10.23 9.30007 9.27 9.30007H9.26ZM32.49 9.30007H32.26H12.08L12.32 10.0101C12.43 10.3401 12.5 10.6901 12.5 11.0601V32.7501C12.5 33.7101 13.29 34.5001 14.25 34.5001H32.49C33.45 34.5001 34.25 33.7101 34.25 32.7501V11.0601C34.25 10.0901 33.45 9.30007 32.49 9.30007ZM32.49 7.83007C34.28 7.83007 35.73 9.28007 35.73 11.0701V12.2901H40.85C41.26 12.2901 41.59 12.6101 41.59 13.0301C41.59 13.4501 41.27 13.7701 40.85 13.7701H35.73V32.7701C35.73 34.5601 34.29 36.0001 32.5 36.0001H14.26C12.48 36.0001 11.03 34.5601 11.03 32.7701V31.6901H9.26C7.48 31.6901 6.03 30.2501 6.03 28.4601V13.7601H0.74C0.33 13.7601 0 13.4301 0 13.0201C0 12.6101 0.32 12.2801 0.74 12.2801H6.03V11.0601C6.03 9.27007 7.48 7.82007 9.27 7.82007H32.49V7.83007Z" fill="#BF7345"/>
<path d="M26.13 2.20001C26.05 2.30001 25.94 2.40001 25.83 2.51001C25.56 2.77001 25.25 3.06001 25.18 3.48001V3.62001C25.18 3.97001 25.34 4.28001 25.57 4.55001C25.8 4.82001 26.1 5.06001 26.39 5.29001C26.46 5.34001 26.54 5.37001 26.63 5.37001C26.74 5.37001 26.85 5.32001 26.92 5.24001L26.94 5.21001C26.99 5.15001 27.01 5.07001 27.01 5.00001C27.01 4.89001 26.96 4.78001 26.86 4.71001C26.65 4.55001 26.41 4.35001 26.22 4.16001C26.04 3.96001 25.92 3.76001 25.93 3.63001V3.59001C25.93 3.59001 25.98 3.45001 26.06 3.36001C26.14 3.26001 26.25 3.15001 26.36 3.05001C26.5 2.92001 26.64 2.78001 26.76 2.62001C26.88 2.46001 26.98 2.28001 27 2.07001V1.97001C27 1.51001 26.73 0.72001 25.76 0.0800098C25.69 0.0400098 25.62 0.0100098 25.54 0.0100098C25.42 0.0100098 25.31 0.0600098 25.23 0.16001L25.22 0.18001C25.18 0.24001 25.17 0.30001 25.17 0.37001C25.17 0.49001 25.23 0.61001 25.34 0.68001C26.08 1.17001 26.25 1.73001 26.25 1.95001V1.99001C26.25 1.99001 26.21 2.11001 26.13 2.20001Z" fill="#BF7345"/>
<path d="M28.64 2.20001C28.56 2.30001 28.45 2.40001 28.34 2.51001C28.07 2.77001 27.75 3.06001 27.69 3.48001V3.62001C27.69 3.97001 27.85 4.28001 28.08 4.55001C28.31 4.82001 28.61 5.06001 28.9 5.29001C28.97 5.34001 29.05 5.37001 29.14 5.37001C29.25 5.37001 29.36 5.32001 29.43 5.24001L29.45 5.22001C29.5 5.16001 29.52 5.08001 29.52 5.01001C29.52 4.90001 29.47 4.79001 29.37 4.72001C29.16 4.56001 28.91 4.36001 28.73 4.16001C28.55 3.96001 28.43 3.76001 28.44 3.63001V3.59001C28.44 3.54001 28.49 3.45001 28.57 3.36001C28.65 3.26001 28.76 3.15001 28.87 3.05001C29.01 2.92001 29.15 2.78001 29.27 2.62001C29.39 2.46001 29.49 2.28001 29.51 2.07001V1.97001C29.51 1.51001 29.24 0.72001 28.27 0.0800098C28.2 0.0400098 28.13 0.0100098 28.05 0.0100098C27.93 0.0100098 27.82 0.0600098 27.74 0.16001L27.73 0.18001C27.69 0.24001 27.68 0.30001 27.68 0.37001C27.68 0.49001 27.74 0.61001 27.85 0.68001C28.59 1.17001 28.76 1.73001 28.76 1.95001V1.99001C28.76 1.99001 28.72 2.11001 28.64 2.20001Z" fill="#BF7345"/>
<path d="M31.15 2.20001C31.07 2.30001 30.96 2.40001 30.85 2.51001C30.58 2.77001 30.26 3.06001 30.2 3.48001V3.62001C30.2 3.97001 30.36 4.28001 30.59 4.55001C30.82 4.82001 31.12 5.06001 31.41 5.29001C31.48 5.34001 31.56 5.37001 31.65 5.37001C31.76 5.37001 31.87 5.32001 31.94 5.24001L31.95 5.22001C32 5.16001 32.02 5.08001 32.02 5.01001C32.02 4.90001 31.97 4.79001 31.87 4.72001C31.66 4.56001 31.42 4.36001 31.23 4.16001C31.05 3.96001 30.93 3.76001 30.94 3.63001V3.59001C30.94 3.59001 30.99 3.45001 31.07 3.36001C31.15 3.26001 31.26 3.15001 31.37 3.05001C31.51 2.92001 31.65 2.78001 31.77 2.62001C31.89 2.46001 31.99 2.28001 32.01 2.07001V1.97001C32.01 1.51001 31.74 0.72001 30.77 0.0800098C30.7 0.0400098 30.63 0.0100098 30.55 0.0100098C30.43 0.0100098 30.32 0.0600098 30.24 0.16001L30.23 0.18001C30.19 0.24001 30.18 0.30001 30.18 0.37001C30.18 0.49001 30.24 0.61001 30.35 0.68001C31.09 1.17001 31.26 1.73001 31.26 1.95001V1.99001C31.26 1.99001 31.22 2.11001 31.14 2.20001" fill="#BF7345"/>
</svg>
