<svg width="38" height="38" viewBox="0 0 38 38" fill="none" xmlns="http://www.w3.org/2000/svg">
<path d="M30.72 27.55L34.3 31.12L34.9 30.52L31.32 26.95L30.72 27.55ZM27.06 27.66L32.41 33.01L33.01 32.41L27.66 27.06L27.06 27.66ZM27.56 30.72L26.96 31.32L30.54 34.9L31.14 34.3L27.56 30.72ZM10.63 32.43C9.27004 33.79 7.06004 33.79 5.70004 32.43C3.52004 30.24 5.08004 26.48 8.17004 26.48C9.10004 26.48 9.98004 26.84 10.64 27.5C12 28.86 11.99 31.07 10.64 32.43M11.24 33.03C12.93 31.34 12.93 28.59 11.24 26.9C10.42 26.08 9.33004 25.63 8.17004 25.63C5.77004 25.63 3.83003 27.57 3.83003 29.97C3.83003 31.1 4.27004 32.2 5.10004 33.04C6.78004 34.71 9.53004 34.74 11.24 33.04M34.34 12.54C32.59 14.29 30.11 14.75 27.97 14.04C27.82 13.99 27.65 14.03 27.53 14.14C24.28 17.39 22.42 19.26 21.4 20.27C21.32 20.35 21.2 20.47 21.13 20.54L21.07 20.6L20.94 20.73C20.94 20.73 20.88 20.78 20.86 20.81C20.83 20.84 20.8 20.87 20.77 20.9C20.74 20.93 20.71 20.97 20.68 21C20.65 21.03 20.61 21.06 20.58 21.1C20.61 21.07 20.64 21.04 20.67 21.01C20.62 21.06 20.57 21.11 20.53 21.15C20.54 21.13 20.56 21.12 20.58 21.1C20.55 21.13 20.52 21.16 20.49 21.19C20.5 21.19 20.51 21.17 20.52 21.16C20.5 21.18 20.48 21.2 20.46 21.22C20.47 21.22 20.48 21.2 20.49 21.19C20.46 21.22 20.43 21.25 20.4 21.28C20.38 21.3 20.36 21.32 20.35 21.33C20.34 21.34 20.33 21.35 20.33 21.35C19.31 22.37 17.43 24.25 14.15 27.54C14.04 27.65 14 27.82 14.05 27.98C14.81 30.23 14.23 32.68 12.55 34.35C10.13 36.77 6.20004 36.77 3.78004 34.35C-0.109965 30.46 2.65003 23.76 8.16004 23.76C8.84003 23.76 9.50004 23.87 10.14 24.08C10.29 24.13 10.46 24.09 10.58 23.98C13.98 20.58 11.97 22.59 23.98 10.58C24.09 10.47 24.13 10.3 24.08 10.14C23.32 7.88004 23.9 5.44003 25.57 3.77004C27.32 2.02004 29.8 1.55004 31.92 2.27004L28.88 5.31004C28.8 5.39004 28.76 5.50004 28.76 5.61004C28.76 5.72004 28.81 5.83004 28.89 5.91004L32.22 9.23003C32.39 9.40003 32.66 9.40003 32.82 9.23003L35.85 6.20004C36.58 8.39004 36.02 10.87 34.36 12.54M17.67 15.69C17.62 15.74 15.82 17.54 15.71 17.65L8.37004 10.31L10.33 8.35004L17.67 15.69ZM10.35 7.10004C9.37004 7.97004 7.23004 10.22 7.09004 10.36L2.09004 6.86004L6.86004 2.09004L10.36 7.10004H10.35ZM20.45 22.42L22.41 20.46L23.24 21.29L21.28 23.25L20.45 22.42ZM26.49 19.24L27.9 20.65C25.59 23.65 29.47 27.53 32.47 25.22L34.74 27.49C36.75 29.5 36.75 32.75 34.74 34.76C32.75 36.75 29.5 36.78 27.47 34.76L25.2 32.49C26.17 31.23 26.11 29.39 24.92 28.2C23.73 27.01 21.89 26.95 20.63 27.92L19.22 26.52L26.49 19.25V19.24ZM34.94 13.15C37 11.08 37.58 7.92004 36.38 5.27004C36.32 5.14004 36.21 5.05004 36.07 5.03004C35.93 5.00004 35.79 5.05004 35.69 5.15004L32.5 8.34004L29.77 5.62004L32.97 2.42004C33.07 2.32004 33.11 2.18004 33.09 2.04004C33.07 1.90004 32.97 1.79004 32.85 1.73004C30.29 0.560035 27.13 1.00004 24.96 3.17004C23.12 5.01004 22.45 7.67004 23.19 10.16L18.26 15.09L10.92 7.75004L11.22 7.45004C11.37 7.30003 11.39 7.07004 11.27 6.90004L7.27004 1.18004C7.20004 1.08004 7.08004 1.01004 6.96004 1.00004C6.84004 0.990035 6.71004 1.03004 6.62004 1.12004L1.12004 6.62004C1.03004 6.71004 0.990035 6.83004 1.00004 6.96004C1.01004 7.08004 1.08004 7.20004 1.18004 7.27004L6.90004 11.26C6.97004 11.31 7.06004 11.34 7.14004 11.34C7.25004 11.34 7.36004 11.3 7.44004 11.22L7.74004 10.92L15.08 18.26L10.15 23.19C9.50004 23 8.83004 22.9 8.15004 22.9C1.88004 22.9 -1.25996 30.53 3.16004 34.95C5.92004 37.71 10.38 37.71 13.14 34.95C14.99 33.1 15.66 30.45 14.92 27.96L19.85 23.03L20.68 23.86L18.33 26.21C18.25 26.29 18.21 26.4 18.21 26.51C18.21 26.62 18.26 26.73 18.33 26.81L20.32 28.8C20.49 28.97 20.76 28.97 20.92 28.8C21.86 27.86 23.38 27.86 24.32 28.8C25.26 29.74 25.26 31.26 24.32 32.2C24.24 32.28 24.2 32.39 24.2 32.5C24.2 32.61 24.25 32.72 24.32 32.8L26.87 35.35C29.23 37.71 33.02 37.68 35.34 35.35C37.68 33.01 37.68 29.22 35.34 26.87L32.79 24.32C32.62 24.15 32.35 24.15 32.19 24.32C31.25 25.26 29.73 25.26 28.79 24.32C27.85 23.38 27.85 21.85 28.79 20.92C28.96 20.75 28.96 20.48 28.79 20.32L26.8 18.33C26.64 18.17 26.36 18.17 26.2 18.33L23.85 20.68L23.02 19.85L27.95 14.92C30.34 15.62 33.04 15.05 34.94 13.14" fill="#BF7345"/>
</svg>
