<svg width="42" height="35" viewBox="0 0 42 35" fill="none" xmlns="http://www.w3.org/2000/svg">
<path d="M19.26 4.78023C20.5 4.78023 21.53 3.75023 21.53 2.51023C21.53 1.27023 20.5 0.240234 19.26 0.240234C18.95 0.240234 18.74 0.500234 18.74 0.760234C18.74 1.02023 19 1.28023 19.26 1.28023C19.93 1.28023 20.5 1.85023 20.5 2.52023C20.5 3.19023 19.93 3.76023 19.26 3.76023C18.02 3.76023 16.99 4.79023 16.99 6.03023C16.99 7.27024 18.02 8.30023 19.26 8.30023C19.57 8.30023 19.78 8.04023 19.78 7.78023C19.78 7.47023 19.52 7.26023 19.26 7.26023C18.59 7.26023 18.02 6.69023 18.02 6.02023C18.02 5.35023 18.59 4.78023 19.26 4.78023Z" fill="#BF7345"/>
<path d="M19.26 4.78023C20.5 4.78023 21.53 3.75023 21.53 2.51023C21.53 1.27023 20.5 0.240234 19.26 0.240234C18.95 0.240234 18.74 0.500234 18.74 0.760234C18.74 1.02023 19 1.28023 19.26 1.28023C19.93 1.28023 20.5 1.85023 20.5 2.52023C20.5 3.19023 19.93 3.76023 19.26 3.76023C18.02 3.76023 16.99 4.79023 16.99 6.03023C16.99 7.27023 18.02 8.30023 19.26 8.30023C19.57 8.30023 19.78 8.04023 19.78 7.78023C19.78 7.47023 19.52 7.26023 19.26 7.26023C18.59 7.26023 18.02 6.69023 18.02 6.02023C18.02 5.35023 18.59 4.78023 19.26 4.78023V4.78023Z" stroke="#BF7345" stroke-width="0.47" stroke-miterlimit="10"/>
<path d="M23.8 4.78023C25.04 4.78023 26.07 3.75023 26.07 2.51023C26.07 1.27023 25.04 0.240234 23.8 0.240234C23.49 0.240234 23.28 0.500234 23.28 0.760234C23.28 1.02023 23.54 1.28023 23.8 1.28023C24.47 1.28023 25.04 1.85023 25.04 2.52023C25.04 3.19023 24.47 3.76023 23.8 3.76023C22.56 3.76023 21.53 4.79023 21.53 6.03023C21.53 7.27024 22.56 8.30023 23.8 8.30023C24.11 8.30023 24.32 8.04023 24.32 7.78023C24.32 7.47023 24.06 7.26023 23.8 7.26023C23.13 7.26023 22.56 6.69023 22.56 6.02023C22.61 5.35023 23.13 4.78023 23.8 4.78023Z" fill="#BF7345"/>
<path d="M23.8 4.78023C25.04 4.78023 26.07 3.75023 26.07 2.51023C26.07 1.27023 25.04 0.240234 23.8 0.240234C23.49 0.240234 23.28 0.500234 23.28 0.760234C23.28 1.02023 23.54 1.28023 23.8 1.28023C24.47 1.28023 25.04 1.85023 25.04 2.52023C25.04 3.19023 24.47 3.76023 23.8 3.76023C22.56 3.76023 21.53 4.79023 21.53 6.03023C21.53 7.27023 22.56 8.30023 23.8 8.30023C24.11 8.30023 24.32 8.04023 24.32 7.78023C24.32 7.47023 24.06 7.26023 23.8 7.26023C23.13 7.26023 22.56 6.69023 22.56 6.02023C22.61 5.35023 23.13 4.78023 23.8 4.78023V4.78023Z" stroke="#BF7345" stroke-width="0.47" stroke-miterlimit="10"/>
<path d="M9.18998 11.4904H33.41V14.4904H9.18998V11.4904ZM32.27 31.1704H28.86V18.5704C28.86 18.2604 28.65 18.0504 28.34 18.0504H14.2C13.89 18.0504 13.68 18.2604 13.68 18.5704V31.1704H10.27V15.5204H32.27V31.1704ZM34.34 31.8404C34.34 32.6704 33.67 33.3404 32.84 33.3404C32.12 33.3404 31.55 32.8704 31.39 32.2004H32.79C33.1 32.2004 33.31 31.9904 33.31 31.6804V30.4404C33.88 30.6504 34.34 31.1604 34.34 31.8304V31.8404ZM21.79 31.1704V23.2204H24.58C24.89 23.2204 25.1 23.0104 25.1 22.7004C25.1 22.3904 24.89 22.1804 24.58 22.1804H17.97C17.66 22.1804 17.45 22.3904 17.45 22.7004C17.45 23.0104 17.66 23.2204 17.97 23.2204H20.76V31.1704H14.72V19.0904H27.78V31.1704H21.79ZM9.70998 33.3404C8.87998 33.3404 8.20998 32.6704 8.20998 31.8404C8.20998 31.1704 8.61998 30.6504 9.18998 30.4504V31.6904C9.18998 32.0004 9.39998 32.2104 9.70998 32.2104H11.11C11.01 32.8804 10.44 33.3504 9.70998 33.3504V33.3404ZM1.23998 12.9904C1.23998 13.3004 1.44998 13.5104 1.75998 13.5104H8.15998V15.0104C8.15998 15.3204 8.36998 15.5304 8.67998 15.5304H9.24998V29.4204C8.10998 29.6304 7.23998 30.6604 7.23998 31.9004C7.23998 33.2904 8.37998 34.4304 9.76998 34.4304C11.06 34.4304 12.09 33.5004 12.25 32.2604H30.36C30.52 33.5004 31.6 34.4304 32.84 34.4304C34.24 34.4304 35.37 33.2904 35.37 31.9004C35.37 30.6604 34.49 29.6304 33.3 29.4204V15.5204H33.92C34.23 15.5204 34.44 15.3104 34.44 15.0004V13.5004H40.84C41.15 13.5004 41.36 13.2904 41.36 12.9804C41.36 12.6704 41.15 12.4604 40.84 12.4604H34.39V10.9604C34.39 10.6504 34.18 10.4404 33.87 10.4404H8.66998C8.35998 10.4404 8.14998 10.6504 8.14998 10.9604V12.4604H1.74998C1.43998 12.4604 1.22998 12.6704 1.22998 12.9804L1.23998 12.9904Z" fill="#BF7345"/>
<path d="M9.18998 11.4904H33.41V14.4904H9.18998V11.4904ZM32.27 31.1704H28.86V18.5704C28.86 18.2604 28.65 18.0504 28.34 18.0504H14.2C13.89 18.0504 13.68 18.2604 13.68 18.5704V31.1704H10.27V15.5204H32.27V31.1704ZM34.34 31.8404C34.34 32.6704 33.67 33.3404 32.84 33.3404C32.12 33.3404 31.55 32.8704 31.39 32.2004H32.79C33.1 32.2004 33.31 31.9904 33.31 31.6804V30.4404C33.88 30.6504 34.34 31.1604 34.34 31.8304V31.8404ZM21.79 31.1704V23.2204H24.58C24.89 23.2204 25.1 23.0104 25.1 22.7004C25.1 22.3904 24.89 22.1804 24.58 22.1804H17.97C17.66 22.1804 17.45 22.3904 17.45 22.7004C17.45 23.0104 17.66 23.2204 17.97 23.2204H20.76V31.1704H14.72V19.0904H27.78V31.1704H21.79V31.1704ZM9.70998 33.3404C8.87998 33.3404 8.20998 32.6704 8.20998 31.8404C8.20998 31.1704 8.61998 30.6504 9.18998 30.4504V31.6904C9.18998 32.0004 9.39998 32.2104 9.70998 32.2104H11.11C11.01 32.8804 10.44 33.3504 9.70998 33.3504V33.3404ZM1.23998 12.9904C1.23998 13.3004 1.44998 13.5104 1.75998 13.5104H8.15998V15.0104C8.15998 15.3204 8.36998 15.5304 8.67998 15.5304H9.24998V29.4204C8.10998 29.6304 7.23998 30.6604 7.23998 31.9004C7.23998 33.2904 8.37998 34.4304 9.76998 34.4304C11.06 34.4304 12.09 33.5004 12.25 32.2604H30.36C30.52 33.5004 31.6 34.4304 32.84 34.4304C34.24 34.4304 35.37 33.2904 35.37 31.9004C35.37 30.6604 34.49 29.6304 33.3 29.4204V15.5204H33.92C34.23 15.5204 34.44 15.3104 34.44 15.0004V13.5004H40.84C41.15 13.5004 41.36 13.2904 41.36 12.9804C41.36 12.6704 41.15 12.4604 40.84 12.4604H34.39V10.9604C34.39 10.6504 34.18 10.4404 33.87 10.4404H8.66998C8.35998 10.4404 8.14998 10.6504 8.14998 10.9604V12.4604H1.74998C1.43998 12.4604 1.22998 12.6704 1.22998 12.9804L1.23998 12.9904Z" stroke="#BF7345" stroke-width="0.47" stroke-miterlimit="10"/>
<path d="M15.8 12.9904C15.8 13.6104 14.87 13.6104 14.87 12.9904C14.87 12.3704 15.8 12.3704 15.8 12.9904Z" fill="#BF7345"/>
<path d="M15.8 12.9904C15.8 13.6104 14.87 13.6104 14.87 12.9904C14.87 12.3704 15.8 12.3704 15.8 12.9904Z" stroke="#BF7345" stroke-width="0.47" stroke-miterlimit="10"/>
<path d="M18.79 12.9904C18.79 13.6104 17.86 13.6104 17.86 12.9904C17.86 12.3704 18.79 12.3704 18.79 12.9904Z" fill="#BF7345"/>
<path d="M18.79 12.9904C18.79 13.6104 17.86 13.6104 17.86 12.9904C17.86 12.3704 18.79 12.3704 18.79 12.9904Z" stroke="#BF7345" stroke-width="0.47" stroke-miterlimit="10"/>
<path d="M21.7399 12.9904C21.7399 13.6104 20.8099 13.6104 20.8099 12.9904C20.8099 12.3704 21.7399 12.3704 21.7399 12.9904Z" fill="#BF7345"/>
<path d="M21.7399 12.9904C21.7399 13.6104 20.8099 13.6104 20.8099 12.9904C20.8099 12.3704 21.7399 12.3704 21.7399 12.9904Z" stroke="#BF7345" stroke-width="0.47" stroke-miterlimit="10"/>
<path d="M24.68 12.9904C24.68 13.6104 23.75 13.6104 23.75 12.9904C23.75 12.3704 24.68 12.3704 24.68 12.9904Z" fill="#BF7345"/>
<path d="M24.68 12.9904C24.68 13.6104 23.75 13.6104 23.75 12.9904C23.75 12.3704 24.68 12.3704 24.68 12.9904Z" stroke="#BF7345" stroke-width="0.47" stroke-miterlimit="10"/>
<path d="M27.68 12.9904C27.68 13.6104 26.75 13.6104 26.75 12.9904C26.75 12.3704 27.68 12.3704 27.68 12.9904Z" fill="#BF7345"/>
<path d="M27.68 12.9904C27.68 13.6104 26.75 13.6104 26.75 12.9904C26.75 12.3704 27.68 12.3704 27.68 12.9904Z" stroke="#BF7345" stroke-width="0.47" stroke-miterlimit="10"/>
</svg>
