<svg width="50" height="33" viewBox="0 0 50 33" fill="none" xmlns="http://www.w3.org/2000/svg">
<path d="M46.06 18.56H43.31V15.81H6.19V18.56H3.44C2.3 18.56 1.38 17.63 1.38 16.5V14.44H48.12V16.5C48.12 17.64 47.19 18.56 46.06 18.56ZM7.56 18.56V17.18H41.93V18.56H7.56ZM3.44 1.38H46.06C47.2 1.38 48.12 2.31 48.12 3.44V13.06H1.38V3.44C1.38 2.3 2.3 1.38 3.44 1.38ZM46.06 0H3.44C1.54 0 0 1.54 0 3.44V16.5C0 18.4 1.54 19.94 3.44 19.94H46.06C47.95 19.94 49.5 18.4 49.5 16.5V3.44C49.49 1.54 47.95 0 46.06 0Z" fill="#BF7345"/>
<path d="M8.94006 8.93994H3.44006V10.3199H8.94006V8.93994Z" fill="#BF7345"/>
<path d="M11.6901 8.93994H10.3101V10.3199H11.6901V8.93994Z" fill="#BF7345"/>
<path d="M9.62006 22.6799H8.24006C8.24006 23.2299 8.03006 23.4699 7.72006 23.8399C7.34006 24.2799 6.87006 24.8299 6.87006 25.8899C6.87006 26.9499 7.34006 27.4999 7.72006 27.9399C8.03006 28.3099 8.24006 28.5499 8.24006 29.0999C8.24006 29.6499 8.03006 29.8899 7.72006 30.2599C7.34006 30.6999 6.87006 31.2599 6.87006 32.3099H8.25006C8.25006 31.7599 8.46006 31.5199 8.77006 31.1499C9.15006 30.7099 9.62006 30.1599 9.62006 29.0999C9.62006 28.0399 9.15006 27.4899 8.77006 27.0499C8.46006 26.6799 8.25006 26.4399 8.25006 25.8899C8.25006 25.3399 8.46006 25.0999 8.77006 24.7299C9.15006 24.2899 9.62006 23.7399 9.62006 22.6799Z" fill="#BF7345"/>
<path d="M17.8701 22.6799H16.4901C16.4901 23.2299 16.2801 23.4699 15.9701 23.8399C15.5901 24.2799 15.1201 24.8299 15.1201 25.8899C15.1201 26.9499 15.5901 27.4999 15.9701 27.9399C16.2801 28.3099 16.4901 28.5499 16.4901 29.0999C16.4901 29.6499 16.2801 29.8899 15.9701 30.2599C15.5901 30.6999 15.1201 31.2599 15.1201 32.3099H16.4901C16.4901 31.7599 16.7001 31.5199 17.0101 31.1499C17.3901 30.7099 17.8601 30.1599 17.8601 29.0999C17.8601 28.0399 17.3901 27.4899 17.0101 27.0499C16.6901 26.6799 16.4901 26.4399 16.4901 25.8899C16.4901 25.3399 16.7001 25.0999 17.0101 24.7299C17.3901 24.2899 17.8601 23.7399 17.8601 22.6799" fill="#BF7345"/>
<path d="M26.1201 22.6799H24.7401C24.7401 23.2299 24.5301 23.4699 24.2201 23.8399C23.8401 24.2799 23.3701 24.8299 23.3701 25.8899C23.3701 26.9499 23.8401 27.4999 24.2201 27.9399C24.5301 28.3099 24.7401 28.5499 24.7401 29.0999C24.7401 29.6499 24.5301 29.8899 24.2201 30.2599C23.8401 30.6999 23.3701 31.2599 23.3701 32.3099H24.7401C24.7401 31.7599 24.9501 31.5199 25.2601 31.1499C25.6401 30.7099 26.1101 30.1599 26.1101 29.0999C26.1101 28.0399 25.6401 27.4899 25.2601 27.0499C24.9401 26.6799 24.7401 26.4399 24.7401 25.8899C24.7401 25.3399 24.9501 25.0999 25.2601 24.7299C25.6401 24.2899 26.1101 23.7399 26.1101 22.6799" fill="#BF7345"/>
<path d="M34.3701 22.6799H32.9901C32.9901 23.2299 32.7801 23.4699 32.4701 23.8399C32.0901 24.2799 31.6201 24.8299 31.6201 25.8899C31.6201 26.9499 32.0901 27.4999 32.4701 27.9399C32.7801 28.3099 32.9901 28.5499 32.9901 29.0999C32.9901 29.6499 32.7801 29.8899 32.4701 30.2599C32.0901 30.6999 31.6201 31.2599 31.6201 32.3099H32.9901C32.9901 31.7599 33.2001 31.5199 33.5101 31.1499C33.8901 30.7099 34.3601 30.1599 34.3601 29.0999C34.3601 28.0399 33.8901 27.4899 33.5101 27.0499C33.1901 26.6799 32.9901 26.4399 32.9901 25.8899C32.9901 25.3399 33.2001 25.0999 33.5101 24.7299C33.8901 24.2899 34.3601 23.7399 34.3601 22.6799" fill="#BF7345"/>
<path d="M42.6201 22.6799H41.2401C41.2401 23.2299 41.0301 23.4699 40.7201 23.8399C40.3401 24.2799 39.8701 24.8299 39.8701 25.8899C39.8701 26.9499 40.3401 27.4999 40.7201 27.9399C41.0301 28.3099 41.2401 28.5499 41.2401 29.0999C41.2401 29.6499 41.0301 29.8899 40.7201 30.2599C40.3401 30.6999 39.8701 31.2599 39.8701 32.3099H41.2501C41.2501 31.7599 41.4601 31.5199 41.7701 31.1499C42.1501 30.7099 42.6201 30.1599 42.6201 29.0999C42.6201 28.0399 42.1501 27.4899 41.7701 27.0499C41.4501 26.6799 41.2501 26.4399 41.2501 25.8899C41.2501 25.3399 41.4601 25.0999 41.7701 24.7299C42.1501 24.2899 42.6201 23.7399 42.6201 22.6799Z" fill="#BF7345"/>
</svg>
