<svg width="42" height="38" viewBox="0 0 42 38" fill="none" xmlns="http://www.w3.org/2000/svg">
<path d="M36.25 33.16C36.25 33.73 35.81 34.16 35.25 34.16C34.69 34.16 34.25 33.72 34.25 33.16V25.15C34.25 24.58 34.68 24.15 35.25 24.15C35.82 24.15 36.25 24.58 36.25 25.15V33.16ZM31.38 33.16C31.38 33.73 30.94 34.16 30.38 34.16C29.82 34.16 29.38 33.72 29.38 33.16V25.15C29.38 24.58 29.81 24.15 30.38 24.15C30.95 24.15 31.38 24.58 31.38 25.15V33.16ZM26.55 33.16C26.55 33.73 26.11 34.16 25.55 34.16C24.99 34.16 24.55 33.72 24.55 33.16V25.15C24.55 24.58 24.99 24.15 25.55 24.15C26.11 24.15 26.55 24.58 26.55 25.15V33.16ZM21.68 33.16C21.68 33.73 21.25 34.16 20.68 34.16C20.11 34.16 19.68 33.72 19.68 33.16V25.15C19.68 24.58 20.11 24.15 20.68 24.15C21.25 24.15 21.68 24.58 21.68 25.15V33.16ZM16.81 33.16C16.81 33.73 16.37 34.16 15.81 34.16C15.25 34.16 14.81 33.72 14.81 33.16V25.15C14.81 24.58 15.24 24.15 15.81 24.15C16.38 24.15 16.81 24.58 16.81 25.15V33.16ZM13.55 21.98C13.07 21.72 12.72 21.28 12.59 20.76H10.15V3.31H31.24V20.8H16.62C16.45 21.06 16.36 21.24 16.36 21.24C15.97 21.89 15.27 22.28 14.53 22.28C14.18 22.28 13.83 22.19 13.53 21.97L13.55 21.98ZM11.94 33.16C11.94 33.73 11.5 34.16 10.94 34.16C10.38 34.16 9.94 33.72 9.94 33.16V25.15C9.94 24.58 10.37 24.15 10.94 24.15C11.51 24.15 11.94 24.58 11.94 25.15V33.16ZM7.11 33.16C7.11 33.73 6.67 34.16 6.11 34.16C5.55 34.16 5.11 33.72 5.11 33.16V25.15C5.11 24.58 5.54 24.15 6.11 24.15C6.68 24.15 7.11 24.58 7.11 25.15V33.16ZM40.49 23.5C40.97 23.5 41.36 23.11 41.36 22.63V21.67C41.36 21.19 40.97 20.8 40.49 20.8H34.53V0.57C34.53 0.26 34.27 0 33.96 0H7.35C7.05 0 6.78 0.26 6.78 0.57V20.8H0.87C0.39 20.8 0 21.19 0 21.67V22.63C0 23.11 0.39 23.5 0.87 23.5H1.65V34.81H0.87C0.39 34.81 0 35.2 0 35.68V36.64C0 37.12 0.39 37.51 0.87 37.51H40.47C40.95 37.51 41.34 37.12 41.34 36.64V35.68C41.34 35.2 40.95 34.81 40.47 34.81H39.69V23.5H40.49Z" fill="#BF7345"/>
<path d="M18.19 16.32V19.58H23.11V15.53C24.02 15.44 24.98 15.22 26.16 14.75C28.77 13.66 28.47 9.7 28.42 9.27C28.33 8.62 27.77 8.14 27.11 8.18C26.46 8.22 25.98 8.83 26.02 9.49C26.11 10.4 25.98 12.23 25.24 12.54C23.59 13.24 22.59 13.24 20.8 13.24C18.84 13.24 17.06 13.5 15.88 15.42C15.23 16.51 13.53 19.51 13.44 19.6C13.09 20.17 13.31 20.91 13.87 21.21C14.04 21.3 14.26 21.38 14.48 21.38C14.91 21.38 15.31 21.16 15.52 20.77C15.52 20.73 17.26 17.72 17.91 16.64C18.04 16.55 18.08 16.42 18.17 16.33L18.19 16.32Z" fill="#BF7345"/>
<path d="M23.32 9.88C23.32 11.35 22.13 12.53 20.67 12.53C19.21 12.53 18.02 11.34 18.02 9.88C18.02 8.42 19.21 7.23 20.67 7.23C22.13 7.23 23.32 8.42 23.32 9.88Z" fill="#BF7345"/>
</svg>
