<svg width="654" height="619" viewBox="0 0 654 619" fill="none" xmlns="http://www.w3.org/2000/svg">
<g clip-path="url(#clip0_16_203)">
<path d="M695.194 641.841C694.205 646.894 693.115 651.89 691.868 656.871H699.996C701.487 651.947 702.691 646.923 703.694 641.841C704.468 638.062 705.099 634.212 705.644 630.375C706.862 621.629 707.823 612.869 708.898 604.094C708.955 603.536 709.055 602.978 709.141 602.233C712.553 602.505 715.85 602.792 719.133 603.063C721.426 603.25 723.662 603.565 725.956 603.679C729.769 603.894 733.625 604.209 737.467 604.137C743.172 604.037 748.891 603.922 754.568 603.393C761.764 602.734 768.945 601.775 776.012 600.143C777.073 599.9 778.119 599.642 779.18 599.37C781.101 598.841 783.022 598.411 784.957 597.939V586.688C783.839 586.931 782.721 587.031 781.631 587.375C779.768 587.962 777.904 588.491 776.012 588.992C768.1 591.068 760.058 592.428 751.93 593.172C743.387 593.917 734.886 593.945 726.386 593.487C721.111 593.172 715.864 592.242 710.188 591.54C710.589 583.324 711.148 575.365 711.335 567.392C711.521 559.333 711.464 551.274 711.206 543.215C710.962 535.185 710.489 527.154 709.815 519.167C709.127 511.165 708.038 503.235 707.12 494.832C708.081 494.174 709.17 493.344 710.346 492.657C731.116 480.976 752.876 472.659 776.027 469.439C779.008 469.038 781.99 468.565 784.971 468.107V455.496C781.99 455.496 778.979 455.582 776.027 455.783C751.6 457.329 728.436 464.872 706.275 476.896C705.802 477.14 705.343 477.369 704.54 477.77C704.038 475.408 703.58 473.218 703.15 471.013C698.806 447.795 692.9 425.078 684.4 403.277C674.653 378.299 662.11 355.267 645.998 334.769C641.253 328.757 636.064 323.174 630.889 317.162C632.351 315.888 633.871 314.5 635.448 313.254C651.029 301.073 668.259 293.171 686.722 288.519C694.922 286.472 703.264 285.384 711.679 284.769C717.642 284.296 723.476 285.141 729.411 285.141C731.03 285.141 732.077 286.2 733.138 287.345C747.673 303.377 760.674 320.798 771.568 340.137C773.088 342.828 774.579 345.562 776.041 348.325C778.406 352.791 780.728 357.314 783.122 361.78C783.71 362.868 784.369 363.913 784.986 364.972V343.243C782.85 339.521 780.671 335.828 778.535 332.149C777.732 330.761 776.887 329.358 776.055 327.969C768.071 314.772 759.298 302.275 749.45 290.738C749.02 290.237 748.676 289.678 747.902 288.634C749.121 288.82 749.866 288.877 750.54 289.034C759.269 291.21 767.799 294.087 776.055 297.895C778.076 298.825 780.083 299.784 782.076 300.844C783.007 301.316 784.025 301.502 785 301.831V291.296C783.968 290.766 782.921 290.308 781.889 289.721C779.969 288.605 778.005 287.546 776.055 286.529C763.14 279.859 749.608 275.335 735.488 272.959C733.353 272.587 731.647 271.599 730.027 270.039C712.639 253.52 693.861 239.292 673.75 227.296C664.188 221.599 654.312 216.732 644.292 212.238C638.3 209.546 632.251 206.999 626.159 204.494C597.389 192.656 567.803 185.183 537.227 182.607C526.548 181.705 515.897 180.846 505.247 179.787C493.98 178.67 482.713 177.582 471.475 176.122C463.533 175.063 455.678 173.174 448.195 169.767C434.534 163.569 426.005 152.289 423.053 136.142C421.906 129.787 421.805 123.188 421.461 116.675C421.304 113.325 421.676 109.918 421.834 106.54C422.121 101.086 422.078 95.5324 422.766 90.1501C425.346 70.4392 427.912 50.6854 430.937 31.0746C432.485 21.0546 434.004 11.0345 435.423 1.0001L423.755 1.0001C421.848 12.9383 419.756 24.8622 417.706 36.7861C414.695 54.1781 411.714 71.6273 410.194 89.2913C408.861 104.507 408.302 119.824 410.624 135.04C412.732 149.025 418.035 161.021 428.041 170.01C434.965 176.237 443.092 179.873 451.564 182.535C459.577 185.083 467.762 186.629 476.062 187.402C488.074 188.547 500.086 189.449 512.099 190.465C522.749 191.396 533.429 192.14 544.065 193.314C568.247 195.948 591.871 201.688 614.964 210.205C623.722 213.454 632.409 216.804 640.981 220.583C649.553 224.333 657.967 228.513 666.152 233.323C683.44 243.515 699.552 255.71 714.861 269.309C715.176 269.624 715.506 269.896 715.85 270.554C679.87 270.154 647.804 282.636 619.221 306.67C615.924 304.064 612.828 301.531 609.631 299.14C586.81 282.221 561.983 271.184 534.919 266.532C521.703 264.27 508.415 263.526 495.127 264.113C480.591 264.8 466.2 267.119 451.851 269.853C437.516 272.573 423.167 275.307 408.804 277.755C402.124 278.871 395.358 279.429 388.621 278.041C381.568 276.609 375.734 272.83 371.09 266.818C364.568 258.487 360.726 248.568 357.529 238.247C353.931 226.652 351.451 214.685 349.617 202.604C346.85 184.439 344.37 166.245 341.89 148.023C335.468 100.499 328.115 53.1331 316.776 6.71154C316.317 4.80772 315.816 2.91822 315.328 1.02872L307 1.02872C310.856 16.2736 314.038 31.7188 316.905 47.2642C321.464 72.4003 325.105 97.7224 328.272 123.145C331.225 146.95 334.293 170.726 337.518 194.473C339.568 209.561 342.148 224.605 346.248 239.235C349.201 249.741 353.014 259.847 358.848 268.808C362.876 275.006 367.879 280.002 373.971 283.652C384.435 289.907 395.602 290.995 407.026 289.793C416.645 288.777 426.206 287.288 435.767 285.885C448.611 283.967 461.44 281.662 474.327 280.002C483.301 278.828 492.331 278.141 501.333 277.611C505.777 277.339 510.235 277.898 514.708 277.984C523.237 278.17 531.68 279.444 540.065 281.147C564.463 286.143 586.466 297.265 606.463 313.598C607.366 314.342 608.226 315.115 609.258 315.988C608.642 316.761 608.298 317.32 607.825 317.792C600.443 325.422 593.978 333.996 588.516 343.429C573.68 369.037 566.513 397.337 565.739 427.769C565.61 432.665 566.025 437.561 566.111 442.456C566.298 450.515 567.258 458.488 568.634 466.39C574.898 502.992 590.767 533.281 616.196 557.272C616.884 557.916 617.529 558.632 618.332 559.448C617.902 560.249 617.558 560.936 617.114 561.58C606.965 577.355 598.393 594.16 591.254 611.895C587.283 621.715 583.714 631.735 580.733 641.97C579.299 646.923 578.038 651.919 576.92 657H595.669C597.131 651.976 598.593 646.951 600.142 641.97C604.585 627.684 609.545 613.642 615.695 600.086C620.095 590.381 625.155 581.148 630.688 572.216C631.033 571.658 631.434 571.157 631.993 570.455C653.251 585.328 676.201 595.319 700.942 600.802C699.638 614.744 697.875 628.457 695.237 641.97L695.194 641.841ZM616.813 533.653C602.808 515.832 592.917 495.491 587.384 472.531C584.832 461.895 583.843 450.987 583.714 439.98C583.657 433.567 583.614 427.111 583.929 420.698C584.861 402.59 588.617 385.213 594.737 368.408C600.256 353.12 608.642 340.008 619.006 328.456C619.379 328.027 619.751 327.612 620.124 327.254C620.282 327.096 620.497 327.039 621.056 326.753C627.263 333.08 633.097 339.707 638.501 346.836C656.849 371.07 670.137 398.568 680.157 428.17C686.049 445.677 690.521 463.656 694.162 481.921C694.291 482.479 694.262 483.066 694.32 483.839C668.589 499.685 646.385 520.355 627.521 546.207C623.794 541.869 620.138 537.933 616.813 533.653ZM640.164 557.801C656.62 535.485 675.298 516.519 696.943 501.174C701.042 512.296 704.024 567.349 701.659 589.264C679.713 582.451 658.67 573.676 640.164 557.801Z" fill="#BF7344"/>
<path d="M836.965 259.699C836.206 258.842 835.398 258.05 834.722 257.16C832.116 253.697 829.444 250.334 826.69 247.052C820.769 239.946 814.469 233.235 807.938 226.805C785.623 204.743 760.538 187.678 733.144 174.784C711.291 164.495 689.322 154.618 667.651 143.868C644.396 132.408 623.583 116.728 606.051 95.9196C598.448 86.884 592.016 76.892 587.018 65.7128C583.225 57.2872 581.774 48.5814 583.192 39.183C584.446 30.9717 587.084 23.7663 592.477 17.8634C596.485 13.5105 600.872 9.86656 605.721 6.86567C610.042 4.22753 614.512 2.10052 619.064 0.418703L584.94 0.418701C576.166 7.83849 569.635 17.3688 566.716 29.7516C563.648 42.8269 565.182 55.6714 569.718 68.0212C576.249 85.8452 586.936 100.256 599.569 112.936C612.533 125.896 627.112 136.217 642.5 145.072C659.933 155.064 678.074 163.027 696.348 170.777C713.138 177.917 729.878 185.204 746.024 194.092C777.41 211.372 804.243 235.115 826.674 265.14C826.888 265.388 827.069 265.668 827.284 265.932C830.384 270.136 833.749 274.176 836.965 278.249V259.683V259.699Z" fill="#BF7344"/>
<path d="M746.569 46.8994C754.93 56.3637 762.319 66.7844 769.213 77.6338C780.708 95.7381 790.967 114.733 800.862 133.942C808.185 148.155 815.294 162.5 823.82 175.855C824.777 177.323 825.717 178.774 826.674 180.241C829.774 184.957 833.023 189.491 836.965 193.382V178.032C836.173 177.026 835.316 176.103 834.607 175.064C831.852 171.024 829.213 166.919 826.674 162.747C822.253 155.492 818.13 148.006 814.139 140.438C803.782 120.866 793.672 101.196 782.918 81.9208C772.38 63.0745 760.389 45.3989 745.711 30.2956C734.166 18.4239 721.665 8.46489 708.19 0.435033L678.388 0.435032C704.892 8.69573 727.206 25.0028 746.569 46.8994Z" fill="#BF7344"/>
<path d="M835.53 77.4689C835.893 78.722 836.487 79.8597 836.965 81.0469V35.8027C835.745 32.5874 834.458 29.4052 833.287 26.1899C831.209 20.4355 828.999 14.7635 826.674 9.15741C825.453 6.22247 824.2 3.32051 822.913 0.435038L806.223 0.435038C814.09 16.1815 820.835 32.472 826.674 49.2572C829.89 58.5402 832.858 67.9221 835.53 77.4689Z" fill="#BF7344"/>
</g>
<defs>
<clipPath id="clip0_16_203">
<rect width="654" height="619" fill="white"/>
</clipPath>
</defs>
</svg>
