<svg width="24" height="26" viewBox="0 0 24 26" fill="none" xmlns="http://www.w3.org/2000/svg">
<path d="M5.05998 20.92C6.63998 19.1 7.97998 17.09 9.05998 14.93L9.81998 13.4C10.13 12.76 10.92 12.33 11.77 12.33C12.62 12.33 13.4 12.76 13.72 13.4L14.87 15.72C15.7 17.39 16.86 18.88 18.28 20.1C18.71 20.45 18.97 20.98 18.99 21.53V22.17C18.99 23 18.15 23.66 17.11 23.66C16.6 23.66 16.11 23.49 15.72 23.17L15.54 23.01C14.49 22.1 13.16 21.61 11.78 21.61C10.4 21.61 9.05998 22.11 8.01998 23.01L7.83998 23.17C7.44998 23.49 6.95998 23.66 6.44998 23.66C5.41998 23.66 4.56998 22.99 4.56998 22.17C4.57998 21.7 4.75998 21.25 5.08998 20.91L5.05998 20.92ZM6.42998 25.74C7.42998 25.74 8.39998 25.4 9.16998 24.75L9.34998 24.59C10.03 24.03 10.88 23.72 11.76 23.72C12.64 23.72 13.5 24.03 14.17 24.59L14.35 24.75C15.11 25.4 16.08 25.75 17.09 25.74C19.26 25.74 21.04 24.15 21.04 22.18V21.54C21.02 20.38 20.51 19.29 19.62 18.54C18.41 17.51 17.42 16.24 16.71 14.81L15.56 12.49C14.9 11.14 13.4 10.27 11.76 10.27C10.12 10.27 8.62998 11.14 7.95998 12.49L7.20998 14.01C6.19998 16.03 4.93998 17.91 3.45998 19.62C2.83998 20.33 2.48998 21.24 2.47998 22.18C2.47998 24.14 4.24998 25.74 6.42998 25.74Z" fill="#BF7344"/>
<path d="M2.48998 11.31V10.28C2.48998 9.91 2.68998 9.57 3.00998 9.39C3.32998 9.21 3.71998 9.21 4.03998 9.39C4.35998 9.57 4.55998 9.91 4.55998 10.28V11.31C4.55998 11.68 4.35998 12.02 4.03998 12.2C3.71998 12.38 3.32998 12.38 3.00998 12.2C2.68998 12.02 2.48998 11.68 2.48998 11.31ZM6.60998 11.31V10.28C6.60998 9.18 6.01998 8.16 5.05998 7.6C4.09998 7.05 2.91998 7.05 1.96998 7.6C1.00998 8.15 0.419983 9.17 0.419983 10.28V11.31C0.419983 12.42 1.00998 13.43 1.96998 13.99C2.92998 14.54 4.09998 14.54 5.05998 13.99C6.01998 13.44 6.60998 12.42 6.60998 11.31Z" fill="#BF7344"/>
<path d="M10.73 5.12V4.09C10.73 3.72 10.93 3.38 11.24 3.2C11.56 3.02 11.95 3.02 12.27 3.2C12.59 3.38 12.79 3.72 12.79 4.09V5.12C12.79 5.49 12.59 5.83 12.27 6.01C11.95 6.19 11.56 6.19 11.24 6.01C10.92 5.83 10.73 5.49 10.73 5.12ZM14.85 5.12V4.09C14.85 2.99 14.26 1.97 13.3 1.41C12.34 0.859998 11.16 0.859998 10.21 1.41C9.24997 1.96 8.65997 2.98 8.65997 4.09V5.12C8.65997 6.23 9.24997 7.24 10.21 7.8C11.17 8.35 12.34 8.35 13.3 7.8C14.26 7.25 14.85 6.23 14.85 5.12Z" fill="#BF7344"/>
<path d="M21.04 10.28C21.04 10.65 20.84 10.99 20.52 11.17C20.2 11.35 19.81 11.35 19.49 11.17C19.17 10.99 18.98 10.65 18.98 10.28V9.25C18.98 8.88 19.18 8.54 19.49 8.36C19.81 8.18 20.2 8.18 20.52 8.36C20.84 8.54 21.04 8.88 21.04 9.25V10.28ZM23.1 10.28V9.25C23.1 8.15 22.51 7.13 21.55 6.57C20.59 6.02 19.41 6.02 18.46 6.57C17.5 7.12 16.91 8.14 16.91 9.25V10.28C16.91 11.39 17.5 12.4 18.46 12.96C19.42 13.51 20.59 13.51 21.55 12.96C22.51 12.41 23.1 11.39 23.1 10.28Z" fill="#BF7344"/>
</svg>
