<svg width="27" height="26" viewBox="0 0 27 26" fill="none" xmlns="http://www.w3.org/2000/svg">
<path d="M21.13 3.22001C21.37 3.16001 21.62 3.31001 21.68 3.55001L22.5 6.82001C22.55 7.01001 22.53 7.21 22.45 7.39C22.37 7.57 22.23 7.71001 22.05 7.80001L19.97 8.84L19.45 7.53L21.19 6.83001C21.39 6.75001 21.5 6.54001 21.45 6.33001L20.81 3.77001C20.75 3.53001 20.9 3.28001 21.14 3.22001H21.13ZM20.52 6.18L16.6 7.75001C16.38 7.84001 16.27 8.09 16.36 8.31C16.45 8.53 16.7 8.64001 16.91 8.55001L18.65 7.85001L19.2 9.22001L16.99 10.33C16.86 10.4 16.77 10.52 16.76 10.67L16.37 14.56H12.48C12.24 14.56 12.05 14.75 12.05 14.99C12.05 15.23 12.24 15.42 12.48 15.42H16.36L16.62 18.33C16.64 18.55 16.82 18.72 17.05 18.72H17.09C17.2 18.71 17.31 18.65 17.38 18.57C17.45 18.48 17.49 18.37 17.48 18.26L17.18 15L17.58 11L22.43 8.58001C22.78 8.41001 23.06 8.12001 23.22 7.77001C23.38 7.42001 23.42 7.02 23.32 6.64L22.5 3.37C22.38 2.92 22.03 2.58 21.59 2.45C21.14 2.33 20.67 2.45001 20.33 2.77001C20 3.09001 19.86 3.56 19.96 4.01L20.51 6.21001L20.52 6.18Z" fill="#BF7344"/>
<path d="M20.72 20.25L21.58 19.68H22.31V23.45C22.06 23.36 21.84 23.2 21.69 22.98C21.54 22.76 21.46 22.51 21.46 22.24V21.81L21.41 21.62L20.73 20.25H20.72ZM10.93 2.91C10.84 2.47 10.9 2.01001 11.11 1.60001L11.4 1.03C12.43 1.5 13.54 1.74 14.67 1.74H15.26C15.66 1.74 16.04 1.89999 16.32 2.17999C16.6 2.45999 16.76 2.84 16.76 3.24C16.76 3.63 16.61 4 16.33 4.28V3.88C16.33 3.77 16.29 3.66 16.21 3.58C16.13 3.5 16.02 3.46001 15.91 3.46001H15.74C14.82 3.46001 13.92 3.18999 13.16 2.67999C13.02 2.57999 12.83 2.57999 12.69 2.67999L11.41 3.53L11.28 3.67999C11.12 3.44999 11.01 3.2 10.96 2.92L10.93 2.91ZM15.47 6.00999C15.47 6.61999 15.14 7.18 14.62 7.49C14.09 7.79 13.44 7.79 12.91 7.49C12.38 7.19 12.06 6.61999 12.06 6.00999V4.10001L12.92 3.53C13.7 3.99 14.57 4.26 15.47 4.3V6.00999ZM14.62 8.57001C14.62 8.87001 14.46 9.16 14.19 9.31C13.93 9.46 13.6 9.46 13.34 9.31C13.08 9.16 12.91 8.88001 12.91 8.57001V8.42C13.46 8.62 14.07 8.62 14.62 8.42V8.57001ZM11.82 23.05C12.02 22.95 12.11 22.71 12.02 22.5L10.87 19.83L13.14 18.21L14.11 20.63C14.3 21.11 14.63 21.51 15.05 21.8C15.47 22.09 15.98 22.24 16.49 22.24H20.6C20.6 22.81 20.83 23.35 21.23 23.75C21.63 24.15 22.17 24.37 22.74 24.38C22.85 24.38 22.96 24.34 23.04 24.26C23.12 24.18 23.16 24.07 23.16 23.96V19.26C23.16 19.15 23.11 19.04 23.04 18.96C22.96 18.88 22.85 18.84 22.74 18.84H21.46L21.22 18.91L20.07 19.67L17.24 19.27C17.13 19.25 17.01 19.28 16.92 19.35C16.83 19.42 16.77 19.52 16.75 19.63C16.72 19.86 16.88 20.08 17.11 20.11L19.88 20.51L20.32 21.4H16.48C16.14 21.4 15.8 21.3 15.52 21.11C15.24 20.92 15.02 20.65 14.89 20.33L13.72 17.4C13.67 17.28 13.57 17.19 13.44 17.15C13.31 17.11 13.18 17.14 13.07 17.21L10.08 19.35C9.91997 19.47 9.85997 19.68 9.92997 19.87L11.05 22.49L10.03 23L8.22997 20.42C8.00997 20.1 7.89997 19.72 7.91997 19.34C7.93997 18.95 8.09997 18.59 8.35997 18.3L11.07 15.29C11.15 15.2 11.19 15.08 11.18 14.96L10.75 11.12C10.74 11 10.68 10.9 10.58 10.83L9.04997 9.67999V7.59L10.99 8.56L11.18 8.61H12.03C12.03 9.22 12.36 9.77999 12.88 10.09C13.41 10.39 14.06 10.39 14.59 10.09C15.12 9.79 15.44 9.22 15.44 8.61V7.95C15.98 7.47 16.29 6.77 16.29 6.05V5.35001C16.92 5.03 17.37 4.44 17.52 3.75C17.67 3.06 17.49 2.33999 17.05 1.78999C16.6 1.23999 15.93 0.919992 15.23 0.929992H14.64C13.5 0.929992 12.38 0.650004 11.37 0.130004C11.27 0.080004 11.15 0.0700053 11.04 0.100005C10.93 0.140005 10.84 0.210006 10.79 0.320006L10.31 1.27C10.01 1.87 9.91997 2.56999 10.08 3.22999C10.24 3.88999 10.62 4.46999 11.17 4.86999V6.06C11.17 6.69 11.4 7.3 11.83 7.77H11.28L8.82997 6.53999C8.68997 6.45999 8.50997 6.47 8.36997 6.56C8.22997 6.65 8.15997 6.81999 8.18997 6.97999V9.13L6.11997 7.84C5.71997 7.59 5.37997 7.25 5.13997 6.84L3.52997 4.16C3.38997 3.91 3.46997 3.59 3.71997 3.44C3.95997 3.29 4.27997 3.36001 4.43997 3.60001L6.10997 6.28L6.30997 6.45L7.07997 6.75999C7.18997 6.80999 7.30997 6.80999 7.40997 6.75999C7.51997 6.71999 7.59997 6.63 7.63997 6.52C7.67997 6.41 7.67997 6.29 7.63997 6.19C7.58997 6.09 7.50997 6.00001 7.39997 5.96001L6.75997 5.7L5.15997 3.14C4.89997 2.72 4.43997 2.45999 3.93997 2.47999C3.43997 2.48999 2.98997 2.77001 2.75997 3.21001C2.51997 3.65001 2.53997 4.18001 2.79997 4.60001L4.40997 7.28C4.71997 7.8 5.14997 8.24 5.66997 8.56L8.33997 10.23H8.34997L9.90997 11.41L10.3 14.88L7.71997 17.75C7.32997 18.18 7.09997 18.73 7.05997 19.31C7.01997 19.89 7.18997 20.46 7.51997 20.94L9.08997 23.18C8.59997 23.27 8.14997 23.53 7.82997 23.91C7.50997 24.29 7.32997 24.78 7.32997 25.28C7.32997 25.39 7.37997 25.5 7.44997 25.58C7.52997 25.66 7.63997 25.7 7.74997 25.7H12.45C12.56 25.7 12.67 25.66 12.75 25.58C12.83 25.5 12.87 25.39 12.87 25.28V24C12.87 23.76 12.68 23.57 12.44 23.57C12.2 23.57 12.01 23.76 12.01 24V24.85H8.23997C8.32997 24.6 8.48997 24.38 8.70997 24.23C8.92997 24.08 9.18997 24 9.44997 24H9.87997L10.07 23.95L11.78 23.1L11.82 23.05Z" fill="#BF7344"/>
<path d="M5.64998 16.69C5.47998 16.69 5.31998 16.59 5.25998 16.43C5.18998 16.27 5.22998 16.09 5.34998 15.96C5.46998 15.84 5.65998 15.8 5.80998 15.87C5.96998 15.94 6.06998 16.09 6.06998 16.26C6.06998 16.37 6.01998 16.48 5.94998 16.56C5.86998 16.64 5.75998 16.68 5.64998 16.68V16.69ZM3.50998 11.98H6.06998V12.83H3.50998V11.98ZM2.22998 15.4C2.05998 15.4 1.89998 15.3 1.82998 15.14C1.75998 14.98 1.79998 14.8 1.91998 14.67C2.03998 14.55 2.22998 14.51 2.37998 14.58C2.53998 14.65 2.63998 14.8 2.63998 14.97C2.63998 15.08 2.59998 15.19 2.51998 15.27C2.43998 15.35 2.32998 15.39 2.21998 15.39L2.22998 15.4ZM6.48998 11.12H3.06998C2.82998 11.12 2.63998 11.31 2.63998 11.55V13.76C2.49998 13.71 2.35998 13.68 2.20998 13.68C1.86998 13.68 1.53998 13.82 1.29998 14.06C1.05998 14.3 0.919983 14.63 0.919983 14.97C0.919983 15.31 1.05998 15.64 1.29998 15.88C1.53998 16.12 1.86998 16.26 2.20998 16.26C2.54998 16.26 2.86998 16.12 3.11998 15.88C3.35998 15.64 3.49998 15.31 3.49998 14.97V13.69H6.05998V15.05C5.91998 15 5.77998 14.97 5.62998 14.97C5.28998 14.97 4.95998 15.11 4.71998 15.35C4.47998 15.59 4.33998 15.92 4.33998 16.26C4.33998 16.6 4.47998 16.93 4.71998 17.17C4.95998 17.41 5.28998 17.55 5.62998 17.55C5.96998 17.55 6.29998 17.41 6.53998 17.17C6.77998 16.93 6.91998 16.6 6.91998 16.26V11.56C6.91998 11.45 6.87998 11.34 6.79998 11.26C6.71998 11.18 6.60998 11.14 6.49998 11.14L6.48998 11.12Z" fill="#BF7344"/>
<path d="M25.08 12.82L23.97 13.46L23.76 13.09C23.7 12.99 23.69 12.88 23.72 12.77C23.75 12.66 23.82 12.57 23.92 12.51L25.71 11.48C25.76 11.74 25.73 12.01 25.61 12.25C25.5 12.49 25.32 12.69 25.09 12.82H25.08ZM24.77 16.8C24.72 17 24.53 17.13 24.33 17.12C24.13 17.11 23.96 16.95 23.93 16.75C23.9 16.55 24.02 16.35 24.22 16.29C24.41 16.22 24.63 16.3 24.73 16.48C24.79 16.58 24.8 16.7 24.77 16.81V16.8ZM25.71 10.49L23.49 11.77C23.2 11.94 22.98 12.22 22.89 12.55C22.8 12.88 22.85 13.23 23.02 13.52L23.45 14.26L24.13 15.43C23.77 15.5 23.46 15.71 23.27 16.03C23.08 16.34 23.04 16.72 23.14 17.06C23.25 17.41 23.5 17.69 23.83 17.85C24.16 18.01 24.54 18 24.87 17.85C25.2 17.71 25.46 17.42 25.57 17.08C25.68 16.73 25.64 16.36 25.46 16.04L24.39 14.19L25.5 13.55C25.99 13.27 26.35 12.8 26.49 12.25C26.64 11.7 26.56 11.12 26.28 10.63C26.22 10.53 26.13 10.46 26.02 10.43C25.91 10.4 25.79 10.42 25.7 10.47" fill="#BF7344"/>
<path d="M7.13001 3H7.56001V3.42999C7.56001 3.66999 7.75001 3.86 7.99001 3.86C8.23001 3.86 8.42001 3.66999 8.42001 3.42999V3H8.85001C9.09001 3 9.28001 2.81001 9.28001 2.57001C9.28001 2.33001 9.09001 2.14 8.85001 2.14H8.42001V1.71001C8.42001 1.47001 8.23001 1.28 7.99001 1.28C7.75001 1.28 7.56001 1.47001 7.56001 1.71001V2.14H7.13001C6.89001 2.14 6.70001 2.33001 6.70001 2.57001C6.70001 2.81001 6.89001 3 7.13001 3Z" fill="#BF7344"/>
<path d="M3.50999 20.1H3.07999V19.67C3.07999 19.43 2.88999 19.24 2.64999 19.24C2.40999 19.24 2.21999 19.43 2.21999 19.67V20.1H1.78999C1.54999 20.1 1.35999 20.29 1.35999 20.53C1.35999 20.77 1.54999 20.96 1.78999 20.96H2.21999V21.39C2.21999 21.63 2.40999 21.82 2.64999 21.82C2.88999 21.82 3.07999 21.63 3.07999 21.39V20.96H3.50999C3.74999 20.96 3.93998 20.77 3.93998 20.53C3.93998 20.29 3.74999 20.1 3.50999 20.1Z" fill="#BF7344"/>
<path d="M19.74 17.11C19.85 17.11 19.96 17.07 20.04 16.99C20.12 16.91 20.16 16.8 20.16 16.69V16.26H20.59C20.83 16.26 21.02 16.07 21.02 15.83C21.02 15.59 20.83 15.4 20.59 15.4H20.16V14.97C20.16 14.73 19.97 14.54 19.73 14.54C19.49 14.54 19.3 14.73 19.3 14.97V15.4H18.87C18.63 15.4 18.44 15.59 18.44 15.83C18.44 16.07 18.63 16.26 18.87 16.26H19.3V16.69C19.3 16.8 19.34 16.91 19.42 16.99C19.5 17.07 19.61 17.11 19.72 17.11" fill="#BF7344"/>
<path d="M25.29 3.88C25.46 3.88 25.62 3.98 25.68 4.14C25.75 4.3 25.71 4.48 25.59 4.61C25.47 4.74 25.28 4.77 25.13 4.7C24.97 4.63 24.87 4.48 24.87 4.31C24.87 4.07 25.06 3.88 25.3 3.88H25.29ZM25.3 5.59C25.64 5.59 25.97 5.46001 26.21 5.21001C26.45 4.97001 26.59 4.64 26.59 4.3C26.59 3.96 26.46 3.63 26.21 3.39C25.97 3.15 25.64 3.00999 25.3 3.00999C24.96 3.00999 24.63 3.15 24.39 3.39C24.15 3.63 24.01 3.96 24.01 4.3C24.01 4.64 24.14 4.97001 24.39 5.21001C24.63 5.45001 24.96 5.59 25.3 5.59Z" fill="#BF7344"/>
<path d="M2.23 0.460007C2.23 0.700007 2.04 0.889999 1.8 0.889999C1.56 0.889999 1.37 0.700007 1.37 0.460007C1.37 0.220007 1.56 0.0299988 1.8 0.0299988C2.04 0.0299988 2.23 0.220007 2.23 0.460007Z" fill="#BF7344"/>
<path d="M2.86 7.27C2.86 7.51 2.67 7.7 2.43 7.7C2.19 7.7 2 7.51 2 7.27C2 7.03 2.19 6.84 2.43 6.84C2.67 6.84 2.86 7.03 2.86 7.27Z" fill="#BF7344"/>
<path d="M21.45 12.13C21.45 12.37 21.26 12.56 21.02 12.56C20.78 12.56 20.59 12.37 20.59 12.13C20.59 11.89 20.78 11.7 21.02 11.7C21.26 11.7 21.45 11.89 21.45 12.13Z" fill="#BF7344"/>
<path d="M21.45 0.889999C21.45 1.13 21.26 1.32001 21.02 1.32001C20.78 1.32001 20.59 1.13 20.59 0.889999C20.59 0.649999 20.78 0.460007 21.02 0.460007C21.26 0.460007 21.45 0.649999 21.45 0.889999Z" fill="#BF7344"/>
</svg>
