<svg width="30" height="29" viewBox="0 0 30 29" fill="none" xmlns="http://www.w3.org/2000/svg">
<path d="M18.98 20.82H27.39V24.03H18.98V20.82ZM18.98 15.83H27.39V19.04H18.98V15.83ZM23.18 2.9L27.41 6.20002V14.01H18.97V6.20002L23.17 2.9H23.18ZM28.88 5.04999L23.73 1.05C23.39 0.809995 22.94 0.809995 22.6 1.05L17.51 5.04999C17.3 5.22999 17.17 5.47001 17.17 5.75001V14.02H15.74C14.55 14.02 13.42 14.59 12.76 15.53L5.91003 25.04C5.55003 25.53 5.00003 25.83 4.39003 25.83H1.19003C0.700029 25.83 0.280029 26.22 0.280029 26.74C0.280029 27.23 0.680029 27.65 1.19003 27.65H4.39003C5.58003 27.65 6.71003 27.08 7.38003 26.14L14.23 16.66C14.59 16.17 15.14 15.87 15.75 15.87H17.18V27.41C17.18 27.89 17.58 28.32 18.09 28.32C18.58 28.32 19 27.93 19 27.41V25.9H27.41V27.41C27.41 27.89 27.81 28.32 28.32 28.32C28.83 28.32 29.23 27.93 29.23 27.41V5.76002C29.2 5.49002 29.08 5.25 28.86 5.06L28.88 5.04999Z" fill="#BF7344"/>
<path d="M22.24 8.53H24.16V10.56H22.24V8.53ZM21.45 12.1H24.92C25.35 12.1 25.71 11.74 25.71 11.31V7.73999C25.71 7.31999 25.35 6.95001 24.92 6.95001H21.45C21.02 6.95001 20.66 7.30999 20.66 7.73999V11.34C20.66 11.77 21.03 12.1 21.45 12.1Z" fill="#BF7344"/>
</svg>
