<svg width="28" height="25" viewBox="0 0 28 25" fill="none" xmlns="http://www.w3.org/2000/svg">
<path d="M13.82 24.18C5.8 24.18 0.130005 21.82 0.130005 19.75C0.130005 18.45 2.61 17.04 6.33 16.15C6.27 16.44 6.21 16.8 6.21 17.15V19.57C6.21 19.92 6.45001 20.16 6.8 20.16H20.73C21.08 20.16 21.32 19.92 21.32 19.57V17.15C21.32 16.8 21.26 16.5 21.2 16.15C24.92 17.03 27.4 18.45 27.4 19.75C27.52 21.82 21.85 24.18 13.83 24.18H13.82ZM11.88 12.73H15.77C18.19 12.73 20.2 14.74 20.2 17.16V18.99H7.45V17.16C7.45 14.68 9.46 12.73 11.88 12.73ZM9.76 7.47997C9.76 5.70997 10.94 4.18 12.59 3.64C13 3.52 13.36 3.46001 13.83 3.46001C16.07 3.46001 17.9 5.29001 17.9 7.53001C17.9 9.77001 16.07 11.6 13.83 11.6C11.59 11.6 9.76 9.70996 9.76 7.46996V7.47997ZM11.35 0.799972C11.29 1.03997 11.29 1.21 11.29 1.45C11.29 1.92 11.41 2.33998 11.58 2.74998C10.52 3.27998 9.63 4.10997 9.10001 5.22997V4.87999C9.10001 3.16999 9.99 1.63998 11.34 0.809982L11.35 0.799972ZM18.48 3.93999C18.54 4.23999 18.6 4.58999 18.6 4.87999V5.22997C17.77 3.45997 15.94 2.28001 13.88 2.28001C13.47 2.28001 13.11 2.34001 12.76 2.40001C12.64 2.11001 12.52 1.81 12.52 1.52C12.52 1.11 12.64 0.690014 12.93 0.280014C13.23 0.220014 13.58 0.159958 13.87 0.159958C16.05 0.0999577 18 1.69999 18.47 3.93999" fill="#BF7344"/>
<path d="M25.03 10.54C25.21 10.54 25.38 10.48 25.5 10.3L26.56 8.82002C27.33 7.76002 27.21 6.46003 26.26 5.46003C25.67 4.87003 25.61 4.16002 26.14 3.51002L26.85 2.62001C27.03 2.38001 27.03 1.96999 26.79 1.78999C26.55 1.60999 26.14 1.60999 25.96 1.84999L25.25 2.74C24.36 3.8 24.42 5.21998 25.43 6.21998C26.02 6.80998 26.08 7.46 25.61 8.05L24.55 9.53004C24.37 9.77004 24.43 10.18 24.67 10.36C24.79 10.48 24.91 10.54 25.02 10.54" fill="#BF7344"/>
<path d="M22.08 10.19C22.26 10.19 22.43 10.13 22.55 9.95002L23.61 8.46998C24.38 7.40998 24.26 6.11 23.31 5.11C22.72 4.52 22.66 3.80998 23.19 3.15998L23.9 2.27003C24.08 2.03003 24.08 1.62001 23.84 1.44001C23.6 1.26001 23.19 1.26001 23.01 1.50001L22.3 2.39003C21.41 3.45003 21.47 4.87001 22.48 5.87001C23.07 6.46001 23.13 7.11002 22.66 7.70002L21.6 9.18C21.42 9.42 21.48 9.83002 21.72 10.01C21.84 10.13 21.96 10.19 22.07 10.19" fill="#BF7344"/>
<path d="M3.90998 10.54C4.08998 10.54 4.25998 10.48 4.37998 10.3L5.43998 8.82002C6.20998 7.76002 6.08998 6.46003 5.13998 5.46003C4.54998 4.87003 4.48998 4.16002 5.01998 3.51002L5.72998 2.62001C5.90998 2.38001 5.90998 1.96999 5.66998 1.78999C5.42998 1.60999 5.01998 1.60999 4.83998 1.84999L4.12998 2.74C3.23998 3.8 3.29998 5.21998 4.30998 6.21998C4.89998 6.80998 4.95998 7.46 4.48998 8.05L3.42998 9.53004C3.24998 9.77004 3.30998 10.18 3.54998 10.36C3.66998 10.48 3.78998 10.54 3.89998 10.54" fill="#BF7344"/>
<path d="M0.960026 10.19C1.14003 10.19 1.31003 10.13 1.43003 9.95002L2.49003 8.46998C3.26003 7.40998 3.14003 6.11 2.19003 5.11C1.60003 4.52 1.54003 3.80998 2.07003 3.15998L2.78003 2.27003C2.96003 2.03003 2.96003 1.62001 2.72003 1.44001C2.48003 1.26001 2.07003 1.26001 1.89003 1.50001L1.18003 2.39003C0.290026 3.45003 0.350026 4.87001 1.36003 5.87001C1.95003 6.46001 2.01003 7.11002 1.54003 7.70002L0.480026 9.18C0.300026 9.42 0.360026 9.83002 0.600026 10.01C0.720026 10.13 0.840026 10.19 0.950026 10.19" fill="#BF7344"/>
</svg>
