<svg width="31" height="31" viewBox="0 0 31 31" fill="none" xmlns="http://www.w3.org/2000/svg">
<path d="M1.78 14.9063H5.78898V16.4206H1.78V14.9063ZM6.50904 14.1639H24.4911V16.4206H6.50904V14.1639ZM9.5547 7.44264H21.3968C23.411 9.56257 23.6348 12.7082 23.664 13.4409H7.28748C7.31667 12.7082 7.54048 9.56257 9.5547 7.44264ZM29.2201 16.4206H25.2111V14.9063H29.2201V16.4206ZM23.6737 27.03H21.0951V19.1462C21.0951 18.941 20.9394 18.7847 20.7351 18.7847H10.2748C10.0704 18.7847 9.91473 18.9508 9.91473 19.1462V27.03H7.33613V17.1435H23.6737V27.03ZM26.0577 27.3915C26.0577 28.5052 25.1527 29.4039 24.0532 29.4039C23.0704 29.4039 22.253 28.6908 22.0779 27.7529H24.0337C24.2381 27.7529 24.3938 27.5868 24.3938 27.3915V25.4083C25.3376 25.5743 26.0577 26.395 26.0577 27.3915V27.3915ZM15.14 27.03H10.6348V19.5077H15.14V27.03ZM20.3751 27.03H15.8698V19.5077H20.3751V27.03ZM6.9761 29.4039C5.86682 29.4039 4.97161 28.4954 4.97161 27.3915C4.97161 26.4048 5.68194 25.5841 6.61607 25.4083V27.3915C6.61607 27.5868 6.78149 27.7529 6.9761 27.7529H8.9514C8.77625 28.6908 7.95889 29.4039 6.9761 29.4039V29.4039ZM1.4297 17.1435H6.61607V24.6756C5.28299 24.8514 4.25155 26.0042 4.25155 27.3915C4.25155 28.9057 5.4776 30.1268 6.9761 30.1268C8.35784 30.1268 9.50604 29.0913 9.68119 27.7529H21.3578C21.533 29.0913 22.6812 30.1268 24.0629 30.1268C25.5712 30.1268 26.7875 28.8959 26.7875 27.3915C26.7875 25.9945 25.7463 24.8417 24.4035 24.6756V17.1435H29.5899C29.7845 17.1435 29.9499 16.9774 29.9499 16.7821V14.5449C29.9499 14.3397 29.7845 14.1834 29.5899 14.1834H25.2209V13.8024C25.2209 13.5973 25.0554 13.4409 24.8608 13.4409H24.4035C24.384 12.6398 24.1602 9.1718 21.8152 6.82717C21.7471 6.75879 21.6595 6.71973 21.5622 6.71973H9.40874C9.31143 6.71973 9.22386 6.75879 9.15574 6.82717C6.82042 9.1718 6.58688 12.6398 6.56742 13.4409H6.14901C5.9544 13.4409 5.78898 13.6071 5.78898 13.8024V14.1834H1.41997C1.21563 14.1834 1.05994 14.3495 1.05994 14.5449V16.7821C1.05994 16.9774 1.22536 17.1435 1.41997 17.1435H1.4297Z" fill="#BF7344"/>
<path d="M1.78 14.9063H5.78898V16.4206H1.78V14.9063ZM6.50904 14.1639H24.4911V16.4206H6.50904V14.1639ZM9.5547 7.44264H21.3968C23.411 9.56257 23.6348 12.7082 23.664 13.4409H7.28748C7.31667 12.7082 7.54048 9.56257 9.5547 7.44264ZM29.2201 16.4206H25.2111V14.9063H29.2201V16.4206ZM23.6737 27.03H21.0951V19.1462C21.0951 18.941 20.9394 18.7847 20.7351 18.7847H10.2748C10.0704 18.7847 9.91473 18.9508 9.91473 19.1462V27.03H7.33613V17.1435H23.6737V27.03ZM26.0577 27.3915C26.0577 28.5052 25.1527 29.4039 24.0532 29.4039C23.0704 29.4039 22.253 28.6908 22.0779 27.7529H24.0337C24.2381 27.7529 24.3938 27.5868 24.3938 27.3915V25.4083C25.3376 25.5743 26.0577 26.395 26.0577 27.3915V27.3915ZM15.14 27.03H10.6348V19.5077H15.14V27.03ZM20.3751 27.03H15.8698V19.5077H20.3751V27.03ZM6.9761 29.4039C5.86682 29.4039 4.97161 28.4954 4.97161 27.3915C4.97161 26.4048 5.68194 25.5841 6.61607 25.4083V27.3915C6.61607 27.5868 6.78149 27.7529 6.9761 27.7529H8.9514C8.77625 28.6908 7.95889 29.4039 6.9761 29.4039V29.4039ZM1.4297 17.1435H6.61607V24.6756C5.28299 24.8514 4.25155 26.0042 4.25155 27.3915C4.25155 28.9057 5.4776 30.1268 6.9761 30.1268C8.35784 30.1268 9.50604 29.0913 9.68119 27.7529H21.3578C21.533 29.0913 22.6812 30.1268 24.0629 30.1268C25.5712 30.1268 26.7875 28.8959 26.7875 27.3915C26.7875 25.9945 25.7463 24.8417 24.4035 24.6756V17.1435H29.5899C29.7845 17.1435 29.9499 16.9774 29.9499 16.7821V14.5449C29.9499 14.3397 29.7845 14.1834 29.5899 14.1834H25.2209V13.8024C25.2209 13.5973 25.0554 13.4409 24.8608 13.4409H24.4035C24.384 12.6398 24.1602 9.1718 21.8152 6.82717C21.7471 6.75879 21.6595 6.71973 21.5622 6.71973H9.40874C9.31143 6.71973 9.22386 6.75879 9.15574 6.82717C6.82042 9.1718 6.58688 12.6398 6.56742 13.4409H6.14901C5.9544 13.4409 5.78898 13.6071 5.78898 13.8024V14.1834H1.41997C1.21563 14.1834 1.05994 14.3495 1.05994 14.5449V16.7821C1.05994 16.9774 1.22536 17.1435 1.41997 17.1435H1.4297Z" stroke="#BF7344" stroke-width="0.83" stroke-miterlimit="10"/>
<path d="M17.9618 11.1842H13.0381C12.8435 11.1842 12.6781 11.3501 12.6781 11.5452C12.6781 11.7403 12.8435 11.9062 13.0381 11.9062H17.9618C18.1564 11.9062 18.3218 11.7403 18.3218 11.5452C18.3218 11.3501 18.1564 11.1842 17.9618 11.1842Z" fill="#BF7344"/>
<path d="M17.9618 11.1842H13.0381C12.8435 11.1842 12.6781 11.3501 12.6781 11.5452C12.6781 11.7403 12.8435 11.9062 13.0381 11.9062H17.9618C18.1564 11.9062 18.3218 11.7403 18.3218 11.5452C18.3218 11.3501 18.1564 11.1842 17.9618 11.1842Z" stroke="#BF7344" stroke-width="0.83" stroke-miterlimit="10"/>
<path d="M17.0861 5.34224C16.8818 5.34224 16.7261 5.50831 16.7261 5.7037C16.7261 5.89908 16.8915 6.06515 17.0861 6.06515C17.8645 6.06515 18.4873 5.43015 18.4873 4.65838C18.4873 3.88661 17.8548 3.24182 17.0861 3.24182C16.7066 3.24182 16.405 2.92925 16.405 2.55802C16.405 2.18679 16.7163 1.87416 17.0861 1.87416C17.2807 1.87416 17.4461 1.70809 17.4461 1.5127C17.4461 1.31732 17.2807 1.15125 17.0861 1.15125C16.3077 1.15125 15.6752 1.78625 15.6752 2.55802C15.6752 3.32979 16.3077 3.9648 17.0861 3.9648C17.4656 3.9648 17.7672 4.27737 17.7672 4.6486C17.7672 5.01983 17.4559 5.33246 17.0861 5.33246" fill="#BF7344"/>
<path d="M17.0861 5.34224C16.8818 5.34224 16.7261 5.50831 16.7261 5.7037C16.7261 5.89908 16.8915 6.06515 17.0861 6.06515C17.8645 6.06515 18.4873 5.43015 18.4873 4.65838C18.4873 3.88661 17.8548 3.24182 17.0861 3.24182C16.7066 3.24182 16.405 2.92925 16.405 2.55802C16.405 2.18679 16.7163 1.87416 17.0861 1.87416C17.2807 1.87416 17.4461 1.70809 17.4461 1.5127C17.4461 1.31732 17.2807 1.15125 17.0861 1.15125C16.3077 1.15125 15.6752 1.78625 15.6752 2.55802C15.6752 3.32979 16.3077 3.9648 17.0861 3.9648C17.4656 3.9648 17.7672 4.27737 17.7672 4.6486C17.7672 5.01983 17.4559 5.33246 17.0861 5.33246V5.34224Z" stroke="#BF7344" stroke-width="0.83" stroke-miterlimit="10"/>
<path d="M13.5539 5.34224C13.3495 5.34224 13.1938 5.50831 13.1938 5.7037C13.1938 5.89908 13.3593 6.06515 13.5539 6.06515C14.3323 6.06515 14.9551 5.43015 14.9551 4.65838C14.9551 3.88661 14.3226 3.24182 13.5539 3.24182C13.1744 3.24182 12.8727 2.92925 12.8727 2.55802C12.8727 2.18679 13.1841 1.87416 13.5539 1.87416C13.7485 1.87416 13.9139 1.70809 13.9139 1.5127C13.9139 1.31732 13.7485 1.15125 13.5539 1.15125C12.7754 1.15125 12.1429 1.78625 12.1429 2.55802C12.1429 3.32979 12.7754 3.9648 13.5539 3.9648C13.9334 3.9648 14.235 4.27737 14.235 4.6486C14.235 5.01983 13.9236 5.33246 13.5539 5.33246" fill="#BF7344"/>
<path d="M13.5539 5.34224C13.3495 5.34224 13.1938 5.50831 13.1938 5.7037C13.1938 5.89908 13.3593 6.06515 13.5539 6.06515C14.3323 6.06515 14.9551 5.43015 14.9551 4.65838C14.9551 3.88661 14.3226 3.24182 13.5539 3.24182C13.1744 3.24182 12.8727 2.92925 12.8727 2.55802C12.8727 2.18679 13.1841 1.87416 13.5539 1.87416C13.7485 1.87416 13.9139 1.70809 13.9139 1.5127C13.9139 1.31732 13.7485 1.15125 13.5539 1.15125C12.7754 1.15125 12.1429 1.78625 12.1429 2.55802C12.1429 3.32979 12.7754 3.9648 13.5539 3.9648C13.9334 3.9648 14.235 4.27737 14.235 4.6486C14.235 5.01983 13.9236 5.33246 13.5539 5.33246V5.34224Z" stroke="#BF7344" stroke-width="0.83" stroke-miterlimit="10"/>
</svg>
