<svg width="29" height="25" viewBox="0 0 29 25" fill="none" xmlns="http://www.w3.org/2000/svg">
<path d="M26.0209 7.68689H20.9805L21.2724 5.23486H26.6048L26.0209 7.68689V7.68689ZM25.0479 11.7998H20.5134L20.8054 9.34768H25.6317L25.0479 11.7998ZM20.0074 15.9127L20.2994 13.4606H24.6295L24.0456 15.9127H20.0074V15.9127ZM8.84652 13.4606H13.2058L13.4977 15.9127H9.43035L8.83679 13.4606H8.84652ZM12.2327 5.24458L12.5247 7.69667H7.45505L6.86149 5.24458H12.223H12.2327ZM14.1789 7.69667L13.8869 5.24458H19.628L19.336 7.69667H14.1789V7.69667ZM7.87346 9.34768H12.729L13.0209 11.7998H8.4573L7.87346 9.34768V9.34768ZM18.6549 13.4606L18.363 15.9127H15.1519L14.86 13.4606H18.6549V13.4606ZM14.6751 11.7998L14.3832 9.34768H19.1512L18.8592 11.7998H14.6751V11.7998ZM28.3076 3.90619C28.1616 3.70104 27.9281 3.58385 27.6557 3.58385H6.49173L5.86897 1.01453C5.7814 0.633528 5.46029 0.389282 5.07107 0.389282H1.33454C0.896668 0.389282 0.507446 0.740952 0.507446 1.21965C0.507446 1.69834 0.886938 2.05007 1.33454 2.05007H4.42885L8.87571 20.5335C8.96328 20.9145 9.28439 21.1587 9.67361 21.1587H10.7634C10.3256 21.4811 9.99472 22.0184 9.99472 22.6339C9.99472 23.6695 10.8218 24.4998 11.8533 24.4998C12.8847 24.4998 13.7118 23.6695 13.7118 22.6339C13.7118 22.0087 13.3907 21.5104 12.9431 21.1587H20.3967C19.9588 21.4811 19.628 22.0184 19.628 22.6339C19.628 23.6695 20.4551 24.4998 21.4865 24.4998C22.5179 24.4998 23.345 23.6695 23.345 22.6339C23.345 22.0087 23.0239 21.5104 22.5763 21.1587H23.1018C23.5396 21.1587 23.9289 20.807 23.9289 20.3283C23.9289 19.8887 23.5494 19.498 23.1018 19.498H10.3256L9.84876 17.5734H24.6878C25.0673 17.5734 25.3982 17.3097 25.4857 16.9482L28.4633 4.61939C28.5217 4.35562 28.4633 4.09181 28.3173 3.90619H28.3076Z" fill="#BF7344"/>
</svg>
