<svg width="31" height="30" viewBox="0 0 31 30" fill="none" xmlns="http://www.w3.org/2000/svg">
<path d="M13.1549 12.3076H12.2111C12.2111 14.8964 13.8458 17.2215 16.2784 18.0812L16.5898 17.1922C14.5269 16.4595 13.1452 14.4959 13.1452 12.3076H13.1549Z" fill="#BF7344"/>
<path d="M17.3001 18.345C17.631 18.4036 17.9715 18.4329 18.3121 18.4329V17.4853C18.0202 17.4853 17.7283 17.4658 17.4461 17.4169L17.2904 18.345H17.3001Z" fill="#BF7344"/>
<path d="M19.4506 26.4437L17.0277 24.0112C17.4559 24.06 17.8937 24.0893 18.3316 24.0893C18.6333 24.0893 18.9446 24.0795 19.2463 24.0502C22.1071 23.8255 24.6954 22.5458 26.622 20.5919C26.0187 24.2261 23.4207 26.3753 19.4409 26.4437H19.4506ZM11.277 26.4437V27.2741C11.277 28.1143 10.5958 28.7981 9.75902 28.7981C9.35034 28.7981 8.97084 28.6418 8.67893 28.3487L2.33462 21.9792C2.0427 21.6958 1.88701 21.3051 1.88701 20.8948C1.88701 20.0546 2.56815 19.3708 3.40498 19.3708H4.23207C5.63327 19.3708 6.98582 18.98 8.18267 18.2375C8.28971 18.4134 8.39674 18.599 8.51351 18.7651L6.7912 19.9178L7.31665 20.6994L9.05842 19.5271C9.26276 19.7909 9.47683 20.0351 9.6909 20.2793L7.65722 22.3211L8.3189 22.9854L10.3526 20.9436C10.5958 21.1683 10.8488 21.3832 11.1018 21.5786L9.93417 23.3371L10.7126 23.8549L11.8608 22.1257C12.036 22.2429 12.2111 22.3504 12.3863 22.4579C11.6467 23.6497 11.2575 25.0076 11.2575 26.4242L11.277 26.4437ZM11.1797 2.9877C8.62055 4.97086 6.87878 7.97981 6.61605 11.3697C6.61605 11.4674 6.61605 11.5651 6.60632 11.6628L5.17593 10.2267C5.24405 6.14318 7.45288 3.53478 11.1797 2.9877V2.9877ZM22.0584 2.12803C21.7762 2.46019 21.6011 2.88026 21.6011 3.34919C21.6011 4.38473 22.4476 5.23465 23.4791 5.23465C24.5105 5.23465 25.3571 4.3945 25.3571 3.34919C25.3571 2.93888 25.2306 2.56763 25.0068 2.26479C25.3668 2.17686 25.7171 2.04987 26.0577 1.87402L26.4955 1.64932C26.7485 1.52232 27.021 1.45395 27.3032 1.45395C27.7411 1.45395 28.14 1.62003 28.4514 1.8838C27.8773 2.60673 27.0794 3.12448 26.1744 3.35894L26.3982 4.26747C27.4102 4.01347 28.3054 3.45663 28.9963 2.68486C29.0644 2.87047 29.1033 3.06586 29.1033 3.27102C29.1033 3.55433 29.0352 3.82788 28.9087 4.08188L28.6849 4.52148C28.1497 5.58633 28.0135 6.81726 28.2665 7.97003C27.7897 7.86257 27.274 7.88212 26.7875 8.03842C26.2815 8.2045 25.8436 8.50735 25.5128 8.89812C24.2575 6.23112 21.6011 4.36516 18.4873 4.29678C18.0689 3.93532 17.8256 3.42732 17.8256 2.87048C17.8256 2.31363 18.0592 1.82516 18.4679 1.4637C19.6744 1.48324 20.8421 1.6884 21.9806 2.10847L22.039 2.12803H22.0584ZM24.4229 3.34919C24.4229 3.86696 24.0045 4.28703 23.4888 4.28703C22.9731 4.28703 22.5547 3.86696 22.5547 3.34919C22.5547 2.83142 22.9634 2.42109 23.4596 2.41132H23.5861C24.0532 2.46993 24.4229 2.86073 24.4229 3.34919V3.34919ZM27.6827 13.8707C27.1767 13.7046 26.6512 13.6948 26.155 13.8121C26.2523 13.3236 26.3009 12.8156 26.3009 12.3076C26.3009 11.5065 26.1842 10.7445 25.9604 10.0118C26.1744 9.5038 26.5734 9.11304 27.0988 8.94696C27.6243 8.78088 28.1692 8.84927 28.6363 9.13258C29.0449 10.4514 29.1909 11.8387 29.0741 13.2454C29.0352 13.7144 28.9574 14.1735 28.8601 14.6229C28.539 14.281 28.14 14.027 27.6827 13.8707ZM25.4836 20.377C25.4252 19.9276 25.25 19.488 24.9776 19.107C24.6662 18.6674 24.2381 18.345 23.7613 18.1496C24.6857 17.2802 25.4057 16.1958 25.8339 14.9648C26.3009 14.6815 26.8653 14.6034 27.3908 14.7694C27.9065 14.9355 28.3054 15.3165 28.5195 15.8147C27.9065 17.583 26.8458 19.1461 25.4836 20.377V20.377ZM19.3047 20.25C20.6086 20.0839 21.8152 19.615 22.8466 18.8921C23.3915 18.9409 23.8878 19.2047 24.2186 19.6541C24.5397 20.0937 24.637 20.631 24.5202 21.1585C23.0315 22.2136 21.2702 22.9072 19.3825 23.0831C19.6063 22.6728 19.7328 22.2136 19.7328 21.7252C19.7328 21.1879 19.5869 20.6798 19.3144 20.2402L19.3047 20.25ZM13.9334 20.758C14.2448 20.3281 14.4199 19.8299 14.4589 19.3122C15.5487 19.9179 16.7942 20.2695 18.1176 20.2988C18.536 20.6603 18.7792 21.1683 18.7792 21.7252C18.7792 22.282 18.536 22.7803 18.1273 23.1319C16.259 23.1026 14.4394 22.5848 12.8533 21.647C13.2717 21.4516 13.6415 21.1488 13.9334 20.7482V20.758ZM11.1408 4.23817C11.1991 4.68755 11.3743 5.12717 11.6467 5.51794C11.9581 5.95755 12.3863 6.27995 12.8631 6.47534C11.9387 7.3448 11.2186 8.4292 10.7905 9.66013C10.3234 9.9532 9.75902 10.0313 9.23357 9.85549C8.71785 9.68942 8.3189 9.30844 8.10483 8.8102C8.71785 7.04197 9.77848 5.47887 11.1408 4.24795V4.23817ZM17.3196 4.36517C16.0158 4.53125 14.8092 5.00019 13.7777 5.72311C13.2328 5.68404 12.7366 5.4105 12.4155 4.96111C12.0943 4.5215 11.997 3.98418 12.1138 3.45664C13.6026 2.40156 15.3638 1.70793 17.2515 1.52231C17.0277 1.93262 16.9012 2.39179 16.9012 2.88025C16.9012 3.41756 17.0472 3.92555 17.3196 4.36517V4.36517ZM7.55019 11.4381C7.58911 10.9399 7.66695 10.4612 7.77399 9.99228C8.0951 10.3342 8.49405 10.5882 8.95138 10.7347C9.2433 10.8324 9.53522 10.8715 9.82713 10.8715C10.0509 10.8715 10.265 10.8324 10.4791 10.7836C10.3818 11.272 10.3331 11.78 10.3331 12.2978C10.3331 13.0989 10.4499 13.8609 10.6737 14.5936C10.4596 15.1016 10.0607 15.4924 9.53522 15.6584C9.00977 15.8245 8.46486 15.7561 7.99779 15.4728C7.60857 14.1833 7.44315 12.8156 7.55019 11.4284V11.4381ZM25.3473 12.2978C25.3473 16.1957 22.1849 19.3708 18.3024 19.3708C14.4199 19.3708 11.2575 16.1957 11.2575 12.2978C11.2575 8.39987 14.4199 5.23465 18.3024 5.23465C22.1849 5.23465 25.3473 8.40964 25.3473 12.2978ZM8.4162 16.6451C8.59135 16.6744 8.75677 16.7038 8.93192 16.7038C9.22384 16.7038 9.51575 16.6549 9.80767 16.567C10.3137 16.4009 10.7515 16.0981 11.0824 15.7073C11.6273 16.8796 12.4446 17.8858 13.4566 18.6674C13.5831 19.2047 13.4858 19.7615 13.1647 20.2207C12.8436 20.6701 12.3571 20.9338 11.8219 20.9827C11.4229 20.6798 11.0337 20.3477 10.6737 19.9862C9.71037 19.0191 8.95138 17.8858 8.4162 16.6647V16.6451ZM29.5315 4.95133L29.7455 4.5117C29.9402 4.1307 30.0375 3.70088 30.0375 3.2808C30.0375 1.75679 28.8017 0.525858 27.2934 0.525858C26.875 0.525858 26.4469 0.623539 26.0674 0.818924L25.6295 1.03385C24.9873 1.35623 24.2867 1.50279 23.5861 1.47348H23.4693C23.0801 1.4344 22.6909 1.36602 22.3211 1.22925C20.7156 0.643091 19.0322 0.418405 17.3002 0.564944C15.6849 0.701713 14.1572 1.19017 12.7852 1.93263H12.6782C7.46261 1.93263 4.23207 5.18579 4.23207 10.4123V10.6077L6.60632 12.9914C6.6939 14.535 7.08312 16.0297 7.7448 17.3974C6.6939 18.0714 5.48731 18.4232 4.2418 18.4232H3.41471C2.06216 18.4232 0.952881 19.5271 0.952881 20.8948C0.952881 21.5493 1.20587 22.1746 1.67294 22.6435L8.01725 29.013C8.48432 29.482 9.09734 29.7359 9.75902 29.7359C11.1116 29.7359 12.2208 28.632 12.2208 27.2643V26.4339C12.2208 25.1835 12.5809 23.9721 13.2426 22.917C13.9334 23.2492 14.6632 23.5129 15.4125 23.7083L19.0711 27.3816H19.2658C24.2964 27.3816 27.5173 24.3043 27.7021 19.3415C28.9866 17.6221 29.8331 15.5608 30.018 13.3236C30.164 11.5944 29.9402 9.89458 29.3563 8.28266C28.9671 7.19827 29.0352 5.98688 29.5509 4.95133H29.5315Z" fill="#BF7344"/>
<path d="M8.62611 25.6321L7.96558 26.2953L9.06647 27.4006L9.727 26.7374L8.62611 25.6321Z" fill="#BF7344"/>
<path d="M3.93702 20.9184L3.27649 21.5815L7.50112 25.823L8.16165 25.1598L3.93702 20.9184Z" fill="#BF7344"/>
</svg>
