<svg width="24" height="18" viewBox="0 0 24 18" fill="none" xmlns="http://www.w3.org/2000/svg">
<path d="M10.41 9.05C10.41 8.57 10.61 8.23999 10.95 7.95999V10.13C10.61 9.85999 10.41 9.51999 10.41 9.03999V9.05ZM7.55998 9.03999C7.55998 5.84999 5.24998 3.14 2.12998 2.66C2.32998 2.25 2.73998 2.05 3.21998 2.05H10.96V6.25999C9.73998 6.59999 8.85998 7.74999 8.85998 9.10999C8.85998 10.47 9.73998 11.55 10.96 11.89V16.1H3.21998C2.73998 16.1 2.33998 15.83 2.06998 15.49C5.18998 14.95 7.56998 12.23 7.56998 9.03999H7.55998ZM1.86998 11.28H3.22998C3.42998 11.28 3.63998 11.21 3.76998 11.08C3.89998 10.95 3.96998 10.74 3.96998 10.54V7.68999C3.96998 7.49 3.89998 7.27999 3.76998 7.14999C3.62998 7.00999 3.42998 6.94999 3.22998 6.94999H1.86998V4.3C4.24998 4.71 5.93998 6.74 6.00998 9.12C6.00998 10.41 5.46998 11.63 4.58998 12.58C3.83998 13.33 2.95998 13.8 1.93998 13.94V11.29H1.86998V11.28ZM2.40998 9.64999H1.86998V8.35999H2.40998V9.64999ZM13.13 9.03999C13.13 9.44999 12.93 9.85999 12.59 10.13V8.02999C12.86 8.22999 13.13 8.64 13.13 9.05V9.03999ZM21.14 8.43999H21.68V9.73H21.14V8.43999ZM21.68 6.80999H20.32C20.12 6.80999 19.91 6.87999 19.78 7.00999L19.85 7.07999L19.78 7.00999C19.64 7.14999 19.58 7.35 19.58 7.55V10.4C19.58 10.6 19.65 10.81 19.78 10.94L19.85 10.87L19.78 10.94C19.92 11.08 20.12 11.14 20.32 11.14H21.68V13.79C20.66 13.65 19.71 13.18 19.03 12.43C18.08 11.48 17.6 10.26 17.6 8.96999C17.6 6.52999 19.36 4.48999 21.74 4.14999L21.67 6.8L21.68 6.80999ZM12.59 11.83C13.81 11.49 14.69 10.34 14.69 9.05C14.69 7.76 13.81 6.60999 12.59 6.19999V1.98999H20.33C20.8 1.98999 21.21 2.25999 21.42 2.59999C18.3 3.06999 15.99 5.79 15.99 8.98C15.99 12.17 18.3 14.88 21.49 15.36C21.22 15.77 20.81 15.97 20.34 15.97H12.6V11.83H12.59ZM20.33 0.429993H3.20998C1.57998 0.429993 0.289978 1.71999 0.289978 3.34999V14.75C0.289978 16.38 1.57998 17.67 3.20998 17.67H20.31C21.94 17.67 23.23 16.38 23.23 14.75V3.34999C23.23 1.71999 21.94 0.429993 20.31 0.429993" fill="#BF7344"/>
</svg>
