<svg width="30" height="26" viewBox="0 0 30 26" fill="none" xmlns="http://www.w3.org/2000/svg">
<path d="M29.02 17.17C28.86 17.04 28.66 16.99 28.46 17.02C28.26 17.05 28.08 17.16 27.95 17.32C26.75 18.94 25.24 20.34 23.47 21.47V18.33C23.47 17.91 23.13 17.57 22.71 17.57C22.29 17.57 21.95 17.91 21.95 18.33V22.28C21.47 22.52 20.94 22.74 20.37 22.95C20.25 19.83 17.74 17.4 14.62 17.4C11.5 17.4 9.03001 19.77 8.87001 22.81C8.25001 22.56 7.67001 22.29 7.19001 22.04V15.89C7.19001 13.16 9.41001 10.93 12.15 10.93H17.01C17.21 10.93 17.4 10.85 17.54 10.7C17.69 10.55 17.77 10.36 17.77 10.17C17.77 6.22 20.44 2.73 24.13 1.81999V2.58998C24.13 2.78998 24.21 2.97998 24.36 3.11998L27.46 6.21999C27.68 6.43999 27.78 6.69999 27.78 7.02999C27.78 7.29999 27.66 7.59998 27.46 7.83998C27.01 8.28998 26.3 8.28998 25.84 7.83998L25.05 7.04998C24.91 6.90998 24.69 6.81999 24.44 6.81999C24.23 6.85999 24.04 6.94999 23.87 7.12999C22.62 8.99999 21.96 11.15 21.96 13.34V15.51C21.96 15.93 22.3 16.27 22.72 16.27C23.14 16.27 23.48 15.93 23.48 15.51V13.34C23.48 11.7 23.88 10.18 24.66 8.80999L24.77 8.90999C25.81 9.94999 27.49 9.94999 28.53 8.90999C29.03 8.40999 29.31 7.73999 29.31 7.02999C29.31 6.31999 29.03 5.65998 28.53 5.14998L25.66 2.27999V0.899981C25.66 0.659981 25.57 0.469974 25.4 0.329974C25.24 0.169974 25.01 0.100002 24.79 0.140002C20.29 0.720002 16.63 4.69998 16.26 9.39998H12.13C8.56001 9.39998 5.65001 12.31 5.65001 15.88V21.15C4.13001 20.14 2.78001 18.85 1.61001 17.32C1.48001 17.15 1.29001 17.04 1.09001 17.01C0.900006 16.99 0.700006 17.04 0.540006 17.16C0.380006 17.29 0.270006 17.47 0.240006 17.66C0.210006 17.86 0.270006 18.06 0.390006 18.22C3.84001 22.81 9.10001 25.45 14.81 25.45C20.52 25.45 25.78 22.81 29.2 18.22C29.46 17.88 29.4 17.42 29.05 17.15L29.02 17.17ZM18.87 23.13C18.87 23.22 18.87 23.31 18.85 23.41C17.58 23.74 16.19 23.91 14.81 23.91C13.28 23.91 11.84 23.71 10.4 23.31V23.12C10.4 20.79 12.3 18.89 14.63 18.89C16.96 18.89 18.86 20.79 18.86 23.12" fill="#BF7344"/>
</svg>
