<svg width="31" height="31" viewBox="0 0 31 31" fill="none" xmlns="http://www.w3.org/2000/svg">
<path d="M11.1699 21.4321L6.36302 16.8406C6.20733 16.6843 6.11976 16.44 6.11976 16.1177C6.1976 15.8734 6.36302 15.6389 6.59655 15.551C6.75224 15.4729 6.99551 15.4729 7.16093 15.551L11.491 19.2536L11.5689 19.3317C12.2111 19.8104 13.0966 19.9765 13.8945 19.8104L21.2702 18.2767C21.348 18.2767 21.4259 18.2767 21.5135 18.433L26.6415 24.0698C26.7971 24.2261 26.7971 24.5485 26.7971 24.7928C26.7193 25.037 26.5539 25.1933 26.3982 25.2714C26.0771 25.4375 25.6003 25.3496 25.357 25.0272L21.348 20.7581C21.0269 20.4357 20.5501 20.1914 20.0636 20.1914C19.9858 20.1914 19.8204 20.1914 19.6647 20.2696L12.5322 21.7154C12.0554 21.8718 11.5689 21.7936 11.1699 21.393V21.4321ZM5.7208 13.265C5.7208 13.7437 5.56512 14.154 5.24401 14.5546C4.9229 14.8769 4.4461 15.0332 3.95958 15.0332C2.99625 15.0332 2.19835 14.2322 2.19835 13.265C2.19835 12.2979 2.99625 11.4968 3.95958 11.4968C4.9229 11.4968 5.7208 12.2979 5.7208 13.265ZM22.7103 17.4463C22.3114 16.8796 21.5913 16.6452 20.9491 16.8015L13.6512 18.3353C13.2522 18.4134 12.8533 18.3353 12.5322 18.091C9.96332 15.8343 8.92215 14.9551 8.5232 14.5546C8.36751 14.3983 8.27994 14.3103 8.20209 14.2322C7.88098 13.988 7.55988 13.9098 7.31661 13.9098C7.31661 13.6656 7.39446 13.5092 7.39446 13.265C7.39446 12.376 7.07335 11.4968 6.43113 10.852C5.78892 10.2072 4.99101 9.88486 4.10554 9.88486C2.25673 9.88486 0.73877 11.4186 0.73877 13.265C0.73877 15.2775 2.58757 16.9676 4.66991 16.567C4.74775 17.1336 4.99101 17.5342 5.31212 17.8566L10.119 22.4481C10.8391 23.1711 11.8802 23.4153 12.8436 23.2492L19.976 21.7154L20.1415 21.7936L24.1504 26.0628C24.7148 26.6294 25.2695 26.8638 25.9117 26.8638C26.5539 26.8638 27.1183 26.6196 27.5172 26.2191C28.3151 25.4961 28.7238 24.2066 27.8383 23.005L22.7103 17.456V17.4463Z" fill="#BF7344"/>
<path d="M20.628 26.8248L5.23433 26.9029V22.1551L9.16547 26.1018C9.32116 26.2679 9.56442 26.3461 9.88553 26.3461L18.7014 24.9784L20.628 26.8248ZM19.509 23.5227C19.3436 23.3664 19.1879 23.2785 18.789 23.2785L9.9731 24.6462L2.51951 17.2411C2.1984 16.9187 1.72161 16.9187 1.4005 17.2411C1.07939 17.5635 1.07939 18.0422 1.4005 18.3646L3.64825 20.5334V29.6285C3.64825 30.1072 3.96936 30.4296 4.44616 30.4296C4.92295 30.4296 5.24406 30.1072 5.24406 29.6285V28.4269H20.6378V29.4722C20.6378 29.9607 20.9589 30.2733 21.4357 30.2733C21.9125 30.2733 22.2336 29.9509 22.2336 29.4722V28.3488L23.917 30.0389C24.2381 30.3612 24.7149 30.3612 25.036 30.0389C25.1917 29.8728 25.2792 29.7165 25.2792 29.4722C25.2792 29.228 25.2014 29.0717 25.036 28.9056L19.509 23.513V23.5227Z" fill="#BF7344"/>
<path d="M20.229 8.07753C20.229 6.78799 21.2702 5.66452 22.6324 5.66452C23.9169 5.66452 25.0359 6.70983 25.0359 8.07753C25.0359 9.44523 23.9947 10.4905 22.6324 10.4905C21.2702 10.4905 20.229 9.36707 20.229 8.07753ZM22.5546 12.0243C24.7148 12.0243 26.4857 10.2561 26.4857 8.07753C26.4857 5.89898 24.7245 4.13077 22.5546 4.13077C21.5134 4.13077 20.5501 4.5313 19.7522 5.25423C19.0321 5.97715 18.6332 7.02247 18.6332 8.06778C18.6332 10.2366 20.3944 12.0145 22.5643 12.0145" fill="#BF7344"/>
<path d="M22.5546 3.49573C22.9536 3.49573 23.3525 3.17337 23.3525 2.69467V1.24881C23.3525 0.770116 23.0314 0.447723 22.5546 0.447723C22.0778 0.447723 21.7567 0.770116 21.7567 1.24881V2.69467C21.7567 3.17337 22.0778 3.49573 22.5546 3.49573Z" fill="#BF7344"/>
<path d="M18.2245 4.86348C18.3802 5.02956 18.5456 5.10771 18.7889 5.10771C18.9446 5.10771 19.1879 5.02956 19.3533 4.86348C19.6744 4.54109 19.6744 4.06237 19.3533 3.73999L18.3121 2.6947C17.991 2.37231 17.5142 2.37231 17.1931 2.6947C16.872 3.01709 16.872 3.49577 17.1931 3.81816L18.2343 4.86348H18.2245Z" fill="#BF7344"/>
<path d="M15.7432 8.8786H17.1833C17.6601 8.8786 17.9812 8.55621 17.9812 8.07752C17.9812 7.59882 17.6601 7.27646 17.1833 7.27646H15.7432C15.2664 7.27646 14.9453 7.59882 14.9453 8.07752C14.9453 8.55621 15.2664 8.8786 15.7432 8.8786Z" fill="#BF7344"/>
<path d="M18.1467 11.3796L17.1056 12.4249C16.7845 12.7473 16.7845 13.226 17.1056 13.5483C17.271 13.7047 17.4267 13.7926 17.6699 13.7926C17.8256 13.7926 18.0689 13.7144 18.2343 13.5483L19.2755 12.503C19.4312 12.3369 19.5188 12.1807 19.5188 11.9364C19.5188 11.6922 19.4409 11.5359 19.2755 11.448C19.1976 11.2916 18.9544 11.2037 18.7987 11.2037C18.5554 11.1256 18.3219 11.2037 18.1565 11.36" fill="#BF7344"/>
<path d="M21.7567 14.115V15.6487C21.7567 16.1274 22.0778 16.4498 22.5546 16.4498C23.0314 16.4498 23.3525 16.1274 23.3525 15.6487V14.115C23.3525 13.6363 23.0314 13.3139 22.5546 13.3139C22.1557 13.392 21.7567 13.7144 21.7567 14.115Z" fill="#BF7344"/>
<path d="M25.8436 11.3795C25.6782 11.5456 25.6003 11.7019 25.6003 11.9462C25.6003 12.1904 25.6782 12.3467 25.8436 12.5128L26.8848 13.5581C27.0405 13.7144 27.2059 13.8023 27.4491 13.8023C27.6146 13.8023 27.8481 13.7242 28.0135 13.5581C28.1692 13.392 28.2568 13.2357 28.2568 12.9914C28.2568 12.7472 28.1789 12.5909 28.0135 12.4248L27.0502 11.4577C26.9723 11.3014 26.7291 11.2135 26.5734 11.2135C26.2523 11.1353 26.009 11.2134 25.8533 11.3697" fill="#BF7344"/>
<path d="M29.4438 7.27646H28.0037C27.5269 7.27646 27.2058 7.59882 27.2058 8.07752C27.2058 8.55621 27.5269 8.8786 28.0037 8.8786H29.4438C29.9206 8.8786 30.2417 8.55621 30.2417 8.07752C30.2417 7.59882 29.8428 7.27646 29.4438 7.27646Z" fill="#BF7344"/>
<path d="M26.3982 5.01973C26.5539 5.01973 26.7972 4.94157 26.9626 4.7755L28.0037 3.73021C28.3249 3.40782 28.3249 2.92911 28.0037 2.60672C27.8481 2.44064 27.6826 2.36249 27.4394 2.36249C27.1961 2.36249 27.0404 2.44064 26.875 2.60672L25.8338 3.65204C25.6782 3.80835 25.5906 3.97444 25.5906 4.21867C25.5906 4.4629 25.6684 4.6192 25.8338 4.78528C25.9993 5.02951 26.2328 5.02951 26.3982 5.02951" fill="#BF7344"/>
</svg>
