<svg width="31" height="31" viewBox="0 0 31 31" fill="none" xmlns="http://www.w3.org/2000/svg">
<path d="M2.68999 20.45C2.13999 20.45 1.67999 20.9 1.67999 21.46C1.67999 21.86 2.12999 22.47 2.68999 22.47H28.84C29.39 22.47 29.85 22.02 29.85 21.46C29.85 21.06 29.4 20.45 28.84 20.45H2.68999ZM28.84 23.47H2.68999C1.55999 23.47 0.679993 22.39 0.679993 21.46C0.679993 20.35 1.57999 19.45 2.68999 19.45H28.84C29.97 19.45 30.85 20.53 30.85 21.46C30.85 22.57 29.95 23.47 28.84 23.47Z" fill="#BF7344"/>
<path d="M15.76 7.38C13.82 7.38 12.24 8.95999 12.24 10.9C12.24 12.84 13.82 14.42 15.76 14.42C17.7 14.42 19.28 12.84 19.28 10.9C19.28 8.95999 17.7 7.38 15.76 7.38ZM15.76 15.43C13.26 15.43 11.23 13.4 11.23 10.9C11.23 8.39999 13.26 6.37 15.76 6.37C18.26 6.37 20.29 8.39999 20.29 10.9C20.29 13.4 18.26 15.43 15.76 15.43Z" fill="#BF7344"/>
<path d="M26.83 1.34C25.17 1.34 23.81 2.68999 23.81 4.35999C23.81 6.02999 25.16 7.38 26.83 7.38C28.5 7.38 29.85 6.02999 29.85 4.35999C29.85 2.68999 28.5 1.34 26.83 1.34ZM26.83 8.38C24.61 8.38 22.81 6.57999 22.81 4.35999C22.81 2.13999 24.61 0.339996 26.83 0.339996C29.05 0.339996 30.85 2.14999 30.85 4.35999C30.85 6.56999 29.05 8.38 26.83 8.38Z" fill="#BF7344"/>
<path d="M7.44002 20.45C6.72002 20.45 6.04002 20.18 5.51002 19.68C4.96002 19.15 4.66002 18.42 4.70002 17.65C4.74002 16.89 5.11002 16.19 5.71002 15.72L11.44 11.21L12.06 12L6.32002 16.51C5.94002 16.8 5.72002 17.23 5.69002 17.7C5.67002 18.17 5.85002 18.62 6.18002 18.94C6.52002 19.26 6.95002 19.43 7.42002 19.43H16.4V20.44H7.44002V20.45Z" fill="#BF7344"/>
<path d="M24.09 20.45H15.1V19.44H24.08C24.54 19.44 24.98 19.27 25.32 18.95C25.66 18.63 25.84 18.17 25.81 17.71C25.79 17.24 25.56 16.81 25.19 16.53L19.45 12.02L20.07 11.23L25.81 15.74C26.41 16.2 26.78 16.91 26.82 17.67C26.86 18.43 26.57 19.17 26.01 19.7C25.49 20.19 24.8 20.47 24.08 20.47" fill="#BF7344"/>
<path d="M14.18 20.45H13.12V19.44H14.13C14.72 19.46 15.22 19.02 15.25 18.43C15.21 17.85 14.71 17.4 14.13 17.42H9.82001V16.41H14.1C15.24 16.37 16.21 17.26 16.26 18.4V18.45C16.21 19.56 15.28 20.44 14.18 20.44" fill="#BF7344"/>
<path d="M17.34 20.45C16.23 20.45 15.31 19.57 15.26 18.46V18.41C15.31 17.27 16.28 16.38 17.42 16.42H21.7V17.43H17.39C16.8 17.4 16.3 17.85 16.27 18.44C16.31 19.02 16.81 19.47 17.39 19.45H18.4V20.46H17.34V20.45Z" fill="#BF7344"/>
<path d="M29.34 20.45H23.81V19.94H24.31V19.45H29.34C29.62 19.45 29.84 19.22 29.84 18.95V9.89999C29.84 9.06999 29.16 8.39001 28.33 8.39001H26.32C25.49 8.39001 24.81 9.06999 24.81 9.89999V11.39H23.8V9.89999C23.8 8.50999 24.93 7.38 26.31 7.38H28.32C29.71 7.38 30.84 8.50999 30.84 9.89999V18.95C30.84 19.78 30.16 20.46 29.33 20.46" fill="#BF7344"/>
<path d="M24.82 15.15H23.81V15.19H24.82V15.15Z" fill="#BF7344"/>
<path d="M23.81 23.47V28.25C23.81 28.59 23.94 28.9 24.18 29.14C24.42 29.38 24.73 29.51 25.07 29.51C25.41 29.51 25.72 29.38 25.96 29.14C26.2 28.9 26.33 28.59 26.33 28.25V23.47H23.82H23.81ZM25.07 30.51C24.47 30.51 23.9 30.28 23.47 29.85C23.04 29.42 22.81 28.85 22.81 28.25V22.47H27.34V28.25C27.34 28.85 27.11 29.42 26.68 29.85C26.25 30.28 25.69 30.51 25.08 30.51" fill="#BF7344"/>
<path d="M5.20001 23.47V28.25C5.20001 28.59 5.33001 28.9 5.57001 29.14C5.81001 29.38 6.12001 29.51 6.46001 29.51C6.80001 29.51 7.11001 29.38 7.35001 29.14C7.59001 28.9 7.72001 28.59 7.72001 28.25V23.47H5.20001ZM6.46001 30.51C5.85001 30.51 5.29001 30.28 4.86001 29.85C4.43001 29.42 4.20001 28.85 4.20001 28.25V22.47H8.73001V28.25C8.73001 28.85 8.50001 29.42 8.07001 29.85C7.64001 30.28 7.07001 30.51 6.47001 30.51" fill="#BF7344"/>
<path d="M27.83 30.51H25.31V29.5H27.83C28.11 29.5 28.33 29.27 28.33 29V22.97H29.34V29C29.34 29.83 28.66 30.51 27.83 30.51Z" fill="#BF7344"/>
<path d="M24.56 15.59L24.01 14.75L24.02 14.73L27.41 12.2L28.01 13.01L24.6 15.56L24.56 15.59Z" fill="#BF7344"/>
<path d="M22.13 13.64L21.53 12.84L24.01 10.98L25.61 9.79001L26.21 10.6L24.61 11.79L22.13 13.64Z" fill="#BF7344"/>
<path d="M20.6 12.46L20.02 11.63L24.18 8.72L24.44 9.10001L24.82 9.48999L24.79 9.51999L20.6 12.46Z" fill="#BF7344"/>
<path d="M15.76 25.48C15.2 25.48 14.75 25.93 14.75 26.49C14.75 27.05 15.2 27.5 15.76 27.5C16.32 27.5 16.77 27.05 16.77 26.49C16.77 25.93 16.32 25.48 15.76 25.48ZM15.76 28.5C14.65 28.5 13.75 27.6 13.75 26.49C13.75 25.38 14.65 24.48 15.76 24.48C16.87 24.48 17.77 25.38 17.77 26.49C17.77 27.6 16.87 28.5 15.76 28.5Z" fill="#BF7344"/>
<path d="M23.81 28H16.88V26.99H22.8V25.99H16.88V24.98H23.81V28Z" fill="#BF7344"/>
<path d="M14.64 28H7.71997V24.98H14.64V25.99H8.71997V26.99H14.64V28Z" fill="#BF7344"/>
</svg>
