<svg width="31" height="32" viewBox="0 0 31 32" fill="none" xmlns="http://www.w3.org/2000/svg">
<path d="M1.6535 28.4481L4.04721 26.0449L5.24407 27.2465L2.85035 29.6497L1.6535 28.4481V28.4481ZM6.7523 25.742L6.14901 26.3477L4.95215 25.1461L5.55544 24.5404L6.7523 25.742ZM26.9821 17.4674C31.5262 12.9052 32.1977 6.15464 28.4806 2.42278C25.2501 -0.820613 19.655 -0.801075 15.1887 2.47163C14.9065 2.67678 14.8384 3.07732 15.0524 3.36063C15.2568 3.64394 15.6557 3.71232 15.9379 3.4974C19.908 0.59593 24.8024 0.517776 27.5854 3.31178C30.8062 6.54541 30.1348 12.4851 26.0869 16.5491C22.5644 20.0856 17.5337 21.1212 14.128 19.0208L14.0891 19.0012L14.021 18.9719L13.9626 18.9524L13.9042 18.9328H13.661L13.6026 18.9524L13.5442 18.9719L13.4858 19.0012L13.4372 19.0305L13.3788 19.0794L13.3399 19.1087L7.64751 24.8237L6.45065 23.6221L12.0749 17.9754L12.1236 17.9071L12.1527 17.868L12.1819 17.8094L12.2014 17.7605L12.2209 17.7019L12.2403 17.6433V17.3991L12.2209 17.3307L12.2014 17.2721L12.1722 17.2232L12.143 17.1646C10.2066 14.3804 10.4791 10.1698 12.8339 6.69195C13.0285 6.39887 12.9604 5.99833 12.6685 5.80295C12.3765 5.60756 11.9776 5.68572 11.783 5.96902C9.25305 9.70088 8.89302 14.2241 10.8099 17.4186L0.300952 27.9987C0.0479576 28.2527 0.0479576 28.6533 0.300952 28.8975L2.40275 31.0076C2.65574 31.2519 3.05469 31.2519 3.29796 31.0076L13.8945 20.3689C17.777 22.44 23.1872 21.2677 26.9724 17.4674" fill="#BF7344"/>
<path d="M12.9506 5.48057C13.2133 5.71504 13.622 5.67596 13.8458 5.41219C14.0112 5.22657 14.1863 5.03119 14.3907 4.82603C14.488 4.72834 14.5853 4.64042 14.6826 4.54272C14.9356 4.29849 14.9551 3.89795 14.7118 3.64395C14.4783 3.38995 14.0696 3.38018 13.8166 3.61464C13.7096 3.71234 13.6025 3.8198 13.4955 3.92726C13.2717 4.15195 13.0673 4.37665 12.8825 4.5818C12.6684 4.8358 12.6781 5.2168 12.9116 5.45127L12.9506 5.48057V5.48057Z" fill="#BF7344"/>
<path d="M16.3369 7.68842L14.2351 9.79858L13.8361 9.39804C14.2059 8.4895 14.7508 7.61027 15.4514 6.80919L16.3369 7.69819V7.68842ZM19.3339 4.67949L17.2321 6.78965L16.3466 5.90065C17.1445 5.19726 18.03 4.65018 18.9252 4.27895L19.3242 4.67949H19.3339ZM23.2261 6.78965L21.1243 4.67949L22.1168 3.68303C23.2748 3.73187 24.3548 4.08357 25.2403 4.76741L23.2261 6.78965V6.78965ZM26.2231 9.79858L24.1213 7.68842L26.1355 5.66619C26.8167 6.55519 27.1572 7.63958 27.2156 8.80212L26.2231 9.79858V9.79858ZM24.1213 13.7161L26.2231 11.6059L26.6221 12.0064C26.2523 12.915 25.7074 13.7942 25.0068 14.5953L24.1213 13.7161ZM21.1243 16.725L23.2261 14.6148L24.1018 15.5038C23.3039 16.2072 22.4282 16.7543 21.5233 17.1255L21.1243 16.725ZM17.2224 14.6148L19.3242 16.725L18.3316 17.7215C17.1737 17.6726 16.0936 17.3209 15.2081 16.6371L17.2224 14.6148ZM16.3271 13.7161L14.3129 15.7383C13.6318 14.8591 13.2815 13.7649 13.2328 12.6024L14.2253 11.6059L16.3271 13.7161V13.7161ZM19.3242 10.7071L17.2224 12.8173L15.1206 10.7071L17.2224 8.59696L19.3242 10.7071ZM20.2194 9.80835L18.1176 7.69819L20.2194 5.58803L22.3212 7.69819L20.2194 9.80835ZM22.3212 13.7258L20.2194 15.836L18.1176 13.7258L20.2194 11.6157L22.3212 13.7258ZM21.1243 10.7169L23.2261 8.60673L25.3279 10.7169L23.2261 12.8271L21.1243 10.7169ZM13.8361 17.1255C16.7261 20.027 21.9514 19.519 25.4641 15.9825C28.9866 12.4461 29.5023 7.20973 26.6026 4.29849C23.7126 1.39702 18.4971 1.90502 14.9649 5.44149C11.4424 8.97797 10.9364 14.2143 13.8264 17.1158" fill="#BF7344"/>
</svg>
