<svg width="23" height="28" viewBox="0 0 23 28" fill="none" xmlns="http://www.w3.org/2000/svg">
<path d="M9.01865 12.9374V23.8692C9.01865 24.3577 9.01865 24.8364 9.01865 25.3151V25.491L9.03811 25.2565C9.01865 25.3737 8.98946 25.4909 8.94081 25.5984L9.02838 25.3835L8.93108 25.5691C8.8435 25.7058 8.98946 25.491 8.98946 25.5007L8.91161 25.5788L8.8435 25.6472C8.77539 25.7156 9.02838 25.5202 8.92134 25.5886L8.717 25.6961L8.93108 25.6082C8.8435 25.6375 8.75593 25.6668 8.66835 25.6766L8.90188 25.6472C8.65862 25.6765 8.41536 25.657 8.17209 25.657H3.31656C3.02464 25.657 2.72299 25.6765 2.44081 25.6472L2.67434 25.6766C2.5673 25.657 2.47 25.6375 2.37269 25.5886L2.58676 25.6766L2.40188 25.5691C2.25593 25.4811 2.47973 25.6277 2.47 25.6277L2.38242 25.5496L2.31431 25.4812C2.2462 25.4128 2.44081 25.6668 2.37269 25.5496L2.25593 25.3444L2.3435 25.5593C2.30458 25.4617 2.27539 25.364 2.25593 25.2565L2.28512 25.491C2.26566 25.3346 2.27539 25.1783 2.27539 25.022V14.3051C2.27539 13.846 2.27539 13.3966 2.27539 12.9374C2.27539 12.7811 2.28512 12.6248 2.30458 12.4685L2.27539 12.703C2.32404 12.3513 2.42135 12.0094 2.55757 11.6772L2.47 11.8921C2.55757 11.6869 2.66461 11.4818 2.79111 11.2864L2.88841 11.1497C2.92733 11.0911 3.07329 10.9347 2.87868 11.1594L3.09275 10.9055L3.33602 10.6709L3.46251 10.5635C3.24844 10.7589 3.38467 10.6221 3.45278 10.5831C3.62793 10.4561 3.82254 10.3486 4.01715 10.2607L3.80308 10.3486C4.02688 10.2509 4.26042 10.1923 4.50368 10.1532C4.68856 10.1239 4.85398 9.96757 4.96102 9.8308C5.07778 9.67449 5.1459 9.48889 5.1459 9.2935V1.82977C4.85398 2.12285 4.55233 2.42573 4.26042 2.71881H7.04335C6.75144 2.42573 6.44979 2.12285 6.15787 1.82977V9.2935C6.15787 9.48889 6.22599 9.68426 6.35248 9.8308C6.45952 9.96757 6.63467 10.1239 6.80982 10.1532C7.05308 10.1923 7.28661 10.2607 7.51042 10.3486L7.29635 10.2607C7.49096 10.3486 7.68557 10.4561 7.86072 10.5831C7.9191 10.6319 8.05533 10.7687 7.85099 10.5635L7.97748 10.6709L8.22075 10.9055L8.44455 11.1594C8.24994 10.9347 8.3959 11.0911 8.43482 11.1497L8.53212 11.2864C8.64889 11.472 8.75593 11.6772 8.85323 11.8921L8.76566 11.6772C8.90188 12.0094 8.99919 12.3513 9.04784 12.703L9.01865 12.4685C9.01865 12.6248 9.03811 12.7811 9.03811 12.9374C9.03811 13.4063 9.44679 13.846 9.92359 13.8265C10.4004 13.8069 10.8188 13.4357 10.8091 12.9374C10.8091 11.8823 10.4296 10.8566 9.79709 10.0262C9.18407 9.22512 8.29859 8.59011 7.28661 8.4338C7.50069 8.71711 7.72449 9.01019 7.93856 9.2935V1.82977C7.93856 1.35108 7.52988 0.940796 7.05308 0.940796H4.27015C3.79335 0.940796 3.38467 1.35108 3.38467 1.82977V9.2935C3.59874 9.01019 3.82254 8.71711 4.03661 8.4338C2.54784 8.64873 1.40937 9.8699 0.854729 11.1985C0.592005 11.8238 0.51416 12.4881 0.51416 13.1622V25.3248C0.523891 26.0966 0.961765 26.8587 1.66236 27.2006C2.01266 27.3667 2.37269 27.435 2.75218 27.435H8.67808C9.21326 27.435 9.70952 27.2592 10.1085 26.8977C10.5658 26.507 10.7993 25.9013 10.8091 25.3053V12.9276C10.8091 12.4587 10.4004 12.0191 9.92359 12.0387C9.44679 12.0582 9.03811 12.4294 9.03811 12.9276" fill="#BF7344"/>
<path d="M9.01869 14.0706V23.4589L9.90417 22.5699H6.35252L7.238 23.4589V14.0706L6.35252 14.9596H9.90417C10.3712 14.9596 10.8091 14.5493 10.7896 14.0706C10.7702 13.5822 10.4004 13.1816 9.90417 13.1816H6.35252C5.87572 13.1816 5.46704 13.5919 5.46704 14.0706V23.4589C5.46704 23.9376 5.87572 24.3479 6.35252 24.3479H9.90417C10.381 24.3479 10.7896 23.9376 10.7896 23.4589V14.0706C10.7896 13.6017 10.381 13.1621 9.90417 13.1816C9.42737 13.2011 9.01869 13.5724 9.01869 14.0706Z" fill="#BF7344"/>
<path d="M20.7343 13.416V16.7181C20.7343 16.9818 20.7343 17.2456 20.6954 17.5094L20.7246 17.2749C20.676 17.6364 20.5787 17.9783 20.4424 18.3105L20.53 18.0956C20.4327 18.33 20.3062 18.5547 20.17 18.7696L20.0727 18.9161C20.0337 18.9748 19.9267 19.0725 20.1213 18.8575L20.0727 18.9161C19.9948 19.0138 19.9072 19.1116 19.8099 19.2093C19.7224 19.2972 19.6348 19.3753 19.5375 19.4535L19.4596 19.5121C19.4596 19.5121 19.664 19.3656 19.5278 19.4535L19.3818 19.5512C19.1677 19.6977 18.9342 19.8247 18.7007 19.9224L18.9147 19.8345C18.5839 19.9712 18.2336 20.069 17.8833 20.1178L18.1168 20.0885C17.7665 20.1275 17.4065 20.1275 17.0465 20.0885L17.28 20.1178C16.92 20.069 16.5794 19.9712 16.2486 19.8345L16.4626 19.9224C16.2291 19.8247 16.0053 19.6977 15.7912 19.561L15.6453 19.4632C15.5869 19.4241 15.4896 19.3167 15.7037 19.5121L15.6453 19.4632C15.548 19.3753 15.4507 19.2972 15.3631 19.1995C15.2755 19.1116 15.1977 19.0236 15.1101 18.9259L15.0517 18.8478C15.0517 18.8478 15.1977 19.0529 15.1101 18.9161L15.0128 18.7696C14.8668 18.5547 14.7403 18.3202 14.643 18.0858L14.7306 18.3007C14.5944 17.9685 14.4971 17.6168 14.4484 17.2651L14.4776 17.4997C14.4192 17.0014 14.4387 16.4934 14.4387 15.9951V13.416C14.4387 12.9471 14.03 12.5075 13.5532 12.5271C13.0667 12.5466 12.6677 12.9178 12.6677 13.416V16.4152C12.6677 16.9818 12.6677 17.5387 12.7942 18.0956C13.0083 19.0627 13.5532 19.9908 14.3025 20.6355C15.1393 21.3682 16.1513 21.7883 17.2508 21.8763C18.2628 21.9642 19.3234 21.6906 20.1797 21.1436C21.0944 20.5574 21.7658 19.7075 22.1745 18.6915C22.4275 18.0662 22.4956 17.3922 22.4956 16.7278V13.4063C22.4956 12.9374 22.0869 12.4978 21.6101 12.5173C21.1236 12.5368 20.7246 12.9081 20.7246 13.4063" fill="#BF7344"/>
<path d="M18.4865 26.5166V21.0752C18.4865 20.6062 18.0779 20.1666 17.6011 20.1862C17.1145 20.2057 16.7156 20.5769 16.7156 21.0752V26.5166C16.7156 26.9856 17.1243 27.4252 17.6011 27.4056C18.0779 27.3861 18.4865 27.0149 18.4865 26.5166Z" fill="#BF7344"/>
<path d="M19.372 25.6277H15.8203C15.3532 25.6277 14.9154 26.038 14.9348 26.5167C14.9543 27.0052 15.3241 27.4057 15.8203 27.4057H19.372C19.839 27.4057 20.2769 26.9954 20.2574 26.5167C20.238 26.038 19.8682 25.6277 19.372 25.6277Z" fill="#BF7344"/>
<path d="M14.3997 17.4704L14.4678 17.4215C14.1662 17.6755 14.39 17.4801 14.497 17.4117C14.7208 17.2554 14.9738 17.1284 15.2268 17.0209L15.0127 17.1089C15.3533 16.9624 15.7133 16.8647 16.0831 16.8158L15.8496 16.8451C16.1901 16.806 16.521 16.806 16.8615 16.8451L16.628 16.8158C17.1924 16.9038 17.7373 17.0992 18.3017 17.1968C18.8174 17.2848 19.3331 17.3433 19.8488 17.3433C20.5105 17.3433 21.1624 17.2261 21.7657 16.9623L21.9798 16.8549C22.1744 16.7181 22.3204 16.5521 22.3885 16.3274C22.4469 16.1124 22.4177 15.8291 22.3009 15.6435C22.0576 15.2625 21.4933 15.0378 21.0846 15.3211L20.8705 15.4285L21.0846 15.3407C20.8121 15.4579 20.5299 15.5165 20.238 15.5653L20.4716 15.5361C19.9169 15.6142 19.3623 15.5849 18.8174 15.5165L19.0509 15.5458C18 15.3993 16.988 14.9596 15.9079 15.0866C15.11 15.1746 14.3316 15.4286 13.6407 15.878C13.4656 15.9952 13.3002 16.1124 13.1445 16.2492C12.7942 16.5618 12.8039 17.1968 13.1445 17.5094C13.5142 17.8513 14.0202 17.8416 14.3997 17.5094" fill="#BF7344"/>
<path d="M2.9469 2.71881H8.32788C8.79495 2.71881 9.23282 2.30847 9.21336 1.82977C9.1939 1.34131 8.82414 0.940796 8.32788 0.940796H2.9469C2.47983 0.940796 2.04196 1.35108 2.06142 1.82977C2.08088 2.30847 2.45064 2.71881 2.9469 2.71881Z" fill="#BF7344"/>
</svg>
