<svg width="30" height="30" viewBox="0 0 30 30" fill="none" xmlns="http://www.w3.org/2000/svg">
<path d="M28.27 15.84H25.16C24.99 15.49 24.77 15.18 24.5 14.91H28.28V15.84H28.27ZM22.21 19.57C20.93 19.57 19.88 18.52 19.88 17.24C19.88 15.96 20.92 14.91 22.21 14.91C23.5 14.91 24.54 15.96 24.54 17.24C24.54 18.52 23.5 19.57 22.21 19.57ZM27.31 25.63V27.03H26.32C26.37 26.88 26.41 26.73 26.41 26.56V25.16H23.62V22.83C23.62 22.06 22.99 21.43 22.22 21.43H19.25C20.1 20.83 21.13 20.5 22.19 20.5C25.02 20.5 27.31 22.8 27.31 25.62V25.63ZM28.27 28.88H1.25001V27.95H28.27V28.88ZM2.18001 26.55V22.82C2.18001 22.56 2.39001 22.35 2.64001 22.35H8.23001C8.49001 22.35 8.70001 22.56 8.70001 22.82V27.01H2.65001C2.39001 27.01 2.19001 26.8 2.19001 26.54L2.18001 26.55ZM9.64001 26.07H11.5V26.54C11.5 26.8 11.29 27.01 11.03 27.01H9.63001V26.08L9.64001 26.07ZM8.24001 20.48C11.07 20.48 13.36 22.78 13.36 25.6V27H12.34C12.39 26.85 12.43 26.7 12.43 26.53V25.13H9.64001V22.8C9.64001 22.03 9.01001 21.4 8.24001 21.4H5.30001C6.15001 20.8 7.18001 20.47 8.24001 20.47V20.48ZM5.91001 17.21C5.91001 15.93 6.96001 14.88 8.24001 14.88C9.52001 14.88 10.57 15.93 10.57 17.21C10.57 18.49 9.53001 19.54 8.24001 19.54C6.95001 19.54 5.91001 18.49 5.91001 17.21ZM1.25001 15.81V14.88H5.96001C5.69001 15.15 5.46001 15.46 5.30001 15.81H1.25001ZM17.83 21.4H16.63C15.86 21.4 15.23 22.03 15.23 22.8V26.53C15.23 26.69 15.26 26.85 15.32 27H14.3V25.6C14.3 22.93 12.56 20.66 10.15 19.86C10.97 19.27 11.5 18.31 11.5 17.22C11.5 17.06 11.48 16.91 11.46 16.75H18.99C18.97 16.9 18.95 17.06 18.95 17.22C18.95 18.3 19.48 19.26 20.29 19.85C19.36 20.16 18.51 20.69 17.82 21.41L17.83 21.4ZM22.67 27H16.61C16.35 27 16.14 26.79 16.14 26.53V22.8C16.14 22.54 16.35 22.33 16.61 22.33H22.2C22.46 22.33 22.67 22.54 22.67 22.8V26.99V27ZM23.6 26.07H25.46V26.54C25.46 26.8 25.25 27.01 24.99 27.01H23.59V26.08L23.6 26.07ZM11.95 14.89H19.92C19.65 15.16 19.42 15.47 19.26 15.82H11.18C11.01 15.47 10.79 15.16 10.52 14.89H11.97H11.95ZM11.48 13.49V9.76001C11.48 9.50001 11.69 9.29999 11.95 9.29999H17.54C17.8 9.29999 18.01 9.51001 18.01 9.76001V13.95H11.95C11.69 13.95 11.48 13.74 11.48 13.48V13.49ZM18.93 13.01H20.79V13.48C20.79 13.74 20.58 13.95 20.32 13.95H18.92V13.02L18.93 13.01ZM17.53 7.41998C20.36 7.41998 22.65 9.71998 22.65 12.54V13.94H21.63C21.68 13.79 21.72 13.64 21.72 13.47V12.07H18.92V9.73999C18.92 8.96999 18.29 8.34003 17.52 8.34003H14.58C15.44 7.74003 16.46 7.40997 17.52 7.40997L17.53 7.41998ZM15.19 4.15002C15.19 2.87002 16.23 1.82001 17.52 1.82001C18.81 1.82001 19.85 2.87002 19.85 4.15002C19.85 5.43002 18.8 6.47998 17.52 6.47998C16.24 6.47998 15.19 5.43002 15.19 4.15002ZM29.17 13.93H23.58V12.53C23.58 9.86003 21.84 7.59003 19.43 6.78003C20.25 6.19003 20.79 5.23001 20.79 4.14001C20.79 2.34001 19.33 0.880005 17.53 0.880005C15.73 0.880005 14.27 2.34001 14.27 4.14001C14.27 5.23001 14.81 6.19003 15.62 6.78003C14.7 7.09003 13.85 7.62002 13.17 8.33002H11.94C11.17 8.33002 10.54 8.95998 10.54 9.72998V13.46C10.54 13.62 10.57 13.78 10.63 13.93H0.320007V16.73H5.02001C5.00001 16.88 4.98001 17.04 4.98001 17.2C4.98001 18.29 5.51001 19.25 6.33001 19.84C5.41001 20.15 4.56001 20.68 3.88001 21.39H2.65001C1.88001 21.39 1.25001 22.02 1.25001 22.79V26.52C1.25001 26.68 1.28001 26.84 1.34001 26.99H0.320007V29.78H29.2V26.99H28.24V25.59C28.24 22.92 26.51 20.66 24.11 19.85C24.94 19.26 25.47 18.29 25.47 17.2C25.47 17.04 25.46 16.89 25.43 16.73H29.19V13.93H29.17Z" fill="#BF7344"/>
<path d="M19.42 25.16C19.16 25.16 18.95 24.95 18.95 24.7C18.95 24.45 19.16 24.23 19.42 24.23C19.68 24.23 19.89 24.44 19.89 24.7C19.89 24.96 19.68 25.16 19.42 25.16ZM19.42 23.3C18.65 23.3 18.02 23.93 18.02 24.7C18.02 25.47 18.65 26.1 19.42 26.1C20.19 26.1 20.82 25.47 20.82 24.7C20.82 23.93 20.19 23.3 19.42 23.3Z" fill="#BF7344"/>
<path d="M5.44999 25.16C5.18999 25.16 4.97999 24.95 4.97999 24.7C4.97999 24.45 5.18999 24.23 5.44999 24.23C5.70999 24.23 5.91999 24.44 5.91999 24.7C5.91999 24.96 5.70999 25.16 5.44999 25.16ZM5.44999 23.3C4.67999 23.3 4.04999 23.93 4.04999 24.7C4.04999 25.47 4.67999 26.1 5.44999 26.1C6.21999 26.1 6.84999 25.47 6.84999 24.7C6.84999 23.93 6.21999 23.3 5.44999 23.3Z" fill="#BF7344"/>
<path d="M14.76 12.11C14.5 12.11 14.29 11.9 14.29 11.64C14.29 11.38 14.5 11.18 14.76 11.18C15.02 11.18 15.23 11.39 15.23 11.64C15.23 11.89 15.02 12.11 14.76 12.11ZM14.76 10.25C13.99 10.25 13.36 10.88 13.36 11.65C13.36 12.42 13.99 13.05 14.76 13.05C15.53 13.05 16.16 12.42 16.16 11.65C16.16 10.88 15.53 10.25 14.76 10.25Z" fill="#BF7344"/>
<path d="M6.38001 4.65997H5.45001V5.59003H6.38001V4.65997Z" fill="#BF7344"/>
<path d="M2.72002 4.46998C2.97002 3.19998 3.99002 2.18 5.26002 1.93C5.48002 1.89 5.69002 1.87 5.91002 1.87C6.67002 1.87 7.40002 2.12999 7.99002 2.60999C8.75002 3.22999 9.18002 4.15001 9.18002 5.13001C9.18002 6.05001 8.81002 6.89003 8.13002 7.52003L7.87002 7.76002L8.68002 9.38001L8.71002 9.53004C8.71002 9.72003 8.48002 9.86002 8.31002 9.76002L6.04002 8.40003H5.91002C4.93002 8.40003 4.02002 7.97003 3.39002 7.21003C2.77002 6.46003 2.52002 5.45999 2.71002 4.47999L2.72002 4.46998ZM5.77002 9.33002L7.82002 10.56C8.01002 10.67 8.22002 10.73 8.44002 10.73C9.10002 10.73 9.64002 10.19 9.64002 9.50001C9.64002 9.32001 9.60002 9.12998 9.51002 8.96998L9.00002 7.96003C9.70002 7.19003 10.1 6.18002 10.1 5.14002C10.1 3.88002 9.54002 2.70003 8.57002 1.90003C7.60002 1.10003 6.32002 0.780026 5.07002 1.02003C3.43002 1.34003 2.11002 2.64998 1.80002 4.28998C1.56002 5.54998 1.87002 6.81998 2.68002 7.78998C3.45002 8.72998 4.58002 9.28 5.78002 9.31" fill="#BF7344"/>
<path d="M4.51002 4.65997H3.58002V5.59003H4.51002V4.65997Z" fill="#BF7344"/>
<path d="M8.24 4.65997H7.31V5.59003H8.24V4.65997Z" fill="#BF7344"/>
</svg>
