<svg width="31" height="28" viewBox="0 0 31 28" fill="none" xmlns="http://www.w3.org/2000/svg">
<path d="M3.03522 25.6781V8.5917H11.2673V16.6123H19.7425V8.5917H27.9746V25.6781H3.03522ZM6.05168 2.8083H12.0943L11.4035 6.50108H3.83312L6.05168 2.8083V2.8083ZM13.5539 6.50108L14.2156 2.8083H16.8234L17.4851 6.50108H13.5637H13.5539ZM13.3496 8.5917H17.6505V14.5216H13.3107L13.3496 8.5917ZM27.1669 6.50108H19.5577L18.896 2.8083H24.9387L27.1572 6.50108H27.1669ZM30.0472 7.26308L26.1258 0.707901H4.87429L0.952881 7.26308V27.7688H30.0569V7.26308H30.0472Z" fill="#BF7344"/>
<path d="M6.9566 20.901H9.90496V22.3957H6.9566V20.901ZM4.87427 24.457H11.997V18.7713H4.87427V24.457V24.457Z" fill="#BF7344"/>
</svg>
