<svg width="33" height="32" viewBox="0 0 33 32" fill="none" xmlns="http://www.w3.org/2000/svg">
<path d="M24.5082 5.60759C24.3331 4.78697 23.4282 4.12266 22.5232 4.16173C21.6377 4.19104 20.762 4.86512 20.655 5.60759H24.5082V5.60759ZM11.1969 5.60759C11.0801 4.84558 10.2044 4.18127 9.31888 4.16173C8.41394 4.14219 7.49927 4.81628 7.35331 5.60759H11.1969ZM15.021 10.9807H24.625V9.7986H15.021V10.9807V10.9807ZM24.6347 12.2409H15.021V13.9115H24.6347V12.2409ZM15.021 8.53837H24.625V6.86782H15.021V8.53837ZM6.02995 5.61736L6.09807 5.38289C6.73055 2.99919 9.68864 2.13949 11.4888 3.81004C12.2575 4.52319 12.5689 5.42197 12.5689 6.45751C12.5689 10.629 12.5689 14.8005 12.5689 18.9719V19.3432H13.7463L13.7657 19.1282C13.7657 14.7712 13.7657 10.4141 13.7657 6.05697C13.7657 5.7932 13.7268 5.52943 13.6684 5.27543C13.1332 2.95034 11.0801 1.5045 8.72531 1.76827C6.74028 1.99296 5.08609 3.62443 4.84283 5.61736H6.02995ZM27.0771 19.3432V19.1282C27.0771 14.8395 27.0771 10.5606 27.0771 6.2719C27.0771 5.99836 27.0576 5.72481 27.009 5.45127C26.4446 2.36419 23.0584 0.771803 20.3436 2.33488C19.0883 3.05781 18.378 4.1715 18.125 5.60759H19.3413C19.3705 5.50012 19.3997 5.39266 19.4289 5.29497C19.9057 3.68304 21.521 2.68658 23.1654 2.98942C24.7515 3.2825 25.8705 4.61112 25.8705 6.23282C25.8705 10.4824 25.8705 14.7418 25.8705 19.0012V19.3432H27.0868H27.0771ZM24.625 15.1717H15.0112V16.3831C15.6729 16.3831 16.3249 16.3831 16.9671 16.3831C17.405 16.3831 17.6871 16.6273 17.6871 16.9888C17.6871 17.3502 17.405 17.5945 16.9671 17.5945C16.3151 17.5945 15.6729 17.5945 14.9918 17.5945C14.9918 18.3662 14.9918 19.1185 14.9918 19.8707L15.0988 20.0466C15.9162 20.8867 16.899 20.9258 17.7553 20.1345C18.9521 19.0403 20.6355 19.0306 21.8226 20.1247C22.6692 20.8965 23.5644 20.8965 24.4207 20.1247L24.6153 19.8707C24.625 19.1185 24.6153 18.376 24.6153 17.5945C23.9244 17.5945 23.2627 17.5945 22.6108 17.5945C22.4843 17.5945 22.3383 17.5749 22.2313 17.5163C21.9686 17.3796 21.881 17.1353 21.9394 16.8422C21.9978 16.5589 22.2216 16.3733 22.5329 16.3733C23.2238 16.3733 23.905 16.3733 24.6056 16.3733V15.1619L24.625 15.1717ZM23.2433 0.498259C23.7201 0.625259 24.2163 0.703417 24.6639 0.898802C26.6782 1.74873 27.875 3.26296 28.235 5.43174L28.2934 5.62712H31.3294C31.8061 5.62712 32.0689 5.85182 32.0591 6.24259C32.0591 6.62359 31.7964 6.83851 31.3391 6.84828C30.4439 6.84828 29.5584 6.84828 28.6632 6.84828H28.2837V7.15113C28.2837 11.3226 28.2837 15.4941 28.2837 19.6753C28.2837 19.8609 28.3226 19.9879 28.4783 20.1149C29.3443 20.8769 30.1422 20.9062 31.0374 20.1833C31.3294 19.9489 31.6797 19.9586 31.9132 20.2126C32.1467 20.4764 32.1273 20.8379 31.8451 21.1114C30.7455 22.2056 28.9454 22.2153 27.7777 21.1309C27.2328 20.6229 26.6198 20.4276 25.9094 20.662C25.6564 20.7499 25.4229 20.916 25.2186 21.0919C24.0023 22.2056 22.3481 22.2251 21.122 21.1309C20.2463 20.3494 19.3997 20.3592 18.524 21.1309C17.3271 22.2056 15.6924 22.2056 14.4955 21.1505C13.5614 20.3299 12.7538 20.3396 11.8294 21.1603C10.6812 22.186 8.98804 22.186 7.84956 21.1505C6.95436 20.3396 6.09807 20.3396 5.1834 21.1603C4.04492 22.186 2.32262 22.186 1.20361 21.1505C1.1063 21.0528 1.01873 20.9453 0.931152 20.8379V20.408C1.32037 19.9098 1.5831 19.8805 2.08909 20.2908C2.78969 20.8672 3.72382 20.8672 4.38549 20.2224C5.61154 19.0305 7.44088 19.0403 8.64747 20.2029C9.38699 20.916 10.3406 20.8672 11.1093 20.1736C11.2844 20.0173 11.3428 19.8512 11.3428 19.6265C11.3428 15.4941 11.3428 11.3617 11.3428 7.22928V6.84828H10.9439C7.88849 6.84828 4.84283 6.84828 1.78744 6.84828C1.42741 6.84828 1.14522 6.77013 0.931152 6.47705V5.98859C1.14522 5.69551 1.42741 5.57828 1.78744 5.61736C2.02097 5.64667 2.25451 5.61736 2.48804 5.61736H3.57786C3.93789 3.37043 5.09582 1.77804 7.1587 0.908573C7.61603 0.713188 8.12202 0.625265 8.59882 0.488495H9.94163L10.1071 0.547108C12.1505 0.879263 13.6198 1.99296 14.4858 3.85889C14.7388 4.40597 14.8653 5.00189 15.0599 5.61736C15.5756 5.61736 16.1594 5.61736 16.7335 5.60759L16.9282 5.38289C17.259 3.12619 18.9424 1.24072 21.1317 0.674106C21.3945 0.605721 21.6572 0.54711 21.9199 0.488495H23.2627L23.2433 0.498259Z" fill="#BF7344"/>
<path d="M0.921352 30.2359C1.3203 29.7474 1.5733 29.7181 2.07929 30.1284C2.77988 30.7048 3.68482 30.6853 4.37569 30.0503C4.87195 29.5911 5.42659 29.2785 6.10773 29.1808C7.00294 29.0636 7.77165 29.3274 8.47225 29.8842C8.75444 30.1187 9.07554 30.3434 9.41611 30.4606C10.0778 30.6755 10.6422 30.4215 11.1287 29.9526C12.1212 29.0343 13.5224 28.878 14.6706 29.5618C14.8749 29.6888 15.0696 29.8451 15.2447 30.0112C16.0231 30.7048 16.9475 30.7048 17.726 29.9917C18.9715 28.8584 20.6257 28.8487 21.8712 29.9819C22.6594 30.7048 23.574 30.7146 24.3817 30.0014C25.6758 28.8487 27.2425 28.8487 28.5463 30.0014C29.3345 30.7048 30.1908 30.7146 31.0082 30.0307C31.3098 29.7767 31.6699 29.7767 31.9034 30.0307C32.1466 30.2945 32.1077 30.6658 31.8158 30.9491C30.7065 32.0139 28.9356 32.0334 27.7874 30.9686C27.2425 30.4606 26.6392 30.2457 25.9288 30.4801C25.6564 30.5681 25.4034 30.7439 25.1893 30.9393C23.9925 32.0237 22.3383 32.0432 21.1317 30.9784C20.2267 30.1675 19.3802 30.1773 18.485 30.9784C17.2978 32.053 15.6339 32.0237 14.4079 30.9198C13.7365 30.3141 12.8996 30.2164 12.2088 30.6657C12.0823 30.7439 11.9655 30.8514 11.8585 30.9588C10.6422 32.053 8.98797 32.053 7.79111 30.9393C7.2462 30.4411 6.63318 30.2554 5.94231 30.4899C5.66012 30.5876 5.3974 30.7928 5.16387 30.9979C4.03512 32.0041 2.32255 32.0139 1.20354 30.9979C1.0965 30.9002 1.00893 30.7732 0.911621 30.656V30.2261L0.921352 30.2359Z" fill="#BF7344"/>
<path d="M0.921439 25.3513C1.27174 24.8335 1.58311 24.7847 2.05991 25.195C2.76051 25.7909 3.7141 25.7616 4.40497 25.1168C5.06665 24.4916 5.84509 24.1887 6.75003 24.2571C7.42144 24.306 8.02473 24.5404 8.4918 25.0191C9.25078 25.7909 10.3795 25.7811 11.1677 25.0191C12.3062 23.9347 13.9896 23.9738 15.1669 25.0191C16.0427 25.8104 16.9184 25.8104 17.7942 25.0191C18.9716 23.9543 20.616 23.9445 21.7934 24.9898C22.1729 25.322 22.5622 25.576 23.0779 25.5857C23.5547 25.5857 23.9634 25.4294 24.3234 25.1168C25.6759 23.9054 27.2425 23.9054 28.5756 25.1168C29.286 25.7616 30.2104 25.7714 30.9499 25.1461C31.2904 24.8531 31.6407 24.8433 31.8937 25.1168C32.1467 25.4001 32.0981 25.7714 31.7672 26.0742C30.658 27.0902 28.9551 27.1 27.8069 26.0742C27.408 25.7127 26.9896 25.4587 26.4349 25.4587C25.89 25.4587 25.4813 25.7323 25.0921 26.084C24.0801 26.9827 22.6789 27.0902 21.5404 26.3673C21.3653 26.2598 21.2096 26.1328 21.0637 25.9961C20.256 25.2731 19.3413 25.2634 18.5337 25.9961C18.0666 26.4259 17.5315 26.7092 16.899 26.7971C15.9357 26.9241 15.1086 26.6311 14.3885 25.9765C13.6101 25.2536 12.6662 25.2731 11.8878 25.9961L11.6834 26.1817C10.5449 27.0902 8.94913 27.0609 7.85931 26.084C7.49928 25.7616 7.12952 25.4978 6.643 25.4685C6.07862 25.4294 5.63102 25.6444 5.21261 26.0156C4.29793 26.846 3.24704 27.0511 2.0891 26.6213C1.61231 26.4454 1.22309 26.1524 0.901978 25.7616V25.3317L0.921439 25.3513Z" fill="#BF7344"/>
<path d="M19.8279 17.5945C19.4776 17.5945 19.2148 17.3307 19.2148 16.979C19.2148 16.6469 19.4678 16.3831 19.8084 16.3733C20.149 16.3733 20.4409 16.6371 20.4409 16.9692C20.4409 17.3014 20.1587 17.5847 19.8279 17.5945Z" fill="#BF7344"/>
</svg>
