<svg width="28" height="27" viewBox="0 0 28 27" fill="none" xmlns="http://www.w3.org/2000/svg">
<path d="M6.22998 10.36L1.62998 11.7V3.60999L6.22998 4.94999V10.37V10.36ZM19.67 13.03C18.85 12.88 17.74 12.66 16.33 12.36C13.06 11.69 9.27998 10.73 7.64998 10.35V4.85999C9.50998 4.40999 17.6 2.41 20.49 2.11C21.75 1.96 23.01 2.41 23.98 3.3C25.17 4.34 25.91 5.97 25.91 7.60999C25.91 10.36 23.91 12.81 21.46 13.1C21.16 13.1 20.87 13.17 20.49 13.1C20.42 13.1 20.27 13.1 20.12 13.03C19.97 13.1 19.82 13.1 19.67 13.03ZM16.7 13.92L19.97 14.51C20.12 14.51 20.19 14.51 20.34 14.59H20.64L18.04 25.06H13.96L16.71 13.92H16.7ZM24.94 2.25999C23.6 1.06999 21.97 0.549991 20.34 0.699991C17.15 1.06999 8.68998 3.15 6.97998 3.6L1.11998 1.97C0.89998 1.9 0.669981 1.96999 0.529981 2.11999C0.379981 2.26999 0.22998 2.49 0.22998 2.71V12.73C0.22998 12.95 0.309981 13.18 0.529981 13.32C0.679981 13.47 0.97998 13.47 1.11998 13.47L6.90998 11.84C7.49998 11.99 11.66 13.03 15.3 13.84L12.55 24.9C12.4 25.35 12.55 25.79 12.77 26.09C13.07 26.46 13.44 26.61 13.88 26.61H17.96C18.63 26.61 19.15 26.16 19.3 25.57L22.05 14.66C25.02 14.07 27.32 11.1 27.32 7.83C27.39 5.6 26.5 3.59999 24.94 2.25999Z" fill="#BF7344"/>
<path d="M23.37 7.53999C23.37 9.09999 22.11 10.44 20.47 10.44C18.83 10.44 17.58 9.17999 17.58 7.53999C17.58 5.89999 18.84 4.64999 20.47 4.64999C22.03 4.71999 23.37 5.98999 23.37 7.53999ZM24.63 7.53999C24.63 5.23999 22.77 3.38 20.47 3.38C18.17 3.38 16.31 5.23999 16.31 7.53999C16.31 9.83999 18.17 11.7 20.47 11.7C22.77 11.7 24.63 9.83999 24.63 7.53999Z" fill="#BF7344"/>
</svg>
