<svg width="25" height="30" viewBox="0 0 25 30" fill="none" xmlns="http://www.w3.org/2000/svg">
<path d="M15.5359 22.5228C15.6819 22.5912 15.75 22.6693 15.8959 22.6693C16.11 22.6693 16.4019 22.5228 16.47 22.3079C16.5381 22.093 16.47 21.7999 16.3241 21.6534L15.4581 20.9304C15.6721 20.8621 15.8862 20.7839 16.1781 20.7839C16.6063 20.7839 16.9663 20.9304 17.3263 21.2137C17.6085 21.497 17.7545 21.9366 17.7545 22.3665C17.7545 23.021 17.3944 23.5975 16.7522 23.8124C16.1781 24.0273 15.4581 23.9589 15.0299 23.4509C14.6018 23.021 14.4558 22.3665 14.6699 21.7901L15.5359 22.5131V22.5228ZM17.2582 19.7093C16.3241 19.3478 15.3121 19.4944 14.5239 20.0707L12.8697 18.703C12.8016 18.6346 12.6557 18.5565 12.5097 18.5565H11.0696C10.7096 18.5565 10.4955 18.8496 10.4955 19.1329C10.4955 19.4943 10.7874 19.7093 11.0696 19.7093H12.2956L13.7358 20.9402C13.3076 21.6631 13.3076 22.5228 13.5898 23.3239C14.0179 24.3302 15.0299 25.053 16.1781 25.053C17.6864 25.053 18.9805 23.8221 18.9805 22.2395C18.9124 21.1551 18.2605 20.1489 17.2582 19.7093" fill="#BF7344"/>
<path d="M18.6983 27.5052V28.2281H17.9782V27.5052H18.6983ZM8.06282 14.1506H7.27465V12.4214H8.06282V14.1506ZM18.6302 26.3524H7.91686C7.12869 26.3524 6.34052 26.2059 5.54261 25.9226C4.82255 25.6295 4.18034 25.268 3.60623 24.6916C3.03213 24.1836 2.60399 23.6072 2.31207 22.9624C1.66986 21.5948 1.66986 20.0708 2.31207 18.7031C2.60399 18.0485 3.03213 17.4722 3.60623 16.9739C4.18034 16.4659 4.83228 16.0361 5.54261 15.743C5.90264 15.5965 6.33078 15.4597 6.69081 15.4597C7.26492 15.3913 7.91686 15.3131 8.49096 15.3913H8.55908C9.13318 15.4597 9.70728 15.6062 10.2814 15.8211L19.9827 18.4198L20.4109 18.5663C20.5568 18.6347 20.6249 18.6347 20.7709 18.7128C21.1309 18.9278 21.491 19.1427 21.851 19.4358C22.2791 19.7972 22.5711 20.2271 22.7851 20.7351C23.2133 21.7413 23.2133 22.9039 22.7851 23.9101C22.5711 24.4181 22.211 24.848 21.851 25.2094C21.4228 25.5709 20.9169 25.8639 20.4109 26.0788C19.7589 26.2254 19.1848 26.372 18.6107 26.372L18.6302 26.3524ZM20.1871 12.0111C20.119 10.8584 19.827 9.62745 19.467 8.47467C19.3211 8.04483 19.1848 7.68337 19.0389 7.32191L19.467 6.38404C19.7589 6.96042 20.0411 7.61494 20.1871 8.19133C20.9071 10.575 21.1893 13.0955 20.8293 15.5574C20.7612 16.1338 20.6152 16.7102 20.4693 17.2182L19.7492 17.0032C19.8952 16.4952 19.9633 15.997 20.0314 15.4206C20.3233 14.4144 20.3233 13.1834 20.1773 12.0306L20.1871 12.0111ZM18.8832 4.88931L17.8809 7.12651L17.1609 8.71891C17.0928 8.93383 16.869 9.00219 16.6549 8.9338L16.2949 8.7873L19.6032 1.5678L19.9633 1.7143L20.1773 1.92926V2.22232L18.8832 4.88931ZM6.66162 11.2393H5.29935C5.29935 10.6629 5.44531 10.155 5.59126 9.57861L10.622 10.7314C10.7679 10.7998 10.9041 10.9463 10.9041 11.0928V11.2393H6.66162V11.2393ZM7.23572 27.554H8.0239V28.2769H7.23572V27.554ZM23.7679 20.188C23.476 19.5432 23.0478 18.9571 22.5419 18.5272C22.2597 18.2341 21.9678 18.0192 21.6077 17.8727C21.8218 17.2182 21.9678 16.5734 22.0359 15.8505C22.3959 13.1834 22.104 10.4383 21.3158 7.90804C21.0336 6.90181 20.5958 5.95418 20.0217 5.09449L21.1699 2.64239C21.5299 1.85108 21.1699 0.91322 20.3817 0.551758L19.5157 0.121967C19.3697 0.0535825 19.2237 0.0535825 19.0875 0.121967C18.9416 0.190352 18.7956 0.268494 18.7275 0.415033L14.991 8.7873C14.9229 8.93384 14.9229 9.07061 14.991 9.21715C15.0591 9.36369 15.1369 9.51022 15.2829 9.57861L16.1489 10.0085C16.363 10.0768 16.577 10.155 16.8008 10.155C17.3749 10.155 17.949 9.79353 18.241 9.21715L18.3869 8.85563C18.747 9.94002 18.961 11.0244 19.0291 12.099C19.0973 13.1834 19.0973 14.2678 18.961 15.4206C18.8929 15.9286 18.8151 16.3584 18.6691 16.8664L10.7582 14.6977C10.2522 14.4828 9.75593 14.4046 9.24995 14.2678V12.4605H11.1182C11.4004 12.4605 11.6923 12.314 11.9064 12.1674C12.1205 11.9525 12.1886 11.6594 12.1886 11.3761V11.1612C12.1886 10.4383 11.6826 9.79354 10.9625 9.647L5.78587 8.49417C5.21177 8.34763 4.70579 8.70915 4.49171 9.21715C4.27764 9.94007 4.1998 10.663 4.13168 11.3077C4.13168 11.591 4.1998 11.8841 4.4236 12.099C4.63767 12.314 4.92959 12.4605 5.21177 12.4605H6.07779V14.4046C5.7956 14.473 5.50369 14.5512 5.14366 14.6977C4.27764 15.0592 3.48947 15.5671 2.84725 16.1435C2.20504 16.7199 1.69905 17.4428 1.26117 18.2342C0.473001 19.8949 0.473001 21.839 1.26117 23.4998C1.6212 24.2911 2.19531 25.014 2.84725 25.5904C3.48947 26.1668 4.28737 26.6748 5.14366 27.0363C5.42584 27.1828 5.71776 27.2512 6.07779 27.3196V28.4039C6.07779 28.9803 6.58378 29.4884 7.15788 29.4884H8.16013C8.44231 29.4884 8.73423 29.3418 8.9483 29.1952C9.16237 28.9803 9.24022 28.6872 9.24022 28.4039V27.5345H16.7911V28.4039C16.7911 28.9803 17.2971 29.4884 17.8712 29.4884H18.8734C19.1654 29.4884 19.4475 29.3418 19.6616 29.1952C19.8757 28.9803 19.9535 28.6872 19.9535 28.4039V27.3977C20.2455 27.3293 20.5276 27.2512 20.8196 27.1144C21.4618 26.8213 22.1137 26.4599 22.6197 26.03C23.1257 25.522 23.5538 25.0238 23.8458 24.3692C24.4199 23.0015 24.4199 21.4775 23.7776 20.1782" fill="#BF7344"/>
<path d="M6.9049 16.2412C6.54487 16.3096 6.18484 16.3878 5.90266 16.5343C5.26044 16.7492 4.67661 17.1106 4.18035 17.5405C3.75221 17.9703 3.31434 18.4783 3.10026 19.0547C2.80835 19.6311 2.67212 20.2075 2.67212 20.8621C2.67212 21.2235 2.96404 21.4384 3.24622 21.4384C3.39218 21.4384 3.53814 21.3701 3.67437 21.2919C3.82032 21.1454 3.82032 20.9988 3.82032 20.8621C3.82032 20.4322 3.88844 19.9926 4.11224 19.5627C4.32631 19.1329 4.61823 18.7714 4.97826 18.41C5.33829 18.0485 5.84428 17.7652 6.27242 17.6187C6.56434 17.5503 6.77841 17.4721 7.06059 17.4037C7.42062 17.3353 7.63469 17.0423 7.56658 16.6808C7.56658 16.5343 7.42062 16.3975 7.35251 16.3193C7.28439 16.251 7.07032 16.1728 6.92437 16.2509" fill="#BF7344"/>
</svg>
