<svg width="29" height="30" viewBox="0 0 29 30" fill="none" xmlns="http://www.w3.org/2000/svg">
<path d="M5.88851 6.1529C7.0951 7.31544 8.05842 8.71244 8.7201 10.256C9.38178 11.7995 9.71261 13.4603 9.72235 15.1406C9.72235 16.8209 9.38178 18.4817 8.7201 20.0253C8.05842 21.5688 7.10483 22.9658 5.88851 24.1283C4.28297 22.575 3.11531 20.6114 2.52175 18.4426C1.92818 16.2739 1.92818 13.9976 2.52175 11.8288C3.11531 9.66006 4.27324 7.69644 5.88851 6.14313V6.1529ZM21.6325 4.92197C19.8324 6.70975 18.5285 8.93714 17.8765 11.399C17.2149 13.8511 17.2149 16.4399 17.8765 18.892C18.5382 21.3441 19.8324 23.5813 21.6325 25.369C19.5502 26.8442 17.0592 27.6355 14.5 27.6355C11.9409 27.6355 9.45962 26.8442 7.36756 25.369C8.71037 24.0306 9.78073 22.4383 10.5105 20.6896C11.2403 18.9409 11.6198 17.0554 11.6198 15.1504C11.6198 13.2454 11.2403 11.3697 10.5105 9.61121C9.78073 7.85275 8.71037 6.26036 7.36756 4.93174C9.45962 3.45658 11.9409 2.66527 14.5 2.66527C17.0592 2.66527 19.5405 3.45658 21.6325 4.93174V4.92197ZM26.9454 15.1406C26.9454 16.8209 26.6146 18.4817 25.9529 20.035C25.2912 21.5786 24.3279 22.9756 23.1116 24.1381C21.4866 22.5848 20.3189 20.6212 19.7253 18.4524C19.1318 16.2836 19.1318 13.9976 19.7253 11.8288C20.3189 9.66006 21.4963 7.69644 23.1116 6.14313C24.3279 7.30567 25.2912 8.6929 25.9529 10.2462C26.6146 11.7898 26.9454 13.4603 26.9454 15.1406V15.1406ZM14.5098 29.5503C18.3144 29.5503 21.9634 28.036 24.6587 25.33C27.3541 22.6239 28.8623 18.9604 28.8623 15.1406C28.8623 11.3208 27.3541 7.65736 24.6587 4.95128C21.9634 2.24519 18.3144 0.730957 14.5098 0.730957C10.7051 0.730957 7.05618 2.24519 4.36082 4.95128C1.66546 7.65736 0.157227 11.3208 0.157227 15.1406C0.157227 18.9604 1.66546 22.6239 4.36082 25.33C7.05618 28.036 10.7051 29.5503 14.5098 29.5503Z" fill="#BF7344"/>
</svg>
