<svg width="29" height="22" viewBox="0 0 29 22" fill="none" xmlns="http://www.w3.org/2000/svg">
<path d="M26.9 17.77C26.66 17.61 26.43 17.53 26.11 17.53C25.4 17.53 24.85 18.08 24.85 18.79C24.85 19.1 24.93 19.34 25.09 19.58H15.79C15.95 19.34 16.03 19.11 16.03 18.79C16.03 18.08 15.48 17.53 14.77 17.53C14.06 17.53 13.51 18.08 13.51 18.79C13.51 19.1 13.59 19.34 13.75 19.58H4.11997C4.27997 19.34 4.35997 19.11 4.35997 18.79C4.35997 18.08 3.80997 17.53 3.09997 17.53C2.85997 17.53 2.70997 17.61 2.46997 17.69V3.82001C2.62997 3.90001 2.85997 3.98001 3.09997 3.98001C3.80997 3.98001 4.35997 3.43 4.35997 2.72C4.35997 2.48 4.27997 2.25001 4.11997 2.01001H13.58C13.42 2.25001 13.34 2.48 13.34 2.72C13.34 3.43 13.89 3.98001 14.6 3.98001C15.31 3.98001 15.86 3.43 15.86 2.72C15.86 2.48 15.78 2.25001 15.62 2.01001H24.92C25 2.25001 24.92 2.48 24.92 2.72C24.92 3.43 25.47 3.98001 26.18 3.98001C26.5 3.98001 26.73 3.89999 26.89 3.73999V17.77H26.9ZM26.58 18.8C26.5 18.96 26.34 19.11 26.19 19.19C25.95 19.19 25.8 19.03 25.8 18.8C25.8 18.57 25.96 18.41 26.19 18.41C26.42 18.41 26.58 18.57 26.58 18.8ZM14.76 19.27C14.52 19.27 14.37 19.11 14.37 18.88C14.37 18.65 14.53 18.49 14.76 18.49C14.99 18.49 15.15 18.65 15.15 18.88C15.15 19.04 14.99 19.27 14.76 19.27ZM3.24997 19.19C3.00997 19.03 2.85997 18.87 2.77997 18.64C2.85997 18.48 3.01997 18.4 3.16997 18.4C3.40997 18.4 3.55997 18.56 3.55997 18.79C3.55997 19.02 3.39997 19.18 3.23997 19.18L3.24997 19.19ZM3.31997 2.32001C3.47997 2.40001 3.55997 2.55999 3.55997 2.70999C3.55997 2.94999 3.39997 3.10001 3.16997 3.10001C3.00997 3.10001 2.84997 3.01999 2.77997 2.85999C2.93997 2.69999 3.09997 2.46 3.32997 2.31L3.31997 2.32001ZM14.76 2.31C15 2.31 15.15 2.47001 15.15 2.70001C15.15 2.93001 14.99 3.09 14.76 3.09C14.53 3.09 14.37 2.93001 14.37 2.70001C14.37 2.47001 14.53 2.31 14.76 2.31ZM26.11 2.31C26.27 2.47 26.5 2.63 26.58 2.78C26.58 3.02 26.34 3.17001 26.19 3.17001C25.95 3.17001 25.8 3.01 25.8 2.78C25.72 2.54 25.88 2.39 26.12 2.31H26.11ZM25.1 0.179993H4.35997C2.30997 0.179993 0.659973 1.84 0.659973 3.88V17.83C0.659973 19.88 2.31997 21.53 4.35997 21.53H25.17C27.22 21.53 28.87 19.88 28.87 17.83V3.79999C28.79 1.82999 27.14 0.179993 25.09 0.179993" fill="#BF7344"/>
<path d="M20.67 11.39C20.43 11.39 20.28 11.23 20.28 11C20.28 10.77 20.44 10.61 20.67 10.61C20.9 10.61 21.06 10.77 21.06 11C21.14 11.16 20.9 11.39 20.67 11.39ZM20.67 9.66C19.96 9.66 19.41 10.21 19.41 10.92C19.41 11.63 19.96 12.18 20.67 12.18C21.38 12.18 21.93 11.63 21.93 10.92C21.93 10.21 21.38 9.66 20.67 9.66Z" fill="#BF7344"/>
<path d="M11.93 11.31C11.69 11.31 11.54 11.15 11.54 10.92C11.54 10.69 11.7 10.53 11.93 10.53C12.16 10.53 12.32 10.69 12.32 10.92C12.32 11.15 12.16 11.31 11.93 11.31ZM10.51 10.52C10.27 10.52 10.12 10.36 10.12 10.13C10.12 9.9 10.28 9.73999 10.51 9.73999C10.74 9.73999 10.9 9.9 10.9 10.13C10.9 10.29 10.74 10.52 10.51 10.52ZM10.51 12.1C10.27 12.1 10.12 11.94 10.12 11.71C10.12 11.48 10.28 11.32 10.51 11.32C10.74 11.32 10.9 11.48 10.9 11.71C10.9 11.94 10.74 12.1 10.51 12.1ZM9.08999 9.66C8.84999 9.66 8.69999 9.49999 8.69999 9.26999C8.69999 9.03999 8.85999 8.88 9.08999 8.88C9.31999 8.88 9.47999 9.03999 9.47999 9.26999C9.47999 9.49999 9.31999 9.66 9.08999 9.66ZM9.08999 11.32C8.84999 11.32 8.69999 11.16 8.69999 10.93C8.69999 10.7 8.85999 10.54 9.08999 10.54C9.31999 10.54 9.47999 10.7 9.47999 10.93C9.47999 11.16 9.31999 11.32 9.08999 11.32ZM9.08999 12.97C8.84999 12.97 8.69999 12.81 8.69999 12.58C8.69999 12.35 8.85999 12.19 9.08999 12.19C9.31999 12.19 9.47999 12.35 9.47999 12.58C9.47999 12.74 9.31999 12.97 9.08999 12.97ZM7.66999 8.87C7.42999 8.87 7.27999 8.71001 7.27999 8.48001C7.27999 8.25001 7.43999 8.09 7.66999 8.09C7.89999 8.09 8.05999 8.25001 8.05999 8.48001C8.05999 8.71001 7.89999 8.87 7.66999 8.87ZM7.27999 10.05C7.27999 9.80999 7.43999 9.66 7.66999 9.66C7.89999 9.66 8.05999 9.81999 8.05999 10.05C8.05999 10.28 7.89999 10.44 7.66999 10.44C7.42999 10.52 7.27999 10.28 7.27999 10.05ZM7.66999 12.1C7.42999 12.1 7.27999 11.94 7.27999 11.71C7.27999 11.48 7.43999 11.32 7.66999 11.32C7.89999 11.32 8.05999 11.48 8.05999 11.71C8.05999 11.94 7.89999 12.1 7.66999 12.1ZM7.66999 13.75C7.42999 13.75 7.27999 13.59 7.27999 13.36C7.27999 13.13 7.43999 12.97 7.66999 12.97C7.89999 12.97 8.05999 13.13 8.05999 13.36C8.05999 13.59 7.89999 13.75 7.66999 13.75ZM11.93 9.64999H11.69C11.53 9.17999 11.06 8.78 10.51 8.78H10.27C10.11 8.31 9.63999 7.91 9.08999 7.91H8.84999C8.68999 7.44 8.21999 7.04001 7.66999 7.04001C6.95999 7.04001 6.48999 7.59 6.48999 8.22C6.48999 8.54 6.56999 8.85001 6.80999 9.01001C6.64999 9.25001 6.48999 9.47999 6.48999 9.79999C6.48999 10.12 6.56999 10.43 6.80999 10.59C6.64999 10.83 6.48999 11.06 6.48999 11.38C6.48999 11.7 6.56999 12.01 6.80999 12.17C6.64999 12.41 6.48999 12.64 6.48999 12.96C6.48999 13.67 7.03999 14.14 7.66999 14.14C8.21999 14.14 8.69999 13.82 8.84999 13.27H9.08999C9.63999 13.27 10.11 12.96 10.27 12.4H10.51C11.06 12.4 11.53 12.08 11.69 11.53H11.93C12.64 11.53 13.11 10.98 13.11 10.35C13.11 10.19 12.64 9.64001 11.93 9.64001" fill="#BF7344"/>
</svg>
