<svg width="29" height="22" viewBox="0 0 29 22" fill="none" xmlns="http://www.w3.org/2000/svg">
<path d="M26.23 18.18C25.72 18.78 24.95 19.1 24.16 19.04C23.37 18.98 22.67 18.54 22.26 17.86L20.25 14.51C20.07 14.21 19.74 14.02 19.39 14.02H10.14C9.78999 14.02 9.45999 14.21 9.27999 14.51L7.26999 17.86C6.87999 18.51 6.19999 18.95 5.43999 19.03C4.67999 19.11 3.91999 18.83 3.39999 18.28C2.86999 17.72 2.63999 16.96 2.75999 16.2L4.25999 7.17002C4.44999 6.00002 5.05999 4.93001 5.96999 4.16001C6.87999 3.39001 8.02999 2.97 9.21999 2.97H20.31C21.5 2.97 22.65 3.39001 23.56 4.16001C24.47 4.93001 25.07 6.00002 25.27 7.17002L26.77 16.2C26.89 16.91 26.69 17.64 26.22 18.18H26.23ZM28.76 15.86L27.25 6.82999C26.98 5.18999 26.13 3.68999 24.86 2.60999C23.59 1.52999 21.97 0.940015 20.31 0.950015H9.21999C7.54999 0.950015 5.93999 1.52999 4.66999 2.60999C3.39999 3.68999 2.54999 5.17999 2.27999 6.82999L0.769987 15.86C0.539987 17.24 0.969987 18.64 1.92999 19.65C2.88999 20.66 4.26999 21.17 5.64999 21.02C7.03999 20.87 8.26999 20.08 8.98999 18.88L10.71 16.02H18.82L20.53 18.88C21.25 20.08 22.49 20.87 23.87 21.02C25.26 21.17 26.63 20.66 27.59 19.65C28.55 18.64 28.98 17.23 28.75 15.86H28.76Z" fill="#BF7344"/>
<path d="M11.75 7.98998H10.74V6.98998C10.74 6.62998 10.54 6.31 10.23 6.13C9.92001 5.95 9.54001 5.95 9.24001 6.13C8.93001 6.3 8.74001 6.62998 8.73001 6.98998V7.98998H7.72001C7.45001 7.98998 7.19001 8.08999 7.00001 8.27999C6.81001 8.46999 6.70001 8.72999 6.70001 8.99999C6.70001 9.26999 6.81001 9.52999 7.00001 9.71999C7.19001 9.90999 7.45001 10.01 7.72001 10.01H8.73001V11.02C8.73001 11.29 8.83001 11.55 9.02001 11.74C9.21001 11.93 9.47001 12.04 9.74001 12.04C10.01 12.04 10.27 11.93 10.46 11.74C10.65 11.55 10.75 11.29 10.75 11.02V10.01H11.76C12.11 10.01 12.44 9.80999 12.61 9.49999C12.78 9.18999 12.78 8.81 12.61 8.51C12.43 8.2 12.11 8.00999 11.76 7.99999L11.75 7.98998Z" fill="#BF7344"/>
<path d="M20.79 6.98001C20.79 7.54001 20.34 7.98999 19.78 7.98999C19.22 7.98999 18.77 7.54001 18.77 6.98001C18.77 6.42001 19.22 5.98001 19.78 5.98001C20.34 5.98001 20.79 6.43001 20.79 6.98001Z" fill="#BF7344"/>
<path d="M20.79 11.01C20.79 11.57 20.34 12.02 19.78 12.02C19.22 12.02 18.77 11.57 18.77 11.01C18.77 10.45 19.22 10.01 19.78 10.01C20.34 10.01 20.79 10.46 20.79 11.01Z" fill="#BF7344"/>
<path d="M22.8 9C22.8 9.56 22.35 10.01 21.79 10.01C21.23 10.01 20.78 9.56 20.78 9C20.78 8.44 21.23 8 21.79 8C22.35 8 22.8 8.45 22.8 9Z" fill="#BF7344"/>
<path d="M18.78 9C18.78 9.56 18.33 10.01 17.77 10.01C17.21 10.01 16.76 9.56 16.76 9C16.76 8.44 17.21 8 17.77 8C18.33 8 18.78 8.45 18.78 9Z" fill="#BF7344"/>
</svg>
