<svg width="32" height="32" viewBox="0 0 32 32" fill="none" xmlns="http://www.w3.org/2000/svg">
<path d="M19.22 18.59L21.15 22.92L22.5 30.58H20.55L19.17 24.14C19.15 24.05 19.1 23.96 19.04 23.9L14.9 19.76C13.89 18.75 13.33 17.4 13.33 15.97V11.08C13.33 9.74002 14.42 8.64001 15.77 8.64001H16.75C18.09 8.64001 19.19 9.73002 19.19 11.08V13.53L18.62 13.19L17.7 10.44L16.77 10.75L17.75 13.68C17.79 13.79 17.86 13.88 17.96 13.94L22.42 16.61L21.45 18.23L16.64 15.61L14.76 11.37L13.87 11.77L15.82 16.16C15.86 16.26 15.94 16.34 16.03 16.39L19.19 18.11V18.4L19.23 18.6L19.22 18.59ZM15.82 25.46L11.81 29.91L10.13 28.57L13.21 25.05L13.32 24.84L14.31 20.55L16.61 22.85L15.82 25.46ZM10.87 18.17L9.60002 16.9L12.36 13.56V15.98C12.36 16.13 12.37 16.29 12.38 16.44L10.87 18.17ZM13.82 5.22998C13.82 3.88998 14.91 2.78998 16.26 2.78998C17.61 2.78998 18.7 3.87998 18.7 5.22998C18.7 5.80998 18.49 6.33 18.15 6.75C17.88 6.48 17.72 6.10997 17.72 5.71997H16.75C16.75 6.33997 16.99 6.93 17.4 7.37C17.06 7.54999 16.67 7.66998 16.26 7.66998C14.92 7.66998 13.82 6.57998 13.82 5.22998ZM21.62 19.37C21.79 19.37 21.95 19.29 22.04 19.13L23.5 16.69C23.64 16.46 23.56 16.16 23.33 16.02L20.15 14.11V11.07C20.15 9.72001 19.36 8.56 18.22 8C19.09 7.38 19.66 6.36997 19.66 5.21997C19.66 3.33997 18.13 1.81 16.25 1.81C14.37 1.81 12.84 3.33997 12.84 5.21997C12.84 6.36997 13.41 7.38 14.28 8C13.14 8.55 12.35 9.72001 12.35 11.07V12.01L8.56002 16.61C8.40002 16.8 8.41002 17.09 8.59002 17.26L10.54 19.21C10.63 19.3 10.76 19.35 10.88 19.35H10.9C11.04 19.35 11.16 19.29 11.25 19.18L12.58 17.65C12.77 18.35 13.09 19.01 13.51 19.6L12.38 24.47L9.05002 28.28C8.96002 28.38 8.92002 28.51 8.93002 28.64C8.94002 28.77 9.01002 28.9 9.11002 28.98L11.55 30.93C11.64 31 11.75 31.04 11.85 31.04C11.98 31.04 12.12 30.99 12.21 30.88L16.6 26L16.7 25.82L17.37 23.6L18.23 24.46L19.66 31.14C19.71 31.36 19.91 31.53 20.14 31.53H23.06C23.2 31.53 23.34 31.47 23.43 31.36C23.52 31.25 23.56 31.1 23.54 30.96L22.08 22.67L22.05 22.56L20.35 18.73L21.37 19.29L21.6 19.35L21.62 19.37Z" fill="#BF7344"/>
<path d="M8.44999 30.09H2.10999V31.07H8.44999V30.09Z" fill="#BF7344"/>
<path d="M1.12997 30.09H0.159973V31.07H1.12997V30.09Z" fill="#BF7344"/>
<path d="M7.47 28.14H4.06V29.12H7.47V28.14Z" fill="#BF7344"/>
<path d="M3.07999 28.14H2.10999V29.12H3.07999V28.14Z" fill="#BF7344"/>
<path d="M30.34 4.26001H22.1C22.1 3.18001 22.98 2.31 24.05 2.31C24.45 2.31 24.83 2.42997 25.17 2.65997C25.28 2.73997 25.42 2.76999 25.55 2.73999C25.68 2.70999 25.8 2.63001 25.87 2.51001C26.32 1.77001 27.1 1.33002 27.96 1.33002C29.3 1.33002 30.4 2.42002 30.4 3.77002C30.4 3.93002 30.38 4.10001 30.35 4.26001H30.34ZM27.95 0.359985C26.91 0.359985 25.95 0.819995 25.3 1.62C24.91 1.43 24.48 1.33002 24.04 1.33002C22.43 1.33002 21.12 2.64001 21.12 4.26001C21.12 4.45001 21.14 4.65003 21.18 4.84003C21.23 5.07003 21.43 5.22998 21.66 5.22998H30.7C30.91 5.22998 31.09 5.09997 31.16 4.90997C31.29 4.53997 31.36 4.16002 31.36 3.77002C31.36 1.89002 29.83 0.359985 27.95 0.359985Z" fill="#BF7344"/>
<path d="M3.08997 10.11C3.48997 10.11 3.87997 10.23 4.20997 10.47C4.31997 10.55 4.45997 10.57 4.58997 10.55C4.71997 10.52 4.83997 10.44 4.90997 10.32C5.35997 9.58001 6.13997 9.14001 6.99997 9.14001C8.33997 9.14001 9.43997 10.23 9.43997 11.58C9.43997 11.74 9.41997 11.9 9.38997 12.07H1.13997C1.13997 11 2.01997 10.12 3.08997 10.12V10.11ZM0.699973 13.03H9.73997C9.94997 13.03 10.13 12.9 10.2 12.71C10.33 12.34 10.4 11.96 10.4 11.57C10.4 9.69001 8.86997 8.15997 6.98997 8.15997C5.94997 8.15997 4.98997 8.61998 4.33997 9.41998C3.94997 9.22998 3.51997 9.13 3.07997 9.13C1.46997 9.13 0.159973 10.44 0.159973 12.06C0.159973 12.25 0.179973 12.45 0.219973 12.64C0.269973 12.87 0.469973 13.03 0.699973 13.03Z" fill="#BF7344"/>
</svg>
