<svg width="31" height="24" viewBox="0 0 31 24" fill="none" xmlns="http://www.w3.org/2000/svg">
<path d="M1.47824 19.3584C2.92809 19.3584 3.68707 18.7331 4.30982 18.2349C4.86446 17.7855 5.26342 17.4631 6.1489 17.4631C7.03437 17.4631 7.43333 17.7855 7.98797 18.2349L8.10473 18.3228C8.4453 18.5964 8.95129 18.5377 9.22375 18.1958C9.4962 17.8539 9.43782 17.3459 9.09725 17.0724L8.99021 16.9844C8.81506 16.8477 8.64964 16.7109 8.46476 16.5839L14.1766 12.5394C14.9648 12.0314 15.2372 11.0154 14.8188 10.185L12.1234 4.14764C12.0359 3.96202 11.9483 3.77641 11.8607 3.60056C11.6077 3.09256 11.4326 2.58455 11.4326 2.49663C11.452 1.9984 11.8996 1.59786 12.4251 1.59786H23.1481C23.6541 1.59786 24.092 1.96909 24.1407 2.43801C24.1699 2.70178 24.0823 2.96555 23.9071 3.16093C23.732 3.35632 23.4887 3.46379 23.226 3.46379H16.979C16.4827 3.46379 16.0351 3.73733 15.8016 4.17694C15.5681 4.61656 15.5972 5.15386 15.8794 5.57394L23.119 16.2615C22.6616 16.4862 22.3113 16.7695 22.0389 16.9942C21.4842 17.4436 21.095 17.766 20.1998 17.766C19.3046 17.766 18.9154 17.4436 18.3607 16.9942C17.7477 16.496 16.979 15.8708 15.5291 15.8708C14.0793 15.8708 13.3106 16.496 12.6975 16.9942C12.1429 17.4436 11.744 17.766 10.8585 17.766C10.7417 17.766 10.6249 17.766 10.5179 17.7464C10.3136 17.7171 10.0995 17.7855 9.93408 17.9125C9.76866 18.0493 9.66162 18.2349 9.64216 18.4498C9.6227 18.6648 9.68108 18.8699 9.80758 19.036C9.9438 19.2021 10.1287 19.3095 10.3428 19.3291C10.5082 19.3486 10.6833 19.3584 10.8585 19.3584C12.3083 19.3584 13.0673 18.7331 13.6901 18.2349C14.2447 17.7855 14.6339 17.4631 15.5291 17.4631C16.4243 17.4631 16.8136 17.7855 17.3682 18.2349C17.9812 18.7331 18.7499 19.3584 20.1998 19.3584C21.6496 19.3584 22.4086 18.7331 23.0314 18.2349C23.586 17.7855 23.985 17.4631 24.8705 17.4631C25.7559 17.4631 26.1549 17.7855 26.7095 18.2349C27.3225 18.7331 28.0913 19.3584 29.5411 19.3584C29.979 19.3584 30.339 18.9969 30.339 18.5573C30.339 18.3424 30.2612 18.147 30.1055 17.9907C29.9595 17.8441 29.7552 17.7562 29.5411 17.7562C28.6556 17.7562 28.2567 17.4338 27.702 16.9844C27.089 16.4862 26.3106 15.861 24.8705 15.861H24.7731L24.1699 14.9817C24.452 15.0404 24.7342 15.0697 25.0164 15.0697C27.488 15.0697 29.5022 13.0377 29.5022 10.5367C29.5022 8.0358 27.488 6.00379 25.0164 6.00379C22.827 6.00379 20.988 7.57664 20.5987 9.71611L17.4461 5.06595H23.2163C23.9169 5.06595 24.598 4.7631 25.0651 4.23556C25.5419 3.70801 25.7754 2.99485 25.7073 2.29147C25.5905 1.01169 24.4618 0.00546265 23.1384 0.00546265H12.4154C11.0434 0.00546265 9.88542 1.09962 9.83677 2.44778C9.81731 3.07301 10.2941 4.04994 10.4401 4.34302C10.5179 4.49933 10.5958 4.65564 10.6736 4.82172L13.3787 10.8787L13.3981 10.9177C13.4565 11.0252 13.4176 11.1522 13.2911 11.2304L6.67434 15.9196C6.4992 15.9001 6.33378 15.8903 6.15863 15.8903C4.70878 15.8903 3.94006 16.5155 3.31731 17.0138C2.76267 17.4631 2.36372 17.7758 1.47824 17.7758C1.04036 17.7758 0.690063 18.1372 0.690063 18.5768C0.690063 19.0165 1.05009 19.3779 1.47824 19.3779V19.3584ZM22.0875 10.5465C22.0875 8.92481 23.3914 7.61573 24.9872 7.61573C26.583 7.61573 27.8966 8.93458 27.8966 10.5465C27.8966 12.1584 26.5928 13.4773 24.9872 13.4773C23.3817 13.4773 22.0875 12.1584 22.0875 10.5465" fill="#BF7344"/>
<path d="M24.8997 20.0911H24.7927C24.1894 20.0911 23.664 20.2083 23.1774 20.433C22.8855 20.5698 22.7201 20.8531 22.7201 21.1559C22.7201 21.2732 22.7396 21.3806 22.7882 21.4881C22.9244 21.7812 23.2066 21.957 23.5083 21.957C23.6153 21.957 23.7321 21.9375 23.8391 21.8886C24.131 21.7518 24.4521 21.6835 24.8414 21.6835C25.7268 21.6835 26.1258 22.0058 26.6804 22.4552C27.2934 22.9535 28.0427 23.5592 29.4634 23.5787H29.5412C29.9596 23.5689 30.2905 23.227 30.3099 22.8069V22.7483C30.2905 22.3185 29.9402 21.9765 29.512 21.9765C28.6265 21.9765 28.2276 21.6541 27.6729 21.2048C27.0599 20.7065 26.3107 20.0911 24.89 20.0813" fill="#BF7344"/>
<path d="M22.6033 21.83C22.36 21.4588 21.8735 21.3611 21.5037 21.6053C21.2215 21.7909 20.8323 21.9863 20.1706 21.9863C19.2852 21.9863 18.8862 21.6639 18.3316 21.2145C17.7088 20.7163 16.9498 20.0911 15.5 20.0911C14.0501 20.0911 13.2814 20.7163 12.6684 21.2145C12.1137 21.6639 11.7148 21.9863 10.8293 21.9863C9.94384 21.9863 9.54489 21.6639 8.99025 21.2145C8.37722 20.7163 7.60851 20.0911 6.15866 20.0911C4.70881 20.0911 3.94983 20.7163 3.32707 21.2145C2.77243 21.6639 2.37348 21.9863 1.488 21.9863C1.05013 21.9863 0.699829 22.3478 0.699829 22.7874C0.699829 23.227 1.05013 23.5885 1.488 23.5885C2.93785 23.5885 3.69684 22.9632 4.31959 22.465C4.87423 22.0156 5.27318 21.6932 6.15866 21.6932C7.04414 21.6932 7.44309 22.0156 7.99773 22.465C8.61076 22.9632 9.37947 23.5885 10.8293 23.5885C12.2792 23.5885 13.0479 22.9632 13.6609 22.465C14.2155 22.0156 14.6145 21.6932 15.5 21.6932C16.3855 21.6932 16.7844 22.0156 17.339 22.465C17.9521 22.9632 18.7208 23.5885 20.1706 23.5885C21.2799 23.5885 21.9611 23.2172 22.3795 22.9437C22.7492 22.6995 22.8465 22.2012 22.6033 21.83Z" fill="#BF7344"/>
</svg>
