<svg width="33" height="21" viewBox="0 0 33 21" fill="none" xmlns="http://www.w3.org/2000/svg">
<path d="M25.9708 18.9231C23.5771 18.9231 21.6504 16.9595 21.6504 14.5855C21.6504 12.9248 22.5651 11.5082 23.9079 10.756L25.1534 15.0544C25.2897 15.4941 25.6886 15.7969 26.1265 15.7969C26.2238 15.7969 26.3308 15.7969 26.4281 15.7578C26.9731 15.5917 27.2747 15.0154 27.1385 14.4683L25.893 10.2382H25.9611C28.3548 10.2382 30.2814 12.2018 30.2814 14.5758C30.2814 16.9497 28.3548 18.9133 25.9611 18.9133L25.9708 18.9231ZM14.6055 13.0322H12.5816C12.1729 11.4398 11.229 10.121 9.91542 9.24174L10.9663 6.90688H19.8406L14.6153 13.0322H14.6055ZM10.4214 13.0322H8.16392L9.01048 11.1663C9.65269 11.6059 10.1587 12.28 10.4311 13.0322H10.4214ZM6.38323 18.9231C3.98952 18.9231 2.06287 16.9595 2.06287 14.5855C2.06287 12.2116 4.01871 10.248 6.38323 10.248C6.65569 10.248 6.88922 10.287 7.12275 10.3163L5.60479 13.6379C5.46856 13.9408 5.46856 14.3511 5.6729 14.6148C5.87724 14.9177 6.17889 15.0935 6.54865 15.0935H10.6647C10.4311 17.2232 8.61153 18.9231 6.38323 18.9231ZM25.9805 8.15734C25.747 8.15734 25.5427 8.15735 25.3091 8.19643L23.1198 0.742474C22.9835 0.302857 22.6138 0 22.137 0H19.0719C18.4978 0 18.0307 0.468932 18.0307 1.04532C18.0307 1.6217 18.4978 2.09064 19.0719 2.09064H21.3683L22.1759 4.8358H11.8031L12.3772 3.28249C12.5135 2.97964 12.4454 2.60841 12.2799 2.33487C12.0756 2.06133 11.774 1.89524 11.4334 1.89524H7.95958C7.38548 1.89524 6.91841 2.37394 6.91841 2.94056C6.91841 3.50717 7.39521 3.99565 7.95958 3.99565H9.91542L9.34132 5.51966L8.02769 8.43088C7.52171 8.29411 6.9476 8.22573 6.41242 8.22573C2.87051 8.15735 0 11.0393 0 14.5953C0 18.1513 2.87051 20.9942 6.3735 20.9942C9.8765 20.9942 12.4843 18.3858 12.747 15.1033H15.0726C15.3743 15.1033 15.6467 14.9665 15.851 14.7321L22.7013 6.70173L23.3046 8.73372C21.1153 9.74973 19.5584 11.9869 19.5584 14.5562C19.5973 18.1122 22.4581 20.9942 25.9708 20.9942C29.4835 20.9942 32.3832 18.1122 32.3832 14.5953C32.3832 11.0783 29.5127 8.15734 25.9708 8.15734H25.9805Z" fill="#BF7344"/>
</svg>
