<svg width="25" height="32" viewBox="0 0 25 32" fill="none" xmlns="http://www.w3.org/2000/svg">
<path d="M11.021 11.1566H19.1557L15.0883 16.2171L11.021 11.1566ZM7.06064 9.64237L7.72232 10.4532C7.50824 10.5509 7.29417 10.6291 7.06064 10.6877V9.64237ZM5.05615 9.01715V10.6877C4.66693 10.59 4.3069 10.4337 3.97606 10.2383L5.05615 9.0269V9.01715ZM2.17591 7.76669H3.47007L2.57486 8.77292C2.39971 8.46031 2.26349 8.12815 2.17591 7.76669ZM9.52247 4.6796C9.79492 5.13875 9.96034 5.67606 10.0382 6.23291H7.98504L9.52247 4.6796V4.6796ZM2.60405 4.6796L3.64522 5.73467H2.18564C2.28295 5.36343 2.41917 5.00198 2.60405 4.6796ZM7.07037 2.83319C7.44013 2.93089 7.79043 3.06765 8.10181 3.25326L7.07037 4.29858V2.82341V2.83319ZM5.06588 2.83319V4.30836L4.03444 3.26304C4.35555 3.07743 4.70585 2.9309 5.06588 2.84297V2.83319ZM6.06813 0.674194C2.75001 0.674194 0.0449219 3.40958 0.0449219 6.7702C0.0449219 10.1308 2.75001 12.8565 6.06813 12.8565C7.13848 12.8565 8.15046 12.5731 9.02621 12.0749L14.0764 18.3566L14.0958 18.3761V29.093H11.6535C11.2934 29.1125 10.9723 29.3274 10.8069 29.6498C10.6415 29.9722 10.6609 30.363 10.8556 30.6658C11.0502 30.9687 11.3907 31.1445 11.7508 31.125H18.4454C18.7178 31.125 18.9708 31.0273 19.1654 30.8319C19.36 30.6365 19.4671 30.3825 19.4671 30.109C19.4671 29.8354 19.36 29.5814 19.1654 29.386C18.9708 29.1907 18.7178 29.093 18.4454 29.093H16.1003V18.3761L16.1198 18.3566L24.8286 7.53221C25.0427 7.26844 25.0329 6.94606 24.8286 6.68228C24.6145 6.41851 24.2253 6.25243 23.7972 6.25243H18.7762C18.3578 6.2622 17.988 6.42829 17.7837 6.69206C17.5794 6.95583 17.5794 7.26844 17.7837 7.53221C17.988 7.79598 18.3578 7.96207 18.7762 7.97183H21.7343L20.7904 9.14413H9.39597L8.45211 7.97183H15.4289C15.8473 7.96207 16.2171 7.79598 16.4214 7.53221C16.6258 7.26844 16.6258 6.95583 16.4214 6.69206C16.2171 6.42829 15.8376 6.2622 15.4289 6.25243H12.0524C11.7897 3.14581 9.20136 0.683973 6.05839 0.683973L6.06813 0.674194Z" fill="#BF7344"/>
</svg>
