<svg width="31" height="23" viewBox="0 0 31 23" fill="none" xmlns="http://www.w3.org/2000/svg">
<path d="M24.5592 12.8202C24.5592 17.5387 20.7448 21.3683 16.045 21.3683C11.3451 21.3683 7.46262 17.5387 7.46262 12.8202C7.46262 8.10163 11.277 4.20371 16.045 4.20371C18.2927 4.20371 20.4723 5.09271 22.1071 6.73395C23.6737 8.37519 24.5592 10.4951 24.5592 12.8202V12.8202ZM15.9768 2.97278C10.5959 2.97278 6.23657 7.34942 6.23657 12.7518C6.23657 18.1542 10.5959 22.5309 15.9768 22.5309C21.3578 22.5309 25.7171 18.1542 25.7171 12.7518C25.7852 7.4178 21.3578 2.97278 15.9768 2.97278" fill="#BF7344"/>
<path d="M22.3795 12.8202C22.3795 16.3762 19.5187 19.2484 15.9768 19.2484C12.4348 19.2484 9.57407 16.3762 9.57407 12.8202C9.57407 9.26422 12.4348 6.39207 15.9768 6.39207C19.5187 6.39207 22.3795 9.26422 22.3795 12.8202ZM15.9768 5.16113C11.7537 5.16113 8.34802 8.58037 8.34802 12.8202C8.34802 17.0601 11.7537 20.4793 15.9768 20.4793C20.1998 20.4793 23.6055 17.0601 23.6055 12.8202C23.6055 8.58037 20.1998 5.16113 15.9768 5.16113Z" fill="#BF7344"/>
<path d="M28.8503 14.1879H27.8286V7.14427C27.8286 7.07588 28.0329 5.50304 29.3271 4.61403V14.1879H28.8503V14.1879ZM29.3271 20.2742H29.0546V16.3762H29.3271V20.2742ZM30.3488 14.3931V3.24634L30.2807 3.10956H30.1445L29.6677 3.31473C27.0112 4.34051 26.8069 7.14427 26.8069 7.14427V15.0769L26.9431 15.2137H27.9648V21.0948L28.101 21.2316H30.1445L30.2807 21.1632L30.3488 21.0264V14.3931V14.3931Z" fill="#BF7344"/>
<path d="M4.12505 20.2742H2.62654V15.4872H4.12505V20.2742ZM3.51202 14.3931H3.23957V11.5893H3.51202V14.3931ZM2.28598 9.26419H2.96711L3.10334 9.12741V5.77656H3.58014V9.12741L3.71636 9.26419H4.3975L4.53373 9.12741V5.77656H4.94241V8.85387C4.94241 9.81126 4.19316 10.5635 3.23957 10.5635C2.28598 10.5635 1.53672 9.81126 1.53672 8.85387V5.77656H1.94541V9.12741C2.08163 9.12741 2.14975 9.26419 2.28598 9.26419V9.26419ZM5.96412 4.61401H0.787473L0.651245 4.7508V8.71712C0.651245 9.81127 1.33238 10.7687 2.21786 11.2474V14.3931H1.74107L1.60484 14.5298V21.0948L1.74107 21.2315H5.01053L5.14675 21.0948V14.5298L5.01053 14.3931H4.60184V11.2474C5.55544 10.7687 6.16846 9.87966 6.16846 8.71712V4.81916C6.16846 4.68239 6.10035 4.61401 5.96412 4.61401Z" fill="#BF7344"/>
<path d="M24.6953 6.11849L24.7634 6.25524L25.717 5.50302L25.6489 5.36623C23.8098 2.90438 21.3577 1.67348 19.5868 1.05802L19.4506 0.989624L19.0419 2.15217L19.1781 2.22053C20.8128 2.83599 23.0606 3.93017 24.6953 6.11849" fill="#BF7344"/>
<path d="M17.6115 1.81023H17.7478L18.0202 0.647684H17.884C16.9304 0.442529 16.3174 0.374146 16.3174 0.374146H16.1812L16.113 1.60508H16.2493C16.2493 1.60508 16.7942 1.60507 17.6115 1.81023Z" fill="#BF7344"/>
</svg>
