<svg width="29" height="29" viewBox="0 0 29 29" fill="none" xmlns="http://www.w3.org/2000/svg">
<path d="M3.59001 6.24999C3.59001 5.70999 3.15001 5.27 2.61001 5.27C2.07001 5.27 1.63001 5.70999 1.63001 6.24999C1.63001 6.78999 2.07001 7.22999 2.61001 7.22999C3.15001 7.22999 3.59001 6.78999 3.59001 6.24999ZM2.61001 8.09999C1.59001 8.09999 0.76001 7.26999 0.76001 6.24999C0.76001 5.22999 1.59001 4.4 2.61001 4.4C3.63001 4.4 4.46001 5.22999 4.46001 6.24999C4.46001 7.26999 3.63001 8.09999 2.61001 8.09999ZM20.67 24.84C20.21 24.84 19.83 24.46 19.83 24C19.83 23.76 19.63 23.56 19.39 23.56C19.15 23.56 18.95 23.76 18.95 24C18.95 24.94 19.72 25.71 20.66 25.71C20.9 25.71 21.1 25.51 21.1 25.27C21.1 25.03 20.9 24.83 20.66 24.83L20.67 24.84ZM22.99 23.99C22.99 22.71 21.95 21.66 20.66 21.66C19.37 21.66 18.33 22.7 18.33 23.99C18.33 25.28 19.37 26.32 20.66 26.32C21.95 26.32 22.99 25.28 22.99 23.99ZM19.09 26.78C18.12 26.23 17.46 25.19 17.46 23.99C17.46 22.54 18.43 21.31 19.76 20.92C19.81 19.56 19.65 18.21 19.26 16.86C19.03 16.05 18.55 15.35 17.92 14.84C16.73 15.46 15.28 15.82 13.71 15.82C12.14 15.82 10.69 15.46 9.50001 14.84C8.87001 15.35 8.39001 16.05 8.16001 16.86C8.13001 16.96 8.11001 17.06 8.08001 17.16C8.69001 17.74 9.07001 18.56 9.07001 19.46C9.07001 20.52 8.55001 21.46 7.75001 22.04C7.84001 22.72 7.97001 23.4 8.16001 24.07C8.24001 24.36 8.36001 24.64 8.50001 24.9C8.72001 25.31 8.70001 25.8 8.45001 26.22C8.37001 26.36 8.33001 26.51 8.33001 26.67V26.92C8.33001 27.16 8.53001 27.36 8.77001 27.36H10.67C10.91 27.36 11.11 27.16 11.11 26.92V26.67C11.11 26.45 11.03 26.24 10.88 26.07C10.81 25.99 10.77 25.89 10.77 25.78V21.06C10.77 20.82 10.97 20.62 11.21 20.62C11.45 20.62 11.65 20.82 11.65 21.06V25.63C11.78 25.81 11.87 26.01 11.93 26.21H15.54C15.6 26 15.69 25.8 15.82 25.63V21.06C15.82 20.82 16.02 20.62 16.26 20.62C16.5 20.62 16.7 20.82 16.7 21.06V25.78C16.7 25.89 16.66 25.99 16.59 26.07C16.44 26.24 16.36 26.45 16.36 26.67V26.92C16.36 27.16 16.56 27.36 16.8 27.36H18.7C18.94 27.36 19.14 27.16 19.14 26.92V26.77L19.09 26.78ZM7.73001 25.33C7.56001 25.01 7.42001 24.67 7.32001 24.32C7.14001 23.71 7.01001 23.09 6.92001 22.47C6.83001 22.5 6.74001 22.53 6.65001 22.55C6.44001 23.18 6.32001 23.85 6.32001 24.55V25.2C6.32001 25.76 6.78001 26.22 7.34001 26.22H7.51001C7.55001 26.07 7.61001 25.92 7.70001 25.78C7.79001 25.63 7.81001 25.46 7.73001 25.33ZM8.19001 19.47C8.19001 18.19 7.15001 17.16 5.88001 17.16C4.61001 17.16 3.57001 18.2 3.57001 19.47C3.57001 20.74 4.61001 21.78 5.88001 21.78C7.15001 21.78 8.19001 20.74 8.19001 19.47ZM13.7 14.95C16.45 14.95 18.8 13.74 19.73 12.05L18.76 11.86C18.52 11.81 18.37 11.58 18.42 11.35C18.47 11.11 18.7 10.96 18.93 11.01L20.06 11.23C20.12 10.97 20.16 10.71 20.16 10.44C20.16 10.34 20.16 10.25 20.14 10.15L18.93 10.39H18.84C18.64 10.39 18.45 10.25 18.41 10.05C18.36 9.80999 18.52 9.58 18.75 9.54L19.93 9.31L19.86 9.11999L19.83 8.99C19.78 8.58 19.67 8.17 19.49 7.77C19.38 7.53 19.33 7.26 19.34 6.97L19.4 3.86999L19.38 3.81999H19.33L16.15 4.77999H15.89C14.48 4.33999 12.92 4.33999 11.51 4.77999H11.25L8.07001 3.81H8.02001L8.00001 3.86999L8.06001 6.97C8.06001 7.26 8.02001 7.53 7.91001 7.77C7.73001 8.17 7.62001 8.58 7.57001 8.99L7.54001 9.11999L7.47001 9.31L8.65001 9.54C8.89001 9.59 9.04001 9.81999 8.99001 10.05C8.95001 10.26 8.77001 10.4 8.56001 10.4H8.47001L7.26001 10.15C7.26001 10.25 7.25001 10.34 7.25001 10.44C7.25001 10.71 7.28001 10.97 7.35001 11.23L8.48001 11.01C8.72001 10.96 8.95001 11.12 8.99001 11.35C9.04001 11.59 8.88001 11.82 8.65001 11.86L7.68001 12.05C8.61001 13.74 10.96 14.95 13.71 14.95H13.7ZM23.85 23.99C23.85 25.75 22.42 27.19 20.65 27.19C20.41 27.19 20.17 27.16 19.94 27.11C19.85 27.75 19.31 28.24 18.65 28.24H16.75C16.09 28.24 15.54 27.74 15.46 27.1H11.95C11.87 27.74 11.32 28.24 10.66 28.24H8.76001C8.10001 28.24 7.55001 27.74 7.47001 27.1H7.34001C6.30001 27.1 5.45001 26.25 5.45001 25.21V24.56C5.45001 23.9 5.54001 23.26 5.71001 22.65C4.04001 22.56 2.70001 21.17 2.70001 19.47C2.70001 17.77 4.13001 16.28 5.89001 16.28C6.41001 16.28 6.89001 16.41 7.32001 16.63C7.57001 15.75 8.06001 14.97 8.71001 14.37C7.86001 13.78 7.19001 13.05 6.80001 12.22L5.03001 12.57H4.94001C4.74001 12.57 4.55001 12.43 4.51001 12.23C4.46001 11.99 4.62001 11.76 4.85001 11.72L6.49001 11.39C6.41001 11.08 6.37001 10.76 6.37001 10.43C6.37001 10.28 6.38001 10.13 6.40001 9.97L4.85001 9.66C4.61001 9.60999 4.46001 9.38 4.51001 9.15C4.56001 8.91 4.79001 8.76 5.02001 8.81L6.59001 9.11999C6.62001 9.01999 6.66001 8.91 6.70001 8.81C6.76001 8.33 6.90001 7.86 7.10001 7.4C7.15001 7.28 7.18001 7.13999 7.18001 6.97999L7.12001 3.88C7.12001 3.58 7.25001 3.29999 7.49001 3.11999C7.73001 2.93999 8.04001 2.88 8.32001 2.97L11.38 3.9C12.88 3.46 14.52 3.46 16.02 3.9L19.08 2.97C19.36 2.88 19.67 2.93999 19.91 3.11999C20.15 3.29999 20.28 3.58 20.28 3.88L20.22 6.97999C20.22 7.13999 20.24 7.28 20.3 7.4C20.5 7.86 20.64 8.33 20.7 8.81C20.74 8.91 20.78 9.00999 20.81 9.11999L22.38 8.81C22.62 8.76 22.85 8.92 22.89 9.15C22.94 9.39 22.78 9.62 22.55 9.66L21 9.97C21.02 10.12 21.03 10.27 21.03 10.43C21.03 10.76 20.99 11.07 20.91 11.38L22.55 11.71C22.79 11.76 22.94 11.99 22.89 12.22C22.85 12.43 22.67 12.57 22.46 12.57H22.37L20.6 12.21C20.2 13.04 19.54 13.77 18.69 14.36C19.34 14.96 19.83 15.74 20.08 16.61C20.44 17.87 20.63 19.13 20.63 20.4C20.72 20.53 20.81 20.66 20.89 20.79C22.54 20.92 23.84 22.3 23.84 23.98L23.85 23.99ZM5.87001 20.3C5.41001 20.3 5.04001 19.93 5.04001 19.47C5.04001 19.23 4.84001 19.03 4.60001 19.03C4.36001 19.03 4.16001 19.23 4.16001 19.47C4.16001 20.41 4.93001 21.18 5.87001 21.18C6.11001 21.18 6.31001 20.98 6.31001 20.74C6.31001 20.5 6.11001 20.3 5.87001 20.3ZM26.45 15.55C26.21 15.55 26.01 15.74 26.01 15.99C26.01 16.15 25.88 16.28 25.72 16.28L25.59 16.25C25.38 16.14 25.11 16.22 25 16.44C24.89 16.66 24.97 16.92 25.19 17.03C25.35 17.12 25.54 17.16 25.73 17.16C26.37 17.16 26.89 16.64 26.89 16C26.89 15.76 26.69 15.56 26.45 15.56V15.55ZM27.47 15.99C27.47 15.03 26.69 14.24 25.73 14.24C24.77 14.24 23.98 15.02 23.98 15.99C23.98 16.96 24.76 17.73 25.73 17.73C26.7 17.73 27.47 16.95 27.47 15.99ZM28.34 15.99C28.34 17.43 27.17 18.61 25.72 18.61C24.27 18.61 23.1 17.44 23.1 15.99C23.1 14.54 24.27 13.37 25.72 13.37C27.17 13.37 28.34 14.54 28.34 15.99ZM26.14 6.50999C26 6.70999 26.06 6.97999 26.25 7.11999L26.5 7.2C26.64 7.2 26.78 7.12999 26.86 7.00999L27.02 6.77C27.16 6.57 27.1 6.29999 26.91 6.15999C26.71 6.01999 26.44 6.07 26.3 6.27L26.14 6.50999ZM28.55 3.74999C28.35 3.60999 28.08 3.66 27.94 3.86L26.95 5.29999C26.81 5.49999 26.87 5.76999 27.06 5.90999L27.31 5.99C27.45 5.99 27.59 5.91999 27.67 5.79999L28.65 4.36C28.79 4.16 28.74 3.89 28.54 3.74999H28.55ZM25.16 8.68999L25.41 8.77C25.55 8.77 25.69 8.7 25.77 8.58L25.87 8.43999C26.01 8.23999 25.95 7.97 25.76 7.83C25.56 7.69 25.29 7.73999 25.15 7.93999L25.05 8.08C24.91 8.28 24.97 8.54999 25.16 8.68999ZM24.42 1.22999H24.47L26.2 1.02C26.44 0.989995 26.61 0.769994 26.58 0.529994C26.55 0.289994 26.33 0.119996 26.09 0.149996L24.36 0.359996C24.12 0.389996 23.95 0.609993 23.98 0.849993C24.01 1.06999 24.19 1.22999 24.41 1.22999H24.42ZM22.97 1.4H23.02L23.31 1.36C23.55 1.33 23.72 1.10999 23.69 0.869994C23.66 0.629994 23.44 0.459997 23.21 0.489997L22.92 0.529994C22.68 0.559994 22.51 0.779995 22.54 1.02C22.57 1.24 22.76 1.4 22.97 1.4ZM21.07 1.63H21.12L21.29 1.61C21.53 1.58 21.7 1.35999 21.67 1.11999C21.64 0.879994 21.42 0.709997 21.18 0.739997L21.01 0.759993C20.77 0.789993 20.6 1.00999 20.63 1.24999C20.66 1.47 20.84 1.63 21.06 1.63H21.07ZM25.1 3.61999C24.98 3.40999 24.71 3.35 24.5 3.47L24.25 3.61999C24.04 3.73999 23.98 4.01 24.1 4.22C24.18 4.35 24.32 4.43 24.47 4.43L24.7 4.36999L24.95 4.22C25.16 4.1 25.22 3.82999 25.1 3.61999ZM25.35 3.47C25.43 3.61 25.58 3.68 25.72 3.68L25.95 3.61999L27.44 2.70999C27.65 2.58999 27.71 2.32 27.59 2.11C27.47 1.9 27.2 1.83999 26.99 1.95999L25.5 2.86999C25.29 2.98999 25.23 3.26 25.35 3.47ZM22.65 5.54999L22.88 5.49L23.22 5.27999C23.43 5.15999 23.49 4.89 23.37 4.68C23.25 4.47 22.98 4.40999 22.77 4.52999L22.43 4.74C22.22 4.86 22.16 5.12999 22.28 5.33999C22.36 5.47999 22.51 5.54999 22.65 5.54999ZM15.03 12.85C15.27 12.85 15.46 12.65 15.46 12.41C15.46 12.17 15.27 11.98 15.02 11.98C14.7 11.99 14.45 11.91 14.31 11.75C14.21 11.64 14.16 11.5 14.13 11.38L14.75 10.55C14.83 10.44 14.84 10.3 14.78 10.18C14.72 10.06 14.6 9.97999 14.46 9.97999H12.88C12.74 9.97999 12.62 10.06 12.56 10.18C12.5 10.3 12.51 10.44 12.59 10.55L13.21 11.38C13.19 11.5 13.14 11.64 13.04 11.75C12.9 11.91 12.65 11.99 12.32 11.98C12.09 11.98 11.88 12.17 11.88 12.41C11.88 12.65 12.07 12.85 12.31 12.85H12.35C12.91 12.85 13.36 12.68 13.67 12.35C13.98 12.68 14.43 12.85 14.99 12.85H15.03ZM16.17 9.52999C16.55 9.52999 16.85 9.22999 16.85 8.84999C16.85 8.46999 16.54 8.16999 16.17 8.16999C15.8 8.16999 15.49 8.46999 15.49 8.84999C15.49 9.22999 15.8 9.52999 16.17 9.52999ZM11.85 8.84999C11.85 9.22999 11.54 9.52999 11.17 9.52999C10.8 9.52999 10.49 9.22999 10.49 8.84999C10.49 8.46999 10.79 8.16999 11.17 8.16999C11.55 8.16999 11.85 8.46999 11.85 8.84999Z" fill="#BF7344"/>
</svg>
