<svg width="96" height="60" viewBox="0 0 96 60" fill="none" xmlns="http://www.w3.org/2000/svg">
<path d="M95.22 0.629883H0.0700073V59.6399H95.22V0.629883Z" fill="#FFED00"/>
<path d="M58.86 9.74988L62.72 12.3999L66.5 9.86988V4.67988L58.86 9.74988ZM36.52 37.2499L32.67 34.6299L28.77 37.2599L28.81 42.3499L36.51 37.2599L36.52 37.2499ZM51.14 14.8099L54.91 17.3399L36.99 29.4599L48.07 36.9399L53.27 33.4199L49.23 30.7399L58.55 24.4899L66.35 29.6699L47.5 42.2299L28.9 29.7499L51.14 14.7999V14.8099ZM44.07 32.0099L40.3 29.4699L58.22 17.3499L47.14 9.87988L41.94 13.3999L45.98 16.0799L36.65 22.3299L28.85 17.1599L47.63 4.58988L66.28 17.1199L44.06 32.0199L44.07 32.0099Z" fill="#007BC2"/>
<path d="M12.98 54.7099C13.31 54.7099 13.57 54.6399 13.75 54.5099C13.93 54.3799 14.03 54.1799 14.03 53.9399C14.03 53.4199 13.68 53.0299 12.99 52.7699C12.58 52.8899 12.03 53.0099 11.36 53.1099V54.7099H12.98ZM11.36 51.9399C11.93 51.8599 12.37 51.7699 12.7 51.6799C13.03 51.5799 13.27 51.4699 13.42 51.3399C13.57 51.1999 13.64 51.0399 13.64 50.8399C13.64 50.5799 13.54 50.3899 13.35 50.2599C13.15 50.1299 12.87 50.0599 12.51 50.0599H11.37V51.9499L11.36 51.9399ZM9.97998 55.9299V48.8499H12.52C13.31 48.8499 13.93 49.0199 14.39 49.3399C14.85 49.6699 15.08 50.1399 15.08 50.7599C15.08 51.3799 14.82 51.8299 14.31 52.1899C15.13 52.6199 15.54 53.2299 15.54 54.0099C15.54 54.3799 15.44 54.7199 15.25 55.0099C15.05 55.2999 14.77 55.5299 14.41 55.6999C14.04 55.8599 13.61 55.9399 13.13 55.9399H10L9.97998 55.9299Z" fill="#007BC2"/>
<path d="M19.06 54.5399C19.31 54.2999 19.44 53.9899 19.44 53.5999V53.4199C18.79 53.5899 18.32 53.7499 18.02 53.8899C17.72 54.0399 17.57 54.2199 17.57 54.4399C17.57 54.5799 17.62 54.6899 17.72 54.7699C17.82 54.8599 17.96 54.8999 18.13 54.8999C18.49 54.8999 18.8 54.7799 19.05 54.5399M20.18 51.0199C20.6 51.4199 20.81 51.9799 20.81 52.6899V55.9199H19.49V55.1699C19.32 55.4199 19.09 55.6199 18.8 55.7799C18.51 55.9299 18.19 56.0099 17.82 56.0099C17.33 56.0099 16.94 55.8799 16.65 55.6299C16.36 55.3799 16.22 55.0399 16.22 54.6199C16.22 54.2299 16.32 53.8999 16.51 53.6499C16.71 53.3999 17.03 53.1699 17.49 52.9899C17.94 52.8099 18.59 52.6199 19.43 52.4199C19.41 52.1999 19.31 52.0299 19.14 51.8999C18.97 51.7699 18.72 51.7099 18.39 51.7099C17.89 51.7099 17.33 51.8599 16.72 52.1799L16.39 50.9899C16.69 50.8099 17.02 50.6799 17.37 50.5799C17.72 50.4799 18.07 50.4299 18.41 50.4299C19.17 50.4299 19.75 50.6299 20.17 51.0299" fill="#007BC2"/>
<path d="M22.06 55.9299V50.5199H23.41V51.3499C23.56 51.0699 23.79 50.8499 24.08 50.6799C24.37 50.5099 24.7 50.4299 25.07 50.4299C25.74 50.4299 26.26 50.6699 26.62 51.1599C26.98 51.6399 27.16 52.2999 27.16 53.1199V55.9399H25.66V53.1999C25.66 52.2799 25.33 51.8299 24.66 51.8299C24.32 51.8299 24.04 51.9399 23.84 52.1699C23.64 52.3999 23.54 52.7199 23.54 53.1199V55.9399H22.04L22.06 55.9299Z" fill="#007BC2"/>
<path d="M29.45 55.6599C29.04 55.4299 28.72 55.0999 28.48 54.6699C28.25 54.2499 28.13 53.7499 28.13 53.1999C28.13 52.6799 28.25 52.2099 28.5 51.7899C28.75 51.3699 29.08 51.0299 29.5 50.7899C29.92 50.5399 30.38 50.4199 30.87 50.4199C31.16 50.4199 31.43 50.4499 31.68 50.5199C31.93 50.5899 32.18 50.7099 32.42 50.8599L32.06 52.0999C31.73 51.8799 31.35 51.7699 30.94 51.7699C30.55 51.7699 30.23 51.8999 29.99 52.1599C29.74 52.4199 29.62 52.7699 29.62 53.1899C29.62 53.6099 29.74 53.9799 29.99 54.2499C30.24 54.5099 30.55 54.6499 30.93 54.6499C31.17 54.6499 31.38 54.6199 31.56 54.5599C31.74 54.4999 31.93 54.4199 32.12 54.2999L32.49 55.5299C32.24 55.6899 32 55.7999 31.74 55.8799C31.48 55.9599 31.18 55.9999 30.83 55.9999C30.32 55.9999 29.86 55.8799 29.45 55.6499" fill="#007BC2"/>
<path d="M36.84 54.2499C37.08 53.9799 37.2 53.6299 37.2 53.2099C37.2 52.7899 37.08 52.4499 36.83 52.1799C36.59 51.9099 36.28 51.7699 35.91 51.7699C35.54 51.7699 35.23 51.9099 34.98 52.1799C34.74 52.4499 34.61 52.7899 34.61 53.2099C34.61 53.6299 34.73 53.9699 34.97 54.2499C35.21 54.5199 35.52 54.6599 35.9 54.6599C36.28 54.6599 36.59 54.5199 36.83 54.2499M34.49 55.6399C34.07 55.3899 33.73 55.0499 33.48 54.6299C33.23 54.1999 33.11 53.7299 33.11 53.2199C33.11 52.7099 33.23 52.2399 33.48 51.8199C33.73 51.3899 34.06 51.0599 34.49 50.8099C34.91 50.5599 35.38 50.4399 35.9 50.4399C36.42 50.4399 36.88 50.5599 37.3 50.8099C37.73 51.0599 38.06 51.3899 38.31 51.8199C38.56 52.2499 38.68 52.7099 38.68 53.2199C38.68 53.7299 38.55 54.2099 38.31 54.6299C38.06 55.0599 37.72 55.3899 37.3 55.6399C36.87 55.8899 36.41 56.0099 35.9 56.0099C35.39 56.0099 34.91 55.8899 34.49 55.6399Z" fill="#007BC2"/>
<path d="M45.64 54.3199C45.89 54.0799 46.02 53.7499 46.02 53.3199V53.1599C46.02 52.7299 45.89 52.3999 45.64 52.1499C45.39 51.8999 45.08 51.7799 44.72 51.7799C44.36 51.7799 44.07 51.9099 43.82 52.1799C43.58 52.4399 43.45 52.7999 43.45 53.2499C43.45 53.6999 43.57 54.0499 43.81 54.3099C44.05 54.5699 44.35 54.6999 44.7 54.6999C45.07 54.6999 45.39 54.5799 45.63 54.3399M43.12 55.6899C42.75 55.4599 42.47 55.1399 42.26 54.7199C42.05 54.3099 41.95 53.8199 41.95 53.2799C41.95 52.7399 42.06 52.2499 42.28 51.8199C42.5 51.3899 42.8 51.0499 43.18 50.8099C43.56 50.5699 43.99 50.4499 44.47 50.4499C44.79 50.4499 45.08 50.5099 45.35 50.6299C45.61 50.7499 45.84 50.9199 46.02 51.1199V48.3099H47.52V55.9399H46.17V55.0899C45.99 55.3699 45.75 55.5899 45.44 55.7699C45.13 55.9399 44.79 56.0299 44.4 56.0299C43.92 56.0299 43.5 55.9199 43.14 55.6899" fill="#007BC2"/>
<path d="M52.3 54.2499C52.54 53.9799 52.66 53.6299 52.66 53.2099C52.66 52.7899 52.54 52.4499 52.29 52.1799C52.05 51.9099 51.74 51.7699 51.37 51.7699C51 51.7699 50.69 51.9099 50.44 52.1799C50.2 52.4499 50.07 52.7899 50.07 53.2099C50.07 53.6299 50.19 53.9699 50.43 54.2499C50.67 54.5199 50.98 54.6599 51.36 54.6599C51.74 54.6599 52.05 54.5199 52.29 54.2499M49.95 55.6399C49.53 55.3899 49.19 55.0499 48.94 54.6299C48.69 54.1999 48.57 53.7299 48.57 53.2199C48.57 52.7099 48.69 52.2399 48.94 51.8199C49.19 51.3899 49.52 51.0599 49.95 50.8099C50.37 50.5599 50.84 50.4399 51.36 50.4399C51.88 50.4399 52.34 50.5599 52.76 50.8099C53.19 51.0599 53.52 51.3899 53.77 51.8199C54.02 52.2499 54.14 52.7099 54.14 53.2199C54.14 53.7299 54.01 54.2099 53.77 54.6299C53.52 55.0599 53.18 55.3899 52.76 55.6399C52.33 55.8899 51.87 56.0099 51.36 56.0099C50.85 56.0099 50.37 55.8899 49.95 55.6399Z" fill="#007BC2"/>
<path d="M60.74 54.7099C61.07 54.7099 61.33 54.6399 61.51 54.5099C61.69 54.3799 61.79 54.1799 61.79 53.9399C61.79 53.4199 61.44 53.0299 60.75 52.7699C60.34 52.8899 59.79 53.0099 59.12 53.1099V54.7099H60.74ZM59.12 51.9399C59.69 51.8599 60.13 51.7699 60.46 51.6799C60.79 51.5799 61.03 51.4699 61.18 51.3399C61.33 51.1999 61.4 51.0399 61.4 50.8399C61.4 50.5799 61.3 50.3899 61.11 50.2599C60.91 50.1299 60.63 50.0599 60.27 50.0599H59.13V51.9499L59.12 51.9399ZM57.74 55.9299V48.8499H60.28C61.07 48.8499 61.69 49.0199 62.15 49.3399C62.61 49.6699 62.84 50.1399 62.84 50.7599C62.84 51.3799 62.58 51.8299 62.07 52.1899C62.89 52.6199 63.3 53.2299 63.3 54.0099C63.3 54.3799 63.2 54.7199 63.01 55.0099C62.81 55.2999 62.53 55.5299 62.17 55.6999C61.8 55.8599 61.37 55.9399 60.89 55.9399H57.76L57.74 55.9299Z" fill="#007BC2"/>
<path d="M64.3 55.9299V50.5199H65.65V51.3399C65.8 51.0699 66.02 50.8499 66.33 50.6899C66.63 50.5299 66.97 50.4499 67.33 50.4499C67.53 50.4499 67.73 50.4699 67.92 50.5099L67.68 51.9299C67.5 51.8799 67.28 51.8499 67.03 51.8499C66.67 51.8499 66.38 51.9599 66.15 52.1899C65.92 52.4199 65.8 52.7399 65.8 53.1599V55.9199H64.3V55.9299Z" fill="#007BC2"/>
<path d="M71.36 54.5399C71.61 54.2999 71.74 53.9899 71.74 53.5999V53.4199C71.09 53.5899 70.62 53.7499 70.32 53.8899C70.02 54.0399 69.87 54.2199 69.87 54.4399C69.87 54.5799 69.92 54.6899 70.02 54.7699C70.12 54.8599 70.26 54.8999 70.43 54.8999C70.79 54.8999 71.1 54.7799 71.35 54.5399M72.48 51.0199C72.9 51.4199 73.11 51.9799 73.11 52.6899V55.9199H71.79V55.1699C71.62 55.4199 71.39 55.6199 71.1 55.7799C70.81 55.9299 70.49 56.0099 70.12 56.0099C69.63 56.0099 69.24 55.8799 68.95 55.6299C68.66 55.3799 68.52 55.0399 68.52 54.6199C68.52 54.2299 68.62 53.8999 68.81 53.6499C69.01 53.3999 69.33 53.1699 69.79 52.9899C70.24 52.8099 70.89 52.6199 71.73 52.4199C71.71 52.1999 71.61 52.0299 71.44 51.8999C71.27 51.7699 71.02 51.7099 70.69 51.7099C70.19 51.7099 69.63 51.8599 69.02 52.1799L68.69 50.9899C68.99 50.8099 69.32 50.6799 69.67 50.5799C70.02 50.4799 70.37 50.4299 70.71 50.4299C71.47 50.4299 72.05 50.6299 72.47 51.0299" fill="#007BC2"/>
<path d="M75 55.8499C74.59 55.7399 74.28 55.6099 74.04 55.4699L74.41 54.3099C74.63 54.4299 74.9 54.5399 75.22 54.6399C75.55 54.7399 75.87 54.7899 76.2 54.7899C76.67 54.7899 76.9 54.6599 76.9 54.4099C76.9 54.2699 76.82 54.1599 76.67 54.0699C76.52 53.9899 76.24 53.8799 75.83 53.7499C75.31 53.5899 74.93 53.3899 74.67 53.1299C74.41 52.8699 74.28 52.5199 74.28 52.0699C74.28 51.5799 74.47 51.1799 74.86 50.8799C75.24 50.5799 75.73 50.4299 76.33 50.4299C76.65 50.4299 76.97 50.4799 77.29 50.5699C77.62 50.6599 77.9 50.7899 78.16 50.9499L77.79 52.0499C77.58 51.9299 77.34 51.8299 77.08 51.7599C76.82 51.6899 76.56 51.6499 76.33 51.6499C76.13 51.6499 75.97 51.6799 75.86 51.7499C75.74 51.8099 75.68 51.9099 75.68 52.0499C75.68 52.1599 75.74 52.2499 75.86 52.3199C75.98 52.3899 76.18 52.4899 76.47 52.5899C76.92 52.7499 77.27 52.8999 77.53 53.0399C77.79 53.1799 77.98 53.3599 78.12 53.5699C78.25 53.7899 78.32 54.0599 78.32 54.3799C78.32 54.8899 78.13 55.2899 77.74 55.5799C77.35 55.8699 76.82 56.0099 76.17 56.0099C75.8 56.0099 75.42 55.9499 75.02 55.8399" fill="#007BC2"/>
<path d="M80.88 55.9299H79.38V50.5199H80.88V55.9299ZM79.51 49.6499C79.34 49.4899 79.26 49.2899 79.26 49.0499C79.26 48.8099 79.35 48.5999 79.51 48.4299C79.68 48.2599 79.89 48.1799 80.14 48.1799C80.39 48.1799 80.61 48.2599 80.78 48.4199C80.95 48.5799 81.03 48.7799 81.03 49.0099C81.03 49.2599 80.94 49.4699 80.78 49.6399C80.61 49.8099 80.4 49.8899 80.14 49.8899C79.88 49.8899 79.68 49.8099 79.51 49.6399" fill="#007BC2"/>
<path d="M82.7 55.4399C82.37 55.0599 82.21 54.5099 82.21 53.7899V48.2899H83.7V53.7799C83.7 54.0599 83.75 54.2699 83.86 54.4199C83.97 54.5699 84.12 54.6399 84.32 54.6399C84.43 54.6399 84.54 54.6299 84.63 54.5999C84.72 54.5699 84.82 54.5399 84.93 54.4799L85.3 55.6599C84.96 55.8799 84.55 55.9999 84.1 55.9999C83.49 55.9999 83.02 55.8099 82.7 55.4299" fill="#007BC2"/>
</svg>
