<svg width="90" height="90" viewBox="0 0 90 90" fill="none" xmlns="http://www.w3.org/2000/svg">
<g clip-path="url(#clip0_610_6312)">
<path d="M45 89.5689C69.6147 89.5689 89.5689 69.6148 89.5689 45C89.5689 20.3853 69.6147 0.431152 45 0.431152C20.3853 0.431152 0.431122 20.3853 0.431122 45C0.431122 69.6148 20.3853 89.5689 45 89.5689Z" fill="#007BC2" stroke="white" stroke-miterlimit="10"/>
<path d="M45 78.0839C63.2717 78.0839 78.0839 63.2717 78.0839 44.9999C78.0839 26.7282 63.2717 11.916 45 11.916C26.7283 11.916 11.9161 26.7282 11.9161 44.9999C11.9161 63.2717 26.7283 78.0839 45 78.0839Z" fill="#FFED00" stroke="white" stroke-miterlimit="10"/>
<path d="M79.3256 55.1571C79.5325 54.45 79.9205 53.9413 80.4982 53.6395C81.0673 53.3378 81.7226 53.2947 82.4641 53.5102C83.2142 53.7258 83.7574 54.1224 84.0851 54.6915C84.4127 55.2605 84.4731 55.8986 84.2662 56.6143C84.0592 57.3213 83.6626 57.83 83.0849 58.1318C82.4986 58.4336 81.8347 58.4767 81.0931 58.2525C80.3516 58.0369 79.8257 57.6489 79.498 57.0799C79.179 56.5108 79.1186 55.8727 79.3256 55.1571ZM80.1619 55.4157C80.0412 55.8469 80.0757 56.2262 80.2913 56.5539C80.5068 56.8815 80.869 57.123 81.3777 57.2782C81.9036 57.4334 82.3434 57.4248 82.6969 57.2609C83.0504 57.0971 83.2918 56.8039 83.4212 56.3728C83.5505 55.9417 83.5074 55.5537 83.2918 55.2261C83.0849 54.8898 82.7141 54.6484 82.1882 54.5018C81.6708 54.3466 81.2311 54.3552 80.8776 54.5276C80.5241 54.7001 80.2826 54.9933 80.1533 55.433L80.1619 55.4157Z" fill="white"/>
<path d="M77.42 60.46L81.4467 62.6328C81.5501 62.6931 81.6191 62.7707 81.645 62.8828C81.6708 62.9949 81.6536 63.0984 81.5932 63.2105L80.7827 64.7108C80.5672 65.1074 80.2913 65.3747 79.9464 65.5127C79.6015 65.6506 79.2652 65.6334 78.9203 65.4437C78.7134 65.3316 78.5582 65.185 78.4633 64.9953C78.3685 64.8056 78.3254 64.6073 78.334 64.3917C78.1529 64.5987 77.9287 64.7194 77.6528 64.7625C77.3855 64.797 77.1096 64.7453 76.8251 64.5901C76.4457 64.3831 76.2043 64.09 76.1094 63.7192C76.0146 63.3398 76.0836 62.9346 76.3164 62.5121L77.42 60.4686V60.46ZM77.6356 61.7274L77.1441 62.6414C77.0234 62.857 76.9889 63.0639 77.032 63.2536C77.0751 63.4433 77.1872 63.5899 77.3683 63.6847C77.5666 63.7968 77.7563 63.814 77.9374 63.7451C78.1184 63.6761 78.265 63.5295 78.3943 63.2881L78.8772 62.4L77.6356 61.7274ZM79.5584 62.7621L79.1014 63.6071C78.9979 63.8054 78.9634 63.9779 78.9979 64.1417C79.0324 64.3055 79.1272 64.4262 79.2824 64.5038C79.4635 64.5987 79.6273 64.6159 79.7825 64.5469C79.9377 64.478 80.0757 64.34 80.1878 64.1331L80.6189 63.3312L79.5584 62.7535V62.7621Z" fill="white"/>
<path d="M72.1431 68.47L74.2729 68.8235L74.6005 68.4268L73.1606 67.237L73.7814 66.4868L77.3079 69.4012C77.3942 69.4788 77.4459 69.565 77.4545 69.6771C77.4545 69.7892 77.4286 69.884 77.3597 69.9789L76.4026 71.1343C76.0577 71.5481 75.6869 71.7809 75.2817 71.824C74.8764 71.8672 74.4884 71.7378 74.1263 71.436C73.5227 70.9446 73.3848 70.3496 73.6952 69.6598L71.4102 69.3494L72.1345 68.4613L72.1431 68.47ZM76.3595 69.8754L75.2213 68.9356L74.7126 69.5564C74.3677 69.9702 74.3936 70.341 74.7816 70.66C74.954 70.8066 75.1351 70.8583 75.3162 70.8411C75.4972 70.8152 75.6783 70.7031 75.8421 70.5048L76.3595 69.8754Z" fill="white"/>
<path d="M66.7542 73.5396L67.8578 74.2294L69.2633 73.074L68.8063 71.8496L69.6082 71.1943L71.2292 75.8332C71.324 76.1004 71.2292 76.3419 70.9619 76.5661C70.686 76.7902 70.4273 76.8333 70.1772 76.6868L65.9523 74.1949L66.7542 73.5396ZM69.5823 73.9104L68.6166 74.7036L70.2721 75.7383L69.5823 73.9104Z" fill="white"/>
<path d="M58.5543 82.6622L60.5892 81.8259L60.1409 80.7395L58.3819 81.4637L58.0629 80.6791L59.8218 79.9548L59.0199 77.9975L59.9512 77.6182L61.6929 81.8517C61.736 81.9638 61.736 82.0673 61.6929 82.1708C61.6411 82.2742 61.5635 82.3432 61.4601 82.3863L58.8906 83.4469L58.5716 82.6622H58.5543Z" fill="white"/>
<path d="M53.9845 79.7134L55.1744 84.5505L54.2 84.7919L53.0102 79.9548L53.9845 79.7134Z" fill="white"/>
<path d="M46.6383 85.8269L45.7243 85.8872L45.3966 81.1881C45.3966 81.0932 45.4311 81.007 45.526 80.9466C45.6208 80.8863 45.7329 80.8432 45.8795 80.8345C46.0347 80.8259 46.164 80.8345 46.2502 80.869C46.3365 80.9035 46.4227 80.9725 46.5089 81.0673L48.9232 84.0248L48.6904 80.6793L49.613 80.6104L49.9406 85.2147C49.9406 85.3526 49.9061 85.4561 49.8113 85.5251C49.7164 85.5941 49.5957 85.6372 49.4319 85.6458C49.2508 85.663 49.1129 85.6458 49.018 85.5941C48.9232 85.5423 48.8197 85.4389 48.6904 85.2837L46.4054 82.5159L46.6383 85.8182V85.8269Z" fill="white"/>
<path d="M38.8092 80.3427L39.0592 81.6274L40.8613 81.8775L41.4476 80.7135L42.4737 80.8601L40.1715 85.1971C40.0422 85.4471 39.7921 85.5506 39.4472 85.4989C39.0937 85.4471 38.8868 85.2833 38.8264 85.0074L37.7831 80.2134L38.8178 80.36L38.8092 80.3427ZM40.456 82.6707L39.2144 82.4983L39.5852 84.4211L40.456 82.6707Z" fill="white"/>
<path d="M30.1696 83.0675L29.3073 82.7657L30.8852 78.3252C30.9197 78.2304 30.9887 78.1786 31.1008 78.1528C31.2129 78.1269 31.3336 78.1442 31.4715 78.1873C31.6181 78.239 31.7302 78.2994 31.7992 78.3683C31.8682 78.4373 31.9199 78.5322 31.9544 78.6529L32.9891 82.326L34.11 79.1702L34.9808 79.4806L33.4374 83.8263C33.3943 83.9556 33.3167 84.0332 33.196 84.0591C33.0839 84.0849 32.946 84.0763 32.7994 84.0246C32.6269 83.9642 32.5062 83.8866 32.4459 83.809C32.3855 83.7314 32.3252 83.5849 32.2734 83.3952L31.2819 79.9462L30.1782 83.0589L30.1696 83.0675Z" fill="white"/>
<path d="M26.1257 75.4194C26.7206 75.7815 27.0914 76.273 27.238 76.8852C27.3846 77.4974 27.2552 78.1527 26.8413 78.8339C26.4275 79.515 25.9015 79.9375 25.2635 80.0927C24.6254 80.2565 23.996 80.1531 23.3752 79.7737C23.0044 79.5495 22.7199 79.265 22.5302 78.9287C22.3405 78.5924 22.2456 78.2217 22.2543 77.8423L23.1424 77.8078C23.1424 78.351 23.3665 78.7563 23.8063 79.0322C24.1943 79.265 24.5737 79.3253 24.9617 79.2132C25.3497 79.1011 25.6773 78.808 25.9619 78.351C26.2378 77.894 26.3413 77.4715 26.2637 77.0835C26.186 76.6955 25.9705 76.3851 25.6084 76.1695C25.1514 75.885 24.6254 75.8419 24.0305 76.0316L23.8149 75.1866C24.6427 74.9193 25.41 74.9969 26.1343 75.4366L26.1257 75.4194Z" fill="white"/>
<path d="M21.918 72.4709L18.6588 76.2475L17.9 75.5922L21.1506 71.8242L21.9094 72.4795L21.918 72.4709Z" fill="white"/>
<path d="M16.598 66.9698L15.9169 68.0821L17.0809 69.479L18.2966 69.0047L18.9606 69.8066L14.339 71.4707C14.0717 71.5656 13.8303 71.4707 13.5975 71.2034C13.3647 70.9275 13.3302 70.6688 13.4681 70.4188L15.9169 66.168L16.5808 66.9698H16.598ZM16.2531 69.798L15.4513 68.8409L14.4338 70.505L16.2531 69.798Z" fill="white"/>
<path d="M14.339 63.7532L10.3123 65.9261C10.2089 65.9864 10.0968 65.995 9.99331 65.9519C9.88984 65.9174 9.81224 65.8398 9.75189 65.7364L9.05348 64.443C8.82067 64.0119 8.7172 63.5722 8.73445 63.1411C8.76032 62.7013 8.88965 62.3133 9.13108 61.977C9.3725 61.6408 9.68291 61.3562 10.0795 61.1493C10.7003 60.813 11.3212 60.7268 11.9592 60.8734C12.5886 61.0286 13.0887 61.4252 13.4422 62.0891L14.339 63.7619V63.7532ZM13.1232 63.2618L12.7352 62.5375C12.5197 62.1409 12.2179 61.8994 11.804 61.8132C11.3988 61.7184 10.9763 61.7873 10.5451 62.0201C10.1399 62.2357 9.86398 62.5375 9.70877 62.9169C9.55357 63.2963 9.58806 63.6843 9.795 64.0809L10.2002 64.8397L13.1146 63.2704L13.1232 63.2618Z" fill="white"/>
<path d="M10.2175 53.9842L9.15692 54.743L9.68289 56.4847L10.9849 56.5278L11.2866 57.528L6.38053 57.2435C6.09599 57.2262 5.9063 57.0452 5.80283 56.7089C5.69936 56.364 5.75972 56.1053 5.99252 55.9415L9.91569 52.9927L10.2175 53.9929V53.9842ZM8.78616 56.4502L8.42402 55.2517L6.83751 56.3813L8.78616 56.4416V56.4502Z" fill="white"/>
<path d="M7.24278 44.4138C7.43247 44.6121 7.53594 44.8621 7.53594 45.1725C7.53594 45.4829 7.44109 45.7416 7.2514 45.9313C7.06171 46.1296 6.80304 46.2245 6.48401 46.2331C6.16498 46.2331 5.90631 46.1382 5.71662 45.9485C5.52693 45.7502 5.43208 45.5002 5.42346 45.1898C5.42346 44.8794 5.51831 44.6207 5.708 44.4224C5.89769 44.2241 6.15636 44.1206 6.47539 44.1206C6.79441 44.1206 7.05308 44.2155 7.24278 44.4138Z" fill="white"/>
<path d="M10.6486 34.7395C10.4417 35.4466 10.0536 35.9553 9.47595 36.2571C8.90687 36.5588 8.25158 36.6019 7.51006 36.3864C6.75991 36.1708 6.2167 35.7742 5.88906 35.2051C5.56141 34.6361 5.50105 33.998 5.70799 33.2823C5.91492 32.5753 6.31155 32.0666 6.88925 31.7648C7.46694 31.463 8.13949 31.4199 8.88101 31.6441C9.62253 31.8597 10.1485 32.2563 10.4761 32.8167C10.7952 33.3858 10.8555 34.0239 10.6486 34.7395ZM9.81222 34.4809C9.94156 34.0497 9.89844 33.6703 9.68289 33.3427C9.46733 33.0151 9.10519 32.7736 8.59647 32.6184C8.07051 32.4632 7.63077 32.4718 7.27725 32.6357C6.92374 32.7995 6.68231 33.1013 6.55298 33.5238C6.42364 33.9549 6.46675 34.3429 6.68231 34.6705C6.89787 34.9982 7.26001 35.2482 7.77735 35.3948C8.29469 35.5414 8.73443 35.5414 9.08794 35.369C9.44146 35.1965 9.68289 34.9033 9.81222 34.4636V34.4809Z" fill="white"/>
<path d="M12.5455 29.4623L8.51888 27.2895C8.41542 27.2291 8.34644 27.1515 8.32057 27.0394C8.2947 26.9273 8.31195 26.8238 8.36368 26.7204L9.17418 25.2115C9.38974 24.8148 9.66566 24.5475 10.0019 24.4096C10.3468 24.2716 10.6831 24.2889 11.028 24.4699C11.2349 24.582 11.3901 24.7286 11.485 24.9183C11.5798 25.108 11.6229 25.3063 11.6143 25.5219C11.7954 25.3149 12.0196 25.1942 12.2955 25.1511C12.5714 25.108 12.8387 25.1684 13.1232 25.3149C13.5026 25.5219 13.744 25.815 13.8389 26.1858C13.9337 26.5566 13.8734 26.9704 13.6406 27.3929L12.5369 29.4364L12.5455 29.4623ZM10.3986 27.1601L10.8555 26.3151C10.959 26.1168 10.9935 25.9444 10.959 25.7805C10.9245 25.6253 10.8297 25.496 10.6745 25.4184C10.502 25.3236 10.3296 25.3063 10.1744 25.3753C10.0192 25.4443 9.88121 25.5822 9.76912 25.7892L9.33801 26.591L10.3986 27.1601ZM12.3213 28.1948L12.8128 27.2808C12.9335 27.0653 12.968 26.8583 12.9249 26.6686C12.8818 26.479 12.7697 26.341 12.5886 26.2375C12.3903 26.1341 12.2006 26.1082 12.0196 26.1772C11.8385 26.2461 11.6833 26.3927 11.5626 26.6342L11.0797 27.5223L12.3213 28.1948Z" fill="white"/>
<path d="M17.8224 21.4525L15.6927 21.099L15.365 21.4956L16.8049 22.6855L16.1928 23.4356L12.6576 20.5213C12.5714 20.4437 12.5196 20.3575 12.511 20.2454C12.511 20.1333 12.5369 20.0384 12.6059 19.9436L13.5629 18.7882C13.9078 18.3743 14.2786 18.1415 14.6838 18.0984C15.0891 18.0553 15.4771 18.1846 15.8392 18.4864C16.4428 18.9779 16.5808 19.5728 16.2704 20.2626L18.5553 20.573L17.831 21.4525H17.8224ZM13.6061 20.0471L14.7442 20.9869L15.2529 20.3661C15.5978 19.9522 15.5719 19.5815 15.1839 19.2624C15.0115 19.1159 14.8304 19.0641 14.6494 19.0814C14.4683 19.0986 14.2872 19.2193 14.1234 19.4176L13.6061 20.0471Z" fill="white"/>
<path d="M23.2114 16.3737L22.1077 15.6839L20.7023 16.8393L21.1593 18.0637L20.3574 18.7276L18.7364 14.0888C18.6415 13.8215 18.7364 13.5801 19.0037 13.3473C19.2796 13.1231 19.5383 13.08 19.7883 13.2266L24.0132 15.7184L23.2114 16.3823V16.3737ZM20.3832 16.003L21.3489 15.2097L19.6935 14.175L20.3832 15.9943V16.003Z" fill="white"/>
<path d="M31.4026 7.24264L29.3677 8.07901L29.8161 9.16542L31.575 8.44115L31.894 9.22578L30.1351 9.95006L30.9456 11.9073L30.0144 12.2867L28.2727 8.05314C28.2295 7.94105 28.2295 7.83758 28.2727 7.73411C28.3244 7.63065 28.402 7.56167 28.5055 7.51856L31.0749 6.45801L31.3939 7.24264H31.4026Z" fill="white"/>
<path d="M35.9724 10.1914L34.7825 5.35422L35.7569 5.11279L36.9467 9.94993L35.9724 10.1914Z" fill="white"/>
<path d="M43.3186 4.06963L44.2326 4.00928L44.5603 8.70845C44.5603 8.8033 44.5258 8.88952 44.4309 8.94988C44.3361 9.01024 44.224 9.05335 44.0774 9.06197C43.9222 9.07059 43.7929 9.06197 43.7066 9.02748C43.6204 8.99299 43.5342 8.92401 43.4566 8.82917L41.0337 5.8717L41.2665 9.21717L40.3439 9.28615L40.0163 4.68182C40.0077 4.54386 40.0508 4.44902 40.137 4.37142C40.2232 4.29381 40.3526 4.25933 40.5164 4.2507C40.6974 4.23346 40.844 4.2507 40.9302 4.30244C41.0165 4.35417 41.1286 4.45764 41.2579 4.61284L43.5428 7.37199L43.31 4.06963H43.3186Z" fill="white"/>
<path d="M51.1391 9.55326L50.8891 8.27715L49.087 8.0271L48.5007 9.19112L47.4746 9.05316L49.7768 4.71612C49.9061 4.46607 50.1475 4.36261 50.501 4.41434C50.8546 4.46607 51.0615 4.6299 51.1219 4.90581L52.1652 9.69984L51.1305 9.56188L51.1391 9.55326ZM49.4836 7.22522L50.7166 7.39767L50.3458 5.48351L49.4836 7.23385V7.22522Z" fill="white"/>
<path d="M59.7787 6.81136L60.641 7.11314L59.0717 11.5536C59.0372 11.6485 58.9682 11.7002 58.8561 11.7261C58.744 11.752 58.6233 11.7347 58.4854 11.6916C58.3388 11.6399 58.2267 11.5795 58.1577 11.5105C58.0887 11.4416 58.037 11.3467 58.0025 11.226L56.9592 7.55288L55.8469 10.7087L54.9761 10.3983L56.5109 6.05259C56.554 5.92326 56.6316 5.84566 56.7523 5.81979C56.8644 5.79392 57.0023 5.80254 57.1489 5.85428C57.3214 5.91463 57.4421 5.99224 57.5024 6.06984C57.5628 6.14744 57.6231 6.29402 57.6749 6.48371L58.6664 9.93265L59.7701 6.81136H59.7787Z" fill="white"/>
<path d="M63.8312 14.4684C63.2363 14.1063 62.8655 13.6234 62.7189 13.0026C62.5637 12.3904 62.7017 11.7351 63.1156 11.054C63.5294 10.3728 64.0554 9.95031 64.6934 9.78649C65.3315 9.62266 65.9609 9.72613 66.5817 10.1055C66.9525 10.3297 67.2284 10.6142 67.4267 10.9505C67.625 11.2868 67.7113 11.6489 67.7113 12.0369L66.8232 12.0714C66.8232 11.5282 66.599 11.1229 66.1592 10.847C65.7712 10.6142 65.3919 10.5539 65.0039 10.6746C64.6158 10.7953 64.2882 11.0798 64.0037 11.5454C63.7277 12.0024 63.6243 12.4249 63.7019 12.8129C63.7795 13.2009 63.995 13.5113 64.3572 13.7269C64.8228 14.0114 65.3401 14.0545 65.9351 13.8649L66.1506 14.7098C65.3229 14.9858 64.5555 14.8995 63.8312 14.4598V14.4684Z" fill="white"/>
<path d="M68.0648 17.4257L71.324 13.6577L72.0828 14.313L68.8236 18.0896L68.0648 17.4343V17.4257Z" fill="white"/>
<path d="M73.3675 22.9093L74.0487 21.797L72.8847 20.4002L71.6689 20.8744L71.005 20.0725L75.6266 18.4084C75.8939 18.3136 76.1353 18.4084 76.3681 18.6757C76.6009 18.9516 76.644 19.2103 76.4974 19.4603L74.0487 23.7111L73.3848 22.9179L73.3675 22.9093ZM73.7124 20.0725L74.5143 21.0296L75.5317 19.3655L73.7124 20.0725Z" fill="white"/>
<path d="M75.6266 26.1255L79.6532 23.9527C79.7567 23.8924 79.8687 23.8837 79.9722 23.9268C80.0757 23.9613 80.1619 24.0389 80.2136 24.1424L80.912 25.4358C81.1449 25.8669 81.2483 26.3066 81.2311 26.7377C81.2052 27.1775 81.0759 27.5655 80.8345 27.9017C80.593 28.238 80.2826 28.5139 79.886 28.7295C79.2652 29.0658 78.6444 29.152 78.0063 29.0054C77.3683 28.8588 76.8768 28.4536 76.5233 27.7897L75.6266 26.1169V26.1255ZM76.8423 26.6084L77.2303 27.3327C77.4459 27.7293 77.7563 27.9707 78.1615 28.0656C78.5668 28.1604 78.9893 28.0914 79.4204 27.8586C79.8256 27.6431 80.1016 27.3413 80.2568 26.9619C80.412 26.5825 80.3775 26.1945 80.1705 25.7979L79.7653 25.0391L76.8509 26.6084H76.8423Z" fill="white"/>
<path d="M79.7567 35.8861L80.8172 35.1273L80.2913 33.3856L78.9893 33.3425L78.6875 32.3423L83.5936 32.6268C83.8781 32.6441 84.0678 32.8251 84.1713 33.1614C84.2748 33.5063 84.2144 33.765 83.9816 33.9374L80.0584 36.8863L79.7567 35.8861ZM81.1794 33.4115L81.5415 34.61L83.128 33.4718L81.1794 33.4115Z" fill="white"/>
<path d="M82.74 45.457C82.5503 45.2587 82.4468 45.0086 82.4468 44.6982C82.4468 44.3878 82.5417 44.1292 82.7314 43.9395C82.9211 43.7412 83.1797 43.6463 83.4988 43.6377C83.8178 43.6377 84.0765 43.7325 84.2662 43.9222C84.4558 44.1119 84.5593 44.3706 84.5593 44.681C84.5593 44.9914 84.4645 45.2501 84.2748 45.4484C84.0851 45.6467 83.8264 45.7502 83.5074 45.7502C83.1884 45.7502 82.9297 45.6553 82.74 45.457Z" fill="white"/>
<path d="M52.6394 29.2813L55.2692 31.0833L57.8473 29.3589V25.8237L52.6394 29.2813ZM37.421 48.0262L34.7998 46.2414L32.1441 48.0348L32.17 51.501L37.421 48.0262ZM47.3884 32.7302L49.9579 34.4547L37.74 42.7149L45.2932 47.8107L48.837 45.4137L46.0864 43.5857L52.4411 39.3263L57.7611 42.8528L44.9138 51.4148L32.239 42.9132L47.397 32.7302H47.3884ZM42.5771 44.448L40.0077 42.7149L52.2255 34.4547L44.6724 29.3589L41.1286 31.7559L43.8791 33.5752L37.5244 37.8346L32.2045 34.3081L45.0086 25.7461L57.718 34.2908L42.5771 44.4393V44.448Z" fill="#007BC2"/>
<path d="M21.3748 59.9168C21.599 59.9168 21.78 59.8737 21.9008 59.7788C22.0215 59.684 22.0904 59.5546 22.0904 59.3908C22.0904 59.0373 21.8576 58.77 21.3834 58.5889C21.0989 58.6665 20.7281 58.7528 20.2711 58.8217V59.9082H21.3748V59.9168ZM20.2711 58.0285C20.6591 57.9768 20.9609 57.9164 21.1851 57.8474C21.4093 57.7784 21.5731 57.7008 21.6766 57.6146C21.78 57.5198 21.8318 57.4077 21.8318 57.2697C21.8318 57.0973 21.7628 56.9593 21.6335 56.8731C21.4955 56.7869 21.3058 56.7351 21.0558 56.7351H20.2798V58.0285H20.2711ZM19.3313 60.7445V55.916H21.0644C21.599 55.916 22.0215 56.0281 22.3405 56.2523C22.6509 56.4765 22.8061 56.7955 22.8061 57.218C22.8061 57.6405 22.6337 57.9509 22.2801 58.1923C22.8406 58.4855 23.1165 58.8993 23.1165 59.4339C23.1165 59.684 23.0475 59.9168 22.9182 60.1151C22.7802 60.3134 22.5905 60.4686 22.3405 60.5807C22.0904 60.6928 21.7973 60.7445 21.4696 60.7445H19.3313Z" fill="#007BC2"/>
<path d="M25.5221 59.8045C25.6946 59.6407 25.7808 59.4338 25.7808 59.1665V59.0371C25.3411 59.1492 25.0221 59.2613 24.8151 59.3562C24.6082 59.4596 24.5133 59.5804 24.5133 59.7269C24.5133 59.8218 24.5478 59.8908 24.6168 59.9511C24.6858 60.0115 24.7806 60.0373 24.8927 60.0373C25.1341 60.0373 25.3497 59.9597 25.5221 59.7959M26.2895 57.3989C26.5741 57.6662 26.7207 58.0542 26.7207 58.5371V60.7444H25.8153V60.2357C25.7032 60.4081 25.5394 60.5461 25.3497 60.6495C25.1514 60.753 24.9272 60.8047 24.6858 60.8047C24.3495 60.8047 24.0908 60.7185 23.8925 60.5461C23.6942 60.3736 23.5994 60.1408 23.5994 59.8563C23.5994 59.589 23.6683 59.3648 23.7977 59.1924C23.9356 59.0199 24.1512 58.8647 24.4616 58.744C24.772 58.6147 25.2117 58.4853 25.7894 58.356C25.7722 58.2094 25.7118 58.0887 25.5911 58.0025C25.4704 57.9162 25.3066 57.8731 25.0824 57.8731C24.7375 57.8731 24.3581 57.9766 23.9443 58.1922L23.7201 57.3817C23.927 57.2609 24.1512 57.1661 24.3926 57.0971C24.634 57.0281 24.8755 56.9937 25.0997 56.9937C25.617 56.9937 26.0136 57.1316 26.2982 57.3989" fill="#007BC2"/>
<path d="M27.5656 60.7532V57.0628H28.4882V57.6319C28.5917 57.4422 28.7469 57.287 28.9452 57.1749C29.1435 57.0628 29.3677 57.0024 29.6178 57.0024C30.0747 57.0024 30.4283 57.1663 30.6783 57.5025C30.9284 57.8302 31.0491 58.2785 31.0491 58.839V60.7618H30.0316V58.8994C30.0316 58.2785 29.8075 57.9595 29.3505 57.9595C29.1177 57.9595 28.928 58.0371 28.79 58.1923C28.6521 58.3475 28.5831 58.5631 28.5831 58.839V60.7618H27.5656V60.7532Z" fill="#007BC2"/>
<path d="M32.6011 60.5718C32.3165 60.4166 32.101 60.1924 31.9458 59.8992C31.7906 59.6061 31.7043 59.2784 31.7043 58.899C31.7043 58.5455 31.7906 58.2265 31.9544 57.942C32.1182 57.6488 32.351 57.4246 32.6356 57.2608C32.9201 57.097 33.2305 57.0107 33.5754 57.0107C33.7737 57.0107 33.9548 57.0366 34.1272 57.0797C34.2997 57.1314 34.4721 57.2091 34.6359 57.3125L34.3945 58.1575C34.1703 58.0109 33.9117 57.9333 33.6357 57.9333C33.3685 57.9333 33.1529 58.0196 32.9891 58.2006C32.8166 58.3817 32.739 58.6145 32.739 58.9077C32.739 59.2008 32.8252 59.4509 32.9891 59.6319C33.1529 59.813 33.3685 59.8992 33.6271 59.8992C33.791 59.8992 33.9289 59.882 34.0582 59.8389C34.179 59.8044 34.3083 59.744 34.4376 59.6664L34.6877 60.5028C34.5239 60.6063 34.3514 60.6925 34.179 60.7442C34.0065 60.7959 33.7996 60.8218 33.5581 60.8218C33.2133 60.8218 32.9029 60.7442 32.6183 60.5804" fill="#007BC2"/>
<path d="M37.6365 59.6064C37.8004 59.4167 37.8866 59.1839 37.8866 58.8994C37.8866 58.6148 37.8004 58.382 37.6365 58.2009C37.4727 58.0199 37.2571 57.925 37.0071 57.925C36.757 57.925 36.5415 58.0199 36.3777 58.2009C36.2138 58.3906 36.1276 58.6234 36.1276 58.8994C36.1276 59.1753 36.2052 59.4167 36.3777 59.6064C36.5415 59.7875 36.7484 59.8823 37.0157 59.8823C37.283 59.8823 37.4899 59.7875 37.6538 59.6064M36.0586 60.5548C35.7655 60.3824 35.5413 60.1582 35.3689 59.8651C35.1964 59.5719 35.1188 59.2529 35.1188 58.8994C35.1188 58.5458 35.205 58.2354 35.3689 57.9423C35.5413 57.6491 35.7655 57.4249 36.0586 57.2525C36.3518 57.08 36.6708 57.0024 37.0157 57.0024C37.3606 57.0024 37.6796 57.0887 37.9728 57.2525C38.266 57.4249 38.4901 57.6491 38.6626 57.9423C38.8264 58.2354 38.9126 58.5545 38.9126 58.8994C38.9126 59.2442 38.8264 59.5719 38.6626 59.8651C38.4901 60.1582 38.266 60.3824 37.9728 60.5548C37.6796 60.7273 37.3606 60.8049 37.0157 60.8049C36.6708 60.8049 36.3432 60.7187 36.0586 60.5548Z" fill="#007BC2"/>
<path d="M43.6291 59.6495C43.8015 59.4857 43.8877 59.2615 43.8877 58.9683V58.8562C43.8877 58.5631 43.8015 58.3389 43.6291 58.1664C43.4566 58.0026 43.2497 57.9164 42.9996 57.9164C42.7496 57.9164 42.5599 58.0026 42.3874 58.1923C42.2236 58.3734 42.1374 58.6148 42.1374 58.9166C42.1374 59.2184 42.215 59.4598 42.3874 59.6409C42.5513 59.8133 42.7496 59.9082 42.991 59.9082C43.241 59.9082 43.4566 59.8306 43.6291 59.6581M41.9132 60.5807C41.6632 60.4255 41.4648 60.2099 41.3269 59.9254C41.1889 59.6409 41.1113 59.3132 41.1113 58.9425C41.1113 58.5717 41.1803 58.244 41.3355 57.9509C41.4821 57.6577 41.689 57.4249 41.9477 57.2611C42.2064 57.0973 42.4995 57.0111 42.8272 57.0111C43.0427 57.0111 43.241 57.0542 43.4221 57.1404C43.6032 57.2266 43.7584 57.3387 43.8791 57.4767V55.5625H44.8965V60.7618H43.9739V60.1841C43.8532 60.3738 43.6894 60.529 43.4738 60.6497C43.2669 60.7704 43.0255 60.8221 42.7668 60.8221C42.4392 60.8221 42.1546 60.7445 41.9046 60.5893" fill="#007BC2"/>
<path d="M48.173 59.6064C48.3369 59.4167 48.4231 59.1839 48.4231 58.8994C48.4231 58.6148 48.3369 58.382 48.173 58.2009C48.0092 58.0199 47.7936 57.925 47.5436 57.925C47.2935 57.925 47.078 58.0199 46.9142 58.2009C46.7503 58.3906 46.6641 58.6234 46.6641 58.8994C46.6641 59.1753 46.7417 59.4167 46.9142 59.6064C47.078 59.7875 47.2849 59.8823 47.5522 59.8823C47.8195 59.8823 48.0264 59.7875 48.1903 59.6064M46.5951 60.5548C46.302 60.3824 46.0778 60.1582 45.9054 59.8651C45.7329 59.5719 45.6553 59.2529 45.6553 58.8994C45.6553 58.5458 45.7415 58.2354 45.9054 57.9423C46.0778 57.6491 46.302 57.4249 46.5951 57.2525C46.8883 57.08 47.2073 57.0024 47.5522 57.0024C47.8971 57.0024 48.2161 57.0887 48.5093 57.2525C48.8025 57.4249 49.0266 57.6491 49.1991 57.9423C49.3629 58.2354 49.4491 58.5545 49.4491 58.8994C49.4491 59.2442 49.3629 59.5719 49.1991 59.8651C49.0266 60.1582 48.8025 60.3824 48.5093 60.5548C48.2161 60.7273 47.8971 60.8049 47.5522 60.8049C47.2073 60.8049 46.8797 60.7187 46.5951 60.5548Z" fill="#007BC2"/>
<path d="M53.9241 59.9168C54.1483 59.9168 54.3294 59.8737 54.4501 59.7788C54.5708 59.684 54.6398 59.5546 54.6398 59.3908C54.6398 59.0373 54.407 58.77 53.9328 58.5889C53.6482 58.6665 53.2775 58.7528 52.8205 58.8217V59.9082H53.9241V59.9168ZM52.8205 58.0285C53.2085 57.9768 53.5103 57.9164 53.7345 57.8474C53.9586 57.7784 54.1225 57.7008 54.2259 57.6146C54.3294 57.5198 54.3811 57.4077 54.3811 57.2697C54.3811 57.0973 54.3121 56.9593 54.1828 56.8731C54.0449 56.7869 53.8552 56.7351 53.6051 56.7351H52.8291V58.0285H52.8205ZM51.8806 60.7445V55.916H53.6137C54.1483 55.916 54.5708 56.0281 54.8898 56.2523C55.2002 56.4765 55.3554 56.7955 55.3554 57.218C55.3554 57.6405 55.183 57.9509 54.8295 58.1923C55.3899 58.4855 55.6659 58.8993 55.6659 59.4339C55.6659 59.684 55.5969 59.9168 55.4675 60.1151C55.3296 60.3134 55.1399 60.4686 54.8898 60.5807C54.6398 60.6928 54.3466 60.7445 54.019 60.7445H51.8806Z" fill="#007BC2"/>
<path d="M56.3557 60.753V57.0626H57.2782V57.6231C57.3817 57.442 57.5369 57.2868 57.7352 57.1834C57.9422 57.0799 58.1663 57.0195 58.4164 57.0195C58.5543 57.0195 58.6923 57.0282 58.8216 57.0626L58.6578 58.0284C58.5285 57.9939 58.3819 57.9766 58.2181 57.9766C57.9766 57.9766 57.7697 58.0542 57.6145 58.2094C57.4593 58.3646 57.3817 58.5802 57.3817 58.8733V60.753H56.3643H56.3557Z" fill="#007BC2"/>
<path d="M61.1583 59.8045C61.3307 59.6407 61.417 59.4338 61.417 59.1665V59.0371C60.9772 59.1492 60.6582 59.2613 60.4513 59.3562C60.2443 59.4596 60.1495 59.5804 60.1495 59.7269C60.1495 59.8218 60.184 59.8908 60.2529 59.9511C60.3219 60.0115 60.4168 60.0373 60.5289 60.0373C60.7703 60.0373 60.9858 59.9597 61.1583 59.7959M61.9257 57.3989C62.2102 57.6662 62.3568 58.0542 62.3568 58.5371V60.7444H61.4514V60.2357C61.3394 60.4081 61.1755 60.5461 60.9858 60.6495C60.7875 60.753 60.5633 60.8047 60.3219 60.8047C59.9856 60.8047 59.727 60.7185 59.5287 60.5461C59.3304 60.3736 59.2355 60.1408 59.2355 59.8563C59.2355 59.589 59.3045 59.3648 59.4338 59.1924C59.5718 59.0199 59.7873 58.8647 60.0977 58.744C60.4081 58.6147 60.8479 58.4853 61.4256 58.356C61.4083 58.2094 61.348 58.0887 61.2273 58.0025C61.1066 57.9162 60.9427 57.8731 60.7185 57.8731C60.3737 57.8731 59.9943 57.9766 59.5804 58.1922L59.3562 57.3817C59.5632 57.2609 59.7873 57.1661 60.0288 57.0971C60.2702 57.0281 60.5116 56.9937 60.7358 56.9937C61.2531 56.9937 61.6498 57.1316 61.9343 57.3989" fill="#007BC2"/>
<path d="M63.6415 60.6928C63.3656 60.6152 63.15 60.529 62.9862 60.4341L63.2449 59.6409C63.3915 59.7271 63.5811 59.7961 63.7967 59.8651C64.0209 59.934 64.2364 59.9685 64.4606 59.9685C64.7797 59.9685 64.9349 59.8823 64.9349 59.7099C64.9349 59.615 64.8831 59.5374 64.7796 59.4771C64.6762 59.4167 64.4865 59.3477 64.202 59.2615C63.8484 59.158 63.5898 59.0114 63.4087 58.839C63.2363 58.6666 63.1414 58.4251 63.1414 58.1147C63.1414 57.7785 63.2707 57.5112 63.538 57.3042C63.7967 57.0973 64.133 57.0024 64.5382 57.0024C64.7538 57.0024 64.978 57.0369 65.1935 57.0973C65.4177 57.1576 65.616 57.2439 65.7798 57.356L65.5298 58.1061C65.3832 58.0199 65.228 57.9595 65.0469 57.9078C64.8659 57.8561 64.6934 57.8388 64.5382 57.8388C64.4003 57.8388 64.2968 57.8647 64.2192 57.9078C64.1416 57.9509 64.0985 58.0199 64.0985 58.1147C64.0985 58.1837 64.1416 58.2527 64.2192 58.3044C64.2968 58.3562 64.4348 58.4165 64.6331 58.4941C64.9349 58.5976 65.1763 58.701 65.3574 58.7959C65.5298 58.8907 65.6678 59.0114 65.754 59.158C65.8402 59.3046 65.8919 59.4857 65.8919 59.7099C65.8919 60.0547 65.7626 60.3307 65.4953 60.529C65.228 60.7273 64.8745 60.8221 64.4261 60.8221C64.1761 60.8221 63.9174 60.779 63.6415 60.7101" fill="#007BC2"/>
<path d="M67.6509 60.7529H66.6335V57.0626H67.6509V60.7529ZM66.7111 56.4763C66.599 56.3642 66.5386 56.2262 66.5386 56.071C66.5386 55.9158 66.599 55.7606 66.7111 55.6485C66.8232 55.5364 66.9698 55.4761 67.1422 55.4761C67.3146 55.4761 67.4612 55.5278 67.5819 55.6399C67.694 55.7434 67.7544 55.8813 67.7544 56.0452C67.7544 56.2176 67.694 56.3556 67.5819 56.4763C67.4698 56.5884 67.3233 56.6487 67.1422 56.6487C66.9611 56.6487 66.8318 56.5884 66.7111 56.4849" fill="#007BC2"/>
<path d="M68.8925 60.4167C68.6683 60.158 68.5562 59.7787 68.5562 59.2958V55.5537H69.5737V59.2958C69.5737 59.4855 69.6082 59.6321 69.6858 59.7355C69.7547 59.839 69.8668 59.8907 69.9962 59.8907C70.0738 59.8907 70.1428 59.8907 70.2117 59.8649C70.2807 59.839 70.3411 59.8218 70.4187 59.7873L70.6773 60.5892C70.4445 60.7444 70.1686 60.822 69.8582 60.822C69.4443 60.822 69.1253 60.6926 68.9011 60.434" fill="#007BC2"/>
</g>
<defs>
<clipPath id="clip0_610_6312">
<rect width="90" height="90" fill="white"/>
</clipPath>
</defs>
</svg>
