<svg width="284" height="150" viewBox="0 0 284 150" fill="none" xmlns="http://www.w3.org/2000/svg">
<path d="M94.7362 121.547H93.7763C91.8722 121.526 88.3405 121.464 88.3405 121.464C81.637 121.464 81.5065 116.98 81.5065 116.98V70.5241C81.5065 62.7988 79.2112 57.1197 74.6935 53.6434C70.1184 50.0992 64.0722 48.2984 56.7217 48.2984C52.1675 48.2984 48.1924 49.003 44.9423 50.3915C41.6506 51.7799 38.8335 53.4764 36.559 55.4285C34.2845 57.3546 32.4638 59.4269 31.1336 61.5774C29.8085 63.754 28.833 65.5966 28.2957 67.0268L28.087 67.5645L26.3498 73.0348L26.3081 2.93872C26.3081 0.866479 25.3534 0.182691 24.4874 0.020879H24.4666C24.3622 0 24.2788 0 24.1744 0C23.924 0 23.6997 0.041758 23.5119 0.083516C23.3867 0.125274 23.2824 0.167032 23.225 0.20879C20.4497 1.76428 16.9492 4.228 13.2245 6.15409C9.08758 8.29941 4.67943 10.4343 0.641661 12.0524L0.683394 12.423C11.1378 8.92056 13.2297 6.08623 13.2297 22.9043V116.985C13.2297 116.985 13.0993 121.469 6.39574 121.469C6.39574 121.469 2.864 121.526 0.959882 121.552H0V122.304H39.5847V121.552H38.6196C36.7155 121.531 33.1838 121.469 33.1838 121.469C27.0697 121.469 26.4281 117.747 26.3602 117.095V81.8614C26.3602 77.2001 27.0854 72.8312 28.5565 68.8537C30.0068 64.8972 32.0517 61.3947 34.6392 58.456C37.2059 55.5121 40.2472 53.1945 43.6642 51.5607C47.0812 49.9008 50.7277 49.0761 54.4942 49.0761C59.2154 49.0761 62.7732 50.6316 65.0529 53.6956C67.27 56.7022 68.3864 60.5752 68.3864 65.1947V117.006C68.3812 117.136 68.1569 121.479 61.5525 121.479C61.5525 121.479 58.0207 121.537 56.1166 121.563H55.1567V122.32H68.3864V122.309H94.7414V121.568L94.7362 121.547Z" fill="white"/>
<path d="M169.044 121.531C166.592 121.516 160.561 121.453 160.561 121.453C154.092 121.453 153.962 116.959 153.962 116.959L153.946 98.4602C154.025 84.466 142.256 83.4847 135.286 84.1267C145.234 82.1067 153.967 78.3902 153.967 66.4161C153.967 61.3999 151.688 56.6813 147.551 53.1423C143.294 49.4049 136.361 47.2648 128.53 47.2648C122.458 47.2648 116.203 49.4049 112.186 52.8448C108.19 56.2637 105.89 60.3038 105.89 63.9211C105.89 66.4005 106.771 68.598 108.368 70.1013C109.865 71.5419 111.962 72.2622 114.242 72.1213C117.878 71.923 120.455 69.4801 120.658 66.0821C120.716 65.2834 120.637 62.4856 117.523 60.6431C115.363 59.3642 114.487 58.6439 114.487 56.8066C114.487 50.689 121.54 47.6929 128.536 47.6929C135.531 47.6929 141.823 49.3319 141.823 66.1447C141.823 72.0639 139.965 76.96 136.569 80.3581C133.632 82.6548 130.017 84.2364 126.178 85.5361C123.501 86.413 120.721 87.196 117.966 87.9946C113.209 89.3361 108.514 90.7349 104.601 92.9533C96.2073 97.0143 93.0095 109.265 100.193 116.635C107.496 123.76 121.352 123.656 130.163 119.115C132.281 118.154 134.097 116.714 135.636 114.819C140.43 108.9 141.223 100.454 141.124 94.4984H141.562L141.744 104.854C141.671 119.997 153.972 122.278 153.972 122.278H169.049V121.552L169.044 121.531ZM134.994 114.302C134.034 115.482 132.954 116.5 131.739 117.303C130.08 118.441 127.701 119.303 125.343 119.684C125.046 119.746 124.764 119.783 124.466 119.825C119.511 120.425 114.096 119.146 111.717 115.064C108.639 109.829 108.451 102.38 111.148 96.9621C111.148 96.9412 111.148 96.9203 111.169 96.9047C111.487 96.247 111.868 95.6467 112.27 95.0882C112.39 94.8899 112.531 94.6863 112.671 94.4879C112.969 94.086 113.292 93.7311 113.61 93.3866C115.89 90.9281 118.446 89.6492 118.446 89.6492C124.66 86.1311 128.697 85.1707 130.894 84.9723L130.972 84.9515H131.154C131.332 84.9306 131.514 84.9306 131.671 84.9306C132.109 84.9306 132.532 84.9515 132.928 84.988C135.808 85.2281 137.743 86.2877 139 87.5874C139.579 88.2451 140.56 89.785 140.56 92.5044C140.701 98.1835 140.127 107.95 134.994 114.307V114.302Z" fill="white"/>
<path d="M136.762 76.9652C136.903 76.9861 137.023 77.0227 137.164 77.0644C137.107 77.0435 137.044 77.0227 136.987 77.007C136.929 76.9861 136.846 76.9652 136.768 76.9652H136.762Z" fill="white"/>
<path d="M249.178 76.9652C249.319 76.9861 249.439 77.0227 249.58 77.0644C249.522 77.0435 249.46 77.0227 249.402 77.007C249.345 76.9861 249.262 76.9652 249.183 76.9652H249.178Z" fill="white"/>
<path d="M282.357 121.537C281.219 121.537 272.982 121.453 272.982 121.453C266.513 121.453 266.383 116.959 266.383 116.959L266.367 98.4602C266.446 84.466 254.677 83.4847 247.707 84.1267C257.655 82.1067 266.388 78.3902 266.388 66.4161C266.388 61.3999 264.109 56.6813 259.977 53.1423C255.72 49.4049 248.787 47.2648 240.957 47.2648C234.884 47.2648 228.629 49.4049 224.612 52.8448C220.616 56.2637 218.316 60.3038 218.316 63.9211C218.316 66.4005 219.197 68.598 220.794 70.1013C222.291 71.5419 224.388 72.2622 226.668 72.1213C230.304 71.923 232.881 69.4801 233.079 66.0821C233.137 65.2834 233.058 62.4856 229.944 60.6431C227.784 59.3642 226.908 58.6439 226.908 56.8066C226.908 50.689 233.961 47.6929 240.957 47.6929C247.952 47.6929 254.244 49.3319 254.244 66.1447C254.244 72.0639 252.386 76.96 248.99 80.3581C246.053 82.6548 242.438 84.2364 238.599 85.5361C235.922 86.413 233.142 87.196 230.387 87.9946C225.63 89.3361 220.935 90.7349 217.022 92.9533C208.628 97.0143 205.43 109.265 212.614 116.635C219.917 123.76 233.773 123.656 242.584 119.115C244.702 118.154 246.518 116.714 248.057 114.819C252.851 108.9 253.644 100.454 253.545 94.4984H253.983L254.16 104.854C254.087 119.997 266.388 122.278 266.388 122.278H282.357V121.537ZM247.415 114.302C246.455 115.482 245.375 116.5 244.16 117.303C242.501 118.441 240.122 119.303 237.764 119.684C237.467 119.746 237.185 119.783 236.887 119.825C231.932 120.425 226.517 119.146 224.138 115.064C221.06 109.829 220.872 102.38 223.569 96.9621C223.569 96.9412 223.569 96.9203 223.59 96.9047C223.908 96.247 224.289 95.6467 224.691 95.0882C224.811 94.8899 224.952 94.6863 225.092 94.4879C225.395 94.086 225.713 93.7311 226.031 93.3866C228.311 90.9281 230.867 89.6492 230.867 89.6492C237.081 86.1311 241.118 85.1707 243.315 84.9723L243.393 84.9515H243.57C243.748 84.9306 243.93 84.9306 244.087 84.9306C244.525 84.9306 244.947 84.9515 245.344 84.988C248.223 85.2281 250.159 86.2877 251.416 87.5874C251.995 88.2451 252.976 89.785 252.976 92.5044C253.117 98.1835 252.543 107.95 247.41 114.307L247.415 114.302Z" fill="white"/>
<path d="M188.304 17.5958C190.62 17.5958 192.535 16.8024 194.162 15.1738C195.79 13.5453 196.583 11.6296 196.583 9.31204C196.583 6.99447 195.79 5.08404 194.162 3.45548C192.529 1.82691 190.615 1.03351 188.304 1.03351C185.993 1.03351 184.073 1.82691 182.445 3.45548C180.818 5.08404 180.025 6.99969 180.025 9.31204C180.025 11.6244 180.818 13.5505 182.445 15.1738C184.068 16.8024 185.988 17.5958 188.304 17.5958Z" fill="white"/>
<path d="M208.628 121.511C207.449 121.511 202.233 121.422 202.233 121.422C195.529 121.422 195.399 116.938 195.399 116.938V67.862L195.357 51.2475C195.357 49.1753 194.402 48.4915 193.536 48.3245H193.515C193.166 48.2827 192.811 48.3245 192.566 48.3871C192.441 48.4289 192.336 48.4706 192.274 48.5124C189.499 50.0679 185.998 52.5316 182.273 54.4577C178.131 56.6134 173.723 58.7483 169.685 60.3612L169.727 60.7318C180.181 57.2294 182.273 54.395 182.273 71.2131V116.933C182.273 116.933 182.143 121.417 175.439 121.417C175.439 121.417 170.223 121.505 169.044 121.505V121.526C169.456 121.526 169.774 121.526 169.936 121.526V122.247H208.628V121.5V121.511Z" fill="white"/>
<path d="M42.72 137.734C40.9776 137.734 39.543 138.308 38.4162 139.451C37.2893 140.594 36.7259 142.066 36.7259 143.862C36.7259 145.657 37.2893 147.129 38.4162 148.272C39.543 149.415 40.9776 149.99 42.72 149.99C44.4624 149.99 45.897 149.415 47.0238 148.272C48.1506 147.129 48.714 145.657 48.714 143.862C48.714 142.066 48.1506 140.599 47.0238 139.451C45.897 138.308 44.4624 137.734 42.72 137.734ZM45.9752 147.354C45.1406 148.23 44.0555 148.674 42.72 148.674C41.3845 148.674 40.2994 148.236 39.4647 147.354C38.6301 146.477 38.2127 145.313 38.2127 143.862C38.2127 142.41 38.6301 141.246 39.4647 140.364C40.2994 139.477 41.3845 139.039 42.72 139.039C44.0555 139.039 45.1406 139.482 45.9752 140.364C46.8099 141.252 47.2273 142.416 47.2273 143.862C47.2273 145.307 46.8099 146.471 45.9752 147.354Z" fill="white"/>
<path d="M8.64937 143.689C9.20757 143.454 9.62491 143.115 9.91183 142.677C10.1988 142.238 10.3396 141.711 10.3396 141.09C10.3396 140.114 9.97965 139.336 9.26495 138.767C8.54504 138.198 7.56951 137.911 6.33314 137.911H1.79978V149.796H6.64093C7.89295 149.796 8.87891 149.504 9.60926 148.925C10.3396 148.345 10.7048 147.547 10.7048 146.529C10.7048 145.824 10.5326 145.234 10.1831 144.754C9.83879 144.279 9.32234 143.924 8.64416 143.689H8.64937ZM3.22917 139.159H6.27054C7.12608 139.159 7.77296 139.331 8.21117 139.681C8.64937 140.025 8.86848 140.526 8.86848 141.184C8.86848 141.842 8.64937 142.317 8.21117 142.651C7.77296 142.985 7.12608 143.152 6.27054 143.152H3.22917V139.159ZM8.56591 148.016C8.11205 148.377 7.45474 148.554 6.58876 148.554H3.22917V144.357H6.58876C7.45474 144.357 8.11205 144.535 8.56591 144.885C9.01455 145.24 9.24408 145.756 9.24408 146.435C9.24408 147.113 9.01976 147.656 8.56591 148.011V148.016Z" fill="white"/>
<path d="M277.187 137.916L271.881 149.802H273.405L274.871 146.44H280.938L282.425 149.802H284L278.695 137.916H277.187ZM275.424 145.156L277.912 139.514L280.38 145.156H275.424Z" fill="white"/>
<path d="M238.604 139.237H243.095V149.802H244.525V139.237H249.016V137.916H238.604V139.237Z" fill="white"/>
<path d="M143.742 148.204L139.308 137.916H137.712L142.944 149.802H144.468L149.7 137.916H148.177L143.742 148.204Z" fill="white"/>
<path d="M177.218 137.916H175.789V149.802H177.218V137.916Z" fill="white"/>
<path d="M78.9973 137.916L73.6918 149.802H75.2151L76.681 146.44H82.7481L84.2349 149.802H85.8104L80.5049 137.916H78.9973ZM77.234 145.156L79.7224 139.514L82.1899 145.156H77.234Z" fill="white"/>
<path d="M209.599 143.267L208.524 143.12C207.507 142.985 206.766 142.745 206.296 142.405C205.827 142.066 205.592 141.596 205.592 141.001C205.592 140.37 205.832 139.879 206.317 139.534C206.802 139.19 207.481 139.012 208.357 139.012C209.322 139.012 210.068 139.221 210.595 139.634C211.122 140.046 211.44 140.678 211.55 141.518H213.016C212.917 140.317 212.457 139.388 211.633 138.725C210.809 138.062 209.713 137.734 208.341 137.734C207.053 137.734 206.03 138.031 205.269 138.631C204.507 139.232 204.126 140.041 204.126 141.053C204.126 141.993 204.465 142.76 205.138 143.355C205.811 143.95 206.787 144.331 208.06 144.509L209.134 144.655C210.073 144.791 210.757 145.01 211.185 145.313C211.612 145.615 211.826 146.059 211.826 146.638C211.826 147.296 211.565 147.802 211.049 148.163C210.527 148.523 209.818 148.7 208.915 148.7C207.914 148.7 207.1 148.46 206.474 147.975C205.848 147.495 205.504 146.852 205.446 146.064H203.959C204.012 147.239 204.481 148.189 205.378 148.914C206.276 149.64 207.439 150 208.874 150C210.308 150 211.331 149.692 212.129 149.081C212.927 148.471 213.323 147.63 213.323 146.565C213.323 145.652 213.01 144.911 212.384 144.357C211.758 143.799 210.83 143.434 209.593 143.261L209.599 143.267Z" fill="white"/>
</svg>
