<svg width="55" height="30" viewBox="0 0 55 30" fill="none" xmlns="http://www.w3.org/2000/svg">
<path d="M54.4904 15.6727L48.6604 0.542708C48.5804 0.332708 48.4204 0.162708 48.2104 0.0727079C48.0004 -0.0172921 47.7704 -0.0272921 47.5604 0.0627079L40.6204 2.78271C40.1904 2.95271 39.9804 3.43271 40.1404 3.86271C40.1404 3.86271 40.2904 4.27271 40.4504 4.70271L38.3604 5.01271C37.5704 5.13271 36.7504 5.04271 36.0004 4.77271L29.4804 2.40271C28.5904 2.08271 27.6204 2.09271 26.7404 2.45271L24.5704 3.32271C23.4304 2.90271 22.1704 2.84271 20.9704 3.21271L16.5604 4.56271C15.5504 4.87271 14.4904 4.88271 13.4704 4.60271L12.4404 4.31271L12.6904 3.39271C12.7504 3.17271 12.7204 2.94271 12.6104 2.75271C12.5004 2.56271 12.3104 2.41271 12.1004 2.36271L5.32038 0.522708C4.87038 0.402708 4.41038 0.662708 4.29038 1.11271L0.0303811 16.7427C-0.0296189 16.9627 0.00038106 17.1927 0.110381 17.3827C0.220381 17.5827 0.410381 17.7227 0.630381 17.7727L7.44038 19.5727C7.51038 19.5927 7.58038 19.6027 7.66038 19.6027C8.03038 19.6027 8.37038 19.3527 8.47038 18.9827L8.65038 18.3027L9.05038 18.4327C9.60038 18.6027 10.1604 18.6927 10.7104 18.6927C11.0804 18.6927 11.4404 18.6427 11.8004 18.5727C11.7804 19.1327 11.9104 19.7027 12.2104 20.2227C12.6304 20.9427 13.3104 21.4527 14.1204 21.6527C14.3604 21.7127 14.6104 21.7427 14.8504 21.7427C14.8804 21.7427 14.9204 21.7427 14.9504 21.7427C14.9604 22.1427 15.0604 22.5427 15.2604 22.9127C15.6004 23.5327 16.1704 23.9827 16.8504 24.1727C17.0604 24.2327 17.2704 24.2527 17.4804 24.2627C17.5004 24.7427 17.6404 25.2127 17.9104 25.6027C18.3904 26.2927 19.1804 26.6827 19.9804 26.6827C20.3504 26.6827 20.7204 26.6027 21.0704 26.4327L21.3104 26.3127C21.3704 26.5727 21.4704 26.8127 21.6304 27.0427C22.0404 27.6327 22.7004 27.9527 23.3804 27.9527C23.6804 27.9527 23.9804 27.8927 24.2604 27.7627L27.9004 26.1027L29.2904 28.0727C29.7604 28.7427 30.5204 29.1027 31.2804 29.1027C31.7704 29.1027 32.2604 28.9527 32.6804 28.6527L33.2604 28.2427C33.6604 27.9627 33.9604 27.5627 34.1304 27.1127C34.1704 27.1127 34.2104 27.1427 34.2504 27.1427C34.3904 27.1627 34.5204 27.1727 34.6504 27.1727C35.1404 27.1727 35.6104 27.0227 36.0204 26.7327L36.5804 26.3327C36.8204 26.1627 37.0104 25.9527 37.1704 25.7227C37.4504 25.9227 37.7704 26.0627 38.1204 26.1227C38.2604 26.1427 38.3904 26.1527 38.5204 26.1527C39.0104 26.1527 39.4804 26.0027 39.8904 25.7127L40.4504 25.3127C40.9704 24.9427 41.3104 24.4027 41.4204 23.7727C41.4604 23.5527 41.4504 23.3427 41.4304 23.1327C41.7404 23.0727 42.0504 22.9727 42.3304 22.7727L42.8704 22.3927C43.9104 21.6527 44.1604 20.2127 43.4204 19.1627L43.3504 19.0627L45.7504 17.9427L46.1604 18.9027C46.3004 19.2227 46.6104 19.4127 46.9304 19.4127C47.0304 19.4127 47.1304 19.3927 47.2304 19.3527L53.9504 16.7727C54.1604 16.6927 54.3304 16.5327 54.4204 16.3227C54.5104 16.1127 54.5204 15.8827 54.4404 15.6727H54.4904ZM1.88038 16.3627L5.70038 2.37271L10.8604 3.75271L8.06038 14.0527L7.25038 17.0227L7.06038 17.7427L1.88038 16.3727V16.3627ZM9.56038 16.8227L9.10038 16.6727L9.91038 13.7027L12.0204 5.91271L13.0404 6.19271C14.3704 6.56271 15.7604 6.54271 17.0704 6.14271L21.4804 4.79271C22.8004 4.39271 24.2504 4.72271 25.2704 5.65271L31.0304 10.9427C31.3704 11.2527 31.4704 11.7527 31.2804 12.1727C31.1504 12.4527 30.9104 12.6627 30.6104 12.7527C30.3104 12.8427 30.0004 12.7927 29.7404 12.6227L26.3904 10.4827C24.9304 9.54271 23.0504 9.56271 21.6104 10.5227L17.9204 12.9727L16.8404 13.6827L12.8104 16.3627C11.8504 17.0027 10.6604 17.1627 9.56038 16.8227ZM32.3104 26.8327L31.7304 27.2427C31.5704 27.3527 31.3704 27.4027 31.1704 27.3727C30.9704 27.3427 30.8004 27.2327 30.6904 27.0727L28.3404 23.7627C28.1004 23.4227 28.1804 22.9627 28.5204 22.7227L29.1004 22.3127C29.2304 22.2227 29.3804 22.1727 29.5304 22.1727C29.5704 22.1727 29.6104 22.1727 29.6604 22.1827C29.8604 22.2127 30.0304 22.3227 30.1404 22.4927L31.7204 24.7127L32.4904 25.8027C32.6004 25.9627 32.6504 26.1627 32.6204 26.3627C32.5904 26.5627 32.4804 26.7327 32.3204 26.8427L32.3104 26.8327ZM35.6404 24.9427L35.0804 25.3427C34.9304 25.4527 34.7504 25.4927 34.5704 25.4627C34.3904 25.4327 34.2304 25.3327 34.1304 25.1827L31.2804 21.1527C31.1704 21.0027 31.1304 20.8227 31.1604 20.6427C31.1904 20.4627 31.2904 20.3027 31.4404 20.2027L32.0004 19.8027C32.1204 19.7227 32.2504 19.6727 32.3904 19.6727C32.4304 19.6727 32.4704 19.6727 32.5104 19.6727C32.6904 19.7027 32.8504 19.8027 32.9504 19.9527L35.2204 23.1627L35.8004 23.9827C35.9104 24.1327 35.9504 24.3127 35.9204 24.4927C35.8904 24.6727 35.7904 24.8327 35.6404 24.9327V24.9427ZM39.5104 23.9327L38.9504 24.3327C38.8004 24.4427 38.6204 24.4827 38.4404 24.4527C38.2604 24.4227 38.1004 24.3227 38.0004 24.1727L34.1604 18.7527C34.0504 18.6027 34.0104 18.4227 34.0404 18.2427C34.0704 18.0627 34.1704 17.9027 34.3204 17.8027L34.8804 17.4027C35.0004 17.3127 35.1404 17.2727 35.2704 17.2727C35.4804 17.2727 35.7004 17.3727 35.8304 17.5627L37.6104 20.0727L37.9404 20.5427L39.6704 22.9927C39.7804 23.1427 39.8204 23.3227 39.7904 23.5027C39.7604 23.6827 39.6604 23.8427 39.5104 23.9427V23.9327ZM41.9304 21.0127L41.3904 21.3927C41.1104 21.5927 40.7204 21.5227 40.5204 21.2427L40.1304 20.6927L38.9904 19.0827C38.7904 18.8027 38.8604 18.4127 39.1404 18.2127L39.6804 17.8327C39.7904 17.7527 39.9204 17.7227 40.0404 17.7227C40.2404 17.7227 40.4304 17.8127 40.5504 17.9827L42.0804 20.1427C42.2804 20.4227 42.2104 20.8127 41.9304 21.0127ZM42.4004 17.6627L41.9304 17.0027C41.1904 15.9627 39.7504 15.7127 38.7004 16.4527L38.1604 16.8327C37.9804 16.9627 37.8404 17.1127 37.7004 17.2727L37.2104 16.5727C36.8404 16.0527 36.3004 15.7127 35.6704 15.6027C35.0504 15.4927 34.4204 15.6427 33.9004 16.0027L33.3404 16.4027C32.8204 16.7727 32.4804 17.3127 32.3704 17.9427C32.3704 17.9527 32.3704 17.9727 32.3704 17.9827C31.8904 17.9827 31.4204 18.1327 31.0204 18.4127L30.4604 18.8127C29.9404 19.1827 29.6004 19.7227 29.4904 20.3527C29.4904 20.3927 29.4904 20.4327 29.4904 20.4827C29.0104 20.4927 28.5404 20.6427 28.1404 20.9327L27.5604 21.3427C26.4804 22.1027 26.2204 23.5927 26.9504 24.6827L23.6004 26.2127C23.4104 26.3027 23.1704 26.2427 23.0504 26.0627C22.9504 25.9227 22.9604 25.7727 22.9804 25.7027C23.0004 25.6327 23.0504 25.4927 23.2004 25.4127L23.4504 25.2827L25.5704 24.1427C25.9804 23.9227 26.1304 23.4127 25.9104 23.0027C25.6904 22.5927 25.1804 22.4327 24.7704 22.6627L22.6904 23.7827L20.3604 24.9127C20.0004 25.0827 19.5604 24.9727 19.3304 24.6427C19.2004 24.4527 19.1604 24.2227 19.2104 24.0027C19.2504 23.8027 19.3704 23.6427 19.5404 23.5327L24.3004 20.7527L26.4904 19.4827C26.8904 19.2527 27.0304 18.7327 26.8004 18.3327C26.5704 17.9327 26.0504 17.7927 25.6504 18.0227L18.7604 22.0227C18.7604 22.0227 18.6704 22.0927 18.6304 22.1227L18.0504 22.4627C17.8304 22.5927 17.5804 22.6227 17.3404 22.5527C17.1004 22.4827 16.9004 22.3327 16.7804 22.1027C16.5704 21.7227 16.6704 21.2727 16.9804 20.9827L19.1504 19.6127L23.8704 16.7127C24.2704 16.4727 24.3904 15.9527 24.1504 15.5527C23.9104 15.1527 23.3904 15.0327 22.9904 15.2727L16.2304 19.4227C16.1204 19.4927 16.0304 19.5727 15.9304 19.6427L15.6104 19.8427C15.2904 20.0427 14.9204 20.1027 14.5604 20.0127C14.2004 19.9227 13.8904 19.6927 13.7004 19.3727C13.3404 18.7527 13.5204 17.9427 14.1204 17.5427L18.8704 14.3927L22.5604 11.9427C23.4504 11.3527 24.6004 11.3427 25.5004 11.9227L28.8504 14.0627C29.5204 14.4927 30.3404 14.6127 31.1004 14.3827C31.8604 14.1627 32.4904 13.6227 32.8304 12.8927C33.3304 11.8027 33.0804 10.5227 32.1904 9.71271L26.4304 4.42271C26.4304 4.42271 26.4104 4.41271 26.4004 4.40271L27.4004 4.00271C27.8904 3.80271 28.4304 3.79271 28.9304 3.97271L35.4504 6.34271C36.4604 6.71271 37.5704 6.82271 38.6304 6.66271L41.1004 6.30271L45.1504 16.3727L42.4104 17.6527L42.4004 17.6627ZM47.4404 17.4827L42.4104 5.07271L42.0204 4.04271L47.3904 1.94271L52.6104 15.4927L47.4304 17.4827H47.4404Z" fill="#BF7344"/>
</svg>
