<svg width="219" height="31" viewBox="0 0 219 31" fill="none" xmlns="http://www.w3.org/2000/svg">
<path d="M155.51 15.76V9.05C155.51 8.47 155.22 8.19 154.65 8.19H142.64C142.22 8.19 142.01 8.41 142.01 8.85V11.01C142.01 11.45 142.22 11.67 142.64 11.67H151.08C151.31 11.67 151.43 11.8 151.43 12.05V14.38C151.43 15.03 151.32 15.49 151.08 15.75C150.85 16.01 150.49 16.14 149.99 16.14H140.48C139.73 16.14 139.11 16.08 138.62 15.95C138.13 15.83 137.74 15.61 137.45 15.32C137.16 15.02 136.96 14.62 136.83 14.11C136.71 13.6 136.64 12.96 136.64 12.19V8.04C136.64 7.27 136.7 6.64 136.83 6.14C136.95 5.64 137.16 5.24 137.45 4.94C137.74 4.64 138.13 4.43 138.62 4.31C139.11 4.19 139.73 4.12 140.48 4.12H154.91C155.33 4.12 155.54 3.9 155.54 3.46V0.63C155.54 0.21 155.33 0 154.91 0H140.31C138.85 0 137.61 0.14 136.59 0.42C135.57 0.7 134.74 1.14 134.1 1.74C133.46 2.35 132.99 3.13 132.69 4.09C132.39 5.05 132.24 6.22 132.24 7.6V12.55C132.24 13.93 132.39 15.11 132.69 16.08C132.99 17.05 133.46 17.84 134.1 18.44C134.74 19.04 135.57 19.48 136.59 19.75C137.61 20.02 138.85 20.15 140.31 20.15H151.95C153.1 20.15 153.98 19.82 154.6 19.16C155.21 18.5 155.52 17.36 155.52 15.75L155.51 15.76Z" fill="white"/>
<path d="M178.57 13.34C180.09 13.07 181.18 12.46 181.85 11.5C182.52 10.54 182.86 9.23 182.86 7.58V5.94C182.86 3.98 182.38 2.5 181.42 1.5C180.46 0.5 178.88 0 176.67 0H161.2C160.62 0 160.34 0.29 160.34 0.86V19.53C160.34 19.95 160.56 20.16 161 20.16H164.11C164.53 20.16 164.74 19.95 164.74 19.53V13.8H174.04L178.59 19.79C178.69 19.93 178.78 20.02 178.88 20.08C178.98 20.14 179.15 20.17 179.4 20.17H183.12C183.39 20.17 183.54 20.07 183.58 19.88C183.62 19.69 183.59 19.54 183.49 19.45L178.57 13.34ZM178.45 7.72C178.45 8.58 178.25 9.23 177.85 9.65C177.45 10.07 176.76 10.28 175.78 10.28H164.75V4.29C164.75 4.06 164.87 3.94 165.13 3.94H175.79C176.77 3.94 177.46 4.15 177.86 4.57C178.26 4.99 178.46 5.64 178.46 6.5V7.71L178.45 7.72Z" fill="white"/>
<path d="M217.75 0.68C217.41 0.23 216.73 0 215.73 0H212.65C212.23 0 211.87 0.03 211.57 0.09C211.27 0.15 211.01 0.26 210.78 0.42C210.55 0.58 210.34 0.8 210.16 1.08C209.98 1.36 209.79 1.73 209.6 2.19L203.61 16.02C203.53 16.19 203.4 16.28 203.21 16.28H202.87C202.68 16.28 202.54 16.19 202.47 16.02L196.48 2.19C196.29 1.73 196.1 1.36 195.92 1.08C195.74 0.8 195.53 0.58 195.3 0.42C195.07 0.26 194.8 0.15 194.49 0.09C194.18 0.03 193.82 0 193.39 0H190.25C189.23 0 188.55 0.23 188.21 0.68C187.86 1.13 187.69 1.9 187.69 3V19.53C187.69 19.95 187.91 20.16 188.35 20.16H191.29C191.71 20.16 191.92 19.95 191.92 19.53V4.49C191.92 4.3 192 4.2 192.15 4.2H192.41C192.6 4.2 192.73 4.28 192.78 4.43L198.6 17.33C198.83 17.85 199.06 18.29 199.31 18.64C199.55 19 199.81 19.29 200.09 19.52C200.37 19.75 200.68 19.91 201.04 20.01C201.4 20.11 201.81 20.15 202.29 20.15H203.67C204.15 20.15 204.57 20.1 204.92 20.01C205.28 19.91 205.59 19.75 205.87 19.52C206.15 19.29 206.41 19 206.65 18.64C206.89 18.28 207.13 17.85 207.36 17.33L213.18 4.43C213.24 4.28 213.36 4.2 213.56 4.2H213.82C213.97 4.2 214.05 4.3 214.05 4.49V19.53C214.05 19.95 214.26 20.16 214.68 20.16H217.62C218.06 20.16 218.28 19.95 218.28 19.53V3C218.28 1.91 218.11 1.13 217.76 0.68H217.75Z" fill="white"/>
<path d="M137.76 25.25H137.07V29.84H137.76V25.25Z" fill="white"/>
<path d="M144.1 28.44L140.75 24.93V29.84H141.45V26.62L144.79 30.12V25.25H144.1V28.44Z" fill="white"/>
<path d="M148.17 26C147.78 26.46 147.59 26.98 147.59 27.57C147.59 28.22 147.82 28.78 148.28 29.24C148.74 29.7 149.3 29.93 149.96 29.93C150.4 29.93 150.81 29.82 151.21 29.59V28.75C151.1 28.84 150.99 28.93 150.89 28.99C150.79 29.06 150.69 29.11 150.59 29.15C150.42 29.23 150.21 29.27 149.97 29.27C149.5 29.27 149.1 29.11 148.77 28.77C148.45 28.44 148.28 28.03 148.28 27.55C148.28 27.07 148.44 26.65 148.77 26.31C149.09 25.97 149.49 25.8 149.96 25.8C150.39 25.8 150.8 25.97 151.2 26.3V25.48C150.82 25.26 150.42 25.14 150 25.14C149.24 25.14 148.63 25.42 148.15 25.98L148.17 26Z" fill="white"/>
<path d="M156.13 25.16C155.47 25.16 154.9 25.39 154.43 25.86C153.96 26.32 153.72 26.88 153.72 27.53C153.72 28.27 153.98 28.86 154.5 29.31C154.97 29.72 155.5 29.93 156.1 29.93C156.77 29.93 157.34 29.7 157.82 29.24C158.29 28.78 158.53 28.22 158.53 27.56C158.53 26.9 158.29 26.34 157.82 25.87C157.35 25.4 156.79 25.17 156.14 25.17L156.13 25.16ZM157.32 28.77C156.99 29.1 156.58 29.27 156.1 29.27C155.66 29.27 155.26 29.11 154.93 28.78C154.59 28.45 154.42 28.04 154.42 27.53C154.42 27.02 154.58 26.64 154.91 26.31C155.24 25.98 155.64 25.81 156.12 25.81C156.6 25.81 157 25.98 157.33 26.31C157.66 26.64 157.82 27.05 157.82 27.54C157.82 28.03 157.65 28.43 157.32 28.77Z" fill="white"/>
<path d="M163.56 27.43C163.75 27.2 163.84 26.92 163.84 26.59C163.84 26.17 163.69 25.84 163.39 25.58C163.12 25.35 162.68 25.24 162.07 25.24H161.26V29.83H161.95V27.95H162.07L163.38 29.83H164.23L162.81 27.87C163.11 27.8 163.36 27.66 163.55 27.42L163.56 27.43ZM161.96 27.35V25.89H162.21C162.85 25.89 163.17 26.12 163.17 26.6C163.17 27.1 162.84 27.35 162.19 27.35H161.96Z" fill="white"/>
<path d="M168.48 25.33C168.28 25.28 167.99 25.25 167.61 25.25H166.82V29.84H167.51V27.97H167.83C168.31 27.97 168.69 27.85 168.97 27.6C169.25 27.35 169.39 27.02 169.39 26.6C169.39 26.21 169.26 25.88 168.99 25.62C168.84 25.47 168.66 25.37 168.47 25.32L168.48 25.33ZM167.77 27.33H167.51V25.88H167.74C168.4 25.88 168.72 26.12 168.72 26.59C168.72 27.06 168.4 27.32 167.76 27.32L167.77 27.33Z" fill="white"/>
<path d="M174.17 25.16C173.51 25.16 172.94 25.39 172.47 25.86C172 26.32 171.76 26.88 171.76 27.53C171.76 28.27 172.02 28.86 172.54 29.31C173.01 29.72 173.55 29.93 174.14 29.93C174.81 29.93 175.38 29.7 175.86 29.24C176.33 28.78 176.57 28.22 176.57 27.56C176.57 26.9 176.34 26.34 175.87 25.87C175.4 25.4 174.84 25.17 174.19 25.17L174.17 25.16ZM175.36 28.77C175.03 29.1 174.62 29.27 174.14 29.27C173.7 29.27 173.3 29.11 172.96 28.78C172.62 28.45 172.45 28.04 172.45 27.53C172.45 27.02 172.62 26.64 172.94 26.31C173.27 25.98 173.67 25.81 174.15 25.81C174.63 25.81 175.03 25.98 175.36 26.31C175.69 26.64 175.85 27.05 175.85 27.54C175.85 28.03 175.68 28.43 175.35 28.77H175.36Z" fill="white"/>
<path d="M181.61 27.43C181.8 27.2 181.89 26.92 181.89 26.59C181.89 26.17 181.74 25.84 181.44 25.58C181.17 25.35 180.73 25.24 180.13 25.24H179.32V29.83H180.01V27.95H180.14L181.45 29.83H182.3L180.88 27.87C181.18 27.8 181.43 27.66 181.62 27.42L181.61 27.43ZM180.01 27.35V25.89H180.26C180.9 25.89 181.22 26.12 181.22 26.6C181.22 27.1 180.89 27.35 180.24 27.35H180.01Z" fill="white"/>
<path d="M184.34 29.84H185.09L185.6 28.72H187.57L188.05 29.84H188.81L186.62 24.96L184.35 29.84H184.34ZM185.89 28.07L186.6 26.51L187.28 28.07H185.89Z" fill="white"/>
<path d="M193.32 25.38C193.05 25.29 192.69 25.24 192.23 25.24H191.27V29.83H192.22C192.69 29.83 193.05 29.79 193.3 29.7C193.57 29.61 193.83 29.46 194.08 29.25C194.57 28.81 194.82 28.24 194.82 27.54C194.82 26.84 194.58 26.27 194.11 25.84C193.88 25.62 193.62 25.47 193.33 25.38H193.32ZM193.6 28.76C193.43 28.91 193.25 29.02 193.04 29.09C192.83 29.15 192.57 29.19 192.26 29.19H191.95V25.9H192.26C192.85 25.9 193.3 26.04 193.6 26.32C193.94 26.63 194.11 27.04 194.11 27.55C194.11 28.06 193.94 28.46 193.6 28.77V28.76Z" fill="white"/>
<path d="M199.75 25.16C199.09 25.16 198.52 25.39 198.05 25.86C197.58 26.32 197.34 26.88 197.34 27.53C197.34 28.27 197.6 28.86 198.12 29.31C198.59 29.72 199.13 29.93 199.72 29.93C200.39 29.93 200.96 29.7 201.44 29.24C201.91 28.78 202.15 28.22 202.15 27.56C202.15 26.9 201.92 26.34 201.45 25.87C200.98 25.4 200.42 25.17 199.77 25.17L199.75 25.16ZM200.94 28.77C200.61 29.1 200.2 29.27 199.72 29.27C199.28 29.27 198.89 29.11 198.55 28.78C198.21 28.45 198.04 28.04 198.04 27.53C198.04 27.02 198.2 26.64 198.53 26.31C198.86 25.98 199.26 25.81 199.74 25.81C200.22 25.81 200.62 25.98 200.95 26.31C201.28 26.64 201.44 27.05 201.44 27.54C201.44 28.03 201.27 28.43 200.94 28.77Z" fill="white"/>
<path d="M207.19 27.43C207.38 27.2 207.47 26.92 207.47 26.59C207.47 26.17 207.32 25.84 207.02 25.58C206.75 25.35 206.31 25.24 205.7 25.24H204.89V29.83H205.58V27.95H205.7L207.01 29.83H207.86L206.44 27.87C206.75 27.8 206.99 27.66 207.18 27.42L207.19 27.43ZM205.59 27.35V25.89H205.84C206.48 25.89 206.8 26.12 206.8 26.6C206.8 27.1 206.47 27.35 205.81 27.35H205.59Z" fill="white"/>
<path d="M209.92 29.84H210.67L211.18 28.72H213.15L213.63 29.84H214.39L212.2 24.96L209.93 29.84H209.92ZM211.47 28.07L212.18 26.51L212.86 28.07H211.46H211.47Z" fill="white"/>
<path d="M103.99 14.15C103.99 12.41 103.17 11.07 101.56 10.09C100.82 9.64 99.16 9.04 96.63 8.25C94.86 7.72 93.78 7.33 93.36 7.09C92.41 6.59 91.96 5.93 91.96 5.09C91.96 4.14 92.36 3.46 93.17 3.03C93.83 2.66 94.78 2.48 96.02 2.48C97.44 2.48 98.5 2.74 99.23 3.3C99.97 3.83 100.44 4.72 100.71 5.94H103.56C103.38 3.88 102.64 2.38 101.32 1.41C100.08 0.46 98.37 0.01 96.18 0.01C94.18 0.01 92.52 0.46 91.2 1.35C89.8 2.3 89.12 3.59 89.12 5.25C89.12 6.91 89.83 8.15 91.28 9.02C91.86 9.34 93.28 9.84 95.6 10.57C97.68 11.2 98.92 11.62 99.34 11.83C100.53 12.44 101.13 13.25 101.13 14.31C101.13 15.15 100.71 15.81 99.86 16.29C99.02 16.76 97.88 17.03 96.46 17.03C94.88 17.03 93.72 16.74 92.95 16.16C92.11 15.53 91.58 14.45 91.37 12.97H88.52C88.68 15.34 89.52 17.08 91.08 18.19C92.37 19.09 94.16 19.56 96.46 19.56C98.76 19.56 100.68 19.09 101.99 18.14C103.31 17.16 103.97 15.85 103.97 14.16L103.99 14.15Z" fill="white"/>
<path d="M51.8 13.86C51.59 12.02 50.67 10.91 48.98 10.54V10.49C50.01 10.23 50.83 9.67 51.43 8.83C51.96 8.07 52.22 6.75 52.22 5.74C52.22 3.95 51.64 2.6 50.48 1.66C49.37 0.79 47.84 0.37 45.95 0.37H37.62V2.83H45.55C46.87 2.82 47.82 3.06 48.45 3.56C49.03 4.03 49.35 4.8 49.35 5.85C49.35 6.9 49.03 8.07 48.43 8.59C47.8 9.12 46.85 9.41 45.58 9.41H40.49V9.37H37.62V19.19H40.49V11.87H45.58C46.66 11.87 47.48 12.08 48.06 12.56C48.61 13.03 48.96 13.77 49.06 14.83L49.3 16.72C49.41 17.77 49.67 18.62 50.12 19.2H53.23C52.6 18.51 52.23 17.59 52.12 16.43L51.8 13.88V13.86Z" fill="white"/>
<path d="M57.54 0.37H54.43L61.18 19.18H64.65L57.54 0.37Z" fill="white"/>
<path d="M71.88 0.37H68.82L65.51 9.41H68.4L71.88 0.37Z" fill="white"/>
<path d="M16.47 19.18L8.6 8.46L15.26 0.37H11.62L5.17 8.49L12.62 19.18H16.47Z" fill="white"/>
<path d="M0 19.18H2.87V0.37H0V19.18Z" fill="white"/>
<path d="M35.17 19.18L27.92 0.37H25.07L32.09 19.18H35.17Z" fill="white"/>
<path d="M23.15 11.86H26.35L25.39 9.41H21.17L17.41 19.18H20.47L23.15 11.86Z" fill="white"/>
<path d="M77.13 0.37L84.15 19.18H87.23L79.99 0.37H77.13Z" fill="white"/>
<path d="M73.24 9.41L69.47 19.18H72.53L75.21 11.86H78.42L77.45 9.41H73.24Z" fill="white"/>
<path d="M1.52 22.99H0V29.63H1.52V22.99Z" fill="white"/>
<path d="M74.43 22.99H71.44V29.63H74.43C76.59 29.63 78.06 28.32 78.06 26.31C78.06 24.3 76.58 22.99 74.43 22.99ZM74.35 28.37H72.96V24.25H74.35C75.66 24.25 76.52 25.04 76.52 26.31C76.52 27.58 75.66 28.37 74.35 28.37Z" fill="white"/>
<path d="M8.75 27.02L5.48 22.99H4.22V29.63H5.72V25.6L9.01 29.63H10.26V22.99H8.75V27.02Z" fill="white"/>
<path d="M99.53 22.99L96.59 29.63H98.15L98.73 28.21H101.79L102.37 29.63H103.97L101.02 22.99H99.51H99.53ZM99.23 27.04L100.27 24.5L101.31 27.04H99.22H99.23Z" fill="white"/>
<path d="M95.13 25.4C95.13 23.91 94.03 22.99 92.27 22.99H89.42V29.63H90.94V27.78H92.34L93.61 29.63H95.25L93.77 27.5C94.63 27.13 95.12 26.4 95.12 25.4H95.13ZM92.18 26.56H90.94V24.24H92.18C93.11 24.24 93.58 24.67 93.58 25.4C93.58 26.13 93.11 26.56 92.18 26.56Z" fill="white"/>
<path d="M83.53 22.88C81.45 22.88 79.93 24.34 79.93 26.31C79.93 28.28 81.45 29.74 83.53 29.74C85.61 29.74 87.13 28.29 87.13 26.31C87.13 24.33 85.6 22.88 83.53 22.88ZM83.53 28.44C82.35 28.44 81.47 27.58 81.47 26.32C81.47 25.06 82.35 24.19 83.53 24.19C84.71 24.19 85.59 25.05 85.59 26.32C85.59 27.59 84.7 28.44 83.53 28.44Z" fill="white"/>
<path d="M49.17 22.88C47.09 22.88 45.57 24.34 45.57 26.31C45.57 28.28 47.09 29.74 49.17 29.74C51.25 29.74 52.77 28.29 52.77 26.31C52.77 24.33 51.24 22.88 49.17 22.88ZM49.17 28.44C47.99 28.44 47.11 27.58 47.11 26.32C47.11 25.06 47.99 24.19 49.17 24.19C50.35 24.19 51.23 25.05 51.23 26.32C51.23 27.59 50.34 28.44 49.17 28.44Z" fill="white"/>
<path d="M16.19 24.18C16.85 24.18 17.4 24.45 17.85 24.96L18.83 24.05C18.21 23.29 17.26 22.87 16.12 22.87C14.07 22.87 12.54 24.3 12.54 26.3C12.54 28.3 14.06 29.73 16.11 29.73C17.26 29.73 18.21 29.31 18.83 28.55L17.85 27.64C17.41 28.16 16.85 28.43 16.19 28.43C14.96 28.43 14.08 27.56 14.08 26.31C14.08 25.06 14.96 24.18 16.19 24.18Z" fill="white"/>
<path d="M35.62 25.4C35.62 23.91 34.52 22.99 32.76 22.99H29.91V29.63H31.43V27.78H32.83L34.1 29.63H35.74L34.26 27.5C35.11 27.13 35.61 26.4 35.61 25.4H35.62ZM32.67 26.56H31.43V24.24H32.67C33.6 24.24 34.07 24.67 34.07 25.4C34.07 26.13 33.6 26.56 32.67 26.56Z" fill="white"/>
<path d="M40.81 22.99H37.96V29.63H39.48V27.8H40.81C42.57 27.8 43.67 26.88 43.67 25.4C43.67 23.92 42.57 22.99 40.81 22.99ZM40.73 26.55H39.49V24.24H40.73C41.66 24.24 42.13 24.67 42.13 25.4C42.13 26.13 41.66 26.55 40.73 26.55Z" fill="white"/>
<path d="M60.76 25.4C60.76 23.91 59.66 22.99 57.9 22.99H55.05V29.63H56.57V27.78H57.97L59.24 29.63H60.88L59.4 27.5C60.25 27.13 60.75 26.4 60.75 25.4H60.76ZM57.81 26.56H56.57V24.24H57.81C58.74 24.24 59.21 24.67 59.21 25.4C59.21 26.13 58.74 26.56 57.81 26.56Z" fill="white"/>
<path d="M24.03 22.88C21.95 22.88 20.43 24.34 20.43 26.31C20.43 28.28 21.95 29.74 24.03 29.74C26.11 29.74 27.63 28.29 27.63 26.31C27.63 24.33 26.1 22.88 24.03 22.88ZM24.03 28.44C22.85 28.44 21.97 27.58 21.97 26.32C21.97 25.06 22.86 24.19 24.03 24.19C25.2 24.19 26.09 25.05 26.09 26.32C26.09 27.59 25.21 28.44 24.03 28.44Z" fill="white"/>
<path d="M65.17 22.99L62.23 29.63H63.79L64.37 28.21H67.43L68.01 29.63H69.61L66.66 22.99H65.15H65.17ZM64.87 27.04L65.91 24.5L66.95 27.04H64.86H64.87Z" fill="white"/>
</svg>
