<svg width="35" height="35" viewBox="0 0 35 35" fill="none" xmlns="http://www.w3.org/2000/svg">
<g clip-path="url(#clip0_107_367)">
<path d="M17.4999 0C7.84434 0 -0.00012207 7.84446 -0.00012207 17.5C-0.00012207 27.1555 7.84434 35 17.4999 35C27.1554 35 34.9999 27.1555 34.9999 17.5C34.9999 7.84446 27.1554 0 17.4999 0ZM17.4999 1.59091C26.2953 1.59091 33.409 8.70455 33.409 17.5C33.409 26.2955 26.2953 33.4091 17.4999 33.4091C8.70442 33.4091 1.59079 26.2955 1.59079 17.5C1.59079 8.70455 8.70442 1.59091 17.4999 1.59091ZM12.534 9.94318V25.0568L26.0567 17.5L12.534 9.94318Z" fill="#F9C194"/>
</g>
<defs>
<clipPath id="clip0_107_367">
<rect width="35" height="35" fill="white"/>
</clipPath>
</defs>
</svg>
