<svg width="159" height="63" viewBox="0 0 159 63" fill="none" xmlns="http://www.w3.org/2000/svg">
<path d="M67.24 47.0402H77.62V31.3502C77.62 27.3802 80.31 23.8402 85.44 23.8402C86.78 23.8602 88.12 24.0602 89.41 24.4502V14.9902C88.61 14.8202 87.79 14.7302 86.97 14.7502C82.51 14.7502 78.97 16.8902 77.44 20.9202H77.32V15.3602H67.25V47.0502L67.24 47.0402ZM127.91 15.3502H117.35L108.99 33.8002H108.86L100.57 15.3602H89.76L105.32 47.0502H112.28L127.9 15.3602L127.91 15.3502ZM135.06 27.9302C135.67 24.0802 138.11 21.4602 141.78 21.4602C145.45 21.4602 147.77 24.3902 147.95 27.9302H135.06ZM158.32 33.7302C158.81 22.9902 153.13 14.4402 141.77 14.4402C132.43 14.4402 124.67 21.4002 124.67 31.1102C124.67 41.7302 131.69 47.9602 142.01 47.9602C149.09 47.9602 155.87 44.7902 157.76 37.4602H148.06C147.08 39.7802 144.64 40.9402 142.13 40.9402C137.73 40.9402 135.23 38.0702 135.05 33.7302H158.32Z" fill="#EC6910"/>
<path d="M67.18 55.8202V62.3302H71.95V61.3402H68.28V59.5402H71.46V58.5702H68.28V56.8102H71.83V55.8302H67.17L67.18 55.8202ZM76.33 55.8102V62.3202H77.43V57.6502L80.9 62.3202H81.98V55.8102H80.9V60.4902L77.41 55.8102H76.33ZM91.28 60.9402C90.83 61.2202 90.31 61.3702 89.79 61.3802C88.51 61.4002 87.46 60.3902 87.44 59.1102C87.42 57.8302 88.43 56.7802 89.71 56.7602H89.79C90.48 56.7602 91.16 57.0302 91.67 57.5102L92.27 56.7002C91.57 56.1102 90.68 55.7902 89.77 55.7902C87.95 55.6902 86.4 57.0802 86.3 58.9002C86.2 60.7202 87.59 62.2702 89.41 62.3702C89.51 62.3702 89.61 62.3702 89.71 62.3702C90.62 62.3602 91.51 62.0602 92.25 61.5202V59.1202H91.29V60.9302L91.28 60.9402ZM96.85 55.8102V62.3202H101.61V61.3302H97.94V59.5302H101.12V58.5602H97.94V56.8002H101.49V55.8202H96.85V55.8102ZM105.99 55.8002V62.3102H107.1V57.6402L110.57 62.3102H111.65V55.8002H110.57V60.4802L107.08 55.8002H105.99ZM116.43 55.8002V62.3102H117.53V59.6102H120.98V62.3102H122.07V55.7902H120.98V58.6102H117.51V55.7902H116.42L116.43 55.8002ZM132.86 62.3102L130.01 55.8002H128.88L126.01 62.3102H127.16L127.78 60.8402H131.06L131.68 62.3102H132.86ZM128.2 59.8602L129.43 56.9702L130.64 59.8602H128.2ZM142.19 62.3102L140.73 60.1302C141.6 59.8002 142.15 58.9402 142.08 58.0202C142.08 56.6102 141.12 55.8002 139.46 55.8002H136.82V62.3102H137.91V60.3502H139.46C139.56 60.3502 139.66 60.3502 139.76 60.3502L140.95 62.3202H142.2L142.19 62.3102ZM137.89 56.7902H139.44C140.45 56.7902 141.02 57.2002 141.02 58.0602C141.02 58.9202 140.45 59.3702 139.44 59.3702H137.89V56.7902ZM146.55 62.2902H147.65V55.7802H146.55V62.2902ZM158.42 62.2902L155.57 55.7802H154.44L151.57 62.2902H152.7L153.32 60.8202H156.61L157.23 62.2902H158.42ZM153.75 59.8402L154.98 56.9502L156.21 59.8402H153.75Z" fill="#EC6910"/>
<path d="M0 55.7502V7.85019C0 4.04019 3.09 0.950195 6.9 0.950195H44.12C47.93 0.950195 51.02 4.04019 51.02 7.85019V55.7502C51.02 59.5602 47.93 62.6502 44.12 62.6502H6.9C3.09 62.6502 0 59.5602 0 55.7502Z" fill="#252350"/>
<path d="M37.82 45.3502V49.2502C29.57 48.4202 21.26 48.4802 13.02 49.4102V45.5002C19.26 44.6802 28.49 44.0002 37.82 45.3502Z" fill="#EE7325"/>
<path d="M28.57 13.7502V42.6402C26.46 42.5902 24.4 42.6202 22.45 42.7102V13.7502H28.57Z" fill="white"/>
<path d="M37.81 23.7302V43.3602C35.83 43.0802 33.84 42.9002 31.88 42.7802V23.7302H37.81Z" fill="white"/>
<path d="M19.14 23.7102V42.9002C16.98 43.0602 14.99 43.2702 13.21 43.4902V23.7102H19.14Z" fill="white"/>
</svg>
