<svg width="197" height="44" viewBox="0 0 197 44" fill="none" xmlns="http://www.w3.org/2000/svg">
<path d="M197 0V43H-5.69962e-06V0H197Z" fill="#F9C194"/>
<path d="M124.294 43C123.336 40.7797 123.176 38.4471 123.431 36.0725C123.69 33.6558 124.072 31.2532 124.426 28.8505C124.917 25.6205 125.502 22.3998 125.927 19.1651C126.224 16.9121 126.399 14.6403 126.536 12.3779C126.607 11.2607 126.465 10.1388 126.441 9.01696C126.394 6.8714 126.069 4.74921 125.634 2.64572C125.45 1.74823 125.219 0.869442 124.969 0H128.442C128.801 1.29014 129.112 2.59898 129.348 3.93586C129.924 7.25938 130.113 10.5969 129.962 13.9344C129.787 17.5852 129.197 21.2032 128.499 24.8072C127.805 28.4111 127.111 32.0151 126.489 35.6238C126.201 37.3019 126.059 39.0034 126.418 40.6955C126.588 41.5322 126.899 42.3035 127.338 43.0047H124.294V43ZM148.003 1.63137C147.941 1.08447 147.866 0.542233 147.795 0H150.348C150.499 1.11251 150.631 2.23437 150.725 3.35623C150.952 6.03935 151.174 8.71312 151.443 11.3916C151.726 14.2243 152.004 17.0523 152.377 19.8756C152.646 21.8716 153.127 23.8442 153.996 25.7233C155.572 29.1544 158.45 31.2999 162.565 32.0432C164.184 32.333 165.864 32.3563 167.525 32.4405C168.374 32.4779 169.243 32.3844 170.106 32.347C171.494 32.2769 172.909 32.2862 174.283 32.1133C179.308 31.4635 184.339 30.8185 189.336 30.0612C191.889 29.6732 194.442 29.2899 197 28.9347V31.8655C193.956 32.3423 190.922 32.8705 187.883 33.3847C183.452 34.142 179.006 34.8946 174.504 35.2732C170.625 35.6097 166.728 35.75 162.849 35.1657C159.286 34.6328 156.228 33.3006 153.939 30.7904C152.353 29.0515 151.429 27.0088 150.749 24.8773C150.102 22.8626 149.706 20.8058 149.508 18.7257C149.215 15.7061 148.989 12.6911 148.725 9.67138C148.489 6.99761 148.3 4.31449 148.003 1.63605V1.63137Z" fill="#BF7344"/>
</svg>
