<svg width="132" height="509" viewBox="0 0 132 509" fill="none" xmlns="http://www.w3.org/2000/svg">
<g clip-path="url(#clip0_501_4997)">
<path d="M45.0831 465.014C45.3184 464.656 45.5066 464.28 45.7419 463.847C45.2996 463.405 44.942 463.019 44.575 462.661C30.6847 449.533 22.008 432.952 18.5824 412.916C17.839 408.587 17.312 404.23 17.2085 399.816C17.1614 397.134 16.9355 394.452 17.0014 391.77C17.4249 375.113 21.3398 359.623 29.4519 345.61C32.4351 340.453 35.9641 335.757 40.0013 331.579C40.2554 331.325 40.4437 331.024 40.7825 330.6C40.2272 330.12 39.7472 329.697 39.2579 329.292C28.332 320.352 16.305 314.263 2.96998 311.524C-1.61306 310.593 -6.22435 309.896 -10.8921 309.793C-13.3389 309.746 -15.7763 309.435 -18.2042 309.586C-23.1261 309.878 -28.0667 310.245 -32.9603 310.894C-39.9996 311.807 -47.0106 313.068 -54.031 314.112C-59.254 314.875 -64.4864 315.693 -69.7376 316.249C-75.9769 316.907 -82.0845 316.315 -87.8062 312.889C-91.1282 310.885 -93.8668 308.155 -96.0689 304.758C-99.2591 299.855 -101.348 294.322 -102.958 288.572C-105.197 280.563 -106.609 272.338 -107.729 264.075C-109.498 251.079 -111.173 238.064 -112.782 225.04C-114.514 211.13 -116.5 197.268 -118.994 183.51C-120.857 173.365 -122.946 163.286 -125.647 153.395C-126.55 150.102 -127.51 146.827 -128.545 143.571C-128.668 143.213 -128.781 142.855 -128.969 142.366C-129.458 142.404 -129.957 142.366 -130.428 142.451C-138.568 143.891 -146.718 145.18 -154.811 146.827C-170.677 150.064 -186.506 153.546 -202.354 156.887C-204.02 157.226 -205.676 157.546 -207.361 157.856V187.236C-206.467 187.114 -205.563 187.02 -204.66 186.935C-185.471 185.241 -168.654 191.735 -154.199 205.851C-146.257 213.624 -141.288 223.6 -138.455 234.949C-136.93 241.123 -135.914 247.381 -135.999 253.836C-136.083 261.215 -137.627 268.207 -140.337 274.945C-145.221 286.991 -153.456 295.338 -163.394 301.822C-171.524 307.13 -180.276 310.659 -189.348 313.294C-195.287 315.006 -201.291 316.333 -207.351 317.416V336.416C-202.109 336.632 -196.868 336.792 -191.626 337.159C-184.191 337.686 -176.794 338.467 -169.435 339.616C-154.858 341.921 -140.403 344.923 -125.986 348.17C-99.485 354.146 -73.6807 362.663 -48.7234 374.37C-38.6444 379.103 -28.8008 384.43 -19.7947 391.488C-14.2423 395.817 -9.10404 400.616 -4.85038 406.536C-0.81316 412.135 1.37956 418.534 1.66188 425.724C1.8501 430.326 0.334955 434.363 -1.71659 438.193C-4.50218 443.388 -8.53939 447.049 -13.1318 450.023C-18.8536 453.721 -25.027 456.083 -31.3228 458.097C-41.3359 461.325 -51.5278 463.593 -61.8137 465.466C-70.6034 467.075 -79.4213 468.43 -88.2956 469.334C-93.5562 469.879 -98.798 470.435 -104.077 470.858C-108.491 471.216 -112.914 471.517 -117.347 471.602C-128.254 471.818 -139.18 471.922 -150.106 471.987C-155.639 472.034 -161.154 471.95 -166.668 471.865C-171.506 471.78 -176.343 471.649 -181.17 471.489C-184.464 471.385 -187.767 471.338 -191.042 471.084C-196.491 470.66 -201.921 470.171 -207.361 469.672V508.991H25.1982C26.8263 503.401 28.7743 497.914 30.9482 492.54C34.8536 482.829 39.5308 473.634 45.0831 465.005V465.014Z" fill="#F3D2C8"/>
<path d="M106.808 305.473C97.3035 296.43 87.0458 288.638 76.054 282.078C70.8311 278.954 65.4293 276.291 59.9522 273.835L58.1548 278.399C62.8413 280.45 67.4338 282.747 71.9133 285.372C81.3617 290.953 90.1702 297.625 98.5364 305.069C98.7058 305.238 98.894 305.389 99.0822 305.746C79.4137 305.53 61.8908 312.362 46.269 325.509C44.4715 324.088 42.7776 322.695 41.0272 321.387C28.5579 312.127 14.9876 306.085 0.18446 303.535C-7.04301 302.293 -14.3081 301.888 -21.5638 302.208C-29.5065 302.584 -37.3739 303.855 -45.2131 305.342C-53.0522 306.838 -60.8914 308.325 -68.7494 309.671C-72.4008 310.282 -76.0992 310.584 -79.7788 309.821C-83.6278 309.04 -86.818 306.97 -89.3684 303.676C-92.935 299.112 -95.0337 293.682 -96.7841 288.035C-98.7509 281.692 -100.106 275.143 -101.113 268.527C-102.628 258.58 -103.983 248.623 -105.338 238.648C-108.849 212.636 -112.867 186.719 -119.059 161.301C-119.793 158.261 -120.622 155.24 -121.468 152.238L-125.637 153.377C-122.937 163.267 -120.857 173.346 -118.984 183.491C-116.49 197.25 -114.505 211.112 -112.773 225.021C-111.164 238.055 -109.479 251.06 -107.719 264.057C-106.599 272.319 -105.188 280.544 -102.948 288.553C-101.339 294.303 -99.2497 299.836 -96.0594 304.739C-93.8573 308.127 -91.1188 310.866 -87.7968 312.87C-82.075 316.296 -75.9674 316.889 -69.7281 316.23C-64.4675 315.665 -59.2445 314.856 -54.0215 314.094C-47.0011 313.04 -39.9901 311.788 -32.9508 310.875C-28.0478 310.235 -23.1072 309.859 -18.1948 309.567C-15.7668 309.417 -13.3294 309.718 -10.8826 309.774C-6.21485 309.878 -1.60358 310.574 2.97946 311.506C16.3145 314.235 28.3415 320.333 39.2674 329.273C39.7567 329.678 40.2367 330.101 40.7919 330.581C40.4531 331.005 40.2649 331.306 40.0108 331.56C35.9736 335.739 32.4446 340.434 29.4613 345.592C21.3493 359.604 17.4344 375.094 17.0109 391.751C16.945 394.433 17.1615 397.116 17.2179 399.798C17.3215 404.211 17.8485 408.568 18.5919 412.897C22.0174 432.933 30.6942 449.505 44.5844 462.643C44.9609 463 45.3091 463.386 45.7514 463.828C45.5161 464.271 45.3279 464.638 45.0926 464.995C39.5403 473.634 34.8631 482.829 30.9577 492.531C28.7838 497.905 26.8357 503.391 25.2077 508.981H35.8136C38.2416 501.161 40.9519 493.482 44.3115 486.066C46.7207 480.758 49.4875 475.705 52.5083 470.811C52.6965 470.51 52.913 470.237 53.2235 469.842C64.8458 477.982 77.381 483.45 90.9042 486.452C90.189 494.093 89.2197 501.584 87.7798 508.981H92.4288C92.8522 506.92 93.191 504.812 93.5016 502.704C94.1604 497.924 94.6873 493.124 95.2802 488.325C95.3179 488.014 95.3649 487.713 95.412 487.299C97.2753 487.449 99.0728 487.6 100.87 487.76C102.122 487.864 103.345 488.033 104.606 488.099C106.695 488.221 108.803 488.391 110.902 488.353C114.026 488.306 117.151 488.24 120.247 487.948C124.19 487.591 128.105 487.064 131.973 486.17V480.062C127.653 481.201 123.258 481.944 118.807 482.349C114.139 482.754 109.49 482.772 104.842 482.518C101.952 482.349 99.0916 481.841 95.986 481.445C96.2025 476.947 96.513 472.59 96.6166 468.233C96.7201 463.819 96.6824 459.415 96.5507 455.001C96.4189 450.606 96.1648 446.211 95.7884 441.835C95.412 437.459 94.8191 433.112 94.3109 428.519C94.8379 428.162 95.4308 427.71 96.0801 427.333C107.439 420.934 119.325 416.389 131.982 414.629V407.147C118.628 407.994 105.98 412.116 93.8592 418.704C93.6051 418.845 93.351 418.958 92.9087 419.184C92.6358 417.894 92.3817 416.69 92.1464 415.485C89.7749 402.781 86.547 390.34 81.8981 378.416C76.5716 364.742 69.7206 352.132 60.9121 340.924C58.3147 337.63 55.4821 334.581 52.6495 331.287C53.4494 330.591 54.2775 329.829 55.1433 329.151C63.6601 322.488 73.0802 318.159 83.1686 315.609C87.6481 314.489 92.2123 313.896 96.8048 313.557C100.061 313.303 103.251 313.764 106.498 313.764C107.382 313.764 107.957 314.338 108.54 314.969C116.473 323.74 123.588 333.273 129.545 343.86C130.373 345.337 131.192 346.834 131.982 348.34V337.188C127.625 329.96 122.826 323.119 117.443 316.813C117.207 316.541 117.019 316.239 116.596 315.656C117.254 315.759 117.668 315.788 118.035 315.872C122.807 317.058 127.474 318.639 131.982 320.728V314.498C124.924 310.847 117.527 308.372 109.81 307.064C108.644 306.857 107.702 306.32 106.827 305.473H106.808ZM91.2995 480.222C79.3008 476.486 67.8008 471.686 57.6937 463C66.6903 450.785 76.901 440.405 88.7209 432.001C90.9607 438.09 92.5888 468.223 91.2995 480.222V480.222ZM56.7902 347.53C66.8127 360.799 74.0778 375.847 79.5548 392.053C82.7827 401.642 85.2201 411.476 87.2058 421.471C87.2717 421.781 87.2528 422.101 87.2905 422.525C73.2214 431.192 61.0909 442.513 50.7767 456.657C48.744 454.286 46.7395 452.131 44.9232 449.788C37.2723 440.029 31.8611 428.905 28.8402 416.332C27.4474 410.516 26.9016 404.541 26.8358 398.518C26.7981 395.008 26.7887 391.478 26.9581 387.968C27.4663 378.059 29.5178 368.544 32.8586 359.35C35.8795 350.984 40.4625 343.813 46.1278 337.48C46.3349 337.244 46.5325 337.018 46.7395 336.821C46.8242 336.736 46.9466 336.698 47.2477 336.548C50.645 340.011 53.8258 343.644 56.7808 347.54L56.7902 347.53Z" fill="#BF7344"/>
<path d="M53.2139 469.861C52.9127 470.246 52.6869 470.519 52.4986 470.83C49.4778 475.714 46.711 480.768 44.3019 486.085C40.9422 493.5 38.2319 501.18 35.804 509H87.7702C89.21 501.603 90.1794 494.112 90.8946 486.471C77.3713 483.469 64.8362 478.001 53.2139 469.861Z" fill="#F9C194"/>
<path d="M110.902 488.372C108.803 488.409 106.695 488.24 104.606 488.117C103.355 488.052 102.131 487.882 100.87 487.779C99.0727 487.628 97.2753 487.478 95.4119 487.318C95.3649 487.722 95.3084 488.033 95.2802 488.343C94.6873 493.143 94.1603 497.942 93.5016 502.723C93.2004 504.831 92.8616 506.939 92.4287 509H131.973V486.188C128.105 487.082 124.19 487.609 120.247 487.967C117.151 488.259 114.026 488.324 110.902 488.372V488.372Z" fill="#F2C2A5"/>
<path d="M94.3014 428.529C94.8096 433.131 95.4024 437.469 95.7789 441.845C96.1553 446.221 96.4094 450.616 96.5412 455.011C96.6729 459.424 96.7106 463.838 96.607 468.242C96.5035 472.599 96.2024 476.966 95.9765 481.455C99.0821 481.841 101.952 482.358 104.832 482.528C109.472 482.782 114.13 482.763 118.798 482.358C123.249 481.954 127.644 481.201 131.963 480.071V414.638C119.306 416.408 107.42 420.953 96.0612 427.343C95.4119 427.719 94.819 428.171 94.292 428.529H94.3014Z" fill="#9CBFBD"/>
<path d="M57.6936 463.01C67.8008 471.696 79.3101 476.495 91.2994 480.231C92.5887 468.233 90.9606 438.099 88.7209 432.01C76.8915 440.405 66.6809 450.794 57.6936 463.01Z" fill="#3B402E"/>
<path d="M-181.161 471.489C-176.324 471.639 -171.487 471.78 -166.659 471.865C-161.144 471.95 -155.63 472.035 -150.096 471.987C-139.17 471.922 -128.244 471.818 -117.337 471.602C-112.905 471.517 -108.482 471.206 -104.068 470.858C-98.7886 470.435 -93.5468 469.87 -88.2862 469.334C-79.4119 468.43 -70.594 467.075 -61.8043 465.466C-51.5278 463.602 -41.3265 461.325 -31.3135 458.097C-25.0177 456.083 -18.8442 453.721 -13.1224 450.023C-8.52058 447.049 -4.48336 443.388 -1.70718 438.193C0.344363 434.363 1.85949 430.317 1.67128 425.724C1.37954 418.534 -0.803752 412.135 -4.84097 406.536C-9.10405 400.616 -14.2423 395.817 -19.7853 391.488C-28.7914 384.43 -38.635 379.103 -48.7139 374.37C-73.6713 362.663 -99.4756 354.146 -125.976 348.17C-140.394 344.933 -154.849 341.931 -169.426 339.616C-176.785 338.458 -184.182 337.686 -191.616 337.159C-196.858 336.783 -202.1 336.632 -207.342 336.416V340.726C-204.001 340.914 -200.641 341.065 -197.301 341.3C-192.84 341.62 -188.36 342.025 -183.9 342.439C-175.251 343.258 -166.659 344.81 -158.114 346.457C-144.506 349.083 -130.955 352.057 -117.516 355.567C-100.351 360.065 -83.2797 364.997 -66.6509 371.65C-54.8404 376.365 -43.3404 381.879 -32.4427 388.9C-25.0647 393.652 -18.1572 399.129 -12.4355 406.338C-9.96043 409.462 -7.89006 412.869 -6.53491 416.803C-4.05988 423.898 -5.43385 430.26 -9.64047 435.925C-11.9461 439.05 -14.9011 441.403 -18.1572 443.191C-22.7214 445.703 -27.5397 447.454 -32.4239 448.893C-46.0319 452.912 -59.9128 455.189 -73.8219 457.26C-80.1177 458.191 -86.4417 458.954 -92.7563 459.65C-99.0898 460.346 -105.414 460.92 -111.757 461.419C-116.678 461.805 -121.619 462.031 -126.55 462.2C-132.639 462.407 -138.728 462.596 -144.807 462.596C-156.815 462.577 -168.833 462.426 -180.841 462.36C-188.746 462.323 -196.651 462.323 -204.575 462.379C-205.488 462.379 -206.429 462.417 -207.342 462.445V469.691C-201.893 470.181 -196.463 470.679 -191.024 471.103C-187.749 471.357 -184.436 471.413 -181.152 471.508L-181.161 471.489Z" fill="#BF7344"/>
<path d="M46.137 337.47C40.4717 343.794 35.8887 350.975 32.8678 359.341C29.527 368.535 27.4755 378.059 26.9673 387.959C26.7979 391.469 26.8167 394.998 26.8449 398.508C26.9108 404.531 27.4566 410.507 28.8494 416.323C31.8703 428.896 37.2815 440.029 44.9324 449.778C46.7487 452.121 48.7532 454.277 50.7859 456.648C61.1001 442.494 73.2306 431.183 87.2997 422.515C87.262 422.092 87.2809 421.772 87.215 421.461C85.2293 411.467 82.7825 401.633 79.564 392.043C74.087 375.838 66.8219 360.79 56.7994 347.521C53.8444 343.615 50.6542 339.992 47.2663 336.529C46.9651 336.68 46.8428 336.717 46.7581 336.802C46.5511 337.009 46.3534 337.225 46.1464 337.461L46.137 337.47Z" fill="#F2C2A5"/>
<path d="M108.53 314.959C107.947 314.329 107.373 313.755 106.488 313.755C103.251 313.755 100.061 313.294 96.7952 313.548C92.2028 313.887 87.6385 314.479 83.159 315.599C73.0613 318.14 63.6505 322.469 55.1338 329.141C54.268 329.819 53.4398 330.581 52.6399 331.278C55.4725 334.571 58.3052 337.621 60.9025 340.914C69.711 352.132 76.5621 364.733 81.8886 378.407C86.5375 390.33 89.7654 402.771 92.1369 415.476C92.3721 416.68 92.6262 417.885 92.8991 419.174C93.3414 418.958 93.5955 418.835 93.8496 418.694C105.961 412.116 118.619 407.994 131.973 407.138V348.321C131.182 346.815 130.363 345.319 129.535 343.841C123.578 333.254 116.464 323.721 108.53 314.95V314.959Z" fill="#F3D2C8"/>
<path d="M116.586 315.656C117.009 316.23 117.198 316.54 117.433 316.813C122.816 323.128 127.615 329.96 131.973 337.188V320.728C127.465 318.639 122.797 317.067 118.026 315.872C117.659 315.788 117.245 315.75 116.586 315.656V315.656Z" fill="#F3D2C8"/>
<path d="M5.18151 263.464C-0.634346 262.824 -6.47842 262.41 -12.2943 261.902C-18.863 261.337 -25.4223 260.848 -31.991 260.217C-36.5176 259.794 -40.9971 258.947 -45.3731 257.554C-50.0032 256.095 -54.4545 254.11 -58.2282 250.703C-63.6959 245.781 -66.5944 239.222 -67.7425 231.561C-69.013 223.233 -68.7118 214.848 -67.9778 206.519C-67.1496 196.845 -65.5216 187.293 -63.8747 177.779C-61.362 163.22 -58.7552 148.7 -57.4283 133.934C-57.3813 133.322 -57.306 132.73 -57.2213 131.883C-79.7883 134.527 -102.045 137.698 -124.461 141.472C-124.254 142.197 -124.141 142.696 -124 143.166C-123.172 146.206 -122.287 149.227 -121.45 152.247C-120.603 155.249 -119.775 158.27 -119.041 161.31C-112.848 186.729 -108.83 212.646 -105.32 238.657C-103.965 248.633 -102.609 258.589 -101.094 268.536C-100.097 275.152 -98.7322 281.702 -96.7653 288.045C-95.0149 293.691 -92.9163 299.121 -89.3496 303.685C-86.7993 306.979 -83.6185 309.05 -79.76 309.831C-76.0804 310.593 -72.382 310.292 -68.7306 309.68C-60.8726 308.344 -53.0335 306.848 -45.1943 305.351C-37.3551 303.855 -29.4783 302.584 -21.5451 302.217C-14.2799 301.897 -7.02425 302.302 0.203218 303.544C14.9969 306.095 28.5673 312.127 41.0459 321.397C42.7963 322.705 44.4903 324.097 46.2877 325.518C61.9096 312.372 79.4419 305.53 99.101 305.756C98.9127 305.398 98.7245 305.248 98.5551 305.078C90.1889 297.634 81.3899 290.962 71.9321 285.382C67.4525 282.756 62.8507 280.46 58.1735 278.408C53.487 276.338 48.7439 274.503 43.9539 272.724C31.334 268.056 18.4225 264.923 5.20033 263.473L5.18151 263.464Z" fill="#3B402E"/>
<path d="M98.5832 123.45C96.3434 121.088 96.3622 121.079 93.3414 121.192C88.5042 121.38 83.6859 121.512 78.8488 121.719C73.814 121.926 68.7511 122.208 63.7163 122.453C60.1402 122.603 56.5547 122.688 52.9786 122.876C49.6378 123.046 46.297 123.281 42.9656 123.488C41.7139 123.554 40.4529 123.554 39.2012 123.62C34.2794 123.874 29.3482 124.109 24.4075 124.42C18.8552 124.759 13.3122 125.144 7.75989 125.577C2.94158 125.935 -1.85792 126.302 -6.65741 126.716C-13.0003 127.271 -19.3337 127.883 -25.6577 128.495C-30.0526 128.899 -34.4662 129.323 -38.8704 129.784C-42.4842 130.142 -46.0979 130.546 -49.7117 130.951C-50.154 130.998 -50.5963 131.186 -51.1233 131.327C-51.2738 132.833 -51.4621 134.348 -51.5938 135.854C-52.6949 148.888 -54.6617 161.78 -56.6474 174.673C-58.2943 185.411 -59.6965 196.224 -61.1081 207.009C-61.4845 209.964 -61.4657 212.994 -61.6163 215.986C-61.701 217.84 -61.908 219.704 -61.8233 221.539C-61.6351 225.106 -61.588 228.719 -60.9575 232.192C-59.3483 241.029 -54.6805 247.202 -47.2178 250.599C-43.1335 252.463 -38.8328 253.498 -34.4944 254.081C-28.3492 254.881 -22.1946 255.474 -16.0305 256.086C-10.2147 256.66 -4.38941 257.14 1.44526 257.629C18.1588 259.041 34.3265 263.125 50.0519 269.609C53.3739 270.983 56.6864 272.376 59.9614 273.853C65.4385 276.31 70.8403 278.973 76.0632 282.097C87.055 288.666 97.3221 296.449 106.818 305.492C107.693 306.339 108.634 306.885 109.801 307.083C117.518 308.391 124.915 310.866 131.973 314.517V284.007C121.32 269.741 108.577 258.457 93.6613 250.242C85.9916 246.016 78.0395 242.553 70.0592 239.165C61.373 235.486 52.7528 231.702 44.4713 226.95C37.1591 222.743 30.2328 217.84 24.0782 211.676C18.0741 205.653 13.0017 198.802 9.89614 190.333C7.74108 184.46 7.01644 178.353 8.47511 172.142C10.0185 165.573 13.6981 160.689 18.6199 157.009C24.831 152.36 31.6162 149.321 39.0789 148.596C45.7511 147.918 52.3669 148.558 58.8321 150.619C71.9319 154.788 83.4789 162.091 93.5108 172.405C100.484 179.586 106.187 187.98 111.194 196.939C116.294 206.105 121.103 215.45 126.016 224.748C127.917 228.343 129.874 231.91 131.973 235.354V181.421C128.293 170.834 123.851 160.651 118.421 150.968C112.784 140.907 106.319 131.61 98.5832 123.469V123.45Z" fill="#F2C2A5"/>
<path d="M111.194 196.929C106.187 187.97 100.484 179.576 93.5108 172.396C83.4789 162.081 71.9319 154.788 58.8321 150.61C52.3669 148.558 45.7511 147.909 39.0789 148.586C31.6162 149.311 24.831 152.351 18.6199 157C13.6981 160.679 10.0185 165.563 8.47509 172.132C7.01643 178.343 7.74106 184.451 9.89613 190.323C13.0017 198.793 18.0741 205.644 24.0781 211.667C30.2328 217.821 37.1591 222.724 44.4713 226.94C52.7527 231.693 61.373 235.476 70.0591 239.156C78.0301 242.543 85.9915 246.007 93.6613 250.232C108.577 258.448 121.32 269.722 131.973 283.998V275.396C129.159 272.018 126.176 268.828 123.07 265.779C112.464 255.295 100.55 247.183 87.5443 241.057C77.1643 236.172 66.7277 231.467 56.4323 226.366C45.3841 220.918 35.4934 213.474 27.1649 203.583C23.5511 199.292 20.4926 194.539 18.1211 189.231C16.3237 185.222 15.6273 181.091 16.3049 176.621C16.8977 172.716 18.1588 169.29 20.7185 166.495C22.6195 164.425 24.7087 162.693 27.0143 161.272C32.4067 157.978 38.2319 156.35 44.3019 155.927C49.4213 155.588 54.5031 156.247 59.5003 157.602C72.9859 161.3 84.2318 169.328 93.9248 180.282C97.8962 184.78 101.406 189.73 104.681 194.887C110.14 203.489 115.005 212.514 119.71 221.642C123.183 228.39 126.561 235.212 130.617 241.565C131.079 242.261 131.521 242.958 131.973 243.654V235.344C129.874 231.9 127.917 228.333 126.016 224.738C121.103 215.44 116.294 206.096 111.194 196.929V196.929Z" fill="#BF7344"/>
<path d="M-65.4087 48.5783L-64.8817 53.0955C-64.5806 53.0579 -64.2512 53.0296 -63.9313 52.992C-56.9391 77.1682 -54.8216 101.806 -56.7226 127.13C-57.0426 127.168 -57.3719 127.196 -57.6731 127.215L-57.2308 131.901C-57.3155 132.748 -57.3814 133.341 -57.4378 133.953C-58.7647 148.709 -61.3715 163.239 -63.8842 177.798C-65.5311 187.312 -67.1591 196.864 -67.9873 206.538C-68.7213 214.867 -69.0225 223.252 -67.752 231.58C-66.5945 239.231 -63.696 245.8 -58.2377 250.722C-54.4546 254.128 -50.0127 256.114 -45.3826 257.573C-41.0066 258.965 -36.5271 259.812 -32.0005 260.236C-25.4318 260.866 -18.8725 261.356 -12.3038 261.92C-6.48796 262.429 -0.643865 262.833 5.17199 263.483C18.3847 264.922 31.2963 268.066 43.9255 272.733C48.7062 274.512 53.4586 276.347 58.1452 278.417L59.9426 273.853C56.6677 272.376 53.3645 270.983 50.0331 269.609C34.3077 263.125 18.14 259.041 1.42651 257.629C-4.40817 257.14 -10.2334 256.66 -16.0493 256.086C-22.2039 255.474 -28.368 254.881 -34.5132 254.081C-38.8516 253.507 -43.1523 252.472 -47.2366 250.599C-54.6993 247.202 -59.367 241.028 -60.9763 232.192C-61.6068 228.71 -61.6539 225.096 -61.8421 221.539C-61.9268 219.704 -61.7197 217.84 -61.635 215.986C-61.4845 213.003 -61.5033 209.964 -61.1268 207.009C-59.7152 196.214 -58.313 185.411 -56.6661 174.673C-54.6805 161.78 -52.7136 148.888 -51.6126 135.854C-51.4808 134.348 -51.2926 132.833 -51.142 131.327C-50.615 131.195 -50.1727 131.007 -49.7304 130.951C-46.1167 130.546 -42.5029 130.141 -38.8892 129.784C-34.4756 129.323 -30.0619 128.899 -25.6765 128.495C-19.3525 127.883 -13.019 127.271 -6.67616 126.716L-6.69499 122.359C-8.47362 122.49 -10.2617 122.65 -12.0403 122.82C-18.2702 123.385 -24.4907 123.987 -30.7018 124.57C-35.3037 125.013 -39.8773 125.436 -44.4604 125.878C-46.4272 126.085 -48.4129 126.283 -50.7091 126.518C-49.194 101.288 -51.1138 76.6412 -58.2566 52.3897C-47.0954 51.5898 -36.1507 50.8275 -24.9707 50.0276L-25.2624 45.8398C-36.6494 46.555 -48.0177 47.2797 -59.6494 48.0137C-63.8371 35.2903 -70.1329 23.7716 -78.0944 13.3821L-82.3669 15.396C-75.1395 25.0326 -69.6248 35.7609 -65.7099 47.5432C-65.6064 47.8349 -65.5405 48.136 -65.437 48.5783H-65.4087Z" fill="#BF7344"/>
<path d="M119.71 221.652C115.005 212.523 110.14 203.498 104.681 194.897C101.406 189.74 97.8962 184.79 93.9249 180.291C84.2318 169.328 72.9859 161.31 59.5003 157.612C54.4938 156.256 49.4214 155.588 44.3019 155.936C38.232 156.36 32.4067 157.988 27.0143 161.282C24.7087 162.703 22.6195 164.434 20.7186 166.505C18.1588 169.3 16.8978 172.735 16.3049 176.631C15.6273 181.091 16.3237 185.232 18.1212 189.241C20.4927 194.549 23.5512 199.301 27.1649 203.593C35.4935 213.483 45.3842 220.937 56.4324 226.376C66.7278 231.486 77.1643 236.182 87.5444 241.066C100.559 247.193 112.464 255.295 123.07 265.788C126.176 268.847 129.159 272.037 131.973 275.406V243.664C131.521 242.967 131.079 242.271 130.617 241.574C126.561 235.232 123.183 228.409 119.71 221.652V221.652Z" fill="#3B402E"/>
<path d="M102.959 46.7903C100.127 46.5551 97.2751 46.3951 94.4424 46.2257C88.9465 45.8869 83.4318 45.5669 77.9359 45.2564C76.1667 45.1529 74.4069 45.134 72.6471 45.087C67.81 44.9552 62.9728 44.7858 58.1451 44.7106C49.2049 44.5788 40.2647 44.4376 31.3433 44.4565C24.5581 44.4565 17.7917 44.6729 11.016 44.8329C6.63999 44.9364 2.26399 45.087 -2.11202 45.2093C-7.07149 45.3411 -12.0027 45.4634 -16.9622 45.5952C-18.2044 45.6422 -19.4372 45.7834 -20.83 45.8869C-22.411 36.382 -24.0579 27.0371 -26.3824 17.8052L-30.0808 18.7368C-28.4057 25.0797 -26.1659 37.2666 -25.2249 45.8116L-24.9331 49.9994L-24.7073 49.9806C-24.472 51.9286 -24.3026 53.679 -24.0767 55.4294C-23.3803 61.0476 -22.7216 66.6753 -21.9405 72.2935C-21.517 75.2673 -20.6983 78.147 -19.1267 80.6597C-17.7998 82.8147 -15.9929 84.311 -13.9225 85.478C-10.0077 87.6801 -5.78222 88.6306 -1.4815 89.3458C3.69442 90.1928 8.87976 90.5974 14.1121 90.9927C25.1416 91.8208 36.171 93.016 47.078 95.1522C61.7212 98.0319 75.348 103.791 87.5632 113.494C87.7796 113.682 88.0243 113.87 88.2407 114.068C88.2784 114.106 88.2878 114.171 88.3913 114.473C87.2526 114.557 86.1892 114.642 85.0976 114.708C80.4675 115.047 75.8185 115.385 71.1696 115.705C68.2899 115.912 65.382 116.044 62.5023 116.251C58.1451 116.571 53.7973 116.929 49.4402 117.249C46.824 117.437 44.2172 117.569 41.6198 117.795C36.6509 118.218 31.6726 118.707 26.6943 119.169C23.3723 119.47 20.0221 119.761 16.6813 120.081C10.696 120.655 4.70138 121.267 -1.28387 121.851C-3.0625 122.02 -4.85054 122.171 -6.648 122.331L-6.62919 126.688C-1.8297 126.283 2.9698 125.907 7.78811 125.549C13.3311 125.126 18.8834 124.73 24.4358 124.391C29.3764 124.09 34.3076 123.846 39.2295 123.592C40.4811 123.526 41.7421 123.526 42.9938 123.46C46.3158 123.253 49.666 123.018 53.0068 122.848C56.5829 122.66 60.1684 122.575 63.7445 122.425C68.7793 122.189 73.8423 121.898 78.877 121.691C83.7142 121.484 88.5325 121.352 93.3696 121.164C96.3904 121.041 96.3716 121.06 98.6114 123.422C106.347 131.563 112.812 140.86 118.449 150.92C123.879 160.604 128.321 170.787 132.001 181.374V162.317C126.646 149.368 119.936 137.322 111.645 126.368C110.29 124.589 108.879 122.858 107.298 120.872C112.445 120.326 117.348 120.401 122.251 120.401C125.507 120.401 128.745 120.42 132.001 120.42V113.4C128.359 113.296 124.689 113.193 121.047 113.193C115.701 113.212 110.337 113.108 105.03 113.682C101.896 114.021 99.7501 113.004 97.4162 110.831C83.0648 97.5426 66.6242 89.2141 48.2826 85.7885C43.5867 84.9227 38.8342 84.4428 34.1006 83.8499C28.4542 83.1347 22.7701 83.0877 17.086 83.05C11.2325 83.0124 5.36013 82.8994 -0.493364 82.6453C-2.86488 82.5418 -5.22698 82.1183 -7.57026 81.6572C-11.8992 80.8385 -14.7789 77.9588 -16.1246 73.3287C-16.9528 70.4113 -17.5457 67.4093 -18.0633 64.4073C-18.8255 59.8901 -19.4372 55.3447 -20.096 50.7993C-20.1336 50.564 -20.0772 50.31 -20.0489 49.9524C-18.9479 49.8865 -17.8939 49.7641 -16.8116 49.7359C-12.5015 49.6041 -8.19137 49.4348 -3.86242 49.3501C3.75089 49.1995 11.3736 49.0583 18.9869 48.9642C27.5225 48.8607 36.058 48.7289 44.5936 48.7289C50.7859 48.7478 56.997 48.9454 63.1893 49.1054C67.33 49.2089 71.4896 49.3218 75.6209 49.4912C80.9662 49.7077 86.2927 49.9523 91.6192 50.2723C96.6069 50.5735 101.576 50.9687 106.564 51.411C114.76 52.1356 122.948 52.9356 131.144 53.7167C131.436 53.7543 131.709 53.7825 131.991 53.8202V49.3406C127.597 48.9172 123.192 48.5219 118.779 48.1361C113.518 47.6749 108.239 47.2044 102.978 46.7809L102.959 46.7903Z" fill="#BF7344"/>
<path d="M107.27 120.9C108.851 122.886 110.262 124.617 111.617 126.396C119.908 137.359 126.618 149.405 131.973 162.345V120.439C128.717 120.439 125.479 120.42 122.223 120.42C117.32 120.42 112.417 120.354 107.27 120.891V120.9Z" fill="#F3D2C8"/>
<path d="M-50.6902 126.499C-48.4034 126.264 -46.4177 126.057 -44.4415 125.86C-39.8584 125.417 -35.2848 124.994 -30.6829 124.551C-24.4718 123.977 -18.2513 123.366 -12.0214 122.801C-10.2428 122.632 -8.45471 122.481 -6.67608 122.34C-4.87862 122.189 -3.09999 122.029 -1.31194 121.86C4.6733 121.286 10.668 120.674 16.6532 120.091C19.994 119.771 23.3348 119.479 26.6663 119.178C31.654 118.717 36.6228 118.227 41.5917 117.804C44.1891 117.588 46.8053 117.446 49.4121 117.258C53.7693 116.938 58.117 116.581 62.4742 116.261C65.3539 116.054 68.2618 115.922 71.1415 115.715C75.7904 115.395 80.4394 115.056 85.0695 114.717C86.1517 114.651 87.2245 114.567 88.3632 114.482C88.2597 114.181 88.2409 114.106 88.2127 114.077C87.9962 113.87 87.7515 113.691 87.5351 113.503C75.3199 103.801 61.6931 98.0508 47.05 95.1617C36.1429 93.0254 25.1135 91.8397 14.0841 91.0021C8.86109 90.6068 3.66634 90.2022 -1.50958 89.3552C-5.80089 88.64 -10.0263 87.6895 -13.9506 85.4874C-16.021 84.3205 -17.8373 82.8241 -19.1548 80.6691C-20.7358 78.1564 -21.5451 75.2767 -21.9686 72.3029C-22.7497 66.6847 -23.4084 61.057 -24.1048 55.4388C-24.3213 53.6884 -24.4907 51.9474 -24.7353 49.99L-24.9612 50.0088C-36.1412 50.8087 -47.0859 51.571 -58.2471 52.3709C-51.1043 76.613 -49.1845 101.269 -50.6996 126.499H-50.6902Z" fill="#F3D2C8"/>
<path d="M106.535 51.4299C101.548 50.9876 96.5788 50.6017 91.5911 50.2912C86.2646 49.9712 80.9381 49.7265 75.5928 49.5101C71.4521 49.3407 67.2925 49.2183 63.1612 49.1242C56.9689 48.9737 50.7578 48.7666 44.5655 48.7478C36.0299 48.7478 27.4944 48.8796 18.9588 48.9831C11.3361 49.0866 3.72278 49.2183 -3.89053 49.3689C-8.21948 49.4536 -12.5296 49.623 -16.8397 49.7548C-17.922 49.7924 -18.976 49.9053 -20.077 49.9712C-20.1147 50.3288 -20.1617 50.5829 -20.1241 50.8182C-19.4653 55.3636 -18.8536 59.909 -18.0914 64.4261C-17.5832 67.4282 -16.9903 70.4302 -16.1528 73.3475C-14.8164 77.9776 -11.9273 80.8667 -7.59838 81.6761C-5.2551 82.1372 -2.9024 82.5607 -0.521476 82.6642C5.33202 82.9183 11.2043 83.0406 17.0578 83.0689C22.7419 83.1065 28.426 83.1536 34.0725 83.8688C38.8061 84.4617 43.5585 84.9416 48.2545 85.8074C66.5961 89.2329 83.0367 97.5614 97.3881 110.849C99.7314 113.023 101.868 114.04 105.001 113.701C110.309 113.127 115.673 113.221 121.019 113.212C124.661 113.212 128.331 113.315 131.973 113.419V53.839C131.69 53.8014 131.417 53.7732 131.126 53.7355C122.929 52.9544 114.742 52.1545 106.545 51.4299H106.535Z" fill="#F2C2A5"/>
<path d="M116.144 23.1974C112.417 22.8963 108.7 22.5199 104.964 22.2281C102.009 22.0023 99.0631 21.8893 96.1081 21.7011C91.5251 21.3812 86.942 21.0047 82.3496 20.7036C78.1053 20.4118 73.8516 20.1766 69.6074 19.9413C64.8361 19.6684 60.0743 19.4143 55.3218 19.1602C50.4377 18.9061 45.5629 18.6332 40.6787 18.3979C35.4745 18.125 30.2422 17.8709 25.038 17.6357C21.509 17.4663 17.9799 17.3628 14.4697 17.2498C12.9452 17.184 11.4018 17.1651 9.87728 17.0993C5.67066 16.8922 1.48287 16.657 -2.71433 16.4876C-6.75155 16.3182 -10.7888 16.2335 -14.8166 16.0641C-16.9152 15.9982 -19.0044 15.7912 -21.1124 15.7253C-22.9757 15.6594 -24.8484 15.7065 -26.9282 15.7065C-26.74 16.4217 -26.5518 17.1181 -26.3824 17.8239C-24.0579 27.0558 -22.4111 36.4007 -20.8301 45.9056C-19.4373 45.8021 -18.2044 45.6703 -16.9622 45.6139C-12.0122 45.4821 -7.07152 45.3598 -2.11204 45.228C2.26396 45.1057 6.63996 44.9551 11.016 44.8516C17.7823 44.701 24.5581 44.4752 31.3432 44.4752C40.2646 44.4564 49.2049 44.5975 58.1451 44.7293C62.9822 44.7951 67.8193 44.9645 72.6471 45.1057C74.4163 45.1527 76.1761 45.1716 77.9359 45.2751C83.4318 45.5762 88.9465 45.9056 94.4424 46.2444C97.275 46.4138 100.126 46.5644 102.959 46.809C108.22 47.2325 113.499 47.7125 118.76 48.1642C123.173 48.55 127.578 48.9453 131.973 49.3688V24.4114C128.905 24.1762 125.846 23.9221 122.778 23.6774C120.576 23.4892 118.365 23.3762 116.144 23.188V23.1974Z" fill="#9CBFBD"/>
<path d="M-90.6766 6.29578C-91.3353 6.34283 -91.6459 6.41812 -91.9658 6.41812C-100.944 6.24872 -109.912 6.07933 -118.871 5.89112C-121.996 5.83465 -125.12 5.68408 -128.235 5.65585C-136.14 5.58997 -144.045 5.57115 -151.95 5.5241C-165.539 5.4394 -179.128 5.28883 -192.717 5.30765C-197.583 5.32647 -202.476 5.64644 -207.342 5.90053V11.1611C-202.053 11.227 -196.736 11.3117 -191.447 11.3494C-183.42 11.387 -175.402 11.3305 -167.374 11.3682C-160.439 11.387 -153.493 11.4152 -146.539 11.4905C-138.022 11.594 -129.487 11.7258 -120.951 11.8764C-115.333 11.9799 -109.705 12.1116 -104.087 12.2716C-99.4192 12.3751 -94.7702 12.5069 -90.1119 12.648C-89.2085 12.6857 -88.2768 12.9868 -87.411 12.8645C-85.2089 12.5445 -83.7596 13.5232 -82.3386 15.4054L-78.0661 13.3915C-76.0146 13.3915 -74.1513 13.3444 -72.2785 13.3915C-68.646 13.495 -65.0134 13.6268 -61.3902 13.7962C-58.0306 13.9656 -54.7086 14.2196 -51.3678 14.4079C-50.1632 14.4737 -48.9775 14.5114 -47.7917 14.5584C-44.6673 14.6808 -41.5524 14.7937 -38.428 14.9443C-35.9812 15.076 -33.5626 15.2642 -31.1629 15.4148C-30.8617 16.1488 -30.4853 17.297 -30.0901 18.7556L-26.3916 17.824C-26.561 17.1087 -26.7492 16.4123 -26.9374 15.7065C-24.8483 15.7065 -22.9849 15.6595 -21.1216 15.7254C-19.023 15.7912 -16.9338 15.9983 -14.8258 16.0642C-10.8074 16.2335 -6.77018 16.3182 -2.72355 16.4876C1.46424 16.657 5.66145 16.8923 9.86806 17.0993C11.3926 17.1652 12.936 17.184 14.4605 17.2499C17.9707 17.3722 21.4997 17.4664 25.0288 17.6357C30.2423 17.871 35.4653 18.1251 40.6695 18.398C45.5536 18.6333 50.4284 18.9062 55.3126 19.1603C60.065 19.4144 64.8269 19.6685 69.5982 19.9414C73.8424 20.1767 78.0961 20.4119 82.3403 20.7037C86.9422 21.0142 91.5158 21.3812 96.0989 21.7012C99.0539 21.8894 101.999 22.0023 104.954 22.2282C108.69 22.5199 112.408 22.887 116.134 23.1975C118.355 23.3857 120.567 23.4987 122.769 23.6869C125.837 23.9221 128.895 24.1762 131.963 24.4209V19.0285C127.728 18.6709 123.465 18.2945 119.221 17.9557C115.08 17.6169 110.958 17.344 106.818 17.0429C101.322 16.657 95.8448 16.2618 90.3395 15.8853C86.1517 15.6124 81.9545 15.3583 77.7667 15.1231C72.6567 14.8502 67.556 14.6149 62.4648 14.342C57.5241 14.0879 52.5929 13.8526 47.6523 13.5797C42.7869 13.3256 37.9121 13.0715 33.0279 12.8174C28.2096 12.5633 23.3913 12.2904 18.573 12.0552C13.1995 11.7823 7.79769 11.547 2.42414 11.2741C-0.304981 11.1517 -3.02469 11.0388 -5.75382 10.8976C-11.2497 10.6436 -16.7456 10.4083 -22.2415 10.1165C-24.3495 10.013 -26.4293 9.80599 -28.6596 9.65542C-28.829 9.27899 -29.0455 8.85551 -29.2149 8.40379C-30.2312 5.50527 -31.3887 2.70087 -32.7627 0.0187988H-37.054C-35.68 2.51265 -34.4755 5.13825 -33.4779 7.87679C-33.3085 8.33791 -33.1862 8.80845 -32.998 9.45779C-35.5106 9.30722 -37.8822 9.16606 -40.2443 9.03431C-42.9734 8.88374 -45.6931 8.7614 -48.4222 8.592C-53.3911 8.27204 -58.3788 7.91443 -63.3477 7.59446C-64.5523 7.52859 -65.738 7.50977 -66.9238 7.46271C-70.3869 7.33096 -73.8501 7.20862 -77.3227 7.07687C-79.1201 6.99217 -80.9364 6.86984 -82.7527 6.80396C-83.5338 6.78514 -84.1455 6.44635 -84.7384 5.87229C-86.8087 3.7831 -88.9826 1.8539 -91.2224 0.0376204H-98.2616C-96.483 1.3269 -94.7326 2.71969 -93.0387 4.17836C-92.3234 4.77123 -91.6459 5.42999 -90.6766 6.3146V6.29578Z" fill="#BF7344"/>
<path d="M-28.6503 9.65542C-26.4294 9.80599 -24.3402 10.013 -22.2322 10.1165C-16.7363 10.4083 -11.2404 10.6436 -5.74453 10.8976C-3.0154 11.0294 -0.295692 11.1517 2.43343 11.2741C7.80698 11.547 13.2088 11.7823 18.5823 12.0552C23.4006 12.2904 28.2189 12.5633 33.0372 12.8174C37.9214 13.0715 42.7962 13.3256 47.6616 13.5797C52.6022 13.8526 57.5335 14.0879 62.4741 14.342C67.5653 14.6149 72.666 14.8502 77.776 15.1231C81.9638 15.3583 86.161 15.6124 90.3488 15.8853C95.8447 16.2618 101.322 16.6476 106.827 17.0429C110.968 17.3534 115.09 17.6169 119.23 17.9557C123.475 18.2945 127.738 18.6709 131.973 19.0285V0.0187988H-32.7534C-31.3794 2.70087 -30.2219 5.49586 -29.2056 8.40379C-29.0362 8.86492 -28.8103 9.2884 -28.6503 9.65542V9.65542Z" fill="#F3D2C8"/>
</g>
<defs>
<clipPath id="clip0_501_4997">
<rect width="132" height="509" fill="white"/>
</clipPath>
</defs>
</svg>
