<svg width="92" height="84" viewBox="0 0 92 84" fill="none" xmlns="http://www.w3.org/2000/svg">
<rect width="92" height="84" fill="#BF7344"/>
<path d="M20.9254 83.9908C19.0271 79.6022 18.7092 74.9918 19.2142 70.2984C19.7285 65.5217 20.4859 60.7728 21.1873 56.0239C22.1598 49.6397 23.3194 43.2739 24.161 36.8804C24.7501 32.4272 25.0961 27.937 25.3673 23.4652C25.5075 21.2571 25.227 19.0397 25.1802 16.8223C25.0867 12.5815 24.4415 8.38696 23.5812 4.22935C23.2165 2.45543 22.7583 2.71848 22.2627 1H29.1452C29.8559 3.55 30.4731 4.13696 30.9406 6.77935C32.0815 13.3484 32.4555 19.9451 32.1563 26.5418C31.8103 33.7576 30.6414 40.9087 29.2574 48.0321C27.8828 55.1554 26.5081 62.2788 25.2738 69.4114C24.7033 72.7283 24.4228 76.0913 25.1335 79.4359C25.4701 81.0897 26.0873 82.6141 26.957 84H20.9254V83.9908ZM67.9061 2.22446C67.7845 1.14348 67.6349 1.07174 67.4946 0H72.5536C72.8529 2.19891 73.1147 3.4163 73.3017 5.6337C73.7506 10.937 74.1901 16.2217 74.7231 21.5158C75.2842 27.1147 75.8359 32.7043 76.5747 38.2848C77.1077 42.2299 78.0615 46.1288 79.7821 49.8429C82.9055 56.6245 88.6097 60.8652 96.764 62.3342C99.9715 62.9071 103.301 62.9533 106.592 63.1196C108.275 63.1935 109.996 63.0087 111.707 62.9348C114.457 62.7962 117.262 62.8147 119.983 62.4728C129.942 61.1886 139.911 59.9136 149.814 58.4168C154.873 57.65 159.932 56.8924 165 56.1902V61.9832C158.968 62.9255 152.956 63.9696 146.933 64.9859C138.153 66.4826 129.344 67.9701 120.423 68.7185C112.736 69.3837 105.012 69.6609 97.3251 68.506C90.2649 67.4527 84.2053 64.8196 79.6699 59.8582C76.5279 56.4212 74.6951 52.3837 73.3485 48.1707C72.0674 44.1886 71.2819 40.1234 70.8891 36.012C70.3093 30.0435 69.8605 24.0842 69.3368 18.1158C68.8692 12.831 68.4952 7.52772 67.9061 2.2337V2.22446Z" fill="#F9C194"/>
</svg>
