<svg width="36" height="36" viewBox="0 0 36 36" fill="none" xmlns="http://www.w3.org/2000/svg">
<path d="M4.69091 4.8C3.81818 4.90909 2.94545 5.34545 2.29091 6C1.52727 6.70909 1.09091 7.74545 1.09091 8.89091V27.6C1.2 27.4364 1.36364 27.2727 1.52727 27.1091C2.4 26.2364 3.49091 25.7455 4.69091 25.5818V4.8ZM1.09091 30.7636C1.09091 33.0545 2.94545 34.9091 5.23636 34.9091H34.9091V9.43636H5.78182V26.1273C5.78182 26.4545 5.56364 26.6727 5.23636 26.6727C4.14545 26.6727 3.10909 27.1091 2.29091 27.8727C1.52727 28.6364 1.09091 29.6727 1.09091 30.7636ZM35.4545 36H5.23636C2.34545 36 0 33.6545 0 30.7636V8.89091C0 7.47273 0.545455 6.16364 1.52727 5.18182C2.50909 4.2 3.81818 3.65455 5.23636 3.65455C5.56364 3.65455 5.78182 3.87273 5.78182 4.2V8.34545H35.4545C35.7818 8.34545 36 8.56364 36 8.89091V35.4545C36 35.7818 35.7818 36 35.4545 36Z" fill="#3B402E"/>
<path d="M15.3273 6.05455H31.7455C33.1091 6.05455 34.2 4.96364 34.2 3.6C34.2 2.23636 33.1091 1.09091 31.7455 1.09091H15.3273V6.05455ZM31.7455 7.14545H14.7818C14.6182 7.14545 14.5091 7.09091 14.4 6.98182C14.2909 6.87273 14.2364 6.76364 14.2364 6.6V0.545455C14.2364 0.218182 14.4545 0 14.7818 0H31.7455C33.7091 0 35.2909 1.58182 35.2909 3.54545C35.2909 5.50909 33.7091 7.14545 31.7455 7.14545Z" fill="#3B402E"/>
<path d="M14.7818 7.14545C14.7273 7.14545 14.6727 7.14545 14.5636 7.09091L6.65455 4.09091C6.43636 4.03636 6.32727 3.81818 6.32727 3.6C6.32727 3.38182 6.49091 3.16364 6.65455 3.10909L14.5636 0.109091C14.8364 -7.45058e-09 15.1636 0.163636 15.2727 0.436364C15.3818 0.709091 15.2182 1.03636 14.9455 1.14545L8.4 3.54545L15 6.05455C15.2727 6.16364 15.4364 6.49091 15.3273 6.76364C15.2182 6.98182 15 7.14545 14.7818 7.14545Z" fill="#3B402E"/>
<path d="M29.7818 7.14545C29.4545 7.14545 29.2364 6.92727 29.2364 6.6V0.545455C29.2364 0.218182 29.4545 0 29.7818 0C30.1091 0 30.3273 0.218182 30.3273 0.545455V6.6C30.3273 6.87273 30.0545 7.14545 29.7818 7.14545Z" fill="#3B402E"/>
<path d="M27.1636 21.2727H5.23636C4.90909 21.2727 4.69091 21.0545 4.69091 20.7273C4.69091 20.4 4.90909 20.1818 5.23636 20.1818H26.6182V8.89091C26.6182 8.56364 26.8364 8.34545 27.1636 8.34545C27.4909 8.34545 27.7091 8.56364 27.7091 8.89091V20.7273C27.7091 21 27.4364 21.2727 27.1636 21.2727Z" fill="#3B402E"/>
<path d="M35.4545 17.2909H30.1636C29.8364 17.2909 29.6182 17.0727 29.6182 16.7455C29.6182 16.4182 29.8364 16.2 30.1636 16.2H35.4545C35.7818 16.2 36 16.4182 36 16.7455C36 17.0727 35.7818 17.2909 35.4545 17.2909Z" fill="#3B402E"/>
<path d="M11.3455 36C11.0182 36 10.8 35.7818 10.8 35.4545V25.5818C10.8 25.2545 11.0182 25.0364 11.3455 25.0364H19.4182C19.7455 25.0364 19.9636 25.2545 19.9636 25.5818C19.9636 25.9091 19.7455 26.1273 19.4182 26.1273H11.8909V35.4545C11.8909 35.7818 11.6727 36 11.3455 36Z" fill="#3B402E"/>
<path d="M23.1273 36C22.8 36 22.5818 35.7818 22.5818 35.4545V25.5818C22.5818 25.2545 22.8 25.0364 23.1273 25.0364H35.4545C35.7818 25.0364 36 25.2545 36 25.5818C36 25.9091 35.7818 26.1273 35.4545 26.1273H23.6727V35.4545C23.6727 35.7818 23.4 36 23.1273 36Z" fill="#3B402E"/>
</svg>
