<svg width="38" height="27" viewBox="0 0 38 27" fill="none" xmlns="http://www.w3.org/2000/svg">
<path d="M34.87 4.06H7.5L11.01 15.4L32.17 12.15L34.87 4.06ZM11.04 23.52C10.65 23.52 10.34 23.83 10.34 24.22C10.34 24.61 10.65 24.92 11.04 24.92C11.43 24.92 11.74 24.61 11.74 24.22C11.74 23.83 11.43 23.52 11.04 23.52ZM11.04 21.44C12.57 21.44 13.81 22.68 13.81 24.21C13.81 25.74 12.57 26.98 11.04 26.98C9.51 26.98 8.27 25.74 8.27 24.21C8.27 22.68 9.51 21.44 11.04 21.44ZM31.83 23.52C31.44 23.52 31.13 23.83 31.13 24.22C31.13 24.61 31.44 24.92 31.83 24.92C32.22 24.92 32.53 24.61 32.53 24.22C32.53 23.83 32.22 23.52 31.83 23.52ZM31.83 21.44C33.36 21.44 34.6 22.68 34.6 24.21C34.6 25.74 33.35 26.98 31.83 26.98C30.31 26.98 29.06 25.74 29.06 24.21C29.06 22.68 30.3 21.44 31.83 21.44ZM12.38 7.52C11.02 7.52 11.02 5.44 12.38 5.44H29.7C31.07 5.44 31.07 7.52 29.7 7.52H12.38ZM12.38 11.22C11.02 11.22 11.02 9.14 12.38 9.14H29.7C31.07 9.14 31.07 11.22 29.7 11.22H12.38ZM6.61 1.98H36.31C36.88 1.98 37.35 2.44 37.35 3.02C37.35 3.78 34.41 11.98 33.94 13.41C33.81 13.79 33.48 14.05 33.11 14.1L11.34 17.45V18.42H32.84C34.21 18.42 34.21 20.5 32.84 20.5H10.29C9.72 20.5 9.25 20.03 9.25 19.46V16.7L5.16 3.5L4.08 2.08H1.02C-0.34 2.08 -0.34 0 1.02 0H4.59C4.9 0 5.21 0.15 5.41 0.41L6.6 1.98H6.61Z" fill="#BF7344"/>
</svg>
