<svg width="31" height="37" viewBox="0 0 31 37" fill="none" xmlns="http://www.w3.org/2000/svg">
<path d="M25.9169 33.9C24.7969 33.9 23.8769 32.95 23.8769 31.78C23.8769 30.95 24.9969 28.28 25.9169 26.32C26.8369 28.28 27.9569 30.95 27.9569 31.78C27.9569 32.95 27.0469 33.9 25.9169 33.9ZM25.9169 24.71C25.7369 24.71 25.5769 24.81 25.4969 24.98C25.2369 25.51 22.9369 30.26 22.9369 31.78C22.9369 33.5 24.2769 34.89 25.9269 34.89C27.5769 34.89 28.9169 33.49 28.9169 31.78C28.9169 30.26 26.6169 25.52 26.3569 24.98C26.2769 24.81 26.1069 24.71 25.9369 24.71H25.9169Z" fill="#BF7344"/>
<path d="M28.3269 20.22H22.5469V18.65C24.3469 18.3 26.2869 18.07 28.3269 17.98V20.22ZM10.1569 12.59H2.58687C2.58687 12.59 2.58687 12.57 2.58687 12.55L8.60687 9.88998C9.45687 10.54 10.0069 11.51 10.1369 12.59H10.1569ZM1.90688 11.78L1.09688 9.78998L19.0669 1.85998C19.5869 1.62998 20.1969 1.88998 20.4269 2.43998C20.5369 2.69998 20.5369 2.99998 20.4269 3.25998C20.3269 3.52998 20.1269 3.72998 19.8769 3.84998L1.90688 11.78ZM30.2069 13.97H11.1369V13.09C11.1369 13.09 11.1369 13.09 11.1369 13.08C11.1369 11.68 10.5769 10.38 9.60687 9.45998L20.2469 4.75998C20.7369 4.53998 21.1069 4.13998 21.3069 3.62998C21.5069 3.11998 21.4969 2.54998 21.2969 2.04998C20.8669 0.999984 19.6969 0.509984 18.6969 0.949984L0.286875 9.06998C0.046875 9.17998 -0.063125 9.46998 0.036875 9.71998L1.21688 12.62C1.26688 12.74 1.35688 12.84 1.47688 12.89C1.51688 12.91 1.56688 12.91 1.61688 12.92C1.61688 12.97 1.61688 13.02 1.61688 13.07C1.61688 13.07 1.61688 13.08 1.61688 13.09V36C1.61688 36.27 1.82687 36.5 2.09687 36.5H10.6569C10.9169 36.5 11.1369 36.28 11.1369 36V27.62C10.8069 27.5 10.4869 27.34 10.1869 27.15V35.5H2.55687V13.58H10.1869V17.71C10.4869 17.52 10.8069 17.36 11.1369 17.24V14.96H29.7269V16.95C24.8969 17 20.5369 17.82 17.1769 19.16C17.3669 19.43 17.5369 19.72 17.6769 20.02C18.8669 19.56 20.1869 19.16 21.6069 18.84V20.71C21.6069 20.98 21.8169 21.21 22.0869 21.21H28.8269C29.0869 21.21 29.3069 20.99 29.3069 20.71V17.94C29.6069 17.94 29.9169 17.93 30.2269 17.93C30.4869 17.93 30.7069 17.71 30.7069 17.43V14.45C30.7069 14.18 30.4969 13.95 30.2269 13.95" fill="#BF7344"/>
<path d="M17.5969 20.3C17.5469 20.18 17.4569 20.08 17.3369 20.03C17.2169 19.98 17.0869 19.98 16.9769 20.03C16.8569 20.08 16.7669 20.18 16.7269 20.3C16.6869 20.42 16.6869 20.56 16.7369 20.68C17.1269 21.61 17.1969 22.65 16.9269 23.63C16.6569 24.61 16.0669 25.45 15.2669 26.03C14.4569 26.6 13.4869 26.86 12.5169 26.77C11.5469 26.67 10.6369 26.23 9.94687 25.51C9.25688 24.79 8.82687 23.85 8.73687 22.83C8.64687 21.82 8.89687 20.81 9.44687 19.97C9.99687 19.13 10.8069 18.52 11.7469 18.24C12.6869 17.96 13.6869 18.03 14.5769 18.43C14.7269 18.5 14.9069 18.48 15.0369 18.37C15.1669 18.27 15.2369 18.1 15.2169 17.93C15.1969 17.76 15.0969 17.61 14.9469 17.54C13.8569 17.04 12.6369 16.96 11.4869 17.3C10.3369 17.64 9.34688 18.39 8.67688 19.42C8.00688 20.44 7.69688 21.68 7.81687 22.92C7.92688 24.16 8.44687 25.31 9.28687 26.19C10.1269 27.07 11.2369 27.61 12.4269 27.73C13.6069 27.85 14.7969 27.53 15.7869 26.83C16.7669 26.13 17.4869 25.1 17.8169 23.91C18.1469 22.72 18.0669 21.44 17.5869 20.31L17.5969 20.3Z" fill="#BF7344"/>
<path d="M12.5769 22.77C12.6669 22.86 12.7769 22.91 12.9069 22.91C13.0369 22.91 13.1469 22.86 13.2369 22.77L16.4869 19.38C16.5769 19.29 16.6269 19.17 16.6269 19.04C16.6269 18.91 16.5769 18.78 16.4869 18.69C16.3969 18.6 16.2769 18.55 16.1569 18.55C16.0369 18.55 15.9169 18.6 15.8269 18.7L12.5669 22.09C12.4769 22.18 12.4269 22.3 12.4269 22.43C12.4269 22.56 12.4769 22.68 12.5669 22.77" fill="#BF7344"/>
</svg>
