<svg width="39" height="28" viewBox="0 0 39 28" fill="none" xmlns="http://www.w3.org/2000/svg">
<path d="M17.343 22.7309C16.813 23.2609 16.523 23.9709 16.523 24.7209C16.513 25.4709 16.803 26.1909 17.333 26.7209C17.863 27.2509 18.583 27.5409 19.333 27.5309C20.083 27.5309 20.793 27.2309 21.323 26.7109C21.853 26.1809 22.143 25.4709 22.143 24.7209C22.143 23.9709 21.843 23.2609 21.323 22.7309C20.793 22.2009 20.073 21.9109 19.333 21.9109C18.583 21.9109 17.873 22.2109 17.343 22.7409M11.963 19.4409C11.853 19.5509 11.733 19.6709 11.703 19.8309C11.623 20.1609 11.693 20.4509 12.003 20.6209C12.353 20.8209 12.643 20.7209 12.933 20.4509C15.513 18.0809 18.513 17.3409 21.893 18.2409C23.363 18.6309 24.633 19.4009 25.723 20.4609C26.173 20.9009 26.773 20.8409 26.953 20.3309C27.093 19.9509 26.923 19.6809 26.653 19.4209C24.593 17.4909 22.143 16.5309 19.323 16.4809C16.493 16.5309 14.033 17.4909 11.973 19.4409M8.14305 15.5009C7.71305 15.9009 7.67305 16.3209 7.98305 16.6309C8.29305 16.9409 8.70305 16.9009 9.09305 16.5109C13.593 12.1009 20.633 11.1009 26.193 14.0809C27.493 14.7809 28.693 15.6109 29.723 16.6809C29.973 16.9409 30.383 16.9609 30.663 16.7409C30.963 16.5209 30.943 16.2509 30.813 15.9309C30.713 15.7309 30.573 15.5509 30.403 15.4009C27.293 12.4909 23.593 11.0509 19.353 10.9809C15.023 11.0409 11.283 12.5209 8.15305 15.5009M4.16305 11.7109C3.83305 12.0409 3.81305 12.4409 4.10305 12.7309C4.38305 13.0309 4.78305 13.0109 5.12305 12.7009C5.22305 12.6109 5.31305 12.5209 5.41305 12.4309C10.313 7.93091 16.063 6.15091 22.623 7.14091C26.853 7.78091 30.503 9.69091 33.573 12.6909C33.673 12.7809 33.763 12.8809 33.893 12.9109C34.243 13.0009 34.533 12.9309 34.713 12.6109C34.903 12.2609 34.803 11.9609 34.523 11.6909C30.303 7.61091 25.243 5.60091 19.393 5.52091C19.243 5.52091 19.103 5.52091 18.953 5.52091C14.163 5.62091 9.86305 7.13091 6.06305 10.0409C5.39305 10.5509 4.76305 11.1109 4.16305 11.7109ZM38.393 7.82091C33.333 2.92091 27.303 0.280906 20.273 0.020906C14.213 -0.209094 8.68305 1.46091 3.70305 4.92091C2.46305 5.79091 1.31305 6.76091 0.243048 7.83091C0.00304845 8.07091 -0.0569515 8.33091 0.0530485 8.63091C0.143048 8.88091 0.363048 9.02091 0.633048 9.05091C0.923048 9.08091 1.11305 8.91091 1.31305 8.72091C6.33305 3.87091 12.353 1.47091 19.313 1.41091C19.793 1.41091 20.263 1.39091 20.743 1.41091C24.623 1.61091 28.403 2.70091 31.803 4.59091C33.853 5.72091 35.733 7.14091 37.393 8.80091C37.753 9.16091 38.183 9.19091 38.473 8.88091C38.773 8.58091 38.733 8.16091 38.373 7.81091" fill="#BF7344"/>
</svg>
