<svg width="31" height="32" viewBox="0 0 31 32" fill="none" xmlns="http://www.w3.org/2000/svg">
<path d="M9.23 29.81H11C11.35 29.81 11.65 29.52 11.65 29.16V18.03C11.65 17.12 10.9 16.37 9.99 16.37H7.74C6.83 16.37 6.08 17.12 6.08 18.03V21.37C6.08 22.28 6.83 23.03 7.74 23.03C8.21 23.03 8.59 23.41 8.59 23.88V29.16C8.59 29.51 8.87 29.8 9.23 29.8V29.81ZM8.86 10.05C7.76 10.05 6.88 10.94 6.88 12.03C6.88 13.12 7.77 14.01 8.86 14.01C9.95 14.01 10.84 13.12 10.84 12.03C10.84 10.94 9.95 10.05 8.86 10.05ZM19.59 29.81H21.36C21.71 29.81 22 29.53 22 29.17V23.89C22 23.42 22.38 23.04 22.85 23.04C23.76 23.04 24.51 22.29 24.51 21.38V18.04C24.51 17.13 23.76 16.38 22.85 16.38H20.6C19.69 16.38 18.94 17.13 18.94 18.04V29.17C18.94 29.52 19.23 29.82 19.59 29.82V29.81ZM5.17 12.04C5.17 9.99996 6.82 8.34996 8.86 8.34996C10.9 8.34996 12.55 9.99996 12.55 12.04C12.55 13.19 12.03 14.22 11.19 14.9C12.47 15.39 13.35 16.63 13.35 18.04V29.17C13.35 29.39 13.32 29.61 13.26 29.82H17.33C17.27 29.61 17.24 29.4 17.24 29.17V18.04C17.24 16.63 18.12 15.39 19.4 14.9C18.56 14.22 18.04 13.18 18.04 12.04C18.04 9.99996 19.69 8.34996 21.73 8.34996C23.77 8.34996 25.42 9.99996 25.42 12.04C25.42 13.19 24.9 14.22 24.06 14.9C25.34 15.39 26.22 16.63 26.22 18.04V21.38C26.22 22.92 25.16 24.25 23.71 24.64V29.17C23.71 29.39 23.68 29.6 23.62 29.81H28.89V3.48996H22.69C21.57 3.48996 21.57 1.78996 22.69 1.78996H29.74C30.21 1.78996 30.59 2.16996 30.59 2.63996V30.67C30.59 31.14 30.21 31.52 29.74 31.52H0.85C0.38 31.52 0 31.14 0 30.67V2.62996C0 2.15996 0.38 1.77996 0.85 1.77996H7.91C9.03 1.77996 9.03 3.47996 7.91 3.47996H1.7V29.81H6.97C6.91 29.61 6.88 29.39 6.88 29.17V24.64C5.42 24.26 4.37 22.93 4.37 21.38V18.04C4.37 16.63 5.25 15.39 6.53 14.9C5.69 14.22 5.17 13.18 5.17 12.04ZM12.88 4.38996C11.94 4.98996 11.03 3.55996 11.97 2.95996L14.96 1.06996C15.24 0.95996 15.51 0.96996 15.77 1.13996L18.63 2.95996C19.57 3.55996 18.66 4.98996 17.72 4.38996L16.16 3.39996V9.70996C16.16 10.83 14.46 10.83 14.46 9.70996V3.39996L12.9 4.38996H12.88ZM21.73 10.05C20.63 10.05 19.75 10.94 19.75 12.03C19.75 13.12 20.64 14.01 21.73 14.01C22.82 14.01 23.71 13.12 23.71 12.03C23.71 10.94 22.82 10.05 21.73 10.05Z" fill="#BF7344"/>
</svg>
