<svg width="31" height="35" viewBox="0 0 31 35" fill="none" xmlns="http://www.w3.org/2000/svg">
<path d="M0.1725 30.7C-0.0175 31.04 -0.0175 31.45 0.1725 31.78C0.3625 32.1199 0.7225 32.32 1.1125 32.32C1.8725 32.32 2.1925 32.63 2.7325 33.16C3.5125 34.0799 4.6625 34.61 5.8725 34.61C7.0825 34.61 8.2225 34.0799 9.0125 33.16C9.5525 32.6199 9.8925 32.32 10.6325 32.32C11.3725 32.32 11.7125 32.63 12.2525 33.16C13.0325 34.0799 14.1825 34.61 15.3925 34.61C16.6025 34.61 17.7425 34.0799 18.5325 33.16C19.0725 32.6199 19.4125 32.32 20.1525 32.32C20.8925 32.32 21.2325 32.63 21.7725 33.16C22.5525 34.0799 23.7025 34.61 24.9125 34.61C26.1225 34.61 27.2625 34.0799 28.0525 33.16C28.5925 32.6199 28.9325 32.32 29.6725 32.32C30.0625 32.32 30.4225 32.11 30.6125 31.78C30.8025 31.44 30.8025 31.03 30.6125 30.7C30.4225 30.36 30.0625 30.16 29.6725 30.16C28.4725 30.16 27.3225 30.7 26.5325 31.61C25.9925 32.15 25.6525 32.45 24.9125 32.45C24.1725 32.45 23.8325 32.1399 23.2925 31.61C22.5125 30.69 21.3625 30.16 20.1525 30.16C18.9425 30.16 17.8025 30.69 17.0125 31.61C16.4725 32.15 16.1325 32.45 15.3925 32.45C14.6525 32.45 14.3125 32.1399 13.7625 31.61C12.9825 30.69 11.8325 30.16 10.6325 30.16C9.4325 30.16 8.2825 30.69 7.5025 31.61C6.9625 32.15 6.6225 32.45 5.8725 32.45C5.1225 32.45 4.7925 32.1399 4.2525 31.61C3.4625 30.7 2.3225 30.17 1.1125 30.16C0.7225 30.16 0.3725 30.37 0.1725 30.7ZM20.5925 17.5499H10.9625V14.67H20.5825V17.5499H20.5925ZM20.5925 12.5H10.9625V9.17995H20.5825V12.5H20.5925ZM27.4525 3.43995C27.4525 2.20995 26.7925 1.07995 25.7325 0.469951C24.6725 -0.140049 23.3625 -0.140049 22.3025 0.469951C21.2425 1.07995 20.5825 2.21995 20.5825 3.43995V7.01995H10.9625V3.43995C10.9625 3.09995 11.0925 2.77995 11.3325 2.53995C11.5725 2.29995 11.8925 2.16995 12.2325 2.16995C12.5725 2.16995 12.8925 2.29995 13.1325 2.53995C13.3725 2.77995 13.5025 3.09995 13.5025 3.43995C13.5025 3.82995 13.7125 4.17995 14.0425 4.37995C14.3725 4.56995 14.7925 4.56995 15.1225 4.37995C15.4625 4.18995 15.6625 3.82995 15.6625 3.43995C15.6625 2.20995 15.0025 1.07995 13.9425 0.469951C12.8825 -0.140049 11.5725 -0.140049 10.5125 0.469951C9.4525 1.07995 8.7925 2.21995 8.7925 3.43995V21.1C8.7925 21.49 9.0025 21.84 9.3325 22.04C9.6625 22.23 10.0825 22.23 10.4125 22.04C10.7425 21.85 10.9525 21.49 10.9525 21.1V19.7099H20.5725V21.1C20.5725 21.49 20.7825 21.84 21.1125 22.04C21.4525 22.23 21.8625 22.23 22.1925 22.04C22.5225 21.85 22.7325 21.49 22.7325 21.1V3.43995C22.7325 2.98995 22.9725 2.56995 23.3625 2.33995C23.7525 2.10995 24.2425 2.10995 24.6325 2.33995C25.0225 2.56995 25.2625 2.98995 25.2625 3.43995C25.2625 3.82995 25.4725 4.17995 25.8025 4.37995C26.1425 4.56995 26.5525 4.56995 26.8825 4.37995C27.2225 4.18995 27.4225 3.82995 27.4225 3.43995M30.5925 24.3799C30.4025 24.0499 30.0425 23.84 29.6525 23.84C28.4525 23.84 27.3025 24.38 26.5125 25.29C25.9725 25.83 25.6325 26.1299 24.8925 26.1299C24.1525 26.1299 23.8125 25.81 23.2625 25.29C22.4825 24.37 21.3325 23.84 20.1225 23.84C18.9125 23.84 17.7725 24.37 16.9825 25.29C16.4425 25.83 16.1025 26.1299 15.3525 26.1299C14.6025 26.1299 14.2725 25.81 13.7325 25.29C12.9525 24.37 11.8025 23.84 10.6025 23.84C9.4025 23.84 8.2525 24.37 7.4725 25.29C6.9225 25.81 6.5925 26.1299 5.8425 26.1299C5.0925 26.1299 4.7625 25.81 4.2225 25.29C3.4325 24.38 2.2925 23.85 1.0825 23.84C0.6925 23.84 0.3425 24.0499 0.1425 24.3799C-0.0475 24.7199 -0.0475 25.1299 0.1425 25.4599C0.3325 25.7999 0.6925 26 1.0825 26C1.8425 26 2.1625 26.3099 2.7025 26.84C3.4925 27.75 4.6325 28.28 5.8425 28.29C7.0525 28.28 8.1925 27.75 8.9825 26.84C9.5225 26.2999 9.8625 26 10.6125 26C11.3625 26 11.6925 26.3099 12.2325 26.84C13.0125 27.76 14.1625 28.29 15.3725 28.29C16.5825 28.29 17.7325 27.76 18.5125 26.84C19.0525 26.2999 19.3925 26 20.1425 26C20.8925 26 21.2225 26.3099 21.7625 26.85C22.5425 27.77 23.6925 28.2999 24.9025 28.2999C26.1125 28.2999 27.2525 27.77 28.0425 26.85C28.5825 26.3099 28.9225 26.01 29.6725 26.01C30.0625 26.01 30.4225 25.7999 30.6125 25.4699C30.8025 25.1299 30.8025 24.7199 30.6125 24.3899" fill="#BF7344"/>
</svg>
