<svg width="31" height="32" viewBox="0 0 31 32" fill="none" xmlns="http://www.w3.org/2000/svg">
<path d="M17.7069 7.55009L13.4369 10.0401C13.3069 10.1201 13.1369 10.1101 13.0169 10.0201C12.8969 9.93009 12.8369 9.77009 12.8669 9.62009C12.8869 9.52009 12.9569 9.43009 13.0469 9.37009L17.3169 6.88009C17.4969 6.78009 17.7269 6.85009 17.8269 7.03009C17.9269 7.21009 17.8769 7.44009 17.6969 7.55009M18.1769 8.38009C18.5869 8.13009 18.8269 7.69009 18.8269 7.22009C18.8269 6.75009 18.5669 6.31009 18.1569 6.07009C17.7469 5.83009 17.2369 5.83009 16.8269 6.07009L12.5569 8.56009C12.2369 8.75009 12.0069 9.06009 11.9269 9.42009C11.8469 9.78009 11.9169 10.1601 12.1169 10.4701C12.3069 10.7601 12.5969 10.9601 12.9369 11.0301C13.2669 11.1101 13.6169 11.0501 13.9169 10.8801L18.1869 8.39009L18.1769 8.38009ZM16.0869 15.1901C16.2069 15.1301 16.2869 15.0201 16.3169 14.8901C16.3469 14.7601 16.3269 14.6301 16.2669 14.5101C16.1969 14.4001 16.0869 14.3201 15.9569 14.2901C15.8269 14.2601 15.6969 14.2901 15.5869 14.3701L14.6269 14.9601C14.5069 15.0201 14.4269 15.1301 14.3869 15.2601C14.3569 15.3901 14.3769 15.5201 14.4469 15.6401C14.5169 15.7501 14.6269 15.8301 14.7569 15.8601C14.8869 15.8901 15.0169 15.8601 15.1269 15.7801L16.0869 15.1901ZM29.7669 30.5601H27.8469V23.3601H29.7669V30.5601ZM26.8869 28.1601H24.2669L21.1369 23.4701L22.9569 22.4101L25.0469 25.5501C25.1369 25.6801 25.2869 25.7601 25.4469 25.7601H26.8869V28.1601ZM23.2469 20.6301C23.1469 21.0001 22.9069 21.3201 22.5769 21.5101L20.0669 22.9701C19.7469 23.1601 19.3669 23.2201 19.0069 23.1301C18.6469 23.0401 18.3269 22.8201 18.1269 22.5101L16.7869 20.4201C16.7869 20.3201 16.7569 20.2301 16.7269 20.1301L21.6669 17.0801L23.0869 19.5301C23.2769 19.8601 23.3369 20.2501 23.2369 20.6201M16.1869 19.3301C15.9369 19.1501 15.6569 19.0201 15.3469 19.0201C14.9669 19.0201 14.5969 19.1701 14.3269 19.4401C14.0569 19.7101 13.9069 20.0801 13.9069 20.4601C13.9069 20.5401 13.9369 20.6201 13.9569 20.7001L9.55688 23.4101L3.51688 12.9301L4.62687 12.2501L6.80687 16.0601C6.93687 16.2801 7.11688 16.4701 7.33687 16.5901C7.55687 16.7201 7.80687 16.7901 8.06687 16.7901C8.29687 16.7901 8.52687 16.7301 8.73687 16.6201L13.2969 14.1901C13.3669 14.2801 13.4569 14.3601 13.5769 14.3801C13.7069 14.4101 13.8369 14.3801 13.9469 14.3001L15.6269 13.2601H18.9369C19.2069 13.2601 19.4669 13.1801 19.6969 13.0401L26.8269 8.58009L28.4069 11.2501C28.5369 11.4801 28.4669 11.7701 28.2469 11.9001L16.2169 19.3201L16.1869 19.3301ZM26.3369 7.77009L19.1969 12.2401C19.1169 12.2901 19.0269 12.3201 18.9369 12.3201H17.1869L17.3069 12.2501C17.4269 12.1901 17.5069 12.0801 17.5369 11.9501C17.5669 11.8201 17.5469 11.6901 17.4769 11.5701C17.4069 11.4601 17.2969 11.3801 17.1669 11.3501C17.0369 11.3201 16.9069 11.3501 16.7969 11.4301L15.3569 12.3201H15.1369C14.8969 12.3201 14.6669 12.3801 14.4569 12.4901L8.28687 15.7801C8.05688 15.9001 7.77688 15.8101 7.64687 15.5901L5.45687 11.7501L21.4569 1.92009C21.7369 1.75009 22.0669 1.70009 22.3769 1.78009C22.6869 1.86009 22.9569 2.06009 23.1269 2.34009L26.3369 7.77009ZM2.69688 13.4301L8.75688 23.9301L7.46687 24.7301C7.31687 24.8201 7.12687 24.8501 6.95687 24.8101C6.77688 24.7701 6.62687 24.6501 6.53687 24.5001L1.05687 15.2201C0.866875 14.9001 0.966875 14.5001 1.28688 14.3101L2.70688 13.4401L2.69688 13.4301ZM15.4669 20.9201L15.7269 20.7601C15.6569 20.8401 15.5769 20.8901 15.4669 20.9201ZM30.7369 31.0401V22.8801C30.7369 22.7501 30.6869 22.6301 30.5969 22.5401C30.5069 22.4501 30.3869 22.4001 30.2569 22.4001H27.3769C27.1169 22.4001 26.8969 22.6201 26.8969 22.8801V24.8001H25.7169L23.7069 21.7901C24.0269 21.4101 24.2169 20.9501 24.2569 20.4601C24.2969 19.9701 24.1869 19.4801 23.9369 19.0501L22.4969 16.5801L28.7369 12.7301C29.0569 12.5301 29.2869 12.2201 29.3769 11.8501C29.4669 11.4801 29.4069 11.1001 29.2269 10.7701L23.9569 1.85009C23.6569 1.35009 23.1769 0.990086 22.6069 0.850086C22.0469 0.710086 21.4469 0.800086 20.9469 1.11009L0.776875 13.4801C0.416875 13.7001 0.146875 14.0601 0.046875 14.4801C-0.053125 14.9001 0.00687501 15.3401 0.226875 15.7001L5.71687 24.9801C5.93687 25.3601 6.30687 25.6301 6.72687 25.7401C7.15687 25.8501 7.60687 25.7701 7.97687 25.5401L14.4469 21.5501C14.7069 21.7701 15.0269 21.9101 15.3769 21.9101C15.7469 21.9101 16.0969 21.7601 16.3669 21.5101L17.3369 23.0301C17.6469 23.5101 18.1069 23.8601 18.6569 24.0301C19.2069 24.2001 19.7869 24.1601 20.3069 23.9301L23.6169 28.9001C23.7069 29.0301 23.8569 29.1201 24.0169 29.1201H26.8969V31.0401C26.8969 31.1701 26.9469 31.2901 27.0369 31.3801C27.1269 31.4701 27.2469 31.5201 27.3769 31.5201H30.2569C30.3869 31.5201 30.5069 31.4701 30.5969 31.3801C30.6869 31.2901 30.7369 31.1701 30.7369 31.0401Z" fill="#BF7344"/>
</svg>
