<svg width="31" height="35" viewBox="0 0 31 35" fill="none" xmlns="http://www.w3.org/2000/svg">
<path d="M9.82999 6.49L7.58999 2.88C7.33999 2.44 6.75999 2.33 6.35999 2.59C5.92999 2.84 5.81999 3.43 6.06999 3.83L8.30999 7.44C8.48999 7.73 8.77999 7.88 9.06999 7.88C9.20999 7.88 9.38999 7.84 9.53999 7.73C9.96999 7.47 10.08 6.89 9.82999 6.49ZM16.24 5.14V0.91C16.24 0.4 15.84 0 15.34 0C14.84 0 14.43 0.4 14.43 0.91V5.18C14.43 5.65 14.83 6.06 15.34 6.06C15.85 6.06 16.24 5.66 16.24 5.15M24.57 3.84C24.82 3.4 24.72 2.86 24.28 2.6C23.85 2.34 23.3 2.45 23.05 2.89L20.81 6.5C20.56 6.9 20.7 7.49 21.1 7.74C21.25 7.85 21.43 7.89 21.57 7.89C21.86 7.89 22.15 7.74 22.33 7.45L24.57 3.84ZM28.52 19.05L18.16 22.7L16.57 19.42L26.93 15.77L28.52 19.05ZM24.68 14.64L15.34 17.92L5.99999 14.6L15.34 11.32L24.68 14.64ZM3.73999 15.72L14.1 19.37L12.51 22.65L2.14999 19L3.73999 15.72ZM4.16999 28.78V21.67L12.68 24.66C12.79 24.7 12.86 24.7 12.97 24.7C13.3 24.7 13.62 24.52 13.77 24.19L14.42 22.8V32.43L4.16999 28.78ZM16.23 22.84L16.88 24.23C17.03 24.56 17.35 24.74 17.68 24.74C17.79 24.74 17.9 24.74 17.97 24.7L26.48 21.71V28.86L16.23 32.51V22.85V22.84ZM30.57 19.16L28.22 14.24C28.11 14.02 27.93 13.87 27.71 13.77L15.61 9.5C15.43 9.43 15.21 9.43 15.03 9.5L2.97999 13.75C2.75999 13.82 2.57999 14 2.46999 14.22L0.0899883 19.15C-0.0200117 19.37 -0.0200117 19.66 0.0499883 19.88C0.159988 20.14 0.339988 20.32 0.589988 20.39L2.35999 21.01V29.47C2.35999 29.87 2.60999 30.2 2.96999 30.31L15.03 34.58C15.14 34.62 15.21 34.62 15.32 34.62C15.43 34.62 15.54 34.62 15.61 34.58L27.67 30.31C28.03 30.16 28.28 29.84 28.28 29.47V21.05L30.05 20.43C30.3 20.36 30.49 20.17 30.59 19.92C30.66 19.66 30.66 19.41 30.55 19.15" fill="#BF7344"/>
</svg>
