<svg width="44" height="28" viewBox="0 0 44 28" fill="none" xmlns="http://www.w3.org/2000/svg">
<path d="M34.8468 26.1748C33.8368 26.1748 32.8568 25.7748 32.1368 25.0548C31.4168 24.3348 31.0168 23.3648 31.0168 22.3448C31.0168 21.3248 31.4168 20.3548 32.1368 19.6448C32.8568 18.9248 33.8268 18.5248 34.8468 18.5248C35.8668 18.5248 36.8368 18.9248 37.5468 19.6448C38.2668 20.3648 38.6668 21.3348 38.6668 22.3448C38.6668 23.3648 38.2668 24.3348 37.5468 25.0448C36.8268 25.7648 35.8568 26.1648 34.8468 26.1648V26.1748ZM8.62676 26.1748C7.61676 26.1748 6.64676 25.7748 5.92676 25.0648C5.20676 24.3548 4.80676 23.3748 4.79676 22.3648C4.79676 21.3548 5.18676 20.3748 5.90676 19.6648C6.61676 18.9448 7.58676 18.5348 8.59676 18.5348C9.60676 18.5348 10.5868 18.9248 11.3068 19.6348C12.0268 20.3448 12.4368 21.3148 12.4468 22.3248C12.4468 22.3348 12.4468 22.3448 12.4468 22.3548C12.4468 22.3648 12.4468 22.3748 12.4468 22.3848C12.4368 23.3948 12.0268 24.3548 11.3168 25.0648C10.5968 25.7748 9.63676 26.1748 8.62676 26.1748ZM26.1168 11.0748V13.9748H20.3168V11.0748C20.3168 10.0348 20.8668 9.08475 21.7668 8.56475C22.6668 8.04475 23.7668 8.04475 24.6668 8.56475C25.5668 9.08475 26.1168 10.0448 26.1168 11.0748ZM42.2668 10.7948C40.2768 4.41475 38.1268 1.34475 35.0668 0.544752C32.5868 -0.115248 27.1068 0.0047524 26.8868 0.0147524C24.1668 0.0147524 22.5368 1.43475 22.5368 3.80475V6.89475C21.5468 7.05475 20.6368 7.56475 19.9768 8.32475C19.3268 9.09475 18.9568 10.0648 18.9568 11.0748V14.1648C18.9568 14.4748 19.0768 14.7648 19.2968 14.9848C19.5168 15.2048 19.8068 15.3248 20.1168 15.3248H20.9168V17.1248C20.9168 17.4948 21.2168 17.8048 21.5968 17.8048C21.9768 17.8048 22.2668 17.5048 22.2668 17.1248V15.3248H24.1368V17.1248C24.1368 17.4948 24.4368 17.8048 24.8068 17.8048C25.1768 17.8048 25.4868 17.5048 25.4868 17.1248V15.3248H26.2868C26.5968 15.3248 26.8868 15.2048 27.1068 14.9848C27.3268 14.7648 27.4468 14.4748 27.4468 14.1648V11.0748C27.4468 10.0648 27.0868 9.09475 26.4268 8.32475C25.7768 7.55475 24.8668 7.05475 23.8668 6.89475V3.80475C23.8668 1.79475 25.4968 1.36475 26.8768 1.36475C26.9368 1.36475 32.3968 1.24475 34.6968 1.84475C37.2168 2.50475 39.1468 5.39475 40.9568 11.1948C41.8468 14.2648 42.0768 17.4948 41.6268 20.6548C41.5868 20.9348 41.4468 21.1948 41.2268 21.3848C41.0068 21.5748 40.7368 21.6748 40.4468 21.6748H39.9568C39.7368 20.0048 38.7168 18.5348 37.2168 17.7548C35.7168 16.9748 33.9368 16.9748 32.4368 17.7548C30.9368 18.5348 29.9168 19.9948 29.6968 21.6748H13.7568C13.5368 19.9948 12.5168 18.5348 11.0168 17.7548C9.51676 16.9748 7.73676 16.9748 6.23676 17.7548C4.73676 18.5348 3.71676 19.9948 3.49676 21.6748H2.64676C2.35676 21.6748 2.06676 21.5648 1.85676 21.3748C1.63676 21.1748 1.49676 20.9048 1.46676 20.6148C1.16676 18.8448 1.28676 17.0248 1.82676 15.3148C2.65676 13.4948 6.19676 11.2448 7.48676 10.5348C7.52676 10.5148 7.56676 10.4848 7.59676 10.4548C7.68676 10.3848 16.3268 3.03475 20.2968 2.03475C20.7168 1.92475 21.2068 1.83475 21.7268 1.74475C21.9068 1.72475 22.0668 1.62475 22.1768 1.47475C22.2868 1.32475 22.3268 1.14475 22.3068 0.964752C22.2768 0.784752 22.1768 0.624752 22.0268 0.514752C21.8768 0.404752 21.6968 0.364752 21.5168 0.404752C20.9468 0.494752 20.4268 0.594752 19.9668 0.714752C15.8268 1.77475 7.58676 8.70475 6.78676 9.38475C6.18676 9.71475 1.73676 12.2748 0.606756 14.7648C-0.133244 16.3948 -0.0632443 18.9248 0.126756 20.7648C0.186756 21.3848 0.486756 21.9648 0.946756 22.3848C1.41676 22.8048 2.01676 23.0348 2.64676 23.0348H3.49676C3.71676 24.7148 4.73676 26.1748 6.23676 26.9548C7.73676 27.7348 9.51676 27.7348 11.0168 26.9548C12.5168 26.1748 13.5368 24.7148 13.7568 23.0348H29.7268C29.9468 24.7048 30.9668 26.1748 32.4668 26.9548C33.9668 27.7348 35.7468 27.7348 37.2468 26.9548C38.7468 26.1748 39.7668 24.7148 39.9868 23.0348H40.4768C41.0868 23.0348 41.6768 22.8148 42.1468 22.4148C42.6068 22.0148 42.9068 21.4548 42.9968 20.8548C43.4768 17.4948 43.2368 14.0648 42.2868 10.8048L42.2668 10.7948Z" fill="#BF7344"/>
</svg>
