<svg width="31" height="38" viewBox="0 0 31 38" fill="none" xmlns="http://www.w3.org/2000/svg">
<path d="M15.49 12.83C14.95 12.83 14.51 13.27 14.51 13.81V15.31L11.95 14.15C11.46 13.93 10.88 14.15 10.65 14.64C10.43 15.13 10.65 15.71 11.14 15.94L14.51 17.46V27.73C13.82 27.99 13.09 28.13 12.34 28.13C8.92 28.13 6.14 25.35 6.14 21.93C6.14 20.19 6.88 18.52 8.18 17.35C8.53 17.03 8.6 16.5 8.35 16.1C7.9 15.39 7.66 14.58 7.66 13.75C7.66 11.78 8.99 10.05 10.88 9.53001C11.16 9.46001 11.39 9.26001 11.51 9.00001C11.63 8.74001 11.63 8.44001 11.51 8.18001C11.24 7.60001 11.11 6.99001 11.11 6.36001C11.11 3.95001 13.07 1.98001 15.49 1.98001C17.91 1.98001 19.87 3.94001 19.87 6.36001C19.87 6.52001 19.86 6.70001 19.83 6.91001C19.77 7.39001 20.07 7.84001 20.53 7.97001C22.11 8.42001 23.21 9.88001 23.21 11.51C23.21 12.45 22.85 13.34 22.21 14.03C22 14.25 21.91 14.55 21.96 14.85C22 15.15 22.18 15.41 22.44 15.56C24.42 16.68 25.65 18.79 25.65 21.05C25.65 24.53 22.82 27.36 19.34 27.36C18.5 27.36 17.68 27.2 16.91 26.87C16.77 26.81 16.63 26.79 16.49 26.8V23.44L21.25 21.39C21.75 21.18 21.98 20.6 21.76 20.1C21.55 19.6 20.97 19.37 20.47 19.59L16.48 21.31V13.83C16.48 13.29 16.04 12.85 15.5 12.85L15.49 12.83ZM30 35.26H16.47V28.95C16.53 28.92 16.58 28.89 16.64 28.85C17.5 29.15 18.41 29.3 19.33 29.3C23.89 29.3 27.6 25.59 27.6 21.03C27.6 18.43 26.37 16 24.33 14.45C24.87 13.57 25.17 12.55 25.17 11.5C25.17 9.26001 23.83 7.25001 21.83 6.35001C21.83 2.86001 18.99 0.0100098 15.49 0.0100098C11.99 0.0100098 9.15 2.85001 9.15 6.35001C9.15 6.91001 9.22 7.46001 9.37 8.00001C7.16 9.02001 5.69 11.26 5.69 13.75C5.69 14.69 5.9 15.61 6.3 16.46C4.94 17.96 4.17 19.91 4.17 21.94C4.17 26.44 7.83 30.1 12.33 30.1C13.07 30.1 13.8 30 14.5 29.8V35.28H0.98C0.44 35.26 0 35.7 0 36.24C0 36.78 0.44 37.22 0.98 37.22H29.99C30.53 37.22 30.97 36.78 30.97 36.24C30.97 35.7 30.53 35.26 29.99 35.26H30Z" fill="#BF7344"/>
</svg>
