<svg width="34" height="34" viewBox="0 0 34 34" fill="none" xmlns="http://www.w3.org/2000/svg">
<path d="M6.34038 30.13H26.9504V31.72H6.34038V30.13ZM25.0904 25.38H30.3404L31.4004 28.55H25.9704L25.0904 25.38ZM17.4404 25.38H23.4504L24.3304 28.55H17.4404V25.38ZM9.85038 25.38H15.8504V28.55H8.97038L9.85038 25.38ZM2.95038 25.38H8.20038L7.32038 28.55H1.89038L2.95038 25.38ZM23.7604 20.62H28.7504L29.8104 23.79H24.6404L23.7604 20.62ZM17.4304 20.62H22.1104L22.9904 23.79H17.4304V20.62ZM11.1604 20.62H15.8404V23.79H10.2804L11.1604 20.62ZM4.52038 20.62H9.51038L8.63038 23.79H3.48038L4.54038 20.62H4.52038ZM22.4304 15.87H27.1604L28.2204 19.04H23.3204L22.4404 15.87H22.4304ZM17.4204 15.87H20.7804L21.6604 19.04H17.4204V15.87ZM12.4804 15.87H15.8404V19.04H11.6004L12.4804 15.87ZM6.11038 15.87H10.8404L9.96038 19.04H5.06038L6.11038 15.87ZM5.54038 14.28C5.20038 14.28 4.90038 14.5 4.79038 14.82L0.0403783 29.09C-0.0396217 29.33 0.000378311 29.6 0.150378 29.8C0.300378 30.01 0.540378 30.13 0.790378 30.13H4.75038V32.51C4.75038 32.72 4.83038 32.92 4.98038 33.07C5.13038 33.22 5.33038 33.3 5.54038 33.3H27.7404C28.1804 33.3 28.5304 32.95 28.5304 32.51V30.13H32.4904C32.7404 30.13 32.9804 30.01 33.1304 29.8C33.2804 29.59 33.3204 29.33 33.2404 29.09L28.4804 14.82C28.3704 14.5 28.0704 14.28 27.7304 14.28H5.54038Z" fill="#BF7344"/>
<path d="M16.6404 6.35C13.1804 6.35 10.0404 8.41 8.66038 11.58C8.57038 11.77 8.57038 11.99 8.65038 12.19C8.73038 12.39 8.88038 12.54 9.07038 12.63C9.26038 12.71 9.48038 12.72 9.68038 12.64C9.88038 12.56 10.0304 12.41 10.1204 12.22C11.2504 9.62 13.8104 7.94 16.6504 7.94C19.4904 7.94 22.0504 9.62 23.1804 12.22C23.2604 12.41 23.4204 12.57 23.6204 12.64C23.8204 12.72 24.0404 12.71 24.2304 12.63C24.4204 12.55 24.5704 12.39 24.6504 12.19C24.7304 11.99 24.7204 11.78 24.6404 11.58C23.2604 8.41 20.1204 6.35 16.6504 6.35H16.6404Z" fill="#BF7344"/>
<path d="M16.6304 0C16.4204 0 16.2204 0.09 16.0704 0.24C15.9204 0.39 15.8404 0.59 15.8504 0.8V3.98C15.8504 4.42 16.2004 4.77 16.6404 4.77C17.0804 4.77 17.4304 4.41 17.4304 3.98V0.8C17.4304 0.59 17.3504 0.38 17.2004 0.23C17.0504 0.08 16.8404 0 16.6304 0Z" fill="#BF7344"/>
<path d="M23.7904 1.91C23.5004 1.91 23.2304 2.06 23.0904 2.32L21.5004 5.06C21.3904 5.24 21.3504 5.46 21.4104 5.67C21.4604 5.88 21.6004 6.06 21.7804 6.16C21.9604 6.27 22.1904 6.29 22.3904 6.24C22.6004 6.18 22.7704 6.04 22.8704 5.85L24.4604 3.11C24.6104 2.87 24.6104 2.56 24.4704 2.32C24.3304 2.07 24.0704 1.92 23.7904 1.91Z" fill="#BF7344"/>
<path d="M29.0304 7.14C28.8804 7.14 28.7304 7.17 28.6004 7.25L25.8604 8.84C25.6704 8.94 25.5304 9.12 25.4704 9.32C25.4104 9.53 25.4404 9.75 25.5504 9.93C25.6604 10.12 25.8304 10.25 26.0404 10.3C26.2504 10.35 26.4704 10.32 26.6504 10.21L29.3904 8.63C29.7004 8.46 29.8604 8.1 29.7704 7.75C29.6904 7.4 29.3804 7.16 29.0304 7.14Z" fill="#BF7344"/>
<path d="M9.47038 1.91C9.19038 1.92 8.94038 2.08 8.80038 2.33C8.67038 2.58 8.67038 2.87 8.82038 3.11L10.4104 5.85C10.5104 6.04 10.6804 6.18 10.8904 6.24C11.1004 6.3 11.3204 6.27 11.5004 6.16C11.6904 6.05 11.8204 5.88 11.8704 5.67C11.9204 5.46 11.8904 5.24 11.7704 5.06L10.1804 2.32C10.0304 2.06 9.75038 1.9 9.46038 1.91H9.47038Z" fill="#BF7344"/>
<path d="M4.23038 7.14C3.88038 7.16 3.59038 7.41 3.51038 7.76C3.43038 8.1 3.59038 8.46 3.90038 8.63L6.64038 10.22C6.82038 10.33 7.04038 10.37 7.25038 10.31C7.46038 10.26 7.64038 10.12 7.74038 9.94C7.85038 9.76 7.88038 9.53 7.82038 9.33C7.76038 9.12 7.62038 8.95 7.43038 8.85L4.69038 7.26C4.55038 7.18 4.39038 7.14 4.23038 7.15V7.14Z" fill="#BF7344"/>
</svg>
