<svg width="49" height="39" viewBox="0 0 49 39" fill="none" xmlns="http://www.w3.org/2000/svg">
<path d="M21.06 12.1601C20.53 12.5301 20.08 13.0001 19.73 13.5401C19.59 13.8001 19.67 14.1301 19.92 14.3001C20.17 14.4601 20.51 14.4101 20.69 14.1701C20.96 13.7501 21.31 13.3901 21.72 13.1001C21.98 12.9201 22.04 12.5501 21.86 12.2901C21.68 12.0301 21.31 11.9701 21.05 12.1501L21.06 12.1601Z" fill="#BF7344"/>
<path d="M21.06 12.1601C20.53 12.5301 20.08 13.0001 19.73 13.5401C19.59 13.8001 19.67 14.1301 19.92 14.3001C20.17 14.4601 20.51 14.4101 20.69 14.1701C20.96 13.7501 21.31 13.3901 21.72 13.1001C21.98 12.9201 22.04 12.5501 21.86 12.2901C21.68 12.0301 21.31 11.9701 21.05 12.1501L21.06 12.1601Z" stroke="#BF7344" stroke-width="0.44" stroke-miterlimit="10"/>
<path d="M26.59 14.97V15.3H18.72V14.97C18.74 13.58 19.5 12.3 20.7 11.61C21.91 10.92 23.39 10.92 24.6 11.61C25.81 12.3 26.56 13.57 26.59 14.97ZM22.76 16.91C22.44 16.91 22.14 16.73 21.96 16.46H23.56C23.39 16.73 23.09 16.9 22.76 16.91ZM10.6 36.94H6.37V10.44C6.37 5.87 9.89 2.16 14.22 2.16C18.55 2.16 21.8 5.6 22.06 9.92C20.82 10.07 19.68 10.66 18.85 11.59C18.02 12.52 17.56 13.72 17.56 14.97V15.87C17.56 16.19 17.82 16.45 18.14 16.45H20.71C20.96 17.37 21.79 18.06 22.76 18.06C23.73 18.06 24.55 17.38 24.81 16.45H27.17C27.49 16.45 27.75 16.19 27.75 15.87V14.97C27.75 13.72 27.29 12.51 26.45 11.58C25.62 10.65 24.47 10.05 23.22 9.91C22.96 4.95 19.03 1 14.23 1C9.43 1 5.24 5.21 5.22 10.39V36.93H1.58C1.26 36.93 1 37.19 1 37.51C1 37.83 1.26 38.09 1.58 38.09H10.6C10.92 38.09 11.18 37.83 11.18 37.51C11.18 37.19 10.92 36.93 10.6 36.93V36.94Z" fill="#BF7344"/>
<path d="M26.59 14.97V15.3H18.72V14.97C18.74 13.58 19.5 12.3 20.7 11.61C21.91 10.92 23.39 10.92 24.6 11.61C25.81 12.3 26.56 13.57 26.59 14.97V14.97ZM22.76 16.91C22.44 16.91 22.14 16.73 21.96 16.46H23.56C23.39 16.73 23.09 16.9 22.76 16.91ZM10.6 36.94H6.37V10.44C6.37 5.87 9.89 2.16 14.22 2.16C18.55 2.16 21.8 5.6 22.06 9.92C20.82 10.07 19.68 10.66 18.85 11.59C18.02 12.52 17.56 13.72 17.56 14.97V15.87C17.56 16.19 17.82 16.45 18.14 16.45H20.71C20.96 17.37 21.79 18.06 22.76 18.06C23.73 18.06 24.55 17.38 24.81 16.45H27.17C27.49 16.45 27.75 16.19 27.75 15.87V14.97C27.75 13.72 27.29 12.51 26.45 11.58C25.62 10.65 24.47 10.05 23.22 9.91C22.96 4.95 19.03 1 14.23 1C9.43 1 5.24 5.21 5.22 10.39V36.93H1.58C1.26 36.93 1 37.19 1 37.51C1 37.83 1.26 38.09 1.58 38.09H10.6C10.92 38.09 11.18 37.83 11.18 37.51C11.18 37.19 10.92 36.93 10.6 36.93V36.94Z" stroke="#BF7344" stroke-width="0.44" stroke-miterlimit="10"/>
<path d="M47.21 36.93H43.89V30.78C43.91 30.2 44.23 29.67 44.74 29.39C45.25 29.11 45.86 29.11 46.37 29.39C46.88 29.67 47.2 30.2 47.22 30.78V36.93H47.21ZM18.88 35.58V32.15H42.73V35.58H18.88ZM17.72 36.92H14.4V30.77C14.42 30.19 14.74 29.66 15.25 29.38C15.76 29.1 16.37 29.1 16.88 29.38C17.39 29.66 17.71 30.19 17.73 30.77V36.92H17.72ZM18.24 22.92H28.87C29.21 22.92 29.54 23.04 29.78 23.28C30.02 23.51 30.16 23.84 30.17 24.18V31H18.88V30.78C18.88 30.19 18.69 29.62 18.34 29.15C17.99 28.68 17.51 28.33 16.95 28.15V24.19C16.95 23.85 17.09 23.53 17.34 23.29C17.58 23.05 17.91 22.92 18.25 22.93L18.24 22.92ZM31.7 23.29C31.94 23.05 32.27 22.91 32.61 22.92H43.18C43.52 22.92 43.84 23.04 44.09 23.28C44.33 23.52 44.47 23.84 44.48 24.18V28.21C43.97 28.41 43.52 28.77 43.21 29.22C42.9 29.68 42.73 30.22 42.73 30.77V31H31.33V24.24C31.33 23.89 31.46 23.55 31.71 23.3L31.7 23.29ZM45.63 28V24.18C45.63 23.54 45.36 22.92 44.9 22.47C44.44 22.02 43.82 21.77 43.18 21.77H32.61C31.96 21.77 31.34 22.02 30.88 22.49C30.83 22.54 30.78 22.59 30.74 22.64C30.27 22.09 29.59 21.77 28.86 21.77H18.23C17.59 21.77 16.97 22.02 16.51 22.47C16.05 22.92 15.79 23.54 15.78 24.18V28.01C15.09 28.07 14.44 28.39 13.97 28.9C13.5 29.41 13.23 30.08 13.23 30.77V37.5C13.23 37.82 13.49 38.08 13.81 38.08H18.29C18.61 38.08 18.87 37.82 18.87 37.5V36.73H42.72V37.5C42.72 37.82 42.98 38.08 43.3 38.08H47.78C48.1 38.08 48.36 37.82 48.36 37.5V30.77C48.36 30.04 48.07 29.35 47.56 28.83C47.05 28.31 46.36 28.01 45.64 28H45.63Z" fill="#BF7344"/>
<path d="M47.21 36.93H43.89V30.78C43.91 30.2 44.23 29.67 44.74 29.39C45.25 29.11 45.86 29.11 46.37 29.39C46.88 29.67 47.2 30.2 47.22 30.78V36.93H47.21ZM18.88 35.58V32.15H42.73V35.58H18.88ZM17.72 36.92H14.4V30.77C14.42 30.19 14.74 29.66 15.25 29.38C15.76 29.1 16.37 29.1 16.88 29.38C17.39 29.66 17.71 30.19 17.73 30.77V36.92H17.72ZM18.24 22.92H28.87C29.21 22.92 29.54 23.04 29.78 23.28C30.02 23.51 30.16 23.84 30.17 24.18V31H18.88V30.78C18.88 30.19 18.69 29.62 18.34 29.15C17.99 28.68 17.51 28.33 16.95 28.15V24.19C16.95 23.85 17.09 23.53 17.34 23.29C17.58 23.05 17.91 22.92 18.25 22.93L18.24 22.92ZM31.7 23.29C31.94 23.05 32.27 22.91 32.61 22.92H43.18C43.52 22.92 43.84 23.04 44.09 23.28C44.33 23.52 44.47 23.84 44.48 24.18V28.21C43.97 28.41 43.52 28.77 43.21 29.22C42.9 29.68 42.73 30.22 42.73 30.77V31H31.33V24.24C31.33 23.89 31.46 23.55 31.71 23.3L31.7 23.29ZM45.63 28V24.18C45.63 23.54 45.36 22.92 44.9 22.47C44.44 22.02 43.82 21.77 43.18 21.77H32.61C31.96 21.77 31.34 22.02 30.88 22.49C30.83 22.54 30.78 22.59 30.74 22.64C30.27 22.09 29.59 21.77 28.86 21.77H18.23C17.59 21.77 16.97 22.02 16.51 22.47C16.05 22.92 15.79 23.54 15.78 24.18V28.01C15.09 28.07 14.44 28.39 13.97 28.9C13.5 29.41 13.23 30.08 13.23 30.77V37.5C13.23 37.82 13.49 38.08 13.81 38.08H18.29C18.61 38.08 18.87 37.82 18.87 37.5V36.73H42.72V37.5C42.72 37.82 42.98 38.08 43.3 38.08H47.78C48.1 38.08 48.36 37.82 48.36 37.5V30.77C48.36 30.04 48.07 29.35 47.56 28.83C47.05 28.31 46.36 28.01 45.64 28H45.63Z" stroke="#BF7344" stroke-width="0.44" stroke-miterlimit="10"/>
</svg>
