<svg width="36" height="36" viewBox="0 0 36 36" fill="none" xmlns="http://www.w3.org/2000/svg">
<path d="M25.85 26.8885C25.85 27.2285 26.07 27.4485 26.41 27.4485H26.97C27.3 27.4485 27.53 27.2285 27.53 26.8885C27.53 26.5485 27.31 26.3285 26.97 26.3285H26.41C26.07 26.3285 25.85 26.5485 25.85 26.8885ZM21.94 26.8885C21.94 27.2285 22.16 27.4485 22.5 27.4485H23.06C23.39 27.4485 23.62 27.2285 23.62 26.8885C23.62 26.5585 23.4 26.3285 23.06 26.3285H22.5C22.17 26.3285 21.94 26.5485 21.94 26.8885ZM34.59 22.5385H31.8V13.8385H34.59V22.5385ZM34.59 23.6585V27.3385C34.59 28.8985 33.36 30.1285 31.8 30.1285V23.6585H34.59ZM11.9 13.8385H30.31V16.0685H11.9V13.8385ZM11.9 22.5385V20.3085H30.31V22.5385H11.9ZM30.68 11.3285V12.7185H11.34C11 12.7185 10.78 12.9385 10.78 13.2785V16.6285C10.78 16.9085 11.06 17.1885 11.34 17.1885H30.68V19.1985H11.34C11 19.1985 10.78 19.4185 10.78 19.7585V23.1085C10.78 23.3885 11.06 23.6685 11.34 23.6685H30.68V26.3485H30.3C29.97 26.3485 29.74 26.5685 29.74 26.9085C29.74 27.2485 29.96 27.4685 30.3 27.4685H30.68V30.1485H9.99C9.71 27.8085 7.87 25.9685 5.58 25.7385V11.3285C5.58 10.7185 6.08 10.2085 6.69 10.2085H29.57C30.18 10.2085 30.69 10.7085 30.69 11.3285M12.61 9.09846H10.38V1.89846L12.61 4.12846V9.09846ZM8.93 30.6885C8.93 32.8685 7.2 34.5985 5.02 34.5985C2.84 34.5985 1.11 32.8685 1.11 30.6885C1.11 28.5085 2.84 26.7885 5.02 26.7885C7.2 26.7885 8.93 28.5185 8.93 30.6885ZM4.47 25.7185C3.41 25.8285 2.46 26.2785 1.68 26.9485V23.6585H4.47V25.7185ZM4.47 22.5385H1.67V13.8385H4.46V22.5385H4.47ZM35.71 27.3385V8.92846C35.71 8.58846 35.49 8.36846 35.15 8.36846C34.81 8.36846 34.59 8.58846 34.59 8.92846V12.7185H31.8V11.3285C31.8 10.0985 30.8 9.09846 29.57 9.09846H13.72V3.90846C13.72 3.73846 13.66 3.62846 13.55 3.51846L10.21 0.168458C10.04 -0.00154176 9.82 -0.0515418 9.6 0.0584582C9.38 0.168458 9.26 0.338458 9.26 0.558458V9.09846H6.69C5.46 9.09846 4.46 10.0985 4.46 11.3285V12.7185H1.67V8.92846C1.67 8.58846 1.45 8.36846 1.11 8.36846C0.77 8.36846 0.55 8.58846 0.55 8.92846V27.3385C0.55 27.6185 0.61 27.8985 0.66 28.1785C0.22 28.9585 0 29.7885 0 30.6885C0 33.4785 2.23 35.7085 5.02 35.7085C7.59 35.7085 9.71 33.7585 9.99 31.2485H31.8C33.97 31.2485 35.71 29.5185 35.71 27.3385Z" fill="#BF7344"/>
</svg>
